<svg width="41" height="41" viewBox="0 0 41 41" fill="none" xmlns="http://www.w3.org/2000/svg">
<g clip-path="url(#clip0_2399_19615)">
<path d="M0.488095 36.9733C0.757663 36.9733 0.97619 36.7547 0.97619 36.4852C0.97619 36.2156 0.757663 35.9971 0.488095 35.9971C0.218528 35.9971 0 36.2156 0 36.4852C0 36.7547 0.218528 36.9733 0.488095 36.9733Z" fill="#8461ED" fill-opacity="0.5"/>
<path d="M2.68453 35.9971H1.95239C1.82294 35.9971 1.69879 36.0485 1.60725 36.14C1.51572 36.2316 1.46429 36.3557 1.46429 36.4852C1.46429 36.6146 1.51572 36.7388 1.60725 36.8303C1.69879 36.9218 1.82294 36.9733 1.95239 36.9733H2.68453C2.81398 36.9733 2.93813 36.9218 3.02967 36.8303C3.1212 36.7388 3.17263 36.6146 3.17263 36.4852C3.17263 36.3557 3.1212 36.2316 3.02967 36.14C2.93813 36.0485 2.81398 35.9971 2.68453 35.9971Z" fill="#8461ED" fill-opacity="0.5"/>
<path d="M28.8352 37.9492H26.8077C26.6847 37.9587 26.5699 38.0143 26.4862 38.1048C26.4024 38.1953 26.3559 38.314 26.3559 38.4373C26.3559 38.5606 26.4024 38.6794 26.4862 38.7698C26.5699 38.8603 26.6847 38.9159 26.8077 38.9254H28.8352C28.9581 38.9159 29.0729 38.8603 29.1567 38.7698C29.2404 38.6794 29.2869 38.5606 29.2869 38.4373C29.2869 38.314 29.2404 38.1953 29.1567 38.1048C29.0729 38.0143 28.9581 37.9587 28.8352 37.9492ZM14.1923 37.9492H12.1648C12.0419 37.9587 11.9271 38.0143 11.8433 38.1048C11.7596 38.1953 11.7131 38.314 11.7131 38.4373C11.7131 38.5606 11.7596 38.6794 11.8433 38.7698C11.9271 38.8603 12.0419 38.9159 12.1648 38.9254H14.1923C14.3153 38.9159 14.4301 38.8603 14.5138 38.7698C14.5975 38.6794 14.6441 38.5606 14.6441 38.4373C14.6441 38.314 14.5975 38.1953 14.5138 38.1048C14.4301 38.0143 14.3153 37.9587 14.1923 37.9492ZM25.381 37.9492H15.619C15.4896 37.9492 15.3654 38.0006 15.2739 38.0922C15.1824 38.1837 15.131 38.3079 15.131 38.4373C15.131 38.5668 15.1824 38.6909 15.2739 38.7824C15.3654 38.874 15.4896 38.9254 15.619 38.9254H19.5092V39.4135H17.5714C17.442 39.4135 17.3178 39.4649 17.2263 39.5565C17.1348 39.648 17.0833 39.7721 17.0833 39.9016C17.0833 40.0311 17.1348 40.1552 17.2263 40.2467C17.3178 40.3383 17.442 40.3897 17.5714 40.3897H23.6726C23.8021 40.3897 23.9262 40.3383 24.0178 40.2467C24.1093 40.1552 24.1607 40.0311 24.1607 39.9016C24.1607 39.7721 24.1093 39.648 24.0178 39.5565C23.9262 39.4649 23.8021 39.4135 23.6726 39.4135H21.4908V38.9254H25.381C25.5104 38.9254 25.6346 38.874 25.7261 38.7824C25.8176 38.6909 25.869 38.5668 25.869 38.4373C25.869 38.3079 25.8176 38.1837 25.7261 38.0922C25.6346 38.0006 25.5104 37.9492 25.381 37.9492Z" fill="#8461ED"/>
<path d="M14.3988 12.639V11.348C14.399 11.2617 14.3763 11.177 14.333 11.1024C14.2897 11.0278 14.2273 10.966 14.1523 10.9234L10.7356 8.97098C10.6613 8.92898 10.5773 8.90716 10.4919 8.9077C10.4065 8.90824 10.3228 8.93112 10.249 8.97406C10.1752 9.017 10.114 9.0785 10.0713 9.15246C10.0287 9.22642 10.0061 9.31025 10.0059 9.39563V14.6353L8.05355 13.0661V9.08081C8.44679 8.96356 8.78469 8.70869 9.00546 8.3628C9.22624 8.01691 9.31513 7.6031 9.25589 7.19705C9.19665 6.79101 8.99323 6.41985 8.68283 6.15145C8.37244 5.88305 7.9758 5.73535 7.56545 5.73535C7.15511 5.73535 6.75847 5.88305 6.44807 6.15145C6.13768 6.41985 5.93426 6.79101 5.87502 7.19705C5.81578 7.6031 5.90467 8.01691 6.12544 8.3628C6.34622 8.70869 6.68412 8.96356 7.07736 9.08081V13.3004C7.07753 13.3735 7.09405 13.4456 7.12572 13.5115C7.1574 13.5774 7.20341 13.6353 7.26039 13.6811L9.94492 15.836C9.96367 15.8521 9.98413 15.866 10.0059 15.8775V21.1099C10.0057 21.2263 10.0472 21.3389 10.1231 21.4272L11.4702 22.9988V27.0378C11.077 27.1551 10.7391 27.4099 10.5183 27.7558C10.2975 28.1017 10.2086 28.5155 10.2679 28.9216C10.3271 29.3276 10.5305 29.6988 10.8409 29.9672C11.1513 30.2356 11.548 30.3833 11.9583 30.3833C12.3687 30.3833 12.7653 30.2356 13.0757 29.9672C13.3861 29.6988 13.5895 29.3276 13.6487 28.9216C13.708 28.5155 13.6191 28.1017 13.3983 27.7558C13.1775 27.4099 12.8396 27.1551 12.4464 27.0378V22.8182C12.4467 22.7019 12.4051 22.5893 12.3293 22.501L10.9821 20.9293V10.2376L13.4226 11.6311V12.639C13.0294 12.7563 12.6915 13.0111 12.4707 13.357C12.2499 13.7029 12.161 14.1167 12.2203 14.5228C12.2795 14.9288 12.4829 15.3 12.7933 15.5684C13.1037 15.8368 13.5003 15.9845 13.9107 15.9845C14.321 15.9845 14.7177 15.8368 15.0281 15.5684C15.3385 15.3 15.5419 14.9288 15.6011 14.5228C15.6604 14.1167 15.5715 13.7029 15.3507 13.357C15.1299 13.0111 14.792 12.7563 14.3988 12.639ZM6.83331 7.44325C6.83331 7.29844 6.87625 7.15689 6.9567 7.03649C7.03715 6.91609 7.15149 6.82225 7.28528 6.76683C7.41906 6.71142 7.56627 6.69692 7.70829 6.72517C7.85031 6.75342 7.98076 6.82315 8.08316 6.92554C8.18555 7.02794 8.25528 7.15839 8.28353 7.30041C8.31178 7.44243 8.29728 7.58964 8.24187 7.72343C8.18645 7.85721 8.09261 7.97155 7.97221 8.052C7.85181 8.13245 7.71026 8.17539 7.56545 8.17539C7.46927 8.17552 7.37401 8.15667 7.28512 8.11992C7.19624 8.08317 7.11548 8.02925 7.04746 7.96124C6.97945 7.89322 6.92553 7.81246 6.88878 7.72358C6.85203 7.63469 6.83318 7.53943 6.83331 7.44325ZM12.6905 28.6754C12.6905 28.8202 12.6475 28.9617 12.5671 29.0821C12.4866 29.2025 12.3723 29.2964 12.2385 29.3518C12.1047 29.4072 11.9575 29.4217 11.8155 29.3935C11.6735 29.3652 11.543 29.2955 11.4406 29.1931C11.3382 29.0907 11.2685 28.9602 11.2402 28.8182C11.212 28.6762 11.2265 28.529 11.2819 28.3952C11.3373 28.2614 11.4312 28.1471 11.5516 28.0666C11.672 27.9862 11.8135 27.9432 11.9583 27.9432C12.0545 27.9431 12.1498 27.962 12.2386 27.9987C12.3275 28.0355 12.4083 28.0894 12.4763 28.1574C12.5443 28.2254 12.5982 28.3062 12.635 28.3951C12.6717 28.4839 12.6906 28.5792 12.6905 28.6754ZM13.9107 15.0087C13.7659 15.0087 13.6243 14.9658 13.5039 14.8853C13.3835 14.8049 13.2897 14.6905 13.2343 14.5568C13.1789 14.423 13.1644 14.2758 13.1926 14.1337C13.2209 13.9917 13.2906 13.8613 13.393 13.7589C13.4954 13.6565 13.6258 13.5868 13.7679 13.5585C13.9099 13.5303 14.0571 13.5448 14.1909 13.6002C14.3247 13.6556 14.439 13.7494 14.5194 13.8698C14.5999 13.9902 14.6428 14.1318 14.6428 14.2766C14.643 14.3728 14.6241 14.468 14.5874 14.5569C14.5506 14.6458 14.4967 14.7266 14.4287 14.7946C14.3607 14.8626 14.2799 14.9165 14.191 14.9533C14.1021 14.99 14.0069 15.0089 13.9107 15.0087Z" fill="#8461ED" fill-opacity="0.5"/>
<path d="M18.8917 12.9567L17.0833 11.1459V7.44366C17.0833 7.31421 17.0319 7.19006 16.9404 7.09853C16.8488 7.00699 16.7247 6.95557 16.5952 6.95557C16.4658 6.95557 16.3416 7.00699 16.2501 7.09853C16.1586 7.19006 16.1071 7.31421 16.1071 7.44366V11.3484C16.107 11.4125 16.1196 11.4759 16.1443 11.535C16.1691 11.5941 16.2054 11.6477 16.2511 11.6925L18.0595 13.5034V20.6637L14.3988 24.3244V20.7955C14.7921 20.6783 15.13 20.4234 15.3507 20.0775C15.5715 19.7316 15.6604 19.3178 15.6012 18.9118C15.5419 18.5057 15.3385 18.1346 15.0281 17.8662C14.7177 17.5978 14.3211 17.4501 13.9107 17.4501C13.5004 17.4501 13.1037 17.5978 12.7933 17.8662C12.4829 18.1346 12.2795 18.5057 12.2203 18.9118C12.161 19.3178 12.2499 19.7316 12.4707 20.0775C12.6915 20.4234 13.0294 20.6783 13.4226 20.7955V25.5032C13.4227 25.5996 13.4513 25.6939 13.5047 25.7742C13.5581 25.8545 13.6339 25.9173 13.7228 25.9547C13.7825 25.9788 13.8463 25.9912 13.9107 25.9913C13.9748 25.9916 14.0383 25.979 14.0974 25.9542C14.1565 25.9295 14.21 25.8931 14.2548 25.8473L18.8917 21.2104C18.9375 21.1655 18.9738 21.112 18.9985 21.0529C19.0233 20.9938 19.0359 20.9303 19.0357 20.8663V13.3008C19.0359 13.2367 19.0233 13.1733 18.9985 13.1142C18.9738 13.0551 18.9375 13.0015 18.8917 12.9567ZM13.9107 19.8901C13.7659 19.8901 13.6244 19.8471 13.504 19.7667C13.3836 19.6863 13.2897 19.5719 13.2343 19.4381C13.1789 19.3043 13.1644 19.1571 13.1926 19.0151C13.2209 18.8731 13.2906 18.7426 13.393 18.6402C13.4954 18.5379 13.6259 18.4681 13.7679 18.4399C13.9099 18.4116 14.0571 18.4261 14.1909 18.4815C14.3247 18.537 14.439 18.6308 14.5195 18.7512C14.5999 18.8716 14.6429 19.0131 14.6429 19.1579C14.643 19.2541 14.6241 19.3494 14.5874 19.4383C14.5506 19.5272 14.4967 19.6079 14.4287 19.6759C14.3607 19.7439 14.2799 19.7979 14.1911 19.8346C14.1022 19.8714 14.0069 19.8902 13.9107 19.8901ZM7.80953 23.6216V20.3074C8.20277 20.1902 8.54067 19.9353 8.76145 19.5894C8.98222 19.2435 9.07111 18.8297 9.01187 18.4237C8.95263 18.0176 8.74921 17.6465 8.43881 17.3781C8.12842 17.1097 7.73178 16.962 7.32144 16.962C6.91109 16.962 6.51445 17.1097 6.20406 17.3781C5.89366 17.6465 5.69024 18.0176 5.631 18.4237C5.57176 18.8297 5.66065 19.2435 5.88142 19.5894C6.1022 19.9353 6.4401 20.1902 6.83334 20.3074V23.6216C6.4401 23.7388 6.1022 23.9937 5.88142 24.3396C5.66065 24.6855 5.57176 25.0993 5.631 25.5053C5.69024 25.9114 5.89366 26.2825 6.20406 26.5509C6.51445 26.8193 6.91109 26.967 7.32144 26.967C7.73178 26.967 8.12842 26.8193 8.43881 26.5509C8.74921 26.2825 8.95263 25.9114 9.01187 25.5053C9.07111 25.0993 8.98222 24.6855 8.76145 24.3396C8.54067 23.9937 8.20277 23.7388 7.80953 23.6216ZM6.58929 18.6699C6.58929 18.525 6.63223 18.3835 6.71268 18.2631C6.79313 18.1427 6.90747 18.0489 7.04126 17.9934C7.17504 17.938 7.32225 17.9235 7.46427 17.9518C7.60629 17.98 7.73675 18.0498 7.83914 18.1521C7.94153 18.2545 8.01126 18.385 8.03951 18.527C8.06776 18.669 8.05326 18.8162 7.99785 18.95C7.94243 19.0838 7.84859 19.1982 7.72819 19.2786C7.60779 19.3591 7.46624 19.402 7.32144 19.402C7.22525 19.4021 7.12999 19.3833 7.0411 19.3465C6.95222 19.3098 6.87146 19.2559 6.80345 19.1878C6.73543 19.1198 6.68151 19.0391 6.64476 18.9502C6.60801 18.8613 6.58916 18.766 6.58929 18.6699ZM7.32144 25.9913C7.17663 25.9913 7.03508 25.9483 6.91468 25.8679C6.79428 25.7874 6.70044 25.6731 6.64502 25.5393C6.58961 25.4055 6.57511 25.2583 6.60336 25.1163C6.63161 24.9743 6.70134 24.8438 6.80373 24.7414C6.90612 24.639 7.03658 24.5693 7.1786 24.5411C7.32062 24.5128 7.46783 24.5273 7.60161 24.5827C7.7354 24.6381 7.84974 24.732 7.93019 24.8524C8.01064 24.9728 8.05358 25.1143 8.05358 25.2591C8.05371 25.3553 8.03486 25.4506 7.99811 25.5395C7.96136 25.6284 7.90744 25.7091 7.83942 25.7771C7.77141 25.8451 7.69065 25.8991 7.60177 25.9358C7.51288 25.9726 7.41762 25.9914 7.32144 25.9913Z" fill="#8461ED"/>
<path d="M39.0476 35.9971H38.3155C38.186 35.9971 38.0619 36.0485 37.9704 36.14C37.8788 36.2316 37.8274 36.3557 37.8274 36.4852C37.8274 36.6146 37.8788 36.7388 37.9704 36.8303C38.0619 36.9218 38.186 36.9733 38.3155 36.9733H39.0476C39.1771 36.9733 39.3012 36.9218 39.3928 36.8303C39.4843 36.7388 39.5357 36.6146 39.5357 36.4852C39.5357 36.3557 39.4843 36.2316 39.3928 36.14C39.3012 36.0485 39.1771 35.9971 39.0476 35.9971Z" fill="#8461ED" fill-opacity="0.5"/>
<path d="M40.5119 36.9733C40.7815 36.9733 41 36.7547 41 36.4852C41 36.2156 40.7815 35.9971 40.5119 35.9971C40.2423 35.9971 40.0238 36.2156 40.0238 36.4852C40.0238 36.7547 40.2423 36.9733 40.5119 36.9733Z" fill="#8461ED" fill-opacity="0.5"/>
<path d="M36.7829 35.997H31.3504C31.7013 35.5436 31.8919 34.9865 31.8922 34.4131V33.3954L32.7 32.756C32.7985 32.6786 32.8635 32.5661 32.8812 32.442C32.8989 32.3179 32.8681 32.1917 32.7951 32.0898L32.1826 31.2332L33.1563 30.8939C33.278 30.8518 33.3781 30.7632 33.4348 30.6476C33.4915 30.5319 33.5002 30.3985 33.4589 30.2765L32.9416 28.7414H34.3595C34.5253 28.7409 34.6884 28.7003 34.8351 28.6229C34.9817 28.5455 35.1074 28.4338 35.2014 28.2973C35.2977 28.1568 35.3586 27.9951 35.379 27.826C35.3994 27.6569 35.3787 27.4853 35.3186 27.326L33.2393 21.7959L33.8323 20.5C33.8615 20.4364 33.8765 20.3673 33.8763 20.2974V17.5934C33.7225 13.9034 32.2167 10.7991 29.52 8.61484C26.9887 6.61459 23.8204 5.59546 20.5976 5.74484C20.5656 5.73786 20.5328 5.73458 20.5 5.73508H18.5476C18.4183 5.73547 18.2944 5.78701 18.2029 5.87847C18.1115 5.96992 18.0599 6.09384 18.0595 6.22317V10.1279C18.0593 10.192 18.072 10.2555 18.0967 10.3146C18.1214 10.3737 18.1578 10.4272 18.2035 10.472L20.1559 12.4244C20.2007 12.4702 20.2543 12.5065 20.3134 12.5312C20.3725 12.556 20.4359 12.5686 20.5 12.5684H23.4286C23.4926 12.5686 23.5561 12.556 23.6152 12.5312C23.6743 12.5065 23.7278 12.4702 23.7727 12.4244L24.5683 11.6313C24.9289 11.826 25.3476 11.8845 25.7478 11.796C26.148 11.7075 26.503 11.4779 26.7478 11.1492C26.9927 10.8205 27.1111 10.4147 27.0814 10.0059C27.0517 9.59714 26.8758 9.21269 26.586 8.92287C26.2962 8.63305 25.9118 8.45722 25.503 8.42751C25.0942 8.39779 24.6884 8.51619 24.3597 8.76106C24.031 9.00593 23.8014 9.3609 23.7129 9.7611C23.6244 10.1613 23.6829 10.58 23.8776 10.9406L23.226 11.5922H20.7026L19.0357 9.92538V6.71127H20.4536C20.5 6.72187 20.5478 6.72517 20.5952 6.72103C24.9392 6.55752 29.4151 8.52454 31.5773 12.5684H29.9471C29.8625 12.2849 29.7058 12.0282 29.4922 11.8235C29.2787 11.6187 29.0156 11.4729 28.7288 11.4004C28.442 11.3278 28.1412 11.331 27.856 11.4096C27.5708 11.4881 27.3108 11.6394 27.1017 11.8486C26.8925 12.0578 26.7412 12.3178 26.6626 12.603C26.584 12.8882 26.5808 13.189 26.6534 13.4758C26.7259 13.7626 26.8717 14.0257 27.0765 14.2392C27.2812 14.4528 27.5379 14.6095 27.8214 14.6941V19.1577H24.1607C24.0314 19.1581 23.9075 19.2096 23.816 19.3011C23.7246 19.3925 23.673 19.5165 23.6726 19.6458V22.3303H19.7679C19.7038 22.3301 19.6403 22.3428 19.5812 22.3675C19.5221 22.3922 19.4686 22.4285 19.4238 22.4743L15.519 26.3791C15.4732 26.4239 15.4369 26.4775 15.4122 26.5366C15.3875 26.5957 15.3748 26.6591 15.375 26.7232V30.6987C14.9818 30.816 14.6439 31.0708 14.4231 31.4167C14.2023 31.7626 14.1134 32.1764 14.1727 32.5825C14.2319 32.9885 14.4353 33.3597 14.7457 33.6281C15.0561 33.8965 15.4528 34.0442 15.8631 34.0442C16.2735 34.0442 16.6701 33.8965 16.9805 33.6281C17.2909 33.3597 17.4943 32.9885 17.5535 32.5825C17.6128 32.1764 17.5239 31.7626 17.3031 31.4167C17.0823 31.0708 16.7444 30.816 16.3512 30.6987V26.9257L19.9704 23.3065H28.7976C28.8884 23.3065 28.9774 23.2811 29.0546 23.2332C29.1318 23.1854 29.1941 23.1169 29.2345 23.0356L30.6988 20.107C30.7329 20.0397 30.7504 19.9653 30.75 19.8898V18.1815H32.9001V20.1925L32.268 21.5738C32.2145 21.6924 32.2093 21.8272 32.2533 21.9496L34.4058 27.6725C34.4106 27.684 34.4125 27.6965 34.4112 27.7088C34.4099 27.7212 34.4056 27.733 34.3985 27.7433C34.3943 27.7499 34.3886 27.7554 34.3818 27.7592C34.3749 27.763 34.3673 27.7651 34.3595 27.7653H32.2631C32.1852 27.7651 32.1085 27.7837 32.0393 27.8194C31.9701 27.855 31.9104 27.9068 31.8653 27.9703C31.8208 28.0332 31.7916 28.1058 31.7801 28.1821C31.7687 28.2584 31.7753 28.3363 31.7994 28.4095L32.3802 30.1301L31.2454 30.5254C31.1735 30.5497 31.1084 30.5907 31.0554 30.645C31.0024 30.6993 30.963 30.7654 30.9404 30.8378C30.9173 30.9102 30.9114 30.9869 30.9233 31.0619C30.9351 31.1369 30.9644 31.2081 31.0087 31.2698L31.7311 32.2801L31.1014 32.7756C31.0437 32.8213 30.997 32.8796 30.9649 32.9459C30.9327 33.0123 30.916 33.085 30.916 33.1587V34.4131C30.9173 34.6893 30.847 34.9611 30.7118 35.2019C30.5766 35.4428 30.3812 35.6444 30.1448 35.7871C29.9151 35.9237 29.653 35.9961 29.3858 35.997C27.3455 35.997 19.5238 33.4296 19.5238 29.1637V28.146C19.5238 28.0165 19.4724 27.8924 19.3809 27.8008C19.2893 27.7093 19.1652 27.6579 19.0357 27.6579C18.9063 27.6579 18.7821 27.7093 18.6906 27.8008C18.5991 27.8924 18.5476 28.0165 18.5476 28.146V29.1637C18.5476 32.5315 22.2157 34.8085 25.3663 35.997H4.21715C4.14771 35.9879 4.07714 35.9938 4.01014 36.0141C3.94314 36.0345 3.88126 36.069 3.82864 36.1151C3.77601 36.1613 3.73385 36.2182 3.70496 36.282C3.67607 36.3458 3.66113 36.4151 3.66113 36.4851C3.66113 36.5551 3.67607 36.6243 3.70496 36.6881C3.73385 36.7519 3.77601 36.8088 3.82864 36.855C3.88126 36.9012 3.94314 36.9356 4.01014 36.956C4.07714 36.9764 4.14771 36.9822 4.21715 36.9732H36.7829C36.8523 36.9822 36.9229 36.9764 36.9899 36.956C37.0569 36.9356 37.1188 36.9012 37.1714 36.855C37.224 36.8088 37.2662 36.7519 37.2951 36.6881C37.3239 36.6243 37.3389 36.5551 37.3389 36.4851C37.3389 36.4151 37.3239 36.3458 37.2951 36.282C37.2662 36.2182 37.224 36.1613 37.1714 36.1151C37.1188 36.069 37.0569 36.0345 36.9899 36.0141C36.9229 35.9938 36.8523 35.9879 36.7829 35.997ZM25.381 9.39579C25.5258 9.39579 25.6673 9.43873 25.7877 9.51918C25.9081 9.59963 26.002 9.71398 26.0574 9.84776C26.1128 9.98154 26.1273 10.1287 26.099 10.2708C26.0708 10.4128 26.0011 10.5432 25.8987 10.6456C25.7963 10.748 25.6658 10.8178 25.5238 10.846C25.3818 10.8743 25.2346 10.8598 25.1008 10.8043C24.967 10.7489 24.8527 10.6551 24.7722 10.5347C24.6918 10.4143 24.6488 10.2727 24.6488 10.1279C24.6487 10.0318 24.6675 9.93649 24.7043 9.8476C24.741 9.75872 24.795 9.67796 24.863 9.60995C24.931 9.54193 25.0117 9.48801 25.1006 9.45126C25.1895 9.41451 25.2848 9.39566 25.381 9.39579ZM16.5952 32.3363C16.5952 32.4811 16.5523 32.6226 16.4719 32.743C16.3914 32.8634 16.2771 32.9573 16.1433 33.0127C16.0095 33.0681 15.8623 33.0826 15.7203 33.0543C15.5782 33.0261 15.4478 32.9564 15.3454 32.854C15.243 32.7516 15.1733 32.6211 15.145 32.4791C15.1168 32.3371 15.1313 32.1899 15.1867 32.0561C15.2421 31.9223 15.3359 31.808 15.4563 31.7275C15.5767 31.6471 15.7183 31.6041 15.8631 31.6041C15.9593 31.604 16.0546 31.6228 16.1434 31.6596C16.2323 31.6963 16.3131 31.7503 16.3811 31.8183C16.4491 31.8863 16.503 31.9671 16.5398 32.0559C16.5765 32.1448 16.5954 32.2401 16.5952 32.3363ZM27.5774 13.0565C27.5774 12.9117 27.6203 12.7702 27.7008 12.6498C27.7812 12.5294 27.8956 12.4355 28.0294 12.3801C28.1631 12.3247 28.3103 12.3102 28.4524 12.3384C28.5944 12.3667 28.7248 12.4364 28.8272 12.5388C28.9296 12.6412 28.9994 12.7717 29.0276 12.9137C29.0559 13.0557 29.0414 13.2029 28.9859 13.3367C28.9305 13.4705 28.8367 13.5848 28.7163 13.6653C28.5959 13.7457 28.4543 13.7887 28.3095 13.7887C28.2134 13.7888 28.1181 13.7699 28.0292 13.7332C27.9403 13.6964 27.8596 13.6425 27.7915 13.5745C27.7235 13.5065 27.6696 13.4257 27.6329 13.3368C27.5961 13.248 27.5773 13.1527 27.5774 13.0565ZM30.2619 17.2053C30.1326 17.2057 30.0087 17.2573 29.9172 17.3487C29.8258 17.4402 29.7742 17.5641 29.7738 17.6934V19.7751L28.495 22.3303H24.6488V20.1339H28.3095C28.439 20.1339 28.5631 20.0825 28.6547 19.9909C28.7462 19.8994 28.7976 19.7752 28.7976 19.6458V14.6941C29.0688 14.6115 29.3156 14.4635 29.516 14.263C29.7165 14.0626 29.8646 13.8158 29.9471 13.5446H32.0361C32.5087 14.7124 32.7913 15.9482 32.8732 17.2053H30.2619Z" fill="#8461ED" fill-opacity="0.5"/>
<path d="M25.1369 14.2766C24.8533 14.277 24.5741 14.3474 24.3242 14.4816L23.5286 13.6884C23.4838 13.6427 23.4302 13.6064 23.3711 13.5816C23.312 13.5569 23.2486 13.5442 23.1845 13.5444H20.5C20.3707 13.5448 20.2467 13.5964 20.1553 13.6878C20.0638 13.7793 20.0123 13.9032 20.0119 14.0325V17.9373C20.0122 18.0077 20.0277 18.0773 20.0571 18.1413C20.0866 18.2053 20.1294 18.2622 20.1827 18.3082L21.7202 19.6261V22.3301H22.6964V19.4016C22.6966 19.331 22.6814 19.2613 22.6519 19.1973C22.6224 19.1332 22.5793 19.0763 22.5256 19.0306L20.9881 17.7128V14.5206H22.982L23.6336 15.1722C23.4555 15.5013 23.3904 15.8797 23.4482 16.2493C23.506 16.619 23.6835 16.9594 23.9534 17.2184C24.2234 17.4775 24.5709 17.6407 24.9426 17.6832C25.3143 17.7256 25.6897 17.6449 26.0111 17.4534C26.3325 17.2619 26.5822 16.9703 26.7219 16.6232C26.8615 16.2761 26.8834 15.8927 26.7841 15.532C26.6848 15.1713 26.4699 14.8531 26.1724 14.6263C25.8748 14.3995 25.511 14.2767 25.1369 14.2766ZM25.1369 16.7171C24.9921 16.7171 24.8505 16.6741 24.7301 16.5937C24.6097 16.5132 24.5159 16.3989 24.4605 16.2651C24.4051 16.1313 24.3906 15.9841 24.4188 15.8421C24.4471 15.7001 24.5168 15.5696 24.6192 15.4672C24.7216 15.3648 24.852 15.2951 24.9941 15.2668C25.1361 15.2386 25.2833 15.2531 25.4171 15.3085C25.5509 15.3639 25.6652 15.4578 25.7457 15.5782C25.8261 15.6986 25.869 15.8401 25.869 15.9849C25.8692 16.0811 25.8503 16.1764 25.8136 16.2652C25.7768 16.3541 25.7229 16.4349 25.6549 16.5029C25.5869 16.5709 25.5061 16.6248 25.4172 16.6616C25.3283 16.6983 25.2331 16.7172 25.1369 16.7171Z" fill="#8461ED"/>
<path d="M13.1786 7.44369C13.3234 7.44369 13.4649 7.40075 13.5853 7.3203C13.7057 7.23985 13.7996 7.1255 13.855 6.99172C13.9104 6.85794 13.9249 6.71073 13.8966 6.56871C13.8684 6.42669 13.7986 6.29623 13.6963 6.19384C13.5939 6.09145 13.4634 6.02172 13.3214 5.99347C13.1794 5.96522 13.0322 5.97972 12.8984 6.03513C12.7646 6.09054 12.6502 6.18439 12.5698 6.30479C12.4894 6.42519 12.4464 6.56674 12.4464 6.71154C12.4466 6.90566 12.5238 7.09177 12.6611 7.22903C12.7983 7.36629 12.9844 7.44349 13.1786 7.44369ZM13.1786 6.34547C13.251 6.34547 13.3217 6.36694 13.3819 6.40717C13.4421 6.44739 13.4891 6.50456 13.5168 6.57145C13.5445 6.63834 13.5517 6.71195 13.5376 6.78296C13.5235 6.85397 13.4886 6.9192 13.4374 6.97039C13.3862 7.02159 13.321 7.05645 13.25 7.07058C13.179 7.0847 13.1054 7.07746 13.0385 7.04975C12.9716 7.02204 12.9144 6.97512 12.8742 6.91492C12.834 6.85472 12.8125 6.78394 12.8125 6.71154C12.8125 6.61447 12.8511 6.5214 12.9198 6.45276C12.9884 6.38412 13.0815 6.34554 13.1786 6.34547ZM36.3279 10.8604C36.2314 10.8604 36.137 10.889 36.0568 10.9426C35.9765 10.9962 35.9139 11.0725 35.877 11.1617C35.84 11.2508 35.8304 11.349 35.8492 11.4437C35.868 11.5384 35.9145 11.6253 35.9828 11.6936C36.0511 11.7618 36.138 11.8083 36.2327 11.8272C36.3274 11.846 36.4255 11.8363 36.5147 11.7994C36.6039 11.7624 36.6801 11.6999 36.7338 11.6196C36.7874 11.5394 36.816 11.445 36.816 11.3484C36.8159 11.219 36.7644 11.095 36.6729 11.0035C36.5814 10.9119 36.4573 10.8605 36.3279 10.8604ZM36.3279 11.5925C36.2797 11.5925 36.2325 11.5782 36.1923 11.5514C36.1522 11.5245 36.1209 11.4864 36.1025 11.4418C36.084 11.3972 36.0792 11.3482 36.0886 11.3008C36.098 11.2535 36.1212 11.21 36.1554 11.1759C36.1895 11.1417 36.233 11.1185 36.2803 11.1091C36.3277 11.0997 36.3767 11.1045 36.4213 11.123C36.4659 11.1414 36.504 11.1727 36.5309 11.2129C36.5577 11.253 36.572 11.3002 36.572 11.3484C36.5719 11.4132 36.5462 11.4752 36.5004 11.5209C36.4547 11.5667 36.3926 11.5924 36.3279 11.5925ZM32.3851 5.73535C32.2886 5.73535 32.1942 5.76398 32.1139 5.81761C32.0337 5.87124 31.9711 5.94747 31.9342 6.03666C31.8972 6.12585 31.8876 6.22399 31.9064 6.31867C31.9252 6.41335 31.9717 6.50032 32.04 6.56858C32.1082 6.63684 32.1952 6.68333 32.2899 6.70216C32.3846 6.721 32.4827 6.71133 32.5719 6.67439C32.6611 6.63745 32.7373 6.57489 32.7909 6.49462C32.8446 6.41435 32.8732 6.31998 32.8732 6.22345C32.8731 6.09404 32.8216 5.96996 32.7301 5.87845C32.6386 5.78695 32.5145 5.73548 32.3851 5.73535ZM32.3851 6.46749C32.3368 6.46749 32.2896 6.45318 32.2495 6.42637C32.2094 6.39955 32.1781 6.36143 32.1596 6.31684C32.1412 6.27225 32.1363 6.22318 32.1457 6.17584C32.1552 6.12849 32.1784 6.08501 32.2125 6.05088C32.2467 6.01675 32.2902 5.99351 32.3375 5.98409C32.3848 5.97467 32.4339 5.97951 32.4785 5.99798C32.5231 6.01645 32.5612 6.04773 32.588 6.08786C32.6148 6.12799 32.6291 6.17518 32.6291 6.22345C32.6291 6.28815 32.6034 6.35019 32.5576 6.39594C32.5118 6.4417 32.4498 6.46743 32.3851 6.46749ZM36.572 0.610352C36.4754 0.610352 36.3811 0.638978 36.3008 0.69261C36.2205 0.746243 36.158 0.822473 36.121 0.911661C36.0841 1.00085 36.0744 1.09899 36.0933 1.19367C36.1121 1.28835 36.1586 1.37532 36.2268 1.44358C36.2951 1.51184 36.3821 1.55833 36.4768 1.57716C36.5714 1.596 36.6696 1.58633 36.7588 1.54939C36.848 1.51245 36.9242 1.44988 36.9778 1.36962C37.0315 1.28935 37.0601 1.19498 37.0601 1.09845C37.0599 0.969036 37.0085 0.844962 36.917 0.753454C36.8255 0.661946 36.7014 0.610481 36.572 0.610352ZM36.572 1.34249C36.5237 1.34249 36.4765 1.32818 36.4364 1.30136C36.3963 1.27455 36.365 1.23643 36.3465 1.19184C36.328 1.14725 36.3232 1.09818 36.3326 1.05084C36.342 1.00349 36.3653 0.96001 36.3994 0.925879C36.4335 0.891748 36.477 0.868505 36.5244 0.859088C36.5717 0.849672 36.6208 0.854505 36.6654 0.872976C36.71 0.891448 36.7481 0.922728 36.7749 0.962861C36.8017 1.00299 36.816 1.05018 36.816 1.09845C36.816 1.16315 36.7902 1.22519 36.7445 1.27094C36.6987 1.3167 36.6367 1.34243 36.572 1.34249ZM2.85436 11.8365C2.85436 11.74 2.82574 11.6456 2.77211 11.5654C2.71847 11.4851 2.64224 11.4225 2.55306 11.3856C2.46387 11.3487 2.36573 11.339 2.27105 11.3578C2.17637 11.3767 2.0894 11.4231 2.02113 11.4914C1.95287 11.5597 1.90639 11.6466 1.88755 11.7413C1.86872 11.836 1.87839 11.9341 1.91533 12.0233C1.95227 12.1125 2.01483 12.1887 2.0951 12.2424C2.17537 12.296 2.26973 12.3246 2.36627 12.3246C2.49568 12.3245 2.61975 12.273 2.71126 12.1815C2.80277 12.09 2.85424 11.966 2.85436 11.8365ZM2.12222 11.8365C2.12222 11.7883 2.13653 11.7411 2.16335 11.701C2.19017 11.6608 2.22828 11.6295 2.27288 11.6111C2.31747 11.5926 2.36654 11.5878 2.41388 11.5972C2.46122 11.6066 2.50471 11.6298 2.53884 11.664C2.57297 11.6981 2.59621 11.7416 2.60563 11.7889C2.61504 11.8363 2.61021 11.8853 2.59174 11.9299C2.57327 11.9745 2.54199 12.0126 2.50186 12.0395C2.46172 12.0663 2.41454 12.0806 2.36627 12.0806C2.30156 12.0805 2.23953 12.0548 2.19377 12.009C2.14802 11.9633 2.12229 11.9012 2.12222 11.8365Z" fill="#8461ED" fill-opacity="0.5"/>
<path d="M1.9795 2.87115L2.34216 2.39404L2.11299 2.2642L1.88017 2.79867H1.87236L1.63588 2.26786L1.40257 2.4016L1.76181 2.86749V2.87506L1.20026 2.80257V3.06224L1.76547 2.98976V2.99732L1.40257 3.46297L1.62026 3.60061L1.8687 3.06224H1.87627L2.10543 3.5967L2.34606 3.45931L1.9795 3.00098V2.99342L2.55594 3.06224V2.80257L1.9795 2.87896V2.87115ZM9.35535 1.52035L9.14645 1.78856L9.27164 1.86787L9.41466 1.55769H9.41905L9.55108 1.86543L9.6897 1.78636L9.4786 1.52254V1.51815L9.8105 1.55769V1.40808L9.4786 1.45201V1.44762L9.6875 1.17282L9.55547 1.09814L9.42124 1.40589H9.41685L9.28067 1.10034L9.14645 1.17722L9.35316 1.44567V1.45006L9.02979 1.40808V1.55769L9.35535 1.51595V1.52035ZM39.7869 7.08244V6.82789L39.2214 6.90282V6.89525L39.5772 6.42717L39.3525 6.29978L39.124 6.82399H39.1165L38.8844 6.30344L38.6557 6.43473L39.0079 6.89159V6.89916L38.4573 6.82789V7.08244L39.0115 7.01142V7.01898L38.6557 7.47584L38.8693 7.6108L39.1128 7.08244H39.1201L39.3449 7.60689L39.5809 7.47218L39.2214 7.02264V7.01508L39.7869 7.08244ZM19.6949 3.24284L20.0019 2.83894L19.8082 2.72911L19.611 3.18133H19.6044L19.4043 2.73229L19.2071 2.84553L19.5109 3.23966V3.24601L19.0357 3.18475V3.40439L19.5141 3.34314V3.34948L19.2071 3.74362L19.3911 3.86003L19.6012 3.40439H19.6075L19.8016 3.85661L20.0051 3.74045L19.6949 3.35266V3.34631L20.1828 3.40439V3.18475L19.6949 3.24918V3.24284Z" fill="#8461ED"/>
</g>
<defs>
<clipPath id="clip0_2399_19615">
<rect width="41" height="41" fill="white"/>
</clipPath>
</defs>
</svg>
