<svg width="41" height="41" viewBox="0 0 41 41" fill="none" xmlns="http://www.w3.org/2000/svg">
<path d="M37.0034 9.94182C35.578 7.71436 32.4901 6.78714 28.3069 7.33127C28.0916 7.3593 27.8745 7.39181 27.6556 7.42736C27.5677 7.22413 27.4776 7.02393 27.3854 6.82678C25.5897 3.01009 23.1443 0.908203 20.5 0.908203C17.8557 0.908203 15.4103 3.01009 13.6143 6.82662C13.5218 7.02313 13.4321 7.22372 13.3441 7.4272C13.1255 7.39181 12.9082 7.3593 12.6929 7.33111C8.50991 6.78722 5.42177 7.71444 3.99638 9.94166C2.57099 12.1689 3.02415 15.3617 5.27123 18.9315C5.60083 19.4553 5.96316 19.9781 6.35821 20.4998C5.96438 21.0208 5.60214 21.5435 5.27147 22.068C3.02439 25.6377 2.57163 28.8303 3.99662 31.0578C5.15543 32.8691 7.41348 33.8205 10.4662 33.8205C11.2109 33.8177 11.9547 33.7669 12.6929 33.6683C12.9082 33.6404 13.1253 33.6079 13.3441 33.5722C13.4322 33.7754 13.5218 33.976 13.6143 34.1728C15.4103 37.9893 17.8557 40.0912 20.5 40.0912C23.1443 40.0912 25.5897 37.9893 27.3857 34.1728C27.4781 33.9763 27.5682 33.7761 27.6559 33.5722C27.8745 33.6076 28.0918 33.6401 28.3071 33.6683C29.0453 33.7669 29.7891 33.8177 30.5338 33.8205C33.5861 33.8205 35.8447 32.869 37.0034 31.0578C38.4288 28.8303 37.9756 25.6377 35.7285 22.068C35.3991 21.5443 35.0369 21.0215 34.6418 20.4998C35.0356 19.9788 35.3979 19.4561 35.7285 18.9316C37.9756 15.3619 38.4284 12.1693 37.0034 9.94182ZM14.7737 7.37219C16.3463 4.03005 18.38 2.18945 20.5 2.18945C22.62 2.18945 24.6536 4.03005 26.2264 7.37219C26.2733 7.47175 26.3194 7.57233 26.3649 7.67392C24.4765 8.09089 22.4955 8.76211 20.5 9.65562C18.5045 8.76211 16.5235 8.09089 14.6351 7.67392C14.6807 7.57255 14.7268 7.47197 14.7735 7.37219H14.7737ZM28.7774 20.4998C28.7785 21.969 28.697 23.437 28.5333 24.897C27.3917 25.8218 26.1989 26.6816 24.9608 27.4724C23.5294 28.3905 22.0393 29.2135 20.5 29.9362C18.9609 29.2136 17.4709 28.3906 16.0397 27.4725C14.8015 26.6816 13.6087 25.8218 12.467 24.897C12.1415 21.9746 12.1415 19.025 12.467 16.1025C13.6087 15.1778 14.8015 14.318 16.0397 13.5271C17.4709 12.609 18.9609 11.786 20.5 11.0634C22.0391 11.7861 23.5291 12.6091 24.9604 13.5272C26.1985 14.318 27.3913 15.1778 28.5329 16.1025C28.6967 17.5626 28.7784 19.0306 28.7774 20.4998ZM29.9342 17.3C31.0378 18.2886 32.0662 19.3582 33.0108 20.4998C32.0662 21.6414 31.0378 22.711 29.9342 23.6996C30.0163 22.6516 30.0587 21.5825 30.0587 20.4998C30.0587 19.4171 30.0163 18.348 29.9342 17.3ZM28.2794 26.7224C27.9845 28.5643 27.5096 30.3727 26.8616 32.1219C25.2122 31.7647 23.5984 31.2593 22.0398 30.6118C23.2781 29.9873 24.4835 29.2997 25.6514 28.5517C26.5633 27.9683 27.4394 27.3585 28.2794 26.7224ZM18.9602 30.6118C17.4016 31.2592 15.7877 31.7646 14.1383 32.1219C13.4903 30.3727 13.0154 28.5643 12.7204 26.7224C13.5589 27.3564 14.435 27.9662 15.3487 28.5517C16.5165 29.2997 17.7219 29.9873 18.9602 30.6118ZM11.0658 23.6996C9.96218 22.7109 8.93376 21.6414 7.98916 20.4998C8.93376 19.3582 9.96218 18.2887 11.0658 17.3C10.9836 18.348 10.9412 19.4171 10.9412 20.4998C10.9412 21.5825 10.9836 22.6516 11.0658 23.6996ZM12.7204 14.2772C13.0154 12.4353 13.4903 10.6269 14.1383 8.87774C15.7877 9.23495 17.4016 9.74035 18.9602 10.3878C17.7219 11.0123 16.5165 11.6999 15.3487 12.4479C14.4367 13.0313 13.5606 13.6411 12.7204 14.2772ZM25.6513 12.4479C24.4834 11.6999 23.278 11.0123 22.0397 10.3878C23.5983 9.74034 25.2121 9.23494 26.8616 8.87774C27.5096 10.6269 27.9844 12.4353 28.2794 14.2772C27.441 13.6432 26.565 13.0334 25.6513 12.4479ZM6.35572 18.249C4.38829 15.123 3.93344 12.4181 5.076 10.6323C5.98889 9.2055 7.86087 8.45845 10.4452 8.45845C11.1417 8.46137 11.8373 8.50917 12.5277 8.60155C12.6368 8.6158 12.7464 8.6311 12.8565 8.64743C12.1101 10.6809 11.5695 12.9838 11.2565 15.4401C9.78378 16.6597 8.42106 18.0063 7.18405 19.4645C6.88755 19.06 6.61144 18.6549 6.35572 18.249ZM12.5277 32.398C8.86433 32.8744 6.21831 32.153 5.076 30.3673C3.93368 28.5817 4.38805 25.8766 6.35572 22.7506C6.61101 22.3451 6.88712 21.9399 7.18405 21.5351C8.42106 22.9932 9.78378 24.3399 11.2565 25.5595C11.5695 28.0158 12.1101 30.3187 12.8565 32.3522C12.7465 32.3683 12.6369 32.3836 12.5277 32.398ZM26.2264 33.6274C24.6536 36.9695 22.62 38.8101 20.5 38.8101C18.38 38.8101 16.3463 36.9695 14.7735 33.6274C14.7267 33.5279 14.6805 33.4273 14.635 33.3257C16.5234 32.9087 18.5045 32.2375 20.4999 31.344C22.4955 32.2375 24.4765 32.9087 26.3649 33.3257C26.3193 33.4271 26.2731 33.5276 26.2264 33.6274ZM34.6443 22.7506C36.612 25.8766 37.0666 28.5815 35.924 30.3673C35.0111 31.7941 33.1391 32.5413 30.5549 32.5411C29.8583 32.5383 29.1627 32.4905 28.4723 32.398C28.3632 32.3839 28.2535 32.3683 28.1434 32.3522C28.8899 30.3187 29.4305 28.0158 29.7434 25.5595C31.2162 24.3399 32.5789 22.9933 33.816 21.5351C34.1124 21.9396 34.3885 22.3448 34.6443 22.7506ZM33.816 19.4645C32.5789 18.0063 31.2162 16.6597 29.7434 15.4401C29.4305 12.9838 28.8899 10.6809 28.1434 8.64743C28.2535 8.63142 28.3632 8.6154 28.4723 8.60155C32.1353 8.12524 34.7816 8.84651 35.924 10.6323C37.0664 12.418 36.612 15.123 34.6443 18.249C34.389 18.6545 34.1129 19.0596 33.816 19.4645Z" fill="url(#paint0_linear_2399_19596)"/>
<path d="M20.5 14.1987C18.2322 14.1987 15.7754 14.8599 15.7754 16.3117V24.6996C15.7754 26.1513 18.238 26.8259 20.5031 26.8259H20.5492C21.2155 26.8235 21.8803 26.7602 22.5351 26.6369C24.2408 26.3096 25.2244 25.5992 25.2244 24.6995V16.3117C25.2246 14.8599 22.7679 14.1987 20.5 14.1987ZM20.5058 15.48C22.6087 15.48 23.764 16.0534 23.9241 16.3117C23.7639 16.5699 22.6087 17.1433 20.5058 17.1433C18.403 17.1433 17.2477 16.5699 17.0876 16.3117C17.2477 16.0534 18.403 15.48 20.5058 15.48ZM23.9434 19.0835C23.7832 19.3317 22.6541 19.9329 20.5 19.9329C18.3459 19.9329 17.2168 19.3317 17.0566 19.0835V17.8187C18.0176 18.2291 19.2688 18.4245 20.5 18.4245C21.7312 18.4245 22.9824 18.2291 23.9434 17.8187V19.0835ZM22.2981 25.3712C21.7042 25.481 21.1014 25.5346 20.4975 25.5314C18.3471 25.5314 17.2168 24.9323 17.0566 24.6832V23.3978C18.0176 23.8082 19.2688 24.0036 20.5 24.0036C21.7312 24.0036 22.9824 23.8082 23.9434 23.3978V24.6827C23.8633 24.818 23.3837 25.1628 22.2981 25.3712V25.3712ZM23.9434 21.8741C23.7832 22.1232 22.6505 22.7223 20.5 22.7223C18.3495 22.7223 17.2168 22.1232 17.0566 21.8741V20.6083C18.0176 21.0187 19.2688 21.2141 20.5 21.2141C21.7312 21.2141 22.9824 21.0187 23.9434 20.6083V21.8741Z" fill="url(#paint1_linear_2399_19596)"/>
<defs>
<linearGradient id="paint0_linear_2399_19596" x1="20.5" y1="1.2579" x2="20.5" y2="38.911" gradientUnits="userSpaceOnUse">
<stop stop-color="#8461ED"/>
<stop offset="1" stop-color="#8461ED" stop-opacity="0.35"/>
</linearGradient>
<linearGradient id="paint1_linear_2399_19596" x1="20.5" y1="1.25786" x2="20.5" y2="38.911" gradientUnits="userSpaceOnUse">
<stop stop-color="#8461ED"/>
<stop offset="1" stop-color="#8461ED" stop-opacity="0.35"/>
</linearGradient>
</defs>
</svg>
