<svg width="41" height="41" viewBox="0 0 41 41" fill="none" xmlns="http://www.w3.org/2000/svg">
<path opacity="0.3" d="M13.3708 29.8564H19.3494V31.2809H13.3708V29.8564Z" fill="#EDCC61" fill-opacity="0.5"/>
<path d="M26.1181 29.8927H4.4653C2.57958 29.8927 1.03667 28.3498 1.03667 26.4641V9.71671C1.03667 7.831 2.57958 6.28809 4.4653 6.28809H28.3168C30.2025 6.28809 31.7454 7.831 31.7454 9.71671V16.1332" stroke="#EDCC61" stroke-width="0.5" stroke-miterlimit="10" stroke-linecap="round" stroke-linejoin="round"/>
<path d="M26.1181 24.9813H4.48779C3.47475 24.9813 2.64592 24.1525 2.64592 23.1395V9.81334C2.64592 8.8003 3.47475 7.97119 4.48808 7.97119H28.2946C29.3076 7.97119 30.1364 8.80002 30.1364 9.81306V15.9844" stroke="#EDCC61" stroke-width="0.5" stroke-miterlimit="10" stroke-linecap="round" stroke-linejoin="round"/>
<path opacity="0.3" d="M2.64564 10.3976V9.81334C2.64564 8.8003 3.47446 7.97119 4.48779 7.97119H28.2943C29.3073 7.97119 30.1361 8.80002 30.1361 9.81306V10.3976H2.64564Z" fill="#EDCC61" fill-opacity="0.5"/>
<path d="M2.64564 10.3976V9.81334C2.64564 8.8003 3.47446 7.97119 4.48779 7.97119H28.2943C29.3073 7.97119 30.1361 8.80002 30.1361 9.81306V10.3976H2.64564Z" stroke="#EDCC61" stroke-width="0.5" stroke-miterlimit="10" stroke-linecap="round" stroke-linejoin="round"/>
<path opacity="0.3" d="M16.3912 28.5343C16.9581 28.5343 17.4176 28.0747 17.4176 27.5079C17.4176 26.941 16.9581 26.4814 16.3912 26.4814C15.8243 26.4814 15.3647 26.941 15.3647 27.5079C15.3647 28.0747 15.8243 28.5343 16.3912 28.5343Z" fill="#EDCC61" fill-opacity="0.5"/>
<path d="M16.3912 28.5343C16.9581 28.5343 17.4176 28.0747 17.4176 27.5079C17.4176 26.941 16.9581 26.4814 16.3912 26.4814C15.8243 26.4814 15.3647 26.941 15.3647 27.5079C15.3647 28.0747 15.8243 28.5343 16.3912 28.5343Z" stroke="#EDCC61" stroke-width="0.5" stroke-miterlimit="10" stroke-linecap="round" stroke-linejoin="round"/>
<path d="M19.3927 29.9661C19.3927 29.9661 18.8506 33.4704 21.519 33.4704H16.1825H16.5159H11.2628C13.9309 33.4704 13.3472 30.0025 13.3472 30.0025M16.6164 12.6857H25.1581M16.6164 14.394H26.5817M16.6164 15.5329H25.1581M4.70874 12.2222H14.9459V16.0471H4.70874V12.2222Z" stroke="#EDCC61" stroke-width="0.5" stroke-miterlimit="10" stroke-linecap="round" stroke-linejoin="round"/>
<path opacity="0.3" d="M4.70874 18.1567H9.82747V23.2755H4.70874V18.1567Z" fill="#EDCC61" fill-opacity="0.5"/>
<path d="M4.70874 18.1568H9.82747V23.2755H4.70874V18.1568ZM11.6836 18.1568H16.8023V23.2755H11.6836V18.1568ZM18.6584 18.1568H23.7772V23.2755H18.6584V18.1568ZM38.3598 35.5562H27.503C27.1392 35.5551 26.7906 35.4101 26.5334 35.1529C26.2761 34.8956 26.1312 34.547 26.1301 34.1832V17.5048C26.1312 17.141 26.2761 16.7924 26.5334 16.5351C26.7906 16.2779 27.1392 16.1329 27.503 16.1318H38.3598C38.7236 16.1329 39.0722 16.2779 39.3294 16.5351C39.5867 16.7924 39.7317 17.141 39.7327 17.5048V34.1832C39.7317 34.547 39.5867 34.8956 39.3294 35.1529C39.0722 35.4101 38.7236 35.5551 38.3598 35.5562Z" stroke="#EDCC61" stroke-width="0.5" stroke-miterlimit="10" stroke-linecap="round" stroke-linejoin="round"/>
<path d="M37.8971 32.4308H27.966C27.7311 32.4308 27.5059 32.3375 27.3399 32.1715C27.1738 32.0054 27.0805 31.7802 27.0805 31.5453V18.1252C27.0805 17.8904 27.1738 17.6652 27.3399 17.4991C27.5059 17.333 27.7311 17.2397 27.966 17.2397H37.8971C38.1319 17.2397 38.3572 17.333 38.5232 17.4991C38.6893 17.6652 38.7826 17.8904 38.7826 18.1252V31.5453C38.7826 31.7802 38.6893 32.0054 38.5232 32.1715C38.3572 32.3375 38.1319 32.4308 37.8971 32.4308Z" stroke="#EDCC61" stroke-width="0.5" stroke-miterlimit="10" stroke-linecap="round" stroke-linejoin="round"/>
<path opacity="0.3" d="M33.4423 34.5799C33.7892 34.5799 34.0704 34.2987 34.0704 33.9518C34.0704 33.6049 33.7892 33.3237 33.4423 33.3237C33.0954 33.3237 32.8142 33.6049 32.8142 33.9518C32.8142 34.2987 33.0954 34.5799 33.4423 34.5799Z" fill="#EDCC61" fill-opacity="0.5"/>
<path d="M33.4423 34.5799C33.7892 34.5799 34.0704 34.2987 34.0704 33.9518C34.0704 33.6049 33.7892 33.3237 33.4423 33.3237C33.0954 33.3237 32.8142 33.6049 32.8142 33.9518C32.8142 34.2987 33.0954 34.5799 33.4423 34.5799Z" stroke="#EDCC61" stroke-width="0.5" stroke-miterlimit="10" stroke-linecap="round" stroke-linejoin="round"/>
<path opacity="0.3" d="M28.7456 18.6909H37.4569V25.9938H28.7456V18.6909Z" fill="#EDCC61" fill-opacity="0.5"/>
<path d="M28.8594 28.0608H35.6928M28.8594 29.1997H34.5539M28.5628 18.6909H37.4569V25.9938H28.5628V18.6909Z" stroke="#EDCC61" stroke-width="0.5" stroke-miterlimit="10" stroke-linecap="round" stroke-linejoin="round"/>
<path d="M35.7435 11.5342V13.3083M36.6307 12.4211H34.8566" stroke="#EDCC61" stroke-miterlimit="10" stroke-linecap="round" stroke-linejoin="round"/>
<path d="M38.6263 5.22998V8.19337M40.108 6.71167H37.1449" stroke="#EDCC61" stroke-miterlimit="10" stroke-linecap="round" stroke-linejoin="round"/>
</svg>
