<svg width="41" height="41" viewBox="0 0 41 41" fill="none" xmlns="http://www.w3.org/2000/svg">
<path d="M7.3267 15.2285H5.65214C5.4968 15.2285 5.34782 15.2902 5.23798 15.4001C5.12814 15.5099 5.06643 15.6589 5.06643 15.8142C5.06643 15.9696 5.12814 16.1186 5.23798 16.2284C5.34782 16.3382 5.4968 16.3999 5.65214 16.3999H7.32612C7.48146 16.3999 7.63043 16.3382 7.74028 16.2284C7.85012 16.1186 7.91183 15.9696 7.91183 15.8142C7.91183 15.6589 7.85012 15.5099 7.74028 15.4001C7.63043 15.2902 7.48204 15.2285 7.3267 15.2285ZM11.3429 15.8142C11.3429 15.9696 11.4047 16.1186 11.5145 16.2284C11.6243 16.3382 11.7733 16.3999 11.9287 16.3999H13.6026C13.758 16.3999 13.9069 16.3382 14.0168 16.2284C14.1266 16.1186 14.1883 15.9696 14.1883 15.8142C14.1883 15.6589 14.1266 15.5099 14.0168 15.4001C13.9069 15.2902 13.758 15.2285 13.6026 15.2285H11.9287C11.7733 15.2285 11.6243 15.2902 11.5145 15.4001C11.4047 15.5099 11.3429 15.6589 11.3429 15.8142Z" fill="#EDCC61"/>
<path d="M38.0714 1.75732H13.4714C12.8254 1.75732 12.3 2.28271 12.3 2.92875V12.3002H2.92857C2.28253 12.3002 1.75714 12.8256 1.75714 13.4716V38.0716C1.75714 38.7177 2.28253 39.243 2.92857 39.243H27.5286C28.1746 39.243 28.7 38.7177 28.7 38.0716V28.7002H38.0714C38.7175 28.7002 39.2429 28.1748 39.2429 27.5288V2.92875C39.2429 2.28271 38.7175 1.75732 38.0714 1.75732ZM27.5286 38.0716H2.92857V19.3288H27.5286V38.0716ZM27.5286 18.1573H2.92857V13.4716H12.8881L27.5286 13.4699V18.1573ZM38.0714 27.5288H28.7V13.4716C28.7 12.8256 28.1746 12.3002 27.5286 12.3002H13.4714V8.7859H38.0714V27.5288ZM38.0714 7.61447H13.4714V2.92875H38.0714V7.61447Z" fill="#EDCC61"/>
<path d="M16.1956 5.85698H17.8696C18.0249 5.85698 18.1739 5.79527 18.2837 5.68542C18.3936 5.57558 18.4553 5.4266 18.4553 5.27126C18.4553 5.11592 18.3936 4.96694 18.2837 4.8571C18.1739 4.74726 18.0249 4.68555 17.8696 4.68555H16.195C16.0397 4.68555 15.8907 4.74726 15.7808 4.8571C15.671 4.96694 15.6093 5.11592 15.6093 5.27126C15.6093 5.4266 15.671 5.57558 15.7808 5.68542C15.8907 5.79527 16.0402 5.85698 16.1956 5.85698ZM22.4715 5.85698H24.1455C24.3008 5.85698 24.4498 5.79527 24.5596 5.68542C24.6695 5.57558 24.7312 5.4266 24.7312 5.27126C24.7312 5.11592 24.6695 4.96694 24.5596 4.8571C24.4498 4.74726 24.3008 4.68555 24.1455 4.68555H22.4715C22.3162 4.68555 22.1672 4.74726 22.0574 4.8571C21.9475 4.96694 21.8858 5.11592 21.8858 5.27126C21.8858 5.4266 21.9475 5.57558 22.0574 5.68542C22.1672 5.79527 22.3162 5.85698 22.4715 5.85698ZM10.1288 32.6282C10.183 32.6828 10.2475 32.7261 10.3186 32.7557C10.3897 32.7852 10.4659 32.8004 10.5429 32.8004C10.6198 32.8004 10.696 32.7852 10.7671 32.7557C10.8382 32.7261 10.9027 32.6828 10.957 32.6282C11.0668 32.5184 11.1284 32.3694 11.1284 32.2141C11.1284 32.0588 11.0668 31.9099 10.957 31.8L8.44249 29.2855L10.957 26.7711C11.0129 26.717 11.0575 26.6524 11.0882 26.581C11.1189 26.5095 11.1351 26.4326 11.1357 26.3549C11.1364 26.2771 11.1216 26.2 11.0922 26.128C11.0627 26.056 11.0192 25.9906 10.9642 25.9356C10.9092 25.8806 10.8438 25.8371 10.7718 25.8077C10.6999 25.7782 10.6227 25.7634 10.545 25.7641C10.4672 25.7648 10.3903 25.7809 10.3189 25.8116C10.2474 25.8423 10.1828 25.8869 10.1288 25.9429L7.20019 28.8714C7.09038 28.9813 7.0287 29.1302 7.0287 29.2855C7.0287 29.4409 7.09038 29.5898 7.20019 29.6996L10.1288 32.6282ZM19.5002 32.6282C19.5545 32.6828 19.619 32.7261 19.69 32.7557C19.7611 32.7852 19.8373 32.8004 19.9143 32.8004C19.9913 32.8004 20.0675 32.7852 20.1385 32.7557C20.2096 32.7261 20.2741 32.6828 20.3284 32.6282L23.257 29.6996C23.3668 29.5898 23.4284 29.4409 23.4284 29.2855C23.4284 29.1302 23.3668 28.9813 23.257 28.8714L20.3284 25.9429C20.2744 25.8869 20.2097 25.8423 20.1383 25.8116C20.0668 25.7809 19.99 25.7648 19.9122 25.7641C19.8344 25.7634 19.7573 25.7782 19.6853 25.8077C19.6133 25.8371 19.5479 25.8806 19.4929 25.9356C19.4379 25.9906 19.3944 26.056 19.365 26.128C19.3355 26.2 19.3207 26.2771 19.3214 26.3549C19.3221 26.4326 19.3382 26.5095 19.3689 26.581C19.3996 26.6524 19.4442 26.717 19.5002 26.7711L22.0147 29.2855L19.5002 31.8C19.3904 31.9099 19.3287 32.0588 19.3287 32.2141C19.3287 32.3694 19.3904 32.5184 19.5002 32.6282ZM12.3533 35.7255C12.4234 35.757 12.4991 35.7743 12.576 35.7766C12.6528 35.7788 12.7294 35.7659 12.8012 35.7385C12.8731 35.7112 12.9388 35.6699 12.9947 35.6171C13.0507 35.5643 13.0956 35.501 13.127 35.4309L18.3985 23.668C18.4299 23.5978 18.4473 23.5222 18.4495 23.4453C18.4517 23.3685 18.4388 23.2919 18.4114 23.2201C18.384 23.1482 18.3428 23.0825 18.29 23.0266C18.2373 22.9707 18.174 22.9257 18.1038 22.8942C18.0337 22.8628 17.958 22.8454 17.8812 22.8432C17.8043 22.841 17.7278 22.8539 17.656 22.8813C17.5841 22.9087 17.5184 22.9499 17.4625 23.0027C17.4065 23.0554 17.3616 23.1187 17.3301 23.1888L12.0587 34.9517C12.0272 35.0219 12.0098 35.0976 12.0076 35.1744C12.0053 35.2513 12.0183 35.3278 12.0456 35.3997C12.073 35.4715 12.1143 35.5373 12.167 35.5932C12.2198 35.6491 12.2831 35.694 12.3533 35.7255Z" fill="#EDCC61"/>
</svg>
