<svg width="42" height="41" viewBox="0 0 42 41" fill="none" xmlns="http://www.w3.org/2000/svg">
<g clip-path="url(#clip0_2399_29803)">
<path d="M36.7533 7.6875H4.29493C3.38878 7.6875 2.51973 8.04747 1.87898 8.68822C1.23823 9.32897 0.878265 10.198 0.878265 11.1042V12.8125H40.1699V11.1042C40.1699 10.198 39.81 9.32897 39.1692 8.68822C38.5285 8.04747 37.6594 7.6875 36.7533 7.6875ZM0.878265 17.9375V29.8958C0.878265 30.802 1.23823 31.671 1.87898 32.3118C2.51973 32.9525 3.38878 33.3125 4.29493 33.3125H11.5553L16.2533 23.9167L20.9512 33.3125H36.7533C37.6594 33.3125 38.5285 32.9525 39.1692 32.3118C39.81 31.671 40.1699 30.802 40.1699 29.8958V17.9375H0.878265ZM34.1908 29.8958C33.7678 29.897 33.3513 29.793 32.9785 29.5932C32.6058 29.3934 32.2885 29.1041 32.0553 28.7513C31.7508 29.2097 31.3068 29.5578 30.789 29.7443C30.2712 29.9307 29.7072 29.9455 29.1803 29.7865C28.6535 29.6274 28.1918 29.303 27.8637 28.8612C27.5356 28.4194 27.3584 27.8837 27.3584 27.3333C27.3584 26.783 27.5356 26.2473 27.8637 25.8055C28.1918 25.3637 28.6535 25.0392 29.1803 24.8802C29.7072 24.7211 30.2712 24.7359 30.789 24.9224C31.3068 25.1088 31.7508 25.457 32.0553 25.9154C32.3005 25.5465 32.637 25.2473 33.0322 25.0472C33.4274 24.8471 33.8677 24.7529 34.3101 24.7737C34.7526 24.7945 35.1821 24.9296 35.5568 25.1659C35.9315 25.4022 36.2385 25.7316 36.4479 26.1219C36.6573 26.5123 36.7619 26.9502 36.7516 27.393C36.7413 27.8359 36.6164 28.2685 36.389 28.6486C36.1616 29.0288 35.8396 29.3435 35.4543 29.5621C35.0691 29.7807 34.6337 29.8957 34.1908 29.8958Z" fill="#61EDC7" fill-opacity="0.3"/>
<path d="M36.7533 6.8335H4.29494C3.16266 6.83485 2.07715 7.28525 1.27651 8.08589C0.475862 8.88654 0.0254652 9.97205 0.0241089 11.1043L0.0241089 29.896C0.0254652 31.0283 0.475862 32.1138 1.27651 32.9144C2.07715 33.7151 3.16266 34.1655 4.29494 34.1668H8.56578V32.4585H4.29494C3.61532 32.4585 2.96354 32.1885 2.48298 31.708C2.00242 31.2274 1.73244 30.5756 1.73244 29.896V18.7918H39.3158V29.896C39.3158 30.5756 39.0458 31.2274 38.5652 31.708C38.0847 32.1885 37.4329 32.4585 36.7533 32.4585H23.9408V34.1668H36.7533C37.8856 34.1655 38.9711 33.7151 39.7717 32.9144C40.5724 32.1138 41.0228 31.0283 41.0241 29.896V11.1043C41.0228 9.97205 40.5724 8.88654 39.7717 8.08589C38.9711 7.28525 37.8856 6.83485 36.7533 6.8335ZM4.29494 8.54183H36.7533C37.4329 8.54183 38.0847 8.81181 38.5652 9.29237C39.0458 9.77293 39.3158 10.4247 39.3158 11.1043V11.9585H1.73244V11.1043C1.73244 10.4247 2.00242 9.77293 2.48298 9.29237C2.96354 8.81181 3.61532 8.54183 4.29494 8.54183ZM1.73244 17.0835V13.6668H39.3158V17.0835H1.73244Z" fill="#61EDC7" fill-opacity="0.8"/>
<path d="M32.0553 29.9923C32.5572 30.3971 33.1633 30.6516 33.8037 30.7265C34.4441 30.8013 35.0926 30.6934 35.6743 30.4153C36.2559 30.1371 36.747 29.7001 37.0908 29.1547C37.4346 28.6092 37.617 27.9776 37.617 27.3329C37.617 26.6881 37.4346 26.0566 37.0908 25.5111C36.747 24.9657 36.2559 24.5286 35.6743 24.2505C35.0926 23.9724 34.4441 23.8645 33.8037 23.9393C33.1633 24.0142 32.5572 24.2687 32.0553 24.6734C31.5535 24.2687 30.9474 24.0142 30.307 23.9393C29.6666 23.8645 29.0181 23.9724 28.4364 24.2505C27.8548 24.5286 27.3637 24.9657 27.0199 25.5111C26.6761 26.0566 26.4937 26.6881 26.4937 27.3329C26.4937 27.9776 26.6761 28.6092 27.0199 29.1547C27.3637 29.7001 27.8548 30.1371 28.4364 30.4153C29.0181 30.6934 29.6666 30.8013 30.307 30.7265C30.9474 30.6516 31.5535 30.3971 32.0553 29.9923ZM34.1908 25.625C34.6438 25.625 35.0784 25.805 35.3987 26.1253C35.7191 26.4457 35.8991 26.8802 35.8991 27.3333C35.8991 27.7864 35.7191 28.2209 35.3987 28.5413C35.0784 28.8617 34.6438 29.0416 34.1908 29.0416C33.7833 29.0441 33.3888 28.8988 33.0803 28.6325C33.0949 28.5966 33.1 28.559 33.1137 28.5232C33.1657 28.3838 33.2086 28.2411 33.2418 28.0961C33.2555 28.0389 33.27 27.9816 33.2802 27.9253C33.3588 27.5345 33.3588 27.1321 33.2802 26.7414C33.27 26.6807 33.2546 26.6218 33.2401 26.562C33.2075 26.4235 33.1665 26.2871 33.1171 26.1537C33.1026 26.1144 33.0966 26.0683 33.0803 26.0333C33.3889 25.7673 33.7834 25.6223 34.1908 25.625ZM28.2116 27.3333C28.2116 26.8802 28.3916 26.4457 28.712 26.1253C29.0323 25.805 29.4669 25.625 29.9199 25.625C30.2002 25.6224 30.4767 25.69 30.7242 25.8215C30.9717 25.9531 31.1824 26.1445 31.337 26.3784C31.5261 26.66 31.6271 26.9915 31.6271 27.3308C31.6271 27.67 31.5261 28.0015 31.337 28.2831C31.1826 28.5175 30.9721 28.7097 30.7247 28.8421C30.4772 28.9746 30.2006 29.0432 29.9199 29.0416C29.4669 29.0416 29.0323 28.8617 28.712 28.5413C28.3916 28.2209 28.2116 27.7864 28.2116 27.3333ZM17.022 23.5348C16.9431 23.4025 16.8311 23.2928 16.6971 23.2167C16.5631 23.1406 16.4117 23.1006 16.2575 23.1006C16.1034 23.1006 15.9519 23.1406 15.8179 23.2167C15.6839 23.2928 15.572 23.4025 15.4931 23.5348L9.51389 35.4932C9.44896 35.6231 9.41824 35.7675 9.42462 35.9126C9.43101 36.0577 9.4743 36.1988 9.5504 36.3225C9.6265 36.4462 9.7329 36.5485 9.85953 36.6196C9.98616 36.6908 10.1288 36.7285 10.2741 36.7291H22.2324C22.378 36.7292 22.5213 36.6921 22.6485 36.6212C22.7757 36.5503 22.8827 36.4481 22.9593 36.3243C23.0359 36.2005 23.0795 36.0591 23.0861 35.9136C23.0927 35.7682 23.062 35.6234 22.9969 35.4932L17.022 23.5348ZM11.6561 35.0208L16.2533 25.8266L20.8504 35.0208H11.6561Z" fill="#61EDC7" fill-opacity="0.8"/>
<path d="M17.1074 32.4585H15.3991V34.1668H17.1074V32.4585Z" fill="#61EDC7" fill-opacity="0.8"/>
<path d="M17.1074 28.1875H15.3991V31.6042H17.1074V28.1875Z" fill="#61EDC7" fill-opacity="0.8"/>
</g>
<defs>
<clipPath id="clip0_2399_29803">
<rect width="41" height="41" fill="white" transform="translate(0.0241089)"/>
</clipPath>
</defs>
</svg>
