<svg width="42" height="41" viewBox="0 0 42 41" fill="none" xmlns="http://www.w3.org/2000/svg">
<g clip-path="url(#clip0_2399_29828)">
<path d="M15.3523 26.1928C15.7659 26.0839 16.1738 25.9547 16.5747 25.8059C16.5926 25.7995 16.6096 25.787 16.6272 25.779C17.047 26.1021 17.3868 26.5176 17.6201 26.9933C17.8534 27.469 17.974 27.992 17.9725 28.5218C17.9734 28.6918 18.0417 28.8545 18.1625 28.9741C18.2833 29.0937 18.4467 29.1604 18.6167 29.1595C18.7866 29.1587 18.9493 29.0903 19.0689 28.9695C19.1885 28.8487 19.2552 28.6854 19.2544 28.5154C19.2587 27.8051 19.1009 27.1032 18.793 26.463C18.4852 25.8229 18.0354 25.2614 17.4779 24.8212C17.801 24.1831 18.0534 23.5116 18.2307 22.8186C19.5113 17.4009 17.5292 13.5232 12.3401 11.2931C9.73439 10.1737 5.27596 8.63615 6.07129 4.96057C6.09956 4.82982 6.08619 4.6935 6.03306 4.57074C5.97993 4.44798 5.8897 4.34493 5.77503 4.27604C5.66037 4.20716 5.52701 4.1759 5.39368 4.18664C5.26034 4.19739 5.13372 4.2496 5.03156 4.33596C2.62121 6.36898 0.998826 8.2191 0.360123 11.1544C-0.0792279 13.0406 -0.100116 15 0.298927 16.8951C0.697969 18.7901 1.50726 20.5748 2.6699 22.1235C4.75865 24.9606 8.38107 26.6031 12.1396 26.6031C13.2236 26.6039 14.3033 26.4658 15.3523 26.1928ZM3.70226 21.3644C2.64953 19.961 1.91693 18.3441 1.55597 16.6273C1.195 14.9105 1.21442 13.1355 1.61286 11.427C2.06995 9.32482 3.13627 7.82608 4.70708 6.33727C5.0479 9.86615 9.05565 11.2765 11.8337 12.47C16.4949 14.4729 18.1311 17.6677 16.9834 22.5243C16.8382 23.0705 16.6433 23.6022 16.4014 24.113C15.2111 23.4426 12.4481 21.7347 10.7985 19.4941C10.6978 19.3572 10.5469 19.2659 10.3789 19.2403C10.2109 19.2147 10.0396 19.2568 9.90271 19.3575C9.76581 19.4582 9.67451 19.6091 9.64889 19.7771C9.62327 19.9451 9.66543 20.1163 9.7661 20.2532C11.3411 22.3926 13.7614 24.0393 15.205 24.9026C15.1467 24.9189 15.0865 24.9385 15.0282 24.9538C11.5208 25.8696 6.48033 25.137 3.70226 21.3644Z" fill="#61EDC7" fill-opacity="0.8"/>
<path d="M37.7361 5.77089C35.5383 3.44983 32.5243 2.07403 29.3309 1.93417C26.1375 1.79431 23.0147 2.90133 20.6225 5.02136C20.5985 5.04216 20.5679 5.05362 20.5361 5.05362C20.5044 5.05362 20.4738 5.04216 20.4498 5.02136C18.5874 3.3704 16.2684 2.32278 13.7985 2.01667C11.3286 1.71056 8.82392 2.16036 6.61487 3.30673C6.9033 3.52759 7.12301 3.82588 7.2484 4.16683C7.37379 4.50778 7.39969 4.87734 7.32308 5.23245C6.85222 7.40865 9.25745 8.60982 12.2091 9.84719C12.4301 9.94008 12.6435 10.0298 12.8456 10.1163C16.436 11.6589 18.6785 13.9853 19.5158 16.9767H24.0162C24.1077 16.9356 24.1882 16.8734 24.251 16.7951L25.4179 11.9571C25.4683 11.7443 25.5893 11.5548 25.7611 11.4193C25.9328 11.2839 26.1453 11.2105 26.3641 11.2111C26.5812 11.219 26.7892 11.3006 26.9539 11.4424C27.1185 11.5842 27.2301 11.7778 27.2702 11.9914L28.6235 19.2381L30.4519 14.2534C30.4583 14.2374 30.4647 14.2207 30.4721 14.2054C30.5453 14.0386 30.6651 13.8965 30.8172 13.7963C30.9693 13.696 31.1471 13.6419 31.3292 13.6403H31.3295C31.5117 13.6417 31.6895 13.6956 31.8417 13.7957C31.9939 13.8958 32.1139 14.0377 32.1873 14.2044L33.2834 16.7205C33.3317 16.8136 33.3925 16.8997 33.4641 16.9764H40.6859C41.165 15.0106 41.1462 12.9563 40.6311 10.9997C40.116 9.04297 39.121 7.24569 37.7361 5.77057V5.77089Z" fill="#61EDC7" fill-opacity="0.8"/>
<path d="M32.1149 17.2463L31.3571 15.507L29.3977 20.8479C29.3913 20.8646 29.3849 20.8806 29.3775 20.8966C29.3048 21.063 29.1855 21.2049 29.034 21.305C28.8824 21.4052 28.7052 21.4593 28.5236 21.461C28.4896 21.4611 28.4555 21.4592 28.4217 21.4556C28.2187 21.4314 28.0287 21.3433 27.8791 21.2039C27.7295 21.0646 27.6282 20.8812 27.5899 20.6804L26.299 13.7681L25.4877 17.1313C25.382 17.4381 25.1897 17.7077 24.9342 17.9076C24.6786 18.1075 24.3707 18.2291 24.0475 18.2579H19.781C19.983 19.8812 19.88 21.528 19.4773 23.1135C19.3549 23.5938 19.2025 24.0659 19.0209 24.527C20.0083 25.617 20.5492 27.0388 20.5359 28.5095C20.5372 28.7619 20.4886 29.0121 20.3932 29.2458C20.2977 29.4795 20.1571 29.6921 19.9794 29.8714C19.8017 30.0507 19.5905 30.1933 19.3577 30.291C19.1249 30.3887 18.8752 30.4395 18.6227 30.4407H18.6163C18.1082 30.44 17.6208 30.2387 17.2603 29.8806C16.8998 29.5225 16.6953 29.0365 16.6912 28.5284C16.696 28.0724 16.5543 27.6269 16.287 27.2574C16.0814 27.3214 15.878 27.3801 15.6752 27.4326C14.5207 27.7332 13.3326 27.885 12.1396 27.8842C10.7629 27.885 9.39343 27.6855 8.07419 27.292L19.534 38.6727C19.8027 38.933 20.162 39.0785 20.5361 39.0785C20.9102 39.0785 21.2696 38.933 21.5382 38.6727L37.3232 22.9966C38.6657 21.6639 39.6879 20.0435 40.3124 18.2579H33.3366C32.5928 18.2579 32.1338 17.2873 32.1149 17.2463Z" fill="#61EDC7" fill-opacity="0.8"/>
</g>
<defs>
<clipPath id="clip0_2399_29828">
<rect width="41" height="41" fill="white" transform="translate(0.0241089)"/>
</clipPath>
</defs>
</svg>
