<svg width="41" height="41" viewBox="0 0 41 41" fill="none" xmlns="http://www.w3.org/2000/svg">
<path d="M36.458 7.0915C35.0102 7.0915 33.8314 5.91275 33.8314 4.46494C33.8314 3.01713 35.0102 1.83838 36.458 1.83838C37.9058 1.83838 39.0845 3.01713 39.0845 4.46494C39.0845 5.91275 37.9058 7.0915 36.458 7.0915ZM36.458 3.0876C35.6956 3.0876 35.0742 3.709 35.0742 4.47135C35.0742 5.23369 35.6956 5.8551 36.458 5.8551C37.2203 5.8551 37.8417 5.23369 37.8417 4.47135C37.8417 3.709 37.2203 3.0876 36.458 3.0876ZM38.3734 16.7201C36.9256 16.7201 35.7469 15.5413 35.7469 14.0935C35.7469 12.6457 36.9256 11.467 38.3734 11.467C39.8213 11.467 41 12.6457 41 14.0935C41 15.5413 39.8213 16.7201 38.3734 16.7201ZM38.3734 12.7162C37.6111 12.7162 36.9897 13.3376 36.9897 14.0999C36.9897 14.8623 37.6111 15.4837 38.3734 15.4837C39.1358 15.4837 39.7572 14.8623 39.7572 14.0999C39.7572 13.3312 39.1358 12.7162 38.3734 12.7162ZM4.72781 11.3196C2.12047 11.3196 0 9.19916 0 6.59182C0 3.98447 2.12047 1.864 4.72781 1.864C7.33516 1.864 9.45563 3.98447 9.45563 6.59182C9.45563 9.19916 7.33516 11.3196 4.72781 11.3196ZM4.72781 3.10682C2.80594 3.10682 1.24281 4.66994 1.24281 6.59182C1.24281 8.51369 2.80594 10.0768 4.72781 10.0768C6.64969 10.0768 8.21281 8.51369 8.21281 6.59182C8.21281 4.66994 6.64969 3.10682 4.72781 3.10682ZM15.0611 37.3162H8.11672C7.77078 37.3162 7.49531 37.0407 7.49531 36.6948V32.1912C7.49531 31.8453 7.77078 31.5698 8.11672 31.5698C8.46266 31.5698 8.73812 31.8453 8.73812 32.1912V36.0734H15.0611C15.407 36.0734 15.6825 36.3488 15.6825 36.6948C15.6825 37.0343 15.407 37.3162 15.0611 37.3162ZM12.7613 20.9226C12.6075 20.9226 12.4473 20.8649 12.332 20.7496C12.0886 20.5126 12.0822 20.1154 12.3192 19.872L16.2719 15.7912C16.5089 15.5413 16.9061 15.5413 17.1495 15.7784C17.393 16.0154 17.3994 16.4126 17.1623 16.656L13.2097 20.7368C13.088 20.8585 12.9278 20.9226 12.7613 20.9226ZM26.8678 20.9226C26.6692 20.9226 26.477 20.8329 26.3617 20.6599L23.7544 16.9507C23.5558 16.6688 23.6262 16.2845 23.9081 16.0859C24.19 15.8873 24.5744 15.9578 24.773 16.2396L27.3803 19.9488C27.5789 20.2307 27.5084 20.6151 27.2266 20.8137C27.1177 20.8906 26.9895 20.9226 26.8678 20.9226Z" fill="#8461ED" fill-opacity="0.5"/>
<path d="M13.9592 12.0436H9.45564C9.29548 12.0436 9.14814 11.986 9.03283 11.8771L7.09173 10.0577C6.84189 9.82066 6.82908 9.42988 7.06611 9.18004C7.30314 8.93019 7.69392 8.91738 7.94376 9.15441L9.70548 10.8072H13.9656C14.3116 10.8072 14.587 11.0827 14.587 11.4286C14.5806 11.7682 14.3052 12.0436 13.9592 12.0436ZM38.3735 12.7163C38.0275 12.7163 37.752 12.4408 37.752 12.0949V10.7816H27.6302C27.2842 10.7816 27.0088 10.5061 27.0088 10.1602C27.0088 9.81426 27.2842 9.53879 27.6302 9.53879H38.3735C38.7194 9.53879 38.9949 9.81426 38.9949 10.1602V12.0949C38.9949 12.4344 38.7194 12.7163 38.3735 12.7163ZM26.3489 7.33504C26.1952 7.33504 26.0414 7.27738 25.9261 7.16848C25.6763 6.93144 25.6635 6.54066 25.9005 6.29082L28.0145 4.04863C28.1299 3.92691 28.2964 3.85645 28.4694 3.85645H34.4656C34.8116 3.85645 35.087 4.13191 35.087 4.47785C35.087 4.82379 34.8116 5.09926 34.4656 5.09926H28.7385L26.8102 7.14926C26.6756 7.27098 26.5091 7.33504 26.3489 7.33504Z" fill="#8461ED" fill-opacity="0.5"/>
<path d="M20.7755 18.1744C16.6562 18.1744 13.2994 14.8239 13.2994 10.6983C13.2994 6.57904 16.6498 3.22217 20.7755 3.22217C24.9011 3.22217 28.2516 6.57904 28.2516 10.6983C28.2516 14.8175 24.8947 18.1744 20.7755 18.1744ZM20.7755 4.46498C17.3353 4.46498 14.5422 7.25811 14.5422 10.6983C14.5422 14.132 17.3353 16.9315 20.7755 16.9315C24.2156 16.9315 27.0087 14.1384 27.0087 10.6983C27.0087 7.26451 24.2092 4.46498 20.7755 4.46498ZM31.2881 33.0176C27.1689 33.0176 23.812 29.6672 23.812 25.5415C23.812 21.4223 27.1625 18.0654 31.2881 18.0654C35.4137 18.0654 38.7642 21.4159 38.7642 25.5415C38.7642 29.6608 35.4073 33.0176 31.2881 33.0176ZM31.2881 19.3083C27.848 19.3083 25.0548 22.1014 25.0548 25.5415C25.0548 28.9753 27.848 31.7748 31.2881 31.7748C34.7283 31.7748 37.5214 28.9817 37.5214 25.5415C37.5214 22.1014 34.7283 19.3083 31.2881 19.3083ZM8.11672 32.8126C3.99109 32.8126 0.640625 29.4622 0.640625 25.3365C0.640625 21.2173 3.99109 17.8604 8.11672 17.8604C12.2423 17.8604 15.5928 21.2109 15.5928 25.3365C15.5928 29.4622 12.2359 32.8126 8.11672 32.8126ZM8.11672 19.1033C4.67656 19.1033 1.88344 21.8964 1.88344 25.3365C1.88344 28.7767 4.67656 31.5698 8.11672 31.5698C11.5569 31.5698 14.35 28.7767 14.35 25.3365C14.35 21.9028 11.5505 19.1033 8.11672 19.1033ZM17.0278 39.315C15.58 39.315 14.4012 38.1362 14.4012 36.6884C14.4012 35.2406 15.58 34.0619 17.0278 34.0619C18.4756 34.0619 19.6544 35.2406 19.6544 36.6884C19.6544 38.1426 18.4756 39.315 17.0278 39.315ZM17.0278 35.3111C16.2655 35.3111 15.6441 35.9325 15.6441 36.6948C15.6441 37.4572 16.2655 38.0786 17.0278 38.0786C17.7902 38.0786 18.4116 37.4572 18.4116 36.6948C18.4116 35.9325 17.7902 35.3111 17.0278 35.3111Z" fill="#8461ED"/>
</svg>
