<svg width="42" height="41" viewBox="0 0 42 41" fill="none" xmlns="http://www.w3.org/2000/svg">
<g clip-path="url(#clip0_2399_29821)">
<path d="M27.2378 21.2846C27.2378 17.5725 24.2177 14.5523 20.5053 14.5523C16.7931 14.5523 13.773 17.5725 13.773 21.2846C13.773 24.9969 16.7931 28.0171 20.5053 28.0171C24.2177 28.0171 27.2378 24.9969 27.2378 21.2846ZM18.379 15.9768C18.0382 16.5003 17.7514 17.1494 17.5346 17.8923H15.9043C16.5312 17.0441 17.3868 16.3758 18.379 15.9768ZM15.3065 18.9053H17.2937C17.1838 19.4924 17.1145 20.1209 17.0906 20.778H14.8096C14.8681 20.1149 15.0403 19.4844 15.3065 18.9053ZM15.3065 23.6641C15.0403 23.085 14.8681 22.4542 14.8096 21.791H17.0906C17.1145 22.4482 17.1838 23.0768 17.2937 23.6641H15.3065ZM15.9043 24.6771H17.5346C17.7514 25.42 18.0384 26.0691 18.3792 26.5925C17.387 26.1936 16.5313 25.5251 15.9043 24.6771ZM19.9989 26.8494C19.4667 26.5433 18.9508 25.7753 18.5903 24.6771H19.9989V26.8494ZM19.9989 23.6641H18.3238C18.2073 23.0943 18.1302 22.466 18.1039 21.791H19.9989V23.6641ZM19.9989 20.778H18.1039C18.1302 20.1032 18.2073 19.475 18.3238 18.9053H19.9989V20.778ZM19.9989 17.8923H18.5903C18.9508 16.7939 19.4664 16.0259 19.9989 15.7197V17.8923ZM25.7043 23.6641H23.7172C23.827 23.0768 23.8963 22.4482 23.9202 21.791H26.2012C26.1425 22.4541 25.9705 23.0849 25.7043 23.6641ZM25.7043 18.9053C25.9705 19.4844 26.1425 20.1149 26.2012 20.778H23.9202C23.8963 20.1209 23.827 19.4924 23.7172 18.9053H25.7043ZM25.1066 17.8923H23.4764C23.2595 17.1494 22.9726 16.5003 22.6317 15.9768C23.624 16.3758 24.4796 17.0441 25.1066 17.8923ZM21.0118 15.7197C21.5441 16.0259 22.0602 16.7939 22.4205 17.8923H21.0118V15.7197ZM21.0118 18.9053H22.6872C22.8035 19.475 22.8808 20.1032 22.9069 20.778H21.0118V18.9053ZM21.0118 21.791H22.9069C22.8808 22.466 22.8035 23.0943 22.6868 23.6641H21.0118V21.791ZM21.0118 26.8494V24.6771H22.4205C22.06 25.7753 21.5441 26.5433 21.0118 26.8494ZM22.6316 26.5925C22.9726 26.0691 23.2594 25.42 23.4763 24.6771H25.1065C24.4796 25.5251 23.6238 26.1936 22.6316 26.5925ZM37.9642 5.20424C37.815 5.14322 37.7852 4.94647 37.9131 4.84813C38.5246 4.37799 38.8995 3.61581 38.8274 2.76954C38.7335 1.66358 37.8466 0.750691 36.7434 0.628732C35.3179 0.470899 34.1114 1.58262 34.1114 2.97614C34.1114 3.73985 34.4743 4.41803 35.0367 4.84965C35.1637 4.94727 35.1317 5.1437 34.9832 5.2044C33.5489 5.79185 32.5374 7.01536 32.5374 8.66153V10.3364C32.5374 10.7176 32.8464 11.0268 33.2278 11.0268H39.7202C40.1012 11.0268 40.4104 10.7176 40.4104 10.3364V8.66153C40.4104 7.0152 39.3989 5.79169 37.9642 5.20424ZM1.32833 11.0268H7.82042C8.20176 11.0268 8.51078 10.7176 8.51078 10.3364V8.66153C8.51078 7.0152 7.49947 5.79169 6.06479 5.20424C5.91545 5.14322 5.88574 4.94647 6.01346 4.84813C6.62486 4.37799 6.99986 3.61581 6.92795 2.76954C6.83402 1.66358 5.94708 0.750691 4.84384 0.628732C3.41853 0.470899 2.21183 1.58262 2.21183 2.97614C2.21183 3.73985 2.57483 4.41803 3.13714 4.84965C3.2643 4.94727 3.23211 5.1437 3.0838 5.2044C1.64928 5.79185 0.637817 7.01536 0.637817 8.66153V10.3364C0.637817 10.7176 0.946999 11.0268 1.32833 11.0268ZM37.9642 34.5633C37.815 34.5024 37.7852 34.3057 37.9131 34.2072C38.5246 33.737 38.8995 32.975 38.8274 32.1287C38.7335 31.0228 37.8466 30.1099 36.7434 29.9878C35.3179 29.8301 34.1114 30.9418 34.1114 32.3352C34.1114 33.0989 34.4743 33.7772 35.0367 34.2087C35.1637 34.3063 35.1317 34.5027 34.9832 34.5636C33.5489 35.1511 32.5374 36.5588 32.5374 38.2047V39.6956C32.5374 40.077 32.8464 40.3858 33.2278 40.3858H39.7202C40.1012 40.3858 40.4104 40.077 40.4104 39.6956V38.2047C40.4104 36.5585 39.3989 35.1507 37.9642 34.5633ZM6.06487 34.5633C5.91553 34.5024 5.88582 34.3057 6.01354 34.2072C6.62494 33.737 6.99994 32.975 6.92803 32.1287C6.83402 31.0228 5.94708 30.1099 4.84384 29.9878C3.41853 29.8301 2.21191 30.9418 2.21191 32.3352C2.21191 33.0989 2.57491 33.7772 3.13722 34.2087C3.26438 34.3063 3.23219 34.5027 3.08388 34.5636C1.64936 35.1511 0.637897 36.5588 0.637897 38.2047V39.6956C0.637897 40.077 0.947079 40.3858 1.32841 40.3858H7.8205C8.20184 40.3858 8.51086 40.077 8.51086 39.6956V38.2047C8.51078 36.5585 7.49955 35.1507 6.06487 34.5633ZM14.0881 16.1001L13.3007 15.4627C12.9398 15.9088 12.619 16.3902 12.3472 16.8944L13.2391 17.3749C13.4808 16.9262 13.7667 16.4972 14.0881 16.1001ZM12.7509 18.4629L11.799 18.116C11.6031 18.6539 11.4569 19.214 11.3642 19.7806L12.3639 19.9439C12.4464 19.4397 12.5765 18.9414 12.7509 18.4629ZM16.1184 14.2969L15.5791 13.4393C15.0952 13.7437 14.636 14.0957 14.2145 14.4859L14.9027 15.2291C15.2782 14.8817 15.6872 14.5679 16.1184 14.2969ZM28.7265 17.0133C28.4622 16.5056 28.1484 16.0195 27.7941 15.5683L26.9973 16.1938C27.3132 16.5958 27.5926 17.029 27.8279 17.4809L28.7265 17.0133ZM26.8949 14.5784C26.4796 14.1829 26.0257 13.8241 25.5454 13.5121L24.9936 14.3617C25.4215 14.6396 25.826 14.9593 26.1957 15.3116L26.8949 14.5784ZM17.1695 13.737C17.6018 13.5455 18.053 13.393 18.5115 13.2793C19.0195 13.7557 19.7003 14.0499 20.4499 14.0499C21.2171 14.0499 21.913 13.7429 22.4242 13.2468L22.4229 13.2504C22.9181 13.3735 23.4856 13.5727 23.9493 13.786L24.3727 12.8659C23.9419 12.6677 23.4934 12.5042 23.0366 12.3746C23.1971 12.0191 23.2886 11.626 23.2886 11.2113C23.2886 10.5935 23.088 10.0229 22.7518 9.5564L23.5619 8.47551L22.7515 7.86804L22.0176 8.84699C21.5683 8.54782 21.0293 8.37261 20.4499 8.37261C18.8844 8.37261 17.6112 9.64601 17.6112 11.2113C17.6112 11.637 17.708 12.0396 17.8766 12.4025C17.4962 12.5149 17.1217 12.6504 16.7594 12.8109L17.1695 13.737ZM20.4499 9.38536C20.8017 9.38536 21.1292 9.48705 21.4082 9.66002L20.3078 11.128L19.4578 10.2445L18.728 10.9466L19.9909 12.2595C20.0865 12.3591 20.2185 12.415 20.3557 12.415C20.366 12.415 20.3765 12.4145 20.387 12.414C20.5352 12.4048 20.672 12.3311 20.761 12.2122L22.0976 10.4293C22.2106 10.6668 22.2759 10.9311 22.2759 11.2112C22.2759 12.218 21.4569 13.0371 20.45 13.0371C19.4433 13.0371 18.6243 12.218 18.6243 11.2112C18.6243 10.2045 19.4432 9.38536 20.4499 9.38536ZM28.6653 20.0614L29.6673 19.9128C29.5833 19.3457 29.4452 18.7836 29.257 18.2425L28.3002 18.5748C28.4674 19.0567 28.5904 19.5569 28.6653 20.0614ZM18.0575 30.2203C18.6088 30.3709 19.1785 30.4707 19.7513 30.517L19.8326 29.5073C19.3226 29.4663 18.8154 29.3775 18.3248 29.2433L18.0575 30.2203ZM25.9692 27.4657L26.6405 28.2243C27.0695 27.8446 27.4658 27.4229 27.8175 26.9712L27.0183 26.3489C26.7047 26.7514 26.3518 27.1271 25.9692 27.4657ZM13.8988 26.2261L13.0883 26.8337C13.4317 27.2923 13.82 27.7212 14.2419 28.1084L14.9268 27.3624C14.5511 27.0172 14.205 26.6349 13.8988 26.2261ZM15.29 28.9404C15.7643 29.2642 16.2706 29.5445 16.7945 29.7739L17.2007 28.8458C16.7343 28.6415 16.2836 28.3919 15.8608 28.1036L15.29 28.9404ZM27.6809 25.3581L28.5616 25.8589C28.8457 25.36 29.0834 24.8321 29.2692 24.2908L28.3109 23.9621C28.1456 24.444 27.9336 24.9139 27.6809 25.3581ZM28.7549 21.2484L28.7551 21.2846C28.7551 21.7974 28.7078 22.3104 28.6146 22.81L29.6102 22.9959C29.7151 22.4354 29.7682 21.8595 29.7682 21.277L29.768 21.2484H28.7549ZM21.0255 29.518L21.0884 30.5292C21.6621 30.4934 22.2339 30.404 22.7871 30.2639L22.5385 29.2818C22.0456 29.4068 21.5367 29.4863 21.0255 29.518ZM12.2557 21.2846C12.2557 21.2331 12.2562 21.1817 12.2572 21.1303L11.2442 21.1134C11.2432 21.1705 11.2427 21.2273 11.2427 21.2846C11.2427 21.8019 11.2857 22.3209 11.3705 22.827L12.3697 22.6593C12.2941 22.2087 12.2557 21.7461 12.2557 21.2846ZM12.6515 23.8169L11.6875 24.1277C11.8629 24.6724 12.091 25.2041 12.3653 25.7079L13.2549 25.2237C13.0108 24.7752 12.8078 24.3017 12.6515 23.8169ZM23.6693 28.9061L24.0577 29.8414C24.5865 29.6218 25.0978 29.3509 25.5775 29.0364L25.0221 28.1891C24.595 28.4693 24.1396 28.7104 23.6693 28.9061ZM7.68549 15.437C7.58788 15.3318 7.43605 15.2969 7.30232 15.3493C7.16875 15.4016 7.08098 15.5306 7.08098 15.674V16.7605H6.068H5.09721V12.497H4.08422V17.2669C4.08422 17.5467 4.311 17.7735 4.59063 17.7735H6.068H7.08098V18.793C7.08098 18.9371 7.16963 19.0662 7.304 19.1182C7.43837 19.1702 7.59084 19.134 7.68782 19.0275L9.11857 17.4519C9.24029 17.3178 9.23933 17.1131 9.11625 16.9803L7.68549 15.437ZM7.68549 21.8013C7.58788 21.6962 7.43605 21.6613 7.30232 21.7137C7.16875 21.7661 7.08098 21.895 7.08098 22.0384V23.0472H6.068H4.59055C4.31092 23.0472 4.08414 23.274 4.08414 23.5537V28.5079H5.09713V24.0602H6.06791H7.0809V25.1574C7.0809 25.3014 7.16955 25.4308 7.30392 25.4827C7.43829 25.5347 7.59076 25.4985 7.68774 25.392L9.11849 23.8164C9.24021 23.6823 9.23925 23.4775 9.11617 23.3448L7.68549 21.8013ZM33.4204 19.0276C33.5174 19.1341 33.6699 19.1702 33.8043 19.1183C33.9386 19.0664 34.0273 18.9372 34.0273 18.7931V17.7735H36.5177C36.7973 17.7735 37.0241 17.5468 37.0241 17.267V12.497H36.0111V16.7605H34.0274V15.6741C34.0274 15.5306 33.9396 15.4018 33.806 15.3493C33.6723 15.297 33.5205 15.3318 33.4228 15.4371L31.9921 16.9804C31.869 17.1132 31.8679 17.318 31.9898 17.452L33.4204 19.0276ZM33.8043 25.4827C33.9386 25.4309 34.0273 25.3014 34.0273 25.1574V24.0602H36.011V28.5079H37.024V23.5537C37.024 23.274 36.7973 23.0472 36.5176 23.0472H34.0272V22.0384C34.0272 21.895 33.9394 21.7662 33.8059 21.7137C33.6721 21.6613 33.5203 21.6962 33.4227 21.8013L31.9919 23.3448C31.8688 23.4774 31.8677 23.6823 31.9896 23.8164L33.4204 25.392C33.5174 25.4985 33.6699 25.5346 33.8043 25.4827Z" fill="#61EDC7" fill-opacity="0.8"/>
</g>
<defs>
<clipPath id="clip0_2399_29821">
<rect width="41" height="41" fill="white" transform="translate(0.0241089)"/>
</clipPath>
</defs>
</svg>
