<svg width="41" height="41" viewBox="0 0 41 41" fill="none" xmlns="http://www.w3.org/2000/svg">
<path d="M13.0816 18.969C13.1126 18.9976 13.1337 19.0355 13.1417 19.0769C13.1498 19.1184 13.1444 19.1614 13.1264 19.1996C12.8966 19.6434 12.7058 20.1064 12.5563 20.5833C12.5404 20.6226 12.5128 20.656 12.4773 20.6789C12.4417 20.7018 12.3999 20.7132 12.3577 20.7115C11.968 20.7132 11.5949 20.8691 11.3199 21.1453C11.045 21.4214 10.8906 21.7952 10.8906 22.1849V23.9402C10.8906 24.3299 11.045 24.7037 11.3199 24.9798C11.5949 25.256 11.968 25.412 12.3577 25.4136C12.3999 25.4119 12.4417 25.4233 12.4773 25.4462C12.5128 25.4692 12.5404 25.5025 12.5563 25.5418C12.7069 26.0121 12.8976 26.4686 13.1264 26.9063C13.1444 26.9445 13.1498 26.9875 13.1417 27.029C13.1337 27.0704 13.1126 27.1083 13.0816 27.1369C12.8073 27.414 12.6535 27.7881 12.6535 28.1779C12.6535 28.5678 12.8073 28.9419 13.0816 29.219L14.3308 30.4618C14.6062 30.7317 14.9765 30.883 15.3622 30.883C15.7479 30.883 16.1182 30.7317 16.3936 30.4618C16.4223 30.4307 16.4601 30.4097 16.5016 30.4016C16.543 30.3935 16.586 30.3989 16.6242 30.4169C17.0676 30.6478 17.5306 30.8387 18.008 30.9871C18.0478 31.0021 18.0817 31.0295 18.1048 31.0653C18.1279 31.101 18.1388 31.1432 18.1361 31.1857C18.1344 31.3813 18.1717 31.5754 18.2457 31.7565C18.3198 31.9376 18.4292 32.1021 18.5676 32.2404C18.7059 32.3788 18.8705 32.4882 19.0516 32.5623C19.2327 32.6364 19.4267 32.6736 19.6223 32.6719H21.3777C21.7673 32.6719 22.1411 32.5176 22.4173 32.2426C22.6934 31.9677 22.8494 31.5946 22.8511 31.2049C22.8484 31.1624 22.8593 31.1202 22.8824 31.0845C22.9055 31.0487 22.9394 31.0213 22.9792 31.0063C23.45 30.8568 23.9066 30.666 24.3438 30.4361C24.382 30.4181 24.4249 30.4127 24.4664 30.4208C24.5079 30.4289 24.5457 30.45 24.5744 30.481C24.8517 30.7499 25.2227 30.9002 25.609 30.9002C25.9952 30.9002 26.3663 30.7499 26.6436 30.481L27.8864 29.2382C28.1606 28.9611 28.3145 28.587 28.3145 28.1972C28.3145 27.8073 28.1606 27.4332 27.8864 27.1561C27.8554 27.1275 27.8343 27.0897 27.8262 27.0482C27.8182 27.0067 27.8235 26.9637 27.8416 26.9255C28.0757 26.4762 28.2687 26.0067 28.4181 25.5226C28.4351 25.4868 28.4626 25.4572 28.497 25.4377C28.5314 25.4182 28.571 25.4098 28.6103 25.4136C28.806 25.4171 29.0003 25.3815 29.182 25.3089C29.3638 25.2364 29.5292 25.1284 29.6688 24.9913C29.8083 24.8541 29.9192 24.6905 29.9948 24.5101C30.0705 24.3296 30.1094 24.1359 30.1094 23.9402V22.1849C30.1094 21.7952 29.955 21.4214 29.6801 21.1453C29.4051 20.8691 29.032 20.7132 28.6423 20.7115C28.6001 20.7132 28.5583 20.7018 28.5227 20.6789C28.4872 20.656 28.4596 20.6226 28.4438 20.5833C28.2931 20.113 28.1024 19.6565 27.8736 19.2188C27.8556 19.1806 27.8502 19.1376 27.8583 19.0962C27.8663 19.0547 27.8874 19.0169 27.9184 18.9882C28.1927 18.7111 28.3465 18.337 28.3465 17.9472C28.3465 17.5573 28.1927 17.1832 27.9184 16.9061L26.6692 15.6633C26.3946 15.3918 26.024 15.2396 25.6378 15.2396C25.2516 15.2396 24.881 15.3918 24.6064 15.6633C24.5777 15.6944 24.5399 15.7155 24.4984 15.7235C24.457 15.7316 24.414 15.7262 24.3758 15.7082C23.9324 15.4773 23.4694 15.2865 22.992 15.138C22.9522 15.123 22.9183 15.0956 22.8952 15.0599C22.8721 15.0241 22.8612 14.9819 22.8639 14.9394C22.8656 14.7438 22.8283 14.5497 22.7543 14.3687C22.6802 14.1876 22.5708 14.023 22.4324 13.8847C22.2941 13.7463 22.1295 13.6369 21.9484 13.5628C21.7673 13.4887 21.5733 13.4515 21.3777 13.4532H19.6223C19.4278 13.4532 19.2351 13.4917 19.0555 13.5666C18.8759 13.6414 18.7129 13.7511 18.5759 13.8893C18.4389 14.0274 18.3307 14.1914 18.2574 14.3716C18.1841 14.5519 18.1472 14.7449 18.1489 14.9394C18.1505 14.9759 18.141 15.012 18.1215 15.0429C18.102 15.0739 18.0736 15.0981 18.04 15.1124C17.5553 15.2602 17.0856 15.4532 16.637 15.689C16.5988 15.707 16.5559 15.7124 16.5144 15.7043C16.4729 15.6962 16.4351 15.6752 16.4064 15.6441C16.1291 15.3752 15.758 15.2249 15.3718 15.2249C14.9856 15.2249 14.6145 15.3752 14.3372 15.6441L13.0944 16.8869C12.8184 17.1623 12.6623 17.5355 12.6599 17.9253C12.6575 18.3152 12.809 18.6902 13.0816 18.969ZM13.7798 20.9677C13.905 20.5635 14.0658 20.1712 14.2603 19.7954C14.4068 19.5152 14.4597 19.1955 14.4113 18.8831C14.3629 18.5707 14.2157 18.282 13.9913 18.0593C13.9732 18.0425 13.9588 18.0222 13.949 17.9996C13.9391 17.977 13.9341 17.9526 13.9341 17.9279C13.9341 17.9033 13.9391 17.8789 13.949 17.8563C13.9588 17.8337 13.9732 17.8134 13.9913 17.7966L15.2341 16.5538C15.2508 16.5358 15.2712 16.5214 15.2938 16.5115C15.3164 16.5017 15.3407 16.4966 15.3654 16.4966C15.39 16.4966 15.4144 16.5017 15.437 16.5115C15.4596 16.5214 15.4799 16.5358 15.4967 16.5538C15.7184 16.7736 16.0044 16.917 16.3132 16.9631C16.622 17.0092 16.9374 16.9556 17.2136 16.8101C17.5929 16.6119 17.9896 16.4489 18.3987 16.3232C18.6981 16.2288 18.9588 16.0397 19.1413 15.7844C19.3239 15.529 19.4185 15.2212 19.4109 14.9074C19.4109 14.8825 19.4159 14.8578 19.4257 14.8348C19.4354 14.8118 19.4497 14.7911 19.4676 14.7737C19.4855 14.7564 19.5068 14.7428 19.5301 14.7339C19.5533 14.7249 19.5782 14.7208 19.6031 14.7216H21.3584C21.3834 14.7208 21.4082 14.7249 21.4315 14.7339C21.4548 14.7428 21.476 14.7564 21.494 14.7737C21.5119 14.7911 21.5262 14.8118 21.5359 14.8348C21.5456 14.8578 21.5506 14.8825 21.5506 14.9074C21.5466 15.223 21.6441 15.5315 21.8286 15.7875C22.0131 16.0435 22.275 16.2336 22.5756 16.3296C22.9798 16.4548 23.3722 16.6156 23.748 16.8101C24.0239 16.9566 24.3396 17.0108 24.6486 16.9647C24.9576 16.9185 25.2437 16.7745 25.4648 16.5538C25.4816 16.5358 25.502 16.5214 25.5246 16.5115C25.5471 16.5017 25.5715 16.4966 25.5962 16.4966C25.6208 16.4966 25.6452 16.5017 25.6678 16.5115C25.6904 16.5214 25.7107 16.5358 25.7275 16.5538L26.9703 17.7966C26.9885 17.814 27.003 17.8348 27.0129 17.858C27.0229 17.8811 27.028 17.906 27.028 17.9311C27.028 17.9563 27.0229 17.9812 27.0129 18.0043C27.003 18.0275 26.9885 18.0483 26.9703 18.0657C26.7464 18.2873 26.5995 18.5749 26.5511 18.8862C26.5027 19.1975 26.5553 19.5162 26.7013 19.7954C26.8958 20.1712 27.0565 20.5635 27.1817 20.9677C27.2777 21.2683 27.4678 21.5302 27.7238 21.7147C27.9798 21.8993 28.2883 21.9967 28.6039 21.9927C28.6289 21.9927 28.6535 21.9977 28.6765 22.0074C28.6995 22.0172 28.7203 22.0314 28.7376 22.0494C28.7549 22.0673 28.7685 22.0886 28.7774 22.1118C28.7864 22.1351 28.7905 22.16 28.7897 22.1849V23.9402C28.7897 23.9666 28.7844 23.9927 28.7739 24.0168C28.7635 24.041 28.7482 24.0628 28.7289 24.0808C28.7097 24.0989 28.687 24.1128 28.6622 24.1216C28.6374 24.1305 28.611 24.1342 28.5847 24.1324C28.2739 24.128 27.97 24.2241 27.7183 24.4066C27.4666 24.589 27.2807 24.8478 27.1881 25.1446C27.0619 25.5535 26.899 25.9502 26.7013 26.3297C26.5548 26.6099 26.5019 26.9296 26.5503 27.242C26.5987 27.5545 26.7459 27.8432 26.9703 28.0658C26.9884 28.0826 27.0027 28.103 27.0126 28.1255C27.0224 28.1481 27.0275 28.1725 27.0275 28.1972C27.0275 28.2218 27.0224 28.2462 27.0126 28.2688C27.0027 28.2914 26.9884 28.3117 26.9703 28.3285L25.7275 29.5713C25.7107 29.5893 25.6904 29.6037 25.6678 29.6136C25.6452 29.6234 25.6208 29.6285 25.5962 29.6285C25.5715 29.6285 25.5471 29.6234 25.5246 29.6136C25.502 29.6037 25.4816 29.5893 25.4648 29.5713C25.2437 29.3506 24.9576 29.2066 24.6486 29.1605C24.3396 29.1143 24.0239 29.1685 23.748 29.3151C23.3722 29.5096 22.9798 29.6703 22.5756 29.7955C22.275 29.8916 22.0131 30.0816 21.8286 30.3376C21.6441 30.5936 21.5466 30.9021 21.5506 31.2177C21.5506 31.2427 21.5456 31.2674 21.5359 31.2903C21.5262 31.3133 21.5119 31.3341 21.494 31.3514C21.476 31.3687 21.4548 31.3823 21.4315 31.3912C21.4082 31.4002 21.3834 31.4044 21.3584 31.4035H19.6223C19.5974 31.4044 19.5726 31.4002 19.5493 31.3912C19.526 31.3823 19.5048 31.3687 19.4868 31.3514C19.4689 31.3341 19.4546 31.3133 19.4449 31.2903C19.4352 31.2674 19.4301 31.2427 19.4302 31.2177C19.4341 30.9021 19.3367 30.5936 19.1522 30.3376C18.9676 30.0816 18.7058 29.8916 18.4052 29.7955C18.0009 29.6703 17.6086 29.5096 17.2328 29.3151C17.0243 29.2019 16.791 29.1425 16.5538 29.1421C16.1649 29.1432 15.792 29.2974 15.5159 29.5713C15.4992 29.5893 15.4788 29.6037 15.4562 29.6136C15.4336 29.6234 15.4093 29.6285 15.3846 29.6285C15.36 29.6285 15.3356 29.6234 15.313 29.6136C15.2904 29.6037 15.2701 29.5893 15.2533 29.5713L14.0105 28.3285C13.9923 28.3111 13.9777 28.2903 13.9678 28.2671C13.9579 28.244 13.9528 28.2191 13.9528 28.194C13.9528 28.1688 13.9579 28.1439 13.9678 28.1208C13.9777 28.0977 13.9923 28.0768 14.0105 28.0594C14.2343 27.8378 14.3813 27.5502 14.4297 27.2389C14.4781 26.9276 14.4255 26.6089 14.2795 26.3297C14.085 25.9539 13.9242 25.5616 13.7991 25.1574C13.703 24.8568 13.513 24.5949 13.257 24.4104C13.001 24.2259 12.6924 24.1284 12.3769 24.1324C12.3519 24.1324 12.3272 24.1274 12.3043 24.1177C12.2813 24.1079 12.2605 24.0937 12.2432 24.0757C12.2259 24.0578 12.2123 24.0366 12.2034 24.0133C12.1944 23.99 12.1902 23.9651 12.1911 23.9402V22.1849C12.1902 22.16 12.1944 22.1351 12.2034 22.1118C12.2123 22.0886 12.2259 22.0673 12.2432 22.0494C12.2605 22.0314 12.2813 22.0172 12.3043 22.0074C12.3272 21.9977 12.3519 21.9927 12.3769 21.9927C12.6892 21.9926 12.9934 21.8932 13.2455 21.709C13.4977 21.5248 13.6848 21.2652 13.7798 20.9677Z" fill="#8461ED"/>
<path d="M20.5 28.8282C21.6403 28.8282 22.7551 28.49 23.7032 27.8565C24.6514 27.223 25.3904 26.3225 25.8267 25.269C26.2631 24.2154 26.3773 23.0562 26.1548 21.9377C25.9324 20.8193 25.3832 19.792 24.5769 18.9856C23.7706 18.1793 22.7432 17.6302 21.6248 17.4077C20.5064 17.1852 19.3471 17.2994 18.2936 17.7358C17.2401 18.1722 16.3396 18.9112 15.7061 19.8593C15.0725 20.8075 14.7344 21.9222 14.7344 23.0626C14.7344 24.5917 15.3418 26.0582 16.4231 27.1395C17.5044 28.2207 18.9709 28.8282 20.5 28.8282ZM20.5 18.5782C21.3869 18.5782 22.2539 18.8412 22.9914 19.3339C23.7288 19.8267 24.3036 20.527 24.643 21.3465C24.9824 22.1659 25.0712 23.0675 24.8982 23.9374C24.7252 24.8073 24.2981 25.6063 23.6709 26.2335C23.0438 26.8606 22.2447 27.2877 21.3749 27.4608C20.505 27.6338 19.6033 27.545 18.7839 27.2056C17.9645 26.8662 17.2641 26.2914 16.7714 25.5539C16.2786 24.8165 16.0156 23.9495 16.0156 23.0626C16.0156 21.8732 16.4881 20.7326 17.3291 19.8916C18.1701 19.0506 19.3107 18.5782 20.5 18.5782ZM1.92188 39.0782H9.60938C9.77928 39.0782 9.94222 39.0107 10.0624 38.8905C10.1825 38.7704 10.25 38.6075 10.25 38.4376V30.7501C10.25 30.5802 10.1825 30.4172 10.0624 30.2971C9.94222 30.1769 9.77928 30.1094 9.60938 30.1094H1.92188C1.75197 30.1094 1.58903 30.1769 1.46888 30.2971C1.34874 30.4172 1.28125 30.5802 1.28125 30.7501V38.4376C1.28125 38.6075 1.34874 38.7704 1.46888 38.8905C1.58903 39.0107 1.75197 39.0782 1.92188 39.0782ZM2.5625 31.3907H8.96875V37.7969H2.5625V31.3907ZM39.7188 34.5938C39.7188 33.5802 39.4182 32.5893 38.855 31.7465C38.2919 30.9037 37.4915 30.2468 36.555 29.8589C35.6185 29.471 34.5881 29.3695 33.5939 29.5673C32.5998 29.765 31.6866 30.2531 30.9698 30.9699C30.2531 31.6866 29.765 32.5998 29.5672 33.594C29.3695 34.5881 29.471 35.6186 29.8589 36.5551C30.2468 37.4915 30.9037 38.2919 31.7465 38.8551C32.5893 39.4182 33.5801 39.7188 34.5938 39.7188C35.953 39.7188 37.2565 39.1789 38.2177 38.2177C39.1788 37.2566 39.7188 35.953 39.7188 34.5938ZM30.75 34.5938C30.75 33.8336 30.9754 33.0904 31.3978 32.4583C31.8201 31.8262 32.4205 31.3336 33.1228 31.0426C33.8252 30.7517 34.598 30.6756 35.3436 30.8239C36.0892 30.9722 36.7741 31.3383 37.3117 31.8759C37.8493 32.4134 38.2153 33.0983 38.3636 33.8439C38.512 34.5895 38.4358 35.3624 38.1449 36.0647C37.854 36.7671 37.3613 37.3674 36.7292 37.7898C36.0971 38.2121 35.354 38.4376 34.5938 38.4376C33.5743 38.4376 32.5967 38.0326 31.8758 37.3117C31.155 36.5909 30.75 35.6132 30.75 34.5938ZM14.8177 11.211C14.8741 11.3088 14.9554 11.3899 15.0532 11.4461C15.1511 11.5024 15.2621 11.5318 15.375 11.5313H25.625C25.7379 11.5318 25.8489 11.5024 25.9468 11.4461C26.0446 11.3899 26.1259 11.3088 26.1823 11.211C26.2386 11.1136 26.2682 11.0031 26.2682 10.8907C26.2682 10.7782 26.2386 10.6678 26.1823 10.5704L21.0573 1.60162C21.0015 1.50303 20.9204 1.42102 20.8225 1.36397C20.7246 1.30692 20.6133 1.27686 20.5 1.27686C20.3867 1.27686 20.2754 1.30692 20.1775 1.36397C20.0796 1.42102 19.9985 1.50303 19.9427 1.60162L14.8177 10.5704C14.7614 10.6678 14.7318 10.7782 14.7318 10.8907C14.7318 11.0031 14.7614 11.1136 14.8177 11.211ZM20.5 3.20318L24.5231 10.2501H16.4769L20.5 3.20318ZM12.4794 36.3811L11.8387 37.5086C12.268 37.7457 12.7164 37.9635 13.1648 38.1493L13.6902 36.9769C13.293 36.8104 12.883 36.6054 12.4794 36.3811ZM27.8095 38.1685L27.2842 36.9962C23.3852 38.7295 18.9708 38.906 14.9458 37.4894L14.523 38.7002C16.4434 39.3752 18.4644 39.7197 20.5 39.7188C23.0188 39.7255 25.5103 39.1971 27.8095 38.1685ZM36.5925 26.0991C36.4772 26.5155 36.3491 26.9319 36.2081 27.3355L37.4189 27.7583C37.5727 27.3227 37.7072 26.8807 37.8289 26.4322L36.5925 26.0991ZM37.1562 21.7813C37.1558 22.817 37.0614 23.8505 36.8744 24.8691L38.1556 25.0997C38.9833 20.6572 38.1037 16.066 35.6927 12.2439C33.2816 8.42188 29.5168 5.6507 25.1509 4.48443L24.8178 5.72084C28.3535 6.66985 31.4781 8.75728 33.7084 11.6604C35.9387 14.5634 37.1504 18.1204 37.1562 21.7813ZM16.1822 5.68881L15.8491 4.48443C15.407 4.60615 14.9586 4.74068 14.523 4.89443L14.9458 6.10521C15.375 5.93224 15.7658 5.80412 16.1822 5.68881ZM5.08016 28.0851C3.44183 24.0792 3.42704 19.593 5.03893 15.5764C6.65081 11.5599 9.76277 8.32844 13.7158 6.56646L13.1905 5.39412C8.93755 7.29765 5.59031 10.7787 3.85488 15.1029C2.11944 19.4272 2.13153 24.2564 3.88859 28.5719L5.08016 28.0851Z" fill="#8461ED"/>
</svg>
