<svg width="41" height="41" viewBox="0 0 41 41" fill="none" xmlns="http://www.w3.org/2000/svg">
<path d="M13.4531 9.60938C14.3376 9.60938 15.0547 8.89233 15.0547 8.00781C15.0547 7.12329 14.3376 6.40625 13.4531 6.40625C12.5686 6.40625 11.8516 7.12329 11.8516 8.00781C11.8516 8.89233 12.5686 9.60938 13.4531 9.60938Z" fill="#8461ED"/>
<path d="M26.2656 4.48438C27.1501 4.48438 27.8672 3.76733 27.8672 2.88281C27.8672 1.99829 27.1501 1.28125 26.2656 1.28125C25.3811 1.28125 24.6641 1.99829 24.6641 2.88281C24.6641 3.76733 25.3811 4.48438 26.2656 4.48438Z" fill="#8461ED"/>
<path d="M3.20312 1.92188C3.03322 1.92188 2.87028 1.98937 2.75013 2.10951C2.62999 2.22965 2.5625 2.3926 2.5625 2.5625V3.20312H1.92188C1.75197 3.20312 1.58903 3.27062 1.46888 3.39076C1.34874 3.5109 1.28125 3.67385 1.28125 3.84375C1.28125 4.01365 1.34874 4.1766 1.46888 4.29674C1.58903 4.41688 1.75197 4.48438 1.92188 4.48438H2.5625V5.125C2.5625 5.2949 2.62999 5.45785 2.75013 5.57799C2.87028 5.69813 3.03322 5.76562 3.20312 5.76562C3.37303 5.76562 3.53597 5.69813 3.65612 5.57799C3.77626 5.45785 3.84375 5.2949 3.84375 5.125V4.48438H4.48438C4.65428 4.48438 4.81722 4.41688 4.93737 4.29674C5.05751 4.1766 5.125 4.01365 5.125 3.84375C5.125 3.67385 5.05751 3.5109 4.93737 3.39076C4.81722 3.27062 4.65428 3.20312 4.48438 3.20312H3.84375V2.5625C3.84375 2.3926 3.77626 2.22965 3.65612 2.10951C3.53597 1.98937 3.37303 1.92188 3.20312 1.92188ZM39.0781 7.6875H38.4375V7.04688C38.4375 6.87697 38.37 6.71403 38.2499 6.59388C38.1297 6.47374 37.9668 6.40625 37.7969 6.40625C37.627 6.40625 37.464 6.47374 37.3439 6.59388C37.2237 6.71403 37.1562 6.87697 37.1562 7.04688V7.6875H36.5156C36.3457 7.6875 36.1828 7.75499 36.0626 7.87513C35.9425 7.99528 35.875 8.15822 35.875 8.32812C35.875 8.49803 35.9425 8.66097 36.0626 8.78112C36.1828 8.90126 36.3457 8.96875 36.5156 8.96875H37.1562V9.60938C37.1562 9.77928 37.2237 9.94222 37.3439 10.0624C37.464 10.1825 37.627 10.25 37.7969 10.25C37.9668 10.25 38.1297 10.1825 38.2499 10.0624C38.37 9.94222 38.4375 9.77928 38.4375 9.60938V8.96875H39.0781C39.248 8.96875 39.411 8.90126 39.5311 8.78112C39.6513 8.66097 39.7188 8.49803 39.7188 8.32812C39.7188 8.15822 39.6513 7.99528 39.5311 7.87513C39.411 7.75499 39.248 7.6875 39.0781 7.6875ZM33.9531 15.375C33.7832 15.375 33.6203 15.4425 33.5001 15.5626C33.38 15.6828 33.3125 15.8457 33.3125 16.0156V20.5C33.3125 20.6699 33.38 20.8328 33.5001 20.953C33.6203 21.0731 33.7832 21.1406 33.9531 21.1406C34.123 21.1406 34.286 21.0731 34.4061 20.953C34.5263 20.8328 34.5938 20.6699 34.5938 20.5V16.0156C34.5938 15.8457 34.5263 15.6828 34.4061 15.5626C34.286 15.4425 34.123 15.375 33.9531 15.375Z" fill="#8461ED"/>
<path d="M33.9531 23.7031C34.3069 23.7031 34.5938 23.4163 34.5938 23.0625C34.5938 22.7087 34.3069 22.4219 33.9531 22.4219C33.5993 22.4219 33.3125 22.7087 33.3125 23.0625C33.3125 23.4163 33.5993 23.7031 33.9531 23.7031Z" fill="#8461ED"/>
<path d="M39.0781 34.5938H37.1562V14.0938C37.1562 13.584 36.9538 13.0952 36.5933 12.7348C36.2329 12.3744 35.7441 12.1719 35.2344 12.1719H5.76562C5.25591 12.1719 4.76708 12.3744 4.40665 12.7348C4.04623 13.0952 3.84375 13.584 3.84375 14.0938V34.5938H1.92188C1.75197 34.5938 1.58903 34.6612 1.46888 34.7814C1.34874 34.9015 1.28125 35.0645 1.28125 35.2344C1.28261 36.4233 1.7555 37.5631 2.59619 38.4038C3.43688 39.2445 4.57671 39.7174 5.76562 39.7188H35.2344C36.4233 39.7174 37.5631 39.2445 38.4038 38.4038C39.2445 37.5631 39.7174 36.4233 39.7188 35.2344C39.7188 35.0645 39.6513 34.9015 39.5311 34.7814C39.411 34.6612 39.248 34.5938 39.0781 34.5938ZM24.3438 37.1562H16.6562C16.1111 37.1562 15.6377 36.6117 15.4564 35.875H25.5436C25.3623 36.6117 24.8889 37.1562 24.3438 37.1562ZM35.875 34.5938H5.125V14.0938C5.125 13.9238 5.19249 13.7609 5.31263 13.6408C5.43278 13.5206 5.59572 13.4531 5.76562 13.4531H35.2344C35.4043 13.4531 35.5672 13.5206 35.6874 13.6408C35.8075 13.7609 35.875 13.9238 35.875 14.0938V34.5938Z" fill="#8461ED"/>
<path d="M33.9531 32.0312H32.3516V27.5469C32.3516 27.377 32.2841 27.214 32.1639 27.0939C32.0438 26.9737 31.8808 26.9062 31.7109 26.9062H28.5078C28.3379 26.9062 28.175 26.9737 28.0548 27.0939C27.9347 27.214 27.8672 27.377 27.8672 27.5469V32.0312H25.9453V24.9844C25.9453 24.8145 25.8778 24.6515 25.7577 24.5314C25.6375 24.4112 25.4746 24.3438 25.3047 24.3438H22.1016C21.9317 24.3438 21.7687 24.4112 21.6486 24.5314C21.5284 24.6515 21.4609 24.8145 21.4609 24.9844V32.0312H19.5391V21.1406C19.5391 20.9707 19.4716 20.8078 19.3514 20.6876C19.2313 20.5675 19.0683 20.5 18.8984 20.5H15.6953C15.5254 20.5 15.3625 20.5675 15.2423 20.6876C15.1222 20.8078 15.0547 20.9707 15.0547 21.1406V32.0312H13.1328V16.6562C13.1328 16.4863 13.0653 16.3234 12.9452 16.2033C12.825 16.0831 12.6621 16.0156 12.4922 16.0156H9.28906C9.11916 16.0156 8.95621 16.0831 8.83607 16.2033C8.71593 16.3234 8.64844 16.4863 8.64844 16.6562V32.0312H7.04688C6.87697 32.0312 6.71403 32.0987 6.59388 32.2189C6.47374 32.339 6.40625 32.502 6.40625 32.6719C6.40625 32.8418 6.47374 33.0047 6.59388 33.1249C6.71403 33.245 6.87697 33.3125 7.04688 33.3125H33.9531C34.123 33.3125 34.286 33.245 34.4061 33.1249C34.5263 33.0047 34.5938 32.8418 34.5938 32.6719C34.5938 32.502 34.5263 32.339 34.4061 32.2189C34.286 32.0987 34.123 32.0312 33.9531 32.0312ZM21.7812 19.8594C21.9511 19.8593 22.1141 19.7918 22.2342 19.6717L23.3277 18.5781H30.1094C30.2793 18.5781 30.4422 18.5106 30.5624 18.3905C30.6825 18.2704 30.75 18.1074 30.75 17.9375C30.75 17.7676 30.6825 17.6046 30.5624 17.4845C30.4422 17.3644 30.2793 17.2969 30.1094 17.2969H23.0625C22.8926 17.2969 22.7297 17.3644 22.6096 17.4846L21.3283 18.7658C21.2388 18.8554 21.1778 18.9696 21.1531 19.0938C21.1284 19.2181 21.141 19.3468 21.1895 19.4639C21.238 19.5809 21.3201 19.681 21.4254 19.7514C21.5307 19.8218 21.6546 19.8593 21.7812 19.8594ZM26.2656 16.0156H30.1094C30.2793 16.0156 30.4422 15.9481 30.5624 15.828C30.6825 15.7079 30.75 15.5449 30.75 15.375C30.75 15.2051 30.6825 15.0421 30.5624 14.922C30.4422 14.8019 30.2793 14.7344 30.1094 14.7344H26.2656C26.0957 14.7344 25.9328 14.8019 25.8126 14.922C25.6925 15.0421 25.625 15.2051 25.625 15.375C25.625 15.5449 25.6925 15.7079 25.8126 15.828C25.9328 15.9481 26.0957 16.0156 26.2656 16.0156Z" fill="#8461ED" fill-opacity="0.5"/>
</svg>
