<svg width="41" height="41" viewBox="0 0 41 41" fill="none" xmlns="http://www.w3.org/2000/svg">
<g clip-path="url(#clip0_2399_29814)">
<path fill-rule="evenodd" clip-rule="evenodd" d="M40.9611 6.191C40.9487 5.58245 40.6968 5.00332 40.2602 4.57925C39.8236 4.15518 39.2373 3.92036 38.6287 3.92575C38.1405 3.92882 37.6652 4.08277 37.268 4.3665C35.9272 5.23629 34.3558 5.68271 32.758 5.64775C30.5174 5.6375 27.592 4.80725 26.7223 2.44975C26.4849 1.74662 26.0362 1.13395 25.4374 0.695475C24.8387 0.256998 24.1192 0.0141076 23.3772 0H17.6372C16.8939 0.0138615 16.173 0.256501 15.5725 0.694865C14.9721 1.13323 14.5214 1.74601 14.2819 2.44975C13.4106 4.80725 10.4863 5.64775 8.24562 5.64775C6.64803 5.68097 5.07714 5.23469 3.73562 4.3665C3.33859 4.08272 2.86347 3.92876 2.37545 3.92575C1.76671 3.92023 1.18033 4.15497 0.74358 4.57906C0.306829 5.00315 0.0549396 5.58236 0.0425518 6.191C-0.407423 26.6602 6.41598 38.3657 20.3191 40.9897C20.38 40.9983 20.4416 41.0017 20.5031 41C20.5682 41.0014 20.6333 40.998 20.6978 40.9897C24.0812 40.4029 27.2921 39.0726 30.0991 37.0948C30.6456 37.1976 31.2005 37.2491 31.7566 37.2485C34.1997 37.2425 36.5408 36.2681 38.2667 34.5389C39.9926 32.8096 40.9624 30.4666 40.9636 28.0235C40.9677 26.1211 40.3777 24.2649 39.276 22.714C40.5429 18.0605 41.1046 12.5528 40.9611 6.191ZM32.409 35.1575C32.1919 35.1868 31.973 35.2005 31.754 35.1985C31.021 35.202 30.2922 35.0878 29.5954 34.8603C28.6573 34.5657 27.7909 34.0791 27.0512 33.4314C26.3114 32.7838 25.7146 31.9893 25.2985 31.0985C24.985 30.467 24.7773 29.7883 24.6836 29.0895C24.6219 28.7375 24.591 28.3808 24.5913 28.0235C24.5929 26.4968 25.0805 25.0102 25.9835 23.7791C26.8865 22.5481 28.158 21.6365 29.6138 21.1765H29.624C30.3122 20.9581 31.03 20.8474 31.752 20.8485H31.8442C32.8153 20.8617 33.7735 21.0731 34.66 21.4697C35.5466 21.8662 36.3428 22.4396 37 23.1547C37.62 23.8155 38.1034 24.5923 38.4222 25.4405C38.7478 26.2627 38.9144 27.1392 38.9131 28.0235C38.9136 29.8095 38.2469 31.5312 37.0436 32.851C35.8404 34.1708 34.1874 34.9934 32.409 35.1575ZM37.6057 20.91C36.1114 19.6725 34.2634 18.9405 32.327 18.819C32.6358 17.3743 32.8612 15.9129 33.0019 14.4422C33.019 14.304 33.0059 14.1637 32.9635 14.0309C32.9212 13.8982 32.8505 13.7763 32.7564 13.6735C32.6672 13.5662 32.5565 13.4789 32.4314 13.4171C32.3063 13.3553 32.1696 13.3204 32.0302 13.3147C27.6227 13.1302 23.7129 11.2955 21.2985 8.27175C21.2001 8.15613 21.0778 8.06325 20.9401 7.99956C20.8023 7.93587 20.6523 7.90289 20.5005 7.90289C20.3487 7.90289 20.1988 7.93587 20.061 7.99956C19.9232 8.06325 19.8009 8.15613 19.7026 8.27175C17.2882 11.2955 13.3804 13.1302 8.97133 13.3147C8.69948 13.3256 8.44306 13.4439 8.25847 13.6438C8.07389 13.8436 7.97625 14.1086 7.98705 14.3805C7.99786 14.6523 8.11623 14.9088 8.31609 15.0933C8.51596 15.2779 8.78096 15.3756 9.05281 15.3647C13.6054 15.1802 17.7079 13.407 20.5005 10.4652C23.2603 13.263 26.9354 14.9731 30.853 15.2828C30.7049 16.5058 30.4933 17.7204 30.2191 18.9215C28.0723 19.2905 26.1249 20.4062 24.721 22.0717C23.3171 23.7372 22.5468 25.8452 22.5464 28.0235C22.5458 28.7729 22.6352 29.5196 22.8124 30.2478C22.9738 30.9016 23.2106 31.5345 23.5181 32.1337C24.402 33.9127 25.8376 35.3581 27.6104 36.2543C25.4194 37.5663 23.0113 38.4758 20.5 38.9397C7.86586 36.4592 1.66615 25.461 2.08589 6.24225C2.08907 6.19028 2.10647 6.14018 2.13616 6.09742C2.16585 6.05465 2.2067 6.02086 2.25427 5.99971C2.30185 5.97857 2.35431 5.97088 2.40595 5.9775C2.45759 5.98412 2.50645 6.00479 2.54715 6.03725C4.23246 7.15939 6.22083 7.73884 8.24512 7.69775C12.0612 7.69775 15.1813 5.91425 16.2042 3.157C16.3008 2.84794 16.49 2.57601 16.7462 2.37802C17.0024 2.18002 17.3133 2.06551 17.6367 2.05H23.3767C23.6983 2.0673 24.007 2.18265 24.2611 2.38055C24.5153 2.57845 24.7028 2.8494 24.7984 3.157C25.3523 4.57201 26.3936 5.74253 27.7345 6.4575C29.2731 7.29867 31.0037 7.72603 32.757 7.69775C34.7814 7.73881 36.7699 7.15937 38.4554 6.03725C38.5046 5.99743 38.5659 5.97572 38.6292 5.97575C38.7023 5.97393 38.7732 6.0008 38.8268 6.05061C38.8803 6.10041 38.9122 6.1692 38.9157 6.24225C39.0983 11.1671 38.6582 16.0954 37.6057 20.91ZM23.5186 32.1337C22.6325 32.5605 21.7029 32.8904 20.746 33.1177C20.5849 33.1587 20.4161 33.1587 20.255 33.1177C14.2808 31.6622 10.5262 27.142 8.76631 19.3008C8.73737 19.1697 8.73453 19.0343 8.75793 18.9022C8.78133 18.7701 8.83053 18.6439 8.9027 18.5308C8.97487 18.4177 9.0686 18.3199 9.17856 18.2431C9.28852 18.1662 9.41254 18.1117 9.54354 18.0828C9.67455 18.0539 9.80995 18.051 9.94205 18.0744C10.0742 18.0978 10.2004 18.147 10.3135 18.2191C10.4266 18.2913 10.5244 18.3851 10.6012 18.495C10.6781 18.605 10.7325 18.729 10.7615 18.86C13.0016 28.8435 18.4034 30.545 20.499 31.0677C21.2971 30.8785 22.0724 30.6036 22.8114 30.2478C22.9733 30.9017 23.2106 31.5346 23.5186 32.1337ZM30.5988 32.0164C30.3274 32.0161 30.0671 31.908 29.8752 31.7161L26.9396 28.7748C26.7616 28.5802 26.6654 28.3244 26.6712 28.0607C26.677 27.797 26.7842 27.5456 26.9705 27.3589C27.1569 27.1722 27.408 27.0646 27.6717 27.0584C27.9354 27.0521 28.1914 27.1478 28.3864 27.3255L30.5988 29.542L35.1237 25.0074C35.2172 24.9052 35.3304 24.823 35.4566 24.7658C35.5827 24.7085 35.7192 24.6775 35.8577 24.6744C35.9961 24.6714 36.1338 24.6965 36.2624 24.7481C36.3909 24.7998 36.5076 24.877 36.6055 24.975C36.7034 25.0731 36.7803 25.1899 36.8318 25.3186C36.8832 25.4472 36.9081 25.5849 36.9048 25.7234C36.9015 25.8619 36.8702 25.9983 36.8127 26.1243C36.7553 26.2504 36.6729 26.3635 36.5705 26.4568L31.322 31.7161C31.227 31.8113 31.1141 31.8869 30.9898 31.9384C30.8656 31.99 30.7323 32.0165 30.5978 32.0164H30.5988Z" fill="#61EDC7" fill-opacity="0.8"/>
</g>
<defs>
<clipPath id="clip0_2399_29814">
<rect width="40.9518" height="41" fill="white" transform="translate(0.0241089)"/>
</clipPath>
</defs>
</svg>
