<svg width="20" height="21" viewBox="0 0 20 21" fill="none" xmlns="http://www.w3.org/2000/svg">
<g clip-path="url(#clip0_123_6235)">
<path d="M18.7167 5.05765C18.075 5.34932 17.3833 5.54099 16.6667 5.63265C17.4 5.19099 17.9667 4.49099 18.2333 3.64932C17.5417 4.06599 16.775 4.35766 15.9667 4.52432C15.3083 3.80766 14.3833 3.39099 13.3333 3.39099C11.375 3.39099 9.775 4.99099 9.775 6.96599C9.775 7.24932 9.80833 7.52432 9.86666 7.78265C6.9 7.63265 4.25833 6.20765 2.5 4.04932C2.19166 4.57432 2.01666 5.19099 2.01666 5.84099C2.01666 7.08265 2.64166 8.18265 3.60833 8.80765C3.01666 8.80765 2.46666 8.64099 1.98333 8.39099V8.41599C1.98333 10.1493 3.21666 11.5993 4.85 11.9243C4.3256 12.0678 3.77508 12.0878 3.24166 11.9826C3.468 12.693 3.91128 13.3146 4.50918 13.7601C5.10708 14.2055 5.82954 14.4524 6.575 14.466C5.31136 15.4663 3.74499 16.0071 2.13333 15.9993C1.85 15.9993 1.56666 15.9826 1.28333 15.9493C2.86666 16.966 4.75 17.5576 6.76666 17.5576C13.3333 17.5576 16.9417 12.1076 16.9417 7.38265C16.9417 7.22432 16.9417 7.07432 16.9333 6.91599C17.6333 6.41599 18.2333 5.78265 18.7167 5.05765Z" fill="#959499"/>
</g>
<defs>
<clipPath id="clip0_123_6235">
<rect width="20" height="20" fill="white" transform="translate(0 0.0576172)"/>
</clipPath>
</defs>
</svg>
