<svg width="20" height="21" viewBox="0 0 20 21" fill="none" xmlns="http://www.w3.org/2000/svg">
<path d="M9.99998 1.72424C8.90567 1.72424 7.82204 1.93979 6.81099 2.35858C5.79995 2.77737 4.88129 3.3912 4.10747 4.16502C2.54466 5.72782 1.66669 7.84744 1.66669 10.0576C1.66669 13.7409 4.05836 16.8659 7.36669 17.9742C7.78336 18.0409 7.91669 17.7826 7.91669 17.5576V16.1492C5.60836 16.6492 5.11669 15.0326 5.11669 15.0326C4.73336 14.0659 4.19169 13.8076 4.19169 13.8076C3.43336 13.2909 4.25002 13.3076 4.25002 13.3076C5.08336 13.3659 5.52502 14.1659 5.52502 14.1659C6.25002 15.4326 7.47502 15.0576 7.95002 14.8576C8.02502 14.3159 8.24169 13.9492 8.47502 13.7409C6.62502 13.5326 4.68336 12.8159 4.68336 9.64091C4.68336 8.71591 5.00002 7.97424 5.54169 7.38258C5.45836 7.17424 5.16669 6.30758 5.62502 5.18258C5.62502 5.18258 6.32502 4.95758 7.91669 6.03258C8.57502 5.84924 9.29169 5.75758 9.99998 5.75758C10.7084 5.75758 11.425 5.84924 12.0834 6.03258C13.675 4.95758 14.375 5.18258 14.375 5.18258C14.8334 6.30758 14.5417 7.17424 14.4584 7.38258C15 7.97424 15.3167 8.71591 15.3167 9.64091C15.3167 12.8242 13.3667 13.5242 11.5084 13.7326C11.8084 13.9909 12.0834 14.4992 12.0834 15.2742V17.5576C12.0834 17.7826 12.2167 18.0492 12.6417 17.9742C15.95 16.8576 18.3334 13.7409 18.3334 10.0576C18.3334 8.96323 18.1178 7.87959 17.699 6.86855C17.2803 5.8575 16.6664 4.93884 15.8926 4.16502C15.1188 3.3912 14.2001 2.77737 13.1891 2.35858C12.178 1.93979 11.0944 1.72424 9.99998 1.72424Z" fill="#959499"/>
</svg>
