<svg width="20" height="21" viewBox="0 0 20 21" fill="none" xmlns="http://www.w3.org/2000/svg">
<g clip-path="url(#clip0_123_6238)">
<path d="M15.8333 2.55762C16.2754 2.55762 16.6993 2.73321 17.0118 3.04578C17.3244 3.35834 17.5 3.78226 17.5 4.22429V15.8909C17.5 16.333 17.3244 16.7569 17.0118 17.0694C16.6993 17.382 16.2754 17.5576 15.8333 17.5576H4.16667C3.72464 17.5576 3.30072 17.382 2.98816 17.0694C2.67559 16.7569 2.5 16.333 2.5 15.8909V4.22429C2.5 3.78226 2.67559 3.35834 2.98816 3.04578C3.30072 2.73321 3.72464 2.55762 4.16667 2.55762H15.8333ZM15.4167 15.4743V11.0576C15.4167 10.3371 15.1304 9.64612 14.621 9.13665C14.1115 8.62717 13.4205 8.34095 12.7 8.34095C11.9917 8.34095 11.1667 8.77429 10.7667 9.42429V8.49929H8.44167V15.4743H10.7667V11.3659C10.7667 10.7243 11.2833 10.1993 11.925 10.1993C12.2344 10.1993 12.5312 10.3222 12.75 10.541C12.9688 10.7598 13.0917 11.0565 13.0917 11.3659V15.4743H15.4167ZM5.73333 7.19095C6.10464 7.19095 6.46073 7.04345 6.72328 6.7809C6.98583 6.51835 7.13333 6.16226 7.13333 5.79095C7.13333 5.01595 6.50833 4.38262 5.73333 4.38262C5.35982 4.38262 5.0016 4.531 4.73749 4.79511C4.47338 5.05922 4.325 5.41744 4.325 5.79095C4.325 6.56595 4.95833 7.19095 5.73333 7.19095ZM6.89167 15.4743V8.49929H4.58333V15.4743H6.89167Z" fill="#959499"/>
</g>
<defs>
<clipPath id="clip0_123_6238">
<rect width="20" height="20" fill="white" transform="translate(0 0.0576172)"/>
</clipPath>
</defs>
</svg>
