<svg width="20" height="21" viewBox="0 0 20 21" fill="none" xmlns="http://www.w3.org/2000/svg">
<g clip-path="url(#clip0_123_6232)">
<path d="M16.9307 4.30077C15.6557 3.72577 14.289 3.30077 12.8599 3.0591C12.8471 3.05666 12.834 3.05823 12.8222 3.06361C12.8104 3.06898 12.8006 3.07789 12.794 3.0891C12.619 3.3966 12.424 3.79743 12.2874 4.1141C10.7716 3.88763 9.23064 3.88763 7.71489 4.1141C7.56267 3.76315 7.39102 3.42096 7.20073 3.0891C7.19428 3.07775 7.18452 3.06864 7.17276 3.06299C7.16099 3.05733 7.14779 3.05539 7.13489 3.05744C5.70656 3.2991 4.3399 3.7241 3.06407 4.29993C3.05309 4.30454 3.04379 4.31239 3.0374 4.32243C0.444078 8.13492 -0.266754 11.8533 0.0824121 15.5249C0.0833837 15.5339 0.0861751 15.5426 0.0906162 15.5505C0.0950574 15.5584 0.101055 15.5653 0.108245 15.5707C1.6219 16.6728 3.31018 17.5123 5.1024 18.0541C5.11489 18.0579 5.12826 18.0579 5.14074 18.054C5.15323 18.0502 5.16426 18.0426 5.1724 18.0324C5.5574 17.5157 5.90073 16.9699 6.19406 16.3966C6.21156 16.3632 6.1949 16.3232 6.1599 16.3099C5.62157 16.1072 5.09997 15.8625 4.5999 15.5782C4.59091 15.5731 4.58334 15.5658 4.57786 15.5571C4.57239 15.5483 4.56917 15.5383 4.56851 15.528C4.56785 15.5176 4.56976 15.5073 4.57408 15.4979C4.57839 15.4885 4.58498 15.4803 4.59323 15.4741C4.69823 15.3966 4.80323 15.3157 4.90323 15.2349C4.91223 15.2276 4.92308 15.223 4.93455 15.2215C4.94603 15.2201 4.95769 15.2218 4.96823 15.2266C8.24072 16.6966 11.7849 16.6966 15.019 15.2266C15.0296 15.2215 15.0414 15.2196 15.053 15.2209C15.0647 15.2222 15.0757 15.2268 15.0849 15.2341C15.1849 15.3157 15.289 15.3966 15.3949 15.4741C15.4032 15.4802 15.4099 15.4883 15.4144 15.4976C15.4188 15.5069 15.4209 15.5172 15.4204 15.5275C15.4199 15.5378 15.4168 15.5479 15.4115 15.5567C15.4062 15.5656 15.3988 15.573 15.3899 15.5782C14.8915 15.8649 14.3732 16.1074 13.829 16.3091C13.8207 16.3121 13.8131 16.3169 13.8067 16.3231C13.8003 16.3293 13.7954 16.3368 13.7922 16.3451C13.7889 16.3534 13.7875 16.3623 13.788 16.3711C13.7884 16.38 13.7908 16.3887 13.7949 16.3966C14.0949 16.9691 14.4382 17.5141 14.8157 18.0316C14.8236 18.0422 14.8345 18.0501 14.847 18.0543C14.8595 18.0585 14.8731 18.0587 14.8857 18.0549C16.681 17.5146 18.372 16.6747 19.8874 15.5707C19.8948 15.5656 19.901 15.5589 19.9056 15.5511C19.9102 15.5434 19.913 15.5347 19.914 15.5257C20.3307 11.2808 19.2157 7.59242 16.9565 4.3241C16.951 4.31348 16.9418 4.3052 16.9307 4.30077ZM6.68323 13.2891C5.69823 13.2891 4.88573 12.3983 4.88573 11.3058C4.88573 10.2124 5.6824 9.32241 6.68323 9.32241C7.69156 9.32241 8.49656 10.2199 8.48072 11.3058C8.48072 12.3991 7.68406 13.2891 6.68323 13.2891ZM13.329 13.2891C12.3432 13.2891 11.5315 12.3983 11.5315 11.3058C11.5315 10.2124 12.3274 9.32241 13.329 9.32241C14.3374 9.32241 15.1424 10.2199 15.1265 11.3058C15.1265 12.3991 14.3382 13.2891 13.329 13.2891Z" fill="#959499"/>
</g>
<defs>
<clipPath id="clip0_123_6232">
<rect width="20" height="20" fill="white" transform="translate(0 0.0576172)"/>
</clipPath>
</defs>
</svg>
