<svg width="20" height="21" viewBox="0 0 20 21" fill="none" xmlns="http://www.w3.org/2000/svg">
<g clip-path="url(#clip0_123_6241)">
<path d="M19.5788 5.2433C19.465 4.82048 19.2421 4.43496 18.9325 4.12534C18.6229 3.81572 18.2373 3.59285 17.8145 3.47904C16.2574 3.05762 10.0004 3.05762 10.0004 3.05762C10.0004 3.05762 3.74333 3.05762 2.18621 3.47904C1.76339 3.59285 1.37788 3.81572 1.06826 4.12534C0.758637 4.43496 0.535769 4.82048 0.421959 5.2433C0.131211 6.83132 -0.00988161 8.44312 0.000537443 10.0575C-0.00988161 11.6719 0.131211 13.2837 0.421959 14.8717C0.535769 15.2945 0.758637 15.68 1.06826 15.9896C1.37788 16.2993 1.76339 16.5221 2.18621 16.6359C3.74333 17.0574 10.0004 17.0574 10.0004 17.0574C10.0004 17.0574 16.2574 17.0574 17.8145 16.6359C18.2373 16.5221 18.6229 16.2993 18.9325 15.9896C19.2421 15.68 19.465 15.2945 19.5788 14.8717C19.8695 13.2837 20.0106 11.6719 20.0002 10.0575C20.0106 8.44312 19.8695 6.83132 19.5788 5.2433ZM8.0004 13.0574V7.05755L13.1932 10.0575L8.0004 13.0574Z" fill="#959499"/>
</g>
<defs>
<clipPath id="clip0_123_6241">
<rect width="20" height="20" fill="white" transform="translate(0 0.0576172)"/>
</clipPath>
</defs>
</svg>
