<svg width="1204" height="140" viewBox="0 0 1204 140" fill="none" xmlns="http://www.w3.org/2000/svg">
<mask id="mask0_123_4524" style="mask-type:alpha" maskUnits="userSpaceOnUse" x="0" y="0" width="1204" height="140">
<ellipse cx="13.0216" cy="13" rx="13.0216" ry="13" fill="#D9D9D9"/>
<ellipse cx="13.0216" cy="51" rx="13.0216" ry="13" fill="#D9D9D9"/>
<ellipse cx="51.0849" cy="51" rx="13.0216" ry="13" fill="#D9D9D9"/>
<ellipse cx="127.211" cy="13" rx="13.0216" ry="13" fill="#D9D9D9"/>
<ellipse cx="127.211" cy="51" rx="13.0216" ry="13" fill="#D9D9D9"/>
<ellipse cx="127.211" cy="89" rx="13.0216" ry="13" fill="#D9D9D9"/>
<ellipse cx="165.275" cy="89" rx="13.0216" ry="13" fill="#D9D9D9"/>
<ellipse cx="203.338" cy="89" rx="13.0216" ry="13" fill="#D9D9D9"/>
<ellipse cx="241.401" cy="89" rx="13.0216" ry="13" fill="#D9D9D9"/>
<ellipse cx="279.464" cy="89" rx="13.0216" ry="13" fill="#D9D9D9"/>
<ellipse cx="393.654" cy="89" rx="13.0216" ry="13" fill="#D9D9D9"/>
<ellipse cx="431.717" cy="89" rx="13.0216" ry="13" fill="#D9D9D9"/>
<ellipse cx="658.093" cy="89" rx="13.0216" ry="13" fill="#D9D9D9"/>
<ellipse cx="848.409" cy="89" rx="13.0216" ry="13" fill="#D9D9D9"/>
<ellipse cx="886.473" cy="89" rx="13.0216" ry="13" fill="#D9D9D9"/>
<ellipse cx="924.536" cy="89" rx="13.0216" ry="13" fill="#D9D9D9"/>
<ellipse cx="1000.66" cy="89" rx="13.0216" ry="13" fill="#D9D9D9"/>
<ellipse cx="1038.73" cy="89" rx="13.0216" ry="13" fill="#D9D9D9"/>
<ellipse cx="1114.85" cy="89" rx="13.0216" ry="13" fill="#D9D9D9"/>
<ellipse cx="1076.79" cy="89" rx="13.0216" ry="13" fill="#D9D9D9"/>
<ellipse cx="1152.92" cy="89" rx="13.0216" ry="13" fill="#D9D9D9"/>
<ellipse cx="1190.98" cy="89" rx="13.0216" ry="13" fill="#D9D9D9"/>
<ellipse cx="696.156" cy="89" rx="13.0216" ry="13" fill="#D9D9D9"/>
<ellipse cx="734.22" cy="89" rx="13.0216" ry="13" fill="#D9D9D9"/>
<ellipse cx="469.78" cy="89" rx="13.0216" ry="13" fill="#D9D9D9"/>
<ellipse cx="620.03" cy="89" rx="13.0216" ry="13" fill="#D9D9D9"/>
<ellipse cx="507.844" cy="89" rx="13.0216" ry="13" fill="#D9D9D9"/>
<ellipse cx="317.527" cy="89" rx="13.0216" ry="13" fill="#D9D9D9"/>
<ellipse cx="165.275" cy="127" rx="13.0216" ry="13" fill="#D9D9D9"/>
<ellipse cx="203.338" cy="127" rx="13.0216" ry="13" fill="#D9D9D9"/>
<ellipse cx="241.401" cy="127" rx="13.0216" ry="13" fill="#D9D9D9"/>
<ellipse cx="279.464" cy="127" rx="13.0216" ry="13" fill="#D9D9D9"/>
<ellipse cx="393.654" cy="127" rx="13.0216" ry="13" fill="#D9D9D9"/>
<ellipse cx="431.717" cy="127" rx="13.0216" ry="13" fill="#D9D9D9"/>
<ellipse cx="658.093" cy="127" rx="13.0216" ry="13" fill="#D9D9D9"/>
<ellipse cx="848.409" cy="127" rx="13.0216" ry="13" fill="#D9D9D9"/>
<ellipse cx="886.473" cy="127" rx="13.0216" ry="13" fill="#D9D9D9"/>
<ellipse cx="924.536" cy="127" rx="13.0216" ry="13" fill="#D9D9D9"/>
<ellipse cx="962.599" cy="127" rx="13.0216" ry="13" fill="#D9D9D9"/>
<ellipse cx="1000.66" cy="127" rx="13.0216" ry="13" fill="#D9D9D9"/>
<ellipse cx="1038.73" cy="127" rx="13.0216" ry="13" fill="#D9D9D9"/>
<ellipse cx="1114.85" cy="127" rx="13.0216" ry="13" fill="#D9D9D9"/>
<ellipse cx="1076.79" cy="127" rx="13.0216" ry="13" fill="#D9D9D9"/>
<ellipse cx="1152.92" cy="127" rx="13.0216" ry="13" fill="#D9D9D9"/>
<ellipse cx="1190.98" cy="127" rx="13.0216" ry="13" fill="#D9D9D9"/>
<ellipse cx="696.156" cy="127" rx="13.0216" ry="13" fill="#D9D9D9"/>
<ellipse cx="734.22" cy="127" rx="13.0216" ry="13" fill="#D9D9D9"/>
<ellipse cx="810.346" cy="127" rx="13.0216" ry="13" fill="#D9D9D9"/>
<ellipse cx="469.78" cy="127" rx="13.0216" ry="13" fill="#D9D9D9"/>
<ellipse cx="507.844" cy="127" rx="13.0216" ry="13" fill="#D9D9D9"/>
<ellipse cx="317.527" cy="127" rx="13.0216" ry="13" fill="#D9D9D9"/>
<ellipse cx="165.275" cy="51" rx="13.0216" ry="13" fill="#D9D9D9"/>
<ellipse cx="203.338" cy="51" rx="13.0216" ry="13" fill="#D9D9D9"/>
<ellipse cx="241.401" cy="51" rx="13.0216" ry="13" fill="#D9D9D9"/>
<ellipse cx="279.464" cy="51" rx="13.0216" ry="13" fill="#D9D9D9"/>
<ellipse cx="393.654" cy="51" rx="13.0216" ry="13" fill="#D9D9D9"/>
<ellipse cx="431.717" cy="51" rx="13.0216" ry="13" fill="#D9D9D9"/>
<ellipse cx="658.093" cy="51" rx="13.0216" ry="13" fill="#D9D9D9"/>
<ellipse cx="848.409" cy="51" rx="13.0216" ry="13" fill="#D9D9D9"/>
<ellipse cx="886.473" cy="51" rx="13.0216" ry="13" fill="#D9D9D9"/>
<ellipse cx="1000.66" cy="51" rx="13.0216" ry="13" fill="#D9D9D9"/>
<ellipse cx="1038.73" cy="51" rx="13.0216" ry="13" fill="#D9D9D9"/>
<ellipse cx="1114.85" cy="51" rx="13.0216" ry="13" fill="#D9D9D9"/>
<ellipse cx="1076.79" cy="51" rx="13.0216" ry="13" fill="#D9D9D9"/>
<ellipse cx="1152.92" cy="51" rx="13.0216" ry="13" fill="#D9D9D9"/>
<ellipse cx="1190.98" cy="51" rx="13.0216" ry="13" fill="#D9D9D9"/>
<ellipse cx="696.156" cy="51" rx="13.0216" ry="13" fill="#D9D9D9"/>
<ellipse cx="734.22" cy="51" rx="13.0216" ry="13" fill="#D9D9D9"/>
<ellipse cx="543.903" cy="51" rx="13.0216" ry="13" fill="#D9D9D9"/>
<ellipse cx="581.967" cy="51" rx="13.0216" ry="13" fill="#D9D9D9"/>
<ellipse cx="469.78" cy="51" rx="13.0216" ry="13" fill="#D9D9D9"/>
<ellipse cx="620.03" cy="51" rx="13.0216" ry="13" fill="#D9D9D9"/>
<ellipse cx="355.591" cy="51" rx="13.0216" ry="13" fill="#D9D9D9"/>
<ellipse cx="317.527" cy="51" rx="13.0216" ry="13" fill="#D9D9D9"/>
<ellipse cx="203.338" cy="13" rx="13.0216" ry="13" fill="#D9D9D9"/>
<ellipse cx="241.401" cy="13" rx="13.0216" ry="13" fill="#D9D9D9"/>
<ellipse cx="279.464" cy="13" rx="13.0216" ry="13" fill="#D9D9D9"/>
<ellipse cx="393.654" cy="13" rx="13.0216" ry="13" fill="#D9D9D9"/>
<ellipse cx="431.717" cy="13" rx="13.0216" ry="13" fill="#D9D9D9"/>
<ellipse cx="658.093" cy="13" rx="13.0216" ry="13" fill="#D9D9D9"/>
<ellipse cx="848.409" cy="13" rx="13.0216" ry="13" fill="#D9D9D9"/>
<ellipse cx="886.473" cy="13" rx="13.0216" ry="13" fill="#D9D9D9"/>
<ellipse cx="962.599" cy="13" rx="13.0216" ry="13" fill="#D9D9D9"/>
<ellipse cx="1038.73" cy="13" rx="13.0216" ry="13" fill="#D9D9D9"/>
<ellipse cx="1114.85" cy="13" rx="13.0216" ry="13" fill="#D9D9D9"/>
<ellipse cx="1076.79" cy="13" rx="13.0216" ry="13" fill="#D9D9D9"/>
<ellipse cx="1152.92" cy="13" rx="13.0216" ry="13" fill="#D9D9D9"/>
<ellipse cx="1190.98" cy="13" rx="13.0216" ry="13" fill="#D9D9D9"/>
<ellipse cx="810.346" cy="13" rx="13.0216" ry="13" fill="#D9D9D9"/>
<ellipse cx="543.903" cy="13" rx="13.0216" ry="13" fill="#D9D9D9"/>
<ellipse cx="355.591" cy="13" rx="13.0216" ry="13" fill="#D9D9D9"/>
<rect x="342.569" y="76" width="26.0433" height="64" rx="13.0216" fill="#D9D9D9"/>
<rect x="76.1265" width="26.0433" height="64" rx="13.0216" fill="#D9D9D9"/>
<rect x="494.822" width="26.0433" height="64" rx="13.0216" fill="#D9D9D9"/>
<rect x="759.261" width="26.0433" height="64" rx="13.0216" fill="#D9D9D9"/>
<rect x="911.514" width="26.0433" height="64" rx="13.0216" fill="#D9D9D9"/>
<rect x="760.263" y="76" width="26.0433" height="64" rx="13.0216" fill="#D9D9D9"/>
<rect x="797.324" y="38" width="26.0433" height="64" rx="13.0216" fill="#D9D9D9"/>
<rect x="949.577" y="38" width="26.0433" height="64" rx="13.0216" fill="#D9D9D9"/>
<rect x="530.882" y="76" width="26.0433" height="64" rx="13.0216" fill="#D9D9D9"/>
<rect x="568.945" y="140" width="26" height="64.1065" rx="13" transform="rotate(-90 568.945 140)" fill="#D9D9D9"/>
<rect x="38.0632" y="102" width="26" height="64.1065" rx="13" transform="rotate(-90 38.0632 102)" fill="#D9D9D9"/>
<rect x="76.1265" y="140" width="26" height="64.1065" rx="13" transform="rotate(-90 76.1265 140)" fill="#D9D9D9"/>
<rect y="140" width="26" height="64.1065" rx="13" transform="rotate(-90 0 140)" fill="#D9D9D9"/>
<rect x="683.135" y="26" width="26" height="64.1065" rx="13" transform="rotate(-90 683.135 26)" fill="#D9D9D9"/>
</mask>
<g mask="url(#mask0_123_4524)">
<rect width="1204" height="140" fill="url(#paint0_linear_123_4524)"/>
</g>
<defs>
<linearGradient id="paint0_linear_123_4524" x1="1.96229e-06" y1="69.9998" x2="1002" y2="69.9999" gradientUnits="userSpaceOnUse">
<stop stop-color="#FF5E62"/>
<stop offset="1" stop-color="#FF9966"/>
</linearGradient>
</defs>
</svg>
