<svg width="156" height="26" viewBox="0 0 156 26" fill="none" xmlns="http://www.w3.org/2000/svg">
<path fill-rule="evenodd" clip-rule="evenodd" d="M11.563 0.746605C11.563 4.24436 8.72752 7.07984 5.22977 7.07984C4.75714 7.07984 4.2966 7.02807 3.85352 6.92989V11.8743C4.44613 11.6239 5.09761 11.4854 5.78143 11.4854C8.5188 11.4854 10.7379 13.7045 10.7379 16.4419C10.7379 19.1792 8.5188 21.3983 5.78143 21.3983C5.09761 21.3983 4.44613 21.2598 3.85352 21.0094V25.2534H9.32568C8.99592 24.5899 8.8105 23.8419 8.8105 23.0506C8.8105 20.3133 11.0296 18.0942 13.767 18.0942C14.2445 18.0942 14.7062 18.1617 15.1432 18.2877V14.3984C14.7883 14.4744 14.42 14.5144 14.0423 14.5144C11.1529 14.5144 8.8105 12.1721 8.8105 9.28263C8.8105 6.39318 11.1529 4.05082 14.0423 4.05082C14.42 4.05082 14.7883 4.09084 15.1432 4.16685V0.471191H11.5571C11.561 0.562508 11.563 0.654326 11.563 0.746605Z" fill="url(#paint0_linear_123_6248)"/>
<rect x="3.30505" y="0.471191" width="1.37679" height="1.37679" fill="url(#paint1_radial_123_6248)"/>
<rect y="10.6592" width="1.37679" height="1.37679" fill="url(#paint2_radial_123_6248)"/>
<rect x="17.623" y="13.6885" width="1.37679" height="1.37679" fill="url(#paint3_radial_123_6248)"/>
<rect x="14.3192" y="24.1521" width="1.37679" height="1.37679" fill="url(#paint4_radial_123_6248)"/>
<rect x="14.0426" y="7.90576" width="2.47822" height="2.47822" fill="url(#paint5_radial_123_6248)"/>
<rect x="2.47791" y="15.6157" width="2.47822" height="2.47822" fill="url(#paint6_radial_123_6248)"/>
<path d="M45.7419 10.2031L40.8826 19H39.0544L34.2263 10.2031H36.0935L39.9685 17.3359L43.8748 10.2031H45.7419ZM50.7013 8.20312C50.7013 8.36979 50.6701 8.52604 50.6076 8.67188C50.5451 8.8125 50.4591 8.9375 50.3498 9.04688C50.2404 9.15625 50.1128 9.24219 49.9669 9.30469C49.8211 9.36719 49.6675 9.39844 49.506 9.39844C49.3393 9.39844 49.1831 9.36719 49.0373 9.30469C48.8914 9.24219 48.7638 9.15625 48.6544 9.04688C48.5451 8.9375 48.4591 8.8125 48.3966 8.67188C48.3341 8.52604 48.3029 8.36979 48.3029 8.20312C48.3029 8.04167 48.3341 7.88802 48.3966 7.74219C48.4591 7.59635 48.5451 7.46875 48.6544 7.35938C48.7638 7.25 48.8914 7.16406 49.0373 7.10156C49.1831 7.03385 49.3393 7 49.506 7C49.6675 7 49.8211 7.03385 49.9669 7.10156C50.1128 7.16406 50.2404 7.25 50.3498 7.35938C50.4591 7.46875 50.5451 7.59635 50.6076 7.74219C50.6701 7.88802 50.7013 8.04167 50.7013 8.20312ZM50.3029 19H48.7013V10.2031H50.3029V19ZM62.9498 11.7969H56.9498C56.7831 11.7969 56.6268 11.8307 56.481 11.8984C56.3352 11.9609 56.2076 12.0469 56.0982 12.1562C55.9888 12.2656 55.9029 12.3932 55.8404 12.5391C55.7779 12.6849 55.7466 12.8385 55.7466 13V19H54.1451V13C54.1451 12.6094 54.218 12.2448 54.3638 11.9062C54.5097 11.5677 54.7102 11.2734 54.9654 11.0234C55.2206 10.7682 55.5175 10.5677 55.856 10.4219C56.1945 10.276 56.5591 10.2031 56.9498 10.2031H62.9498V11.7969ZM68.9326 19H67.331V11.7969H64.9326V10.2031H67.331V7H68.9326V10.2031H74.5341V11.7969H68.9326V19ZM87.6185 19H81.6185C81.0143 19 80.4466 18.8854 79.9154 18.6562C79.3841 18.4219 78.9206 18.1068 78.5248 17.7109C78.1341 17.3099 77.8242 16.8438 77.5951 16.3125C77.3659 15.776 77.2513 15.2057 77.2513 14.6016V10.2031H78.8529V14.6016C78.8529 14.987 78.9232 15.349 79.0638 15.6875C79.2097 16.0208 79.4076 16.3151 79.6576 16.5703C79.9076 16.8203 80.1992 17.0208 80.5326 17.1719C80.8711 17.3177 81.2331 17.3932 81.6185 17.3984H86.0169V10.2031H87.6185V19ZM101.547 19H93.5466C93.156 19 92.7914 18.9271 92.4529 18.7812C92.1143 18.6354 91.8175 18.4375 91.5623 18.1875C91.307 17.9323 91.1065 17.6354 90.9607 17.2969C90.8149 16.9531 90.7419 16.5885 90.7419 16.2031C90.7419 15.8125 90.8149 15.4479 90.9607 15.1094C91.1065 14.7708 91.307 14.474 91.5623 14.2188C91.8175 13.9635 92.1143 13.763 92.4529 13.6172C92.7914 13.4714 93.156 13.3984 93.5466 13.3984H99.1404V15H93.5466C93.38 15 93.2237 15.0339 93.0779 15.1016C92.932 15.1641 92.8044 15.25 92.6951 15.3594C92.5857 15.4688 92.4998 15.5964 92.4373 15.7422C92.3748 15.888 92.3435 16.0417 92.3435 16.2031C92.3435 16.3698 92.3748 16.526 92.4373 16.6719C92.4998 16.8125 92.5857 16.9375 92.6951 17.0469C92.8044 17.1562 92.932 17.2422 93.0779 17.3047C93.2237 17.3672 93.38 17.3984 93.5466 17.3984H99.9451V13C99.9451 12.8385 99.9112 12.6849 99.8435 12.5391C99.781 12.3932 99.6951 12.2656 99.5857 12.1562C99.4763 12.0469 99.3487 11.9609 99.2029 11.8984C99.057 11.8307 98.9034 11.7969 98.7419 11.7969H92.3435V10.2031H98.7419C99.1326 10.2031 99.4972 10.276 99.8357 10.4219C100.174 10.5677 100.471 10.7682 100.726 11.0234C100.982 11.2734 101.182 11.5677 101.328 11.9062C101.474 12.2448 101.547 12.6094 101.547 13V19ZM108.529 19H108.131C107.74 19 107.376 18.9271 107.037 18.7812C106.699 18.6354 106.402 18.4375 106.147 18.1875C105.891 17.9323 105.691 17.6354 105.545 17.2969C105.399 16.9531 105.326 16.5885 105.326 16.2031V7H106.928V16.2031C106.928 16.3698 106.959 16.526 107.022 16.6719C107.084 16.8125 107.17 16.9375 107.279 17.0469C107.389 17.1562 107.516 17.2422 107.662 17.3047C107.808 17.3672 107.964 17.3984 108.131 17.3984H108.529V19ZM128.854 19H127.253V11.7969H122.854C122.469 11.7969 122.107 11.8724 121.769 12.0234C121.435 12.1693 121.144 12.3698 120.894 12.625C120.644 12.875 120.446 13.1719 120.3 13.5156C120.159 13.8542 120.089 14.2161 120.089 14.6016C120.089 14.987 120.159 15.349 120.3 15.6875C120.446 16.0208 120.644 16.3151 120.894 16.5703C121.144 16.8203 121.435 17.0208 121.769 17.1719C122.107 17.3177 122.469 17.3932 122.854 17.3984H126.456V19H122.854C122.25 19 121.683 18.8854 121.151 18.6562C120.62 18.4219 120.157 18.1068 119.761 17.7109C119.37 17.3099 119.06 16.8438 118.831 16.3125C118.602 15.776 118.487 15.2057 118.487 14.6016C118.487 13.9974 118.602 13.4297 118.831 12.8984C119.06 12.3672 119.37 11.9036 119.761 11.5078C120.157 11.1068 120.62 10.7917 121.151 10.5625C121.683 10.3281 122.25 10.2083 122.854 10.2031H127.253V7H128.854V19ZM143.392 14.6016C143.392 15.2057 143.277 15.7734 143.048 16.3047C142.819 16.8359 142.507 17.3021 142.111 17.7031C141.72 18.099 141.259 18.4141 140.728 18.6484C140.197 18.8776 139.629 18.9948 139.025 19H136.564C135.96 18.9948 135.392 18.8776 134.861 18.6484C134.329 18.4141 133.866 18.099 133.47 17.7031C133.079 17.3021 132.77 16.8359 132.54 16.3047C132.311 15.7734 132.197 15.2057 132.197 14.6016C132.197 13.9974 132.311 13.4297 132.54 12.8984C132.77 12.362 133.079 11.8958 133.47 11.5C133.866 11.099 134.329 10.7839 134.861 10.5547C135.392 10.3203 135.96 10.2031 136.564 10.2031H139.025C139.426 10.2031 139.814 10.2552 140.189 10.3594C140.564 10.4635 140.913 10.612 141.236 10.8047C141.559 10.9974 141.853 11.2292 142.119 11.5C142.384 11.7656 142.611 12.0625 142.798 12.3906C142.986 12.7135 143.132 13.0625 143.236 13.4375C143.34 13.8125 143.392 14.2005 143.392 14.6016ZM141.798 14.6016C141.798 14.2161 141.725 13.8542 141.579 13.5156C141.434 13.1771 141.236 12.8828 140.986 12.6328C140.736 12.3776 140.441 12.1771 140.103 12.0312C139.77 11.8802 139.41 11.8021 139.025 11.7969H136.564C136.178 11.8021 135.816 11.8802 135.478 12.0312C135.145 12.1771 134.853 12.3776 134.603 12.6328C134.353 12.8828 134.155 13.1771 134.009 13.5156C133.869 13.8542 133.798 14.2161 133.798 14.6016C133.798 14.987 133.869 15.349 134.009 15.6875C134.155 16.026 134.353 16.3229 134.603 16.5781C134.853 16.8281 135.145 17.0286 135.478 17.1797C135.816 17.3255 136.178 17.3984 136.564 17.3984H139.025C139.41 17.3984 139.77 17.3255 140.103 17.1797C140.441 17.0286 140.736 16.8281 140.986 16.5781C141.236 16.3229 141.434 16.026 141.579 15.6875C141.725 15.349 141.798 14.987 141.798 14.6016ZM149.758 19H148.156V11.7969H145.758V10.2031H148.156V7H149.758V10.2031H155.359V11.7969H149.758V19Z" fill="white"/>
<defs>
<linearGradient id="paint0_linear_123_6248" x1="9.49836" y1="0.471191" x2="9.49836" y2="25.2534" gradientUnits="userSpaceOnUse">
<stop offset="0.354926" stop-color="#7061FA"/>
<stop offset="0.835448" stop-color="#836AF5"/>
</linearGradient>
<radialGradient id="paint1_radial_123_6248" cx="0" cy="0" r="1" gradientUnits="userSpaceOnUse" gradientTransform="translate(3.99345 1.15959) rotate(90) scale(0.688396)">
<stop stop-color="#E06E8C"/>
<stop offset="1" stop-color="#ED9BF5"/>
</radialGradient>
<radialGradient id="paint2_radial_123_6248" cx="0" cy="0" r="1" gradientUnits="userSpaceOnUse" gradientTransform="translate(0.688396 11.3476) rotate(90) scale(0.688396)">
<stop stop-color="#E06E8C"/>
<stop offset="1" stop-color="#ED9BF5"/>
</radialGradient>
<radialGradient id="paint3_radial_123_6248" cx="0" cy="0" r="1" gradientUnits="userSpaceOnUse" gradientTransform="translate(18.3114 14.3769) rotate(90) scale(0.688396)">
<stop stop-color="#E06E8C"/>
<stop offset="1" stop-color="#ED9BF5"/>
</radialGradient>
<radialGradient id="paint4_radial_123_6248" cx="0" cy="0" r="1" gradientUnits="userSpaceOnUse" gradientTransform="translate(15.0075 24.8405) rotate(90) scale(0.688396)">
<stop stop-color="#E06E8C"/>
<stop offset="1" stop-color="#ED9BF5"/>
</radialGradient>
<radialGradient id="paint5_radial_123_6248" cx="0" cy="0" r="1" gradientUnits="userSpaceOnUse" gradientTransform="translate(15.2817 9.14487) rotate(90) scale(1.23911)">
<stop stop-color="#E06E8C"/>
<stop offset="1" stop-color="#ED9BF5"/>
</radialGradient>
<radialGradient id="paint6_radial_123_6248" cx="0" cy="0" r="1" gradientUnits="userSpaceOnUse" gradientTransform="translate(3.71702 16.8548) rotate(90) scale(1.23911)">
<stop stop-color="#E06E8C"/>
<stop offset="1" stop-color="#ED9BF5"/>
</radialGradient>
</defs>
</svg>
