<svg width="156" height="26" viewBox="0 0 156 26" fill="none" xmlns="http://www.w3.org/2000/svg">
<path fill-rule="evenodd" clip-rule="evenodd" d="M11.563 0.275414C11.563 3.77317 8.72752 6.60865 5.22977 6.60865C4.75714 6.60865 4.2966 6.55688 3.85352 6.4587V11.4031C4.44613 11.1527 5.09761 11.0142 5.78143 11.0142C8.5188 11.0142 10.7379 13.2333 10.7379 15.9707C10.7379 18.708 8.5188 20.9271 5.78143 20.9271C5.09761 20.9271 4.44613 20.7886 3.85352 20.5382V24.7822H9.32568C8.99592 24.1187 8.8105 23.3707 8.8105 22.5794C8.8105 19.8421 11.0296 17.623 13.767 17.623C14.2445 17.623 14.7062 17.6905 15.1432 17.8166V13.9272C14.7883 14.0032 14.42 14.0432 14.0423 14.0432C11.1529 14.0432 8.8105 11.7009 8.8105 8.81144C8.8105 5.92199 11.1529 3.57963 14.0423 3.57963C14.42 3.57963 14.7883 3.61964 15.1432 3.69566V0H11.5571C11.561 0.0913169 11.563 0.183135 11.563 0.275414Z" fill="url(#paint0_linear_2616_34621)"/>
<rect x="3.30505" width="1.37679" height="1.37679" fill="url(#paint1_radial_2616_34621)"/>
<rect y="10.188" width="1.37679" height="1.37679" fill="url(#paint2_radial_2616_34621)"/>
<rect x="17.623" y="13.2173" width="1.37679" height="1.37679" fill="url(#paint3_radial_2616_34621)"/>
<rect x="14.3192" y="23.6809" width="1.37679" height="1.37679" fill="url(#paint4_radial_2616_34621)"/>
<rect x="14.0426" y="7.43457" width="2.47822" height="2.47822" fill="url(#paint5_radial_2616_34621)"/>
<rect x="2.47791" y="15.1445" width="2.47822" height="2.47822" fill="url(#paint6_radial_2616_34621)"/>
<path d="M45.7419 9.73193L40.8826 18.5288H39.0544L34.2263 9.73193H36.0935L39.9685 16.8647L43.8748 9.73193H45.7419ZM50.7013 7.73193C50.7013 7.8986 50.6701 8.05485 50.6076 8.20068C50.5451 8.34131 50.4591 8.46631 50.3498 8.57568C50.2404 8.68506 50.1128 8.771 49.9669 8.8335C49.8211 8.896 49.6675 8.92725 49.506 8.92725C49.3393 8.92725 49.1831 8.896 49.0373 8.8335C48.8914 8.771 48.7638 8.68506 48.6544 8.57568C48.5451 8.46631 48.4591 8.34131 48.3966 8.20068C48.3341 8.05485 48.3029 7.8986 48.3029 7.73193C48.3029 7.57048 48.3341 7.41683 48.3966 7.271C48.4591 7.12516 48.5451 6.99756 48.6544 6.88818C48.7638 6.77881 48.8914 6.69287 49.0373 6.63037C49.1831 6.56266 49.3393 6.52881 49.506 6.52881C49.6675 6.52881 49.8211 6.56266 49.9669 6.63037C50.1128 6.69287 50.2404 6.77881 50.3498 6.88818C50.4591 6.99756 50.5451 7.12516 50.6076 7.271C50.6701 7.41683 50.7013 7.57048 50.7013 7.73193ZM50.3029 18.5288H48.7013V9.73193H50.3029V18.5288ZM62.9498 11.3257H56.9498C56.7831 11.3257 56.6268 11.3595 56.481 11.4272C56.3352 11.4897 56.2076 11.5757 56.0982 11.6851C55.9888 11.7944 55.9029 11.922 55.8404 12.0679C55.7779 12.2137 55.7466 12.3674 55.7466 12.5288V18.5288H54.1451V12.5288C54.1451 12.1382 54.218 11.7736 54.3638 11.4351C54.5097 11.0965 54.7102 10.8022 54.9654 10.5522C55.2206 10.297 55.5175 10.0965 55.856 9.95068C56.1945 9.80485 56.5591 9.73193 56.9498 9.73193H62.9498V11.3257ZM68.9326 18.5288H67.331V11.3257H64.9326V9.73193H67.331V6.52881H68.9326V9.73193H74.5341V11.3257H68.9326V18.5288ZM87.6185 18.5288H81.6185C81.0143 18.5288 80.4466 18.4142 79.9154 18.1851C79.3841 17.9507 78.9206 17.6356 78.5248 17.2397C78.1341 16.8387 77.8242 16.3726 77.5951 15.8413C77.3659 15.3049 77.2513 14.7345 77.2513 14.1304V9.73193H78.8529V14.1304C78.8529 14.5158 78.9232 14.8778 79.0638 15.2163C79.2097 15.5496 79.4076 15.8439 79.6576 16.0991C79.9076 16.3491 80.1992 16.5496 80.5326 16.7007C80.8711 16.8465 81.2331 16.922 81.6185 16.9272H86.0169V9.73193H87.6185V18.5288ZM101.547 18.5288H93.5466C93.156 18.5288 92.7914 18.4559 92.4529 18.3101C92.1143 18.1642 91.8175 17.9663 91.5623 17.7163C91.307 17.4611 91.1065 17.1642 90.9607 16.8257C90.8149 16.4819 90.7419 16.1174 90.7419 15.7319C90.7419 15.3413 90.8149 14.9767 90.9607 14.6382C91.1065 14.2996 91.307 14.0028 91.5623 13.7476C91.8175 13.4924 92.1143 13.2918 92.4529 13.146C92.7914 13.0002 93.156 12.9272 93.5466 12.9272H99.1404V14.5288H93.5466C93.38 14.5288 93.2237 14.5627 93.0779 14.6304C92.932 14.6929 92.8044 14.7788 92.6951 14.8882C92.5857 14.9976 92.4998 15.1252 92.4373 15.271C92.3748 15.4168 92.3435 15.5705 92.3435 15.7319C92.3435 15.8986 92.3748 16.0549 92.4373 16.2007C92.4998 16.3413 92.5857 16.4663 92.6951 16.5757C92.8044 16.6851 92.932 16.771 93.0779 16.8335C93.2237 16.896 93.38 16.9272 93.5466 16.9272H99.9451V12.5288C99.9451 12.3674 99.9112 12.2137 99.8435 12.0679C99.781 11.922 99.6951 11.7944 99.5857 11.6851C99.4763 11.5757 99.3487 11.4897 99.2029 11.4272C99.057 11.3595 98.9034 11.3257 98.7419 11.3257H92.3435V9.73193H98.7419C99.1326 9.73193 99.4972 9.80485 99.8357 9.95068C100.174 10.0965 100.471 10.297 100.726 10.5522C100.982 10.8022 101.182 11.0965 101.328 11.4351C101.474 11.7736 101.547 12.1382 101.547 12.5288V18.5288ZM108.529 18.5288H108.131C107.74 18.5288 107.376 18.4559 107.037 18.3101C106.699 18.1642 106.402 17.9663 106.147 17.7163C105.891 17.4611 105.691 17.1642 105.545 16.8257C105.399 16.4819 105.326 16.1174 105.326 15.7319V6.52881H106.928V15.7319C106.928 15.8986 106.959 16.0549 107.022 16.2007C107.084 16.3413 107.17 16.4663 107.279 16.5757C107.389 16.6851 107.516 16.771 107.662 16.8335C107.808 16.896 107.964 16.9272 108.131 16.9272H108.529V18.5288ZM128.854 18.5288H127.253V11.3257H122.854C122.469 11.3257 122.107 11.4012 121.769 11.5522C121.435 11.6981 121.144 11.8986 120.894 12.1538C120.644 12.4038 120.446 12.7007 120.3 13.0444C120.159 13.383 120.089 13.745 120.089 14.1304C120.089 14.5158 120.159 14.8778 120.3 15.2163C120.446 15.5496 120.644 15.8439 120.894 16.0991C121.144 16.3491 121.435 16.5496 121.769 16.7007C122.107 16.8465 122.469 16.922 122.854 16.9272H126.456V18.5288H122.854C122.25 18.5288 121.683 18.4142 121.151 18.1851C120.62 17.9507 120.157 17.6356 119.761 17.2397C119.37 16.8387 119.06 16.3726 118.831 15.8413C118.602 15.3049 118.487 14.7345 118.487 14.1304C118.487 13.5262 118.602 12.9585 118.831 12.4272C119.06 11.896 119.37 11.4325 119.761 11.0366C120.157 10.6356 120.62 10.3205 121.151 10.0913C121.683 9.85693 122.25 9.73714 122.854 9.73193H127.253V6.52881H128.854V18.5288ZM143.392 14.1304C143.392 14.7345 143.277 15.3022 143.048 15.8335C142.819 16.3647 142.507 16.8309 142.111 17.2319C141.72 17.6278 141.259 17.9429 140.728 18.1772C140.197 18.4064 139.629 18.5236 139.025 18.5288H136.564C135.96 18.5236 135.392 18.4064 134.861 18.1772C134.329 17.9429 133.866 17.6278 133.47 17.2319C133.079 16.8309 132.77 16.3647 132.54 15.8335C132.311 15.3022 132.197 14.7345 132.197 14.1304C132.197 13.5262 132.311 12.9585 132.54 12.4272C132.77 11.8908 133.079 11.4246 133.47 11.0288C133.866 10.6278 134.329 10.3127 134.861 10.0835C135.392 9.84912 135.96 9.73193 136.564 9.73193H139.025C139.426 9.73193 139.814 9.78402 140.189 9.88818C140.564 9.99235 140.913 10.1408 141.236 10.3335C141.559 10.5262 141.853 10.758 142.119 11.0288C142.384 11.2944 142.611 11.5913 142.798 11.9194C142.986 12.2424 143.132 12.5913 143.236 12.9663C143.34 13.3413 143.392 13.7293 143.392 14.1304ZM141.798 14.1304C141.798 13.745 141.725 13.383 141.579 13.0444C141.434 12.7059 141.236 12.4116 140.986 12.1616C140.736 11.9064 140.441 11.7059 140.103 11.5601C139.77 11.409 139.41 11.3309 139.025 11.3257H136.564C136.178 11.3309 135.816 11.409 135.478 11.5601C135.145 11.7059 134.853 11.9064 134.603 12.1616C134.353 12.4116 134.155 12.7059 134.009 13.0444C133.869 13.383 133.798 13.745 133.798 14.1304C133.798 14.5158 133.869 14.8778 134.009 15.2163C134.155 15.5549 134.353 15.8517 134.603 16.1069C134.853 16.3569 135.145 16.5575 135.478 16.7085C135.816 16.8543 136.178 16.9272 136.564 16.9272H139.025C139.41 16.9272 139.77 16.8543 140.103 16.7085C140.441 16.5575 140.736 16.3569 140.986 16.1069C141.236 15.8517 141.434 15.5549 141.579 15.2163C141.725 14.8778 141.798 14.5158 141.798 14.1304ZM149.758 18.5288H148.156V11.3257H145.758V9.73193H148.156V6.52881H149.758V9.73193H155.359V11.3257H149.758V18.5288Z" fill="#03000A"/>
<defs>
<linearGradient id="paint0_linear_2616_34621" x1="9.49836" y1="0" x2="9.49836" y2="24.7822" gradientUnits="userSpaceOnUse">
<stop offset="0.354926" stop-color="#7061FA"/>
<stop offset="0.835448" stop-color="#836AF5"/>
</linearGradient>
<radialGradient id="paint1_radial_2616_34621" cx="0" cy="0" r="1" gradientUnits="userSpaceOnUse" gradientTransform="translate(3.99345 0.688396) rotate(90) scale(0.688396)">
<stop stop-color="#E06E8C"/>
<stop offset="1" stop-color="#ED9BF5"/>
</radialGradient>
<radialGradient id="paint2_radial_2616_34621" cx="0" cy="0" r="1" gradientUnits="userSpaceOnUse" gradientTransform="translate(0.688396 10.8764) rotate(90) scale(0.688396)">
<stop stop-color="#E06E8C"/>
<stop offset="1" stop-color="#ED9BF5"/>
</radialGradient>
<radialGradient id="paint3_radial_2616_34621" cx="0" cy="0" r="1" gradientUnits="userSpaceOnUse" gradientTransform="translate(18.3114 13.9057) rotate(90) scale(0.688396)">
<stop stop-color="#E06E8C"/>
<stop offset="1" stop-color="#ED9BF5"/>
</radialGradient>
<radialGradient id="paint4_radial_2616_34621" cx="0" cy="0" r="1" gradientUnits="userSpaceOnUse" gradientTransform="translate(15.0075 24.3693) rotate(90) scale(0.688396)">
<stop stop-color="#E06E8C"/>
<stop offset="1" stop-color="#ED9BF5"/>
</radialGradient>
<radialGradient id="paint5_radial_2616_34621" cx="0" cy="0" r="1" gradientUnits="userSpaceOnUse" gradientTransform="translate(15.2817 8.67368) rotate(90) scale(1.23911)">
<stop stop-color="#E06E8C"/>
<stop offset="1" stop-color="#ED9BF5"/>
</radialGradient>
<radialGradient id="paint6_radial_2616_34621" cx="0" cy="0" r="1" gradientUnits="userSpaceOnUse" gradientTransform="translate(3.71702 16.3836) rotate(90) scale(1.23911)">
<stop stop-color="#E06E8C"/>
<stop offset="1" stop-color="#ED9BF5"/>
</radialGradient>
</defs>
</svg>
