<svg width="14" height="14" viewBox="0 0 14 14" fill="none" xmlns="http://www.w3.org/2000/svg">
<path d="M13.3501 13.3559C13.2568 13.4478 13.1311 13.4994 13.0001 13.4996C12.8673 13.499 12.7398 13.4476 12.6438 13.3559L9.94385 10.6496C8.80671 11.6047 7.34474 12.084 5.86285 11.9874C4.38095 11.8908 2.99355 11.2259 1.99 10.1313C0.986453 9.03661 0.444243 7.59681 0.476455 6.11212C0.508667 4.62743 1.11282 3.21249 2.1629 2.16241C3.21298 1.11233 4.62791 0.508179 6.1126 0.475967C7.59729 0.443754 9.0371 0.985965 10.1317 1.98951C11.2264 2.99306 11.8913 4.38046 11.9879 5.86236C12.0845 7.34426 11.6052 8.80623 10.6501 9.94336L13.3501 12.6434C13.3973 12.6899 13.4349 12.7453 13.4605 12.8065C13.4861 12.8677 13.4993 12.9333 13.4993 12.9996C13.4993 13.0659 13.4861 13.1316 13.4605 13.1927C13.4349 13.2539 13.3973 13.3093 13.3501 13.3559ZM6.2501 10.9996C7.18956 10.9996 8.10792 10.721 8.88906 10.1991C9.67019 9.67715 10.279 8.9353 10.6385 8.06736C10.998 7.19941 11.0921 6.24434 10.9088 5.32293C10.7255 4.40152 10.2732 3.55515 9.60885 2.89085C8.94455 2.22655 8.09819 1.77416 7.17678 1.59088C6.25537 1.4076 5.3003 1.50166 4.43235 1.86118C3.5644 2.2207 2.82255 2.82952 2.30062 3.61065C1.77868 4.39178 1.5001 5.31015 1.5001 6.24961C1.50175 7.50888 2.00273 8.7161 2.89317 9.60654C3.78361 10.497 4.99083 10.998 6.2501 10.9996Z" fill="#343644"/>
</svg>
