<svg width="180" height="40" viewBox="0 0 180 40" fill="none" xmlns="http://www.w3.org/2000/svg">
<g opacity="0.4" clip-path="url(#clip0_123_4541)">
<mask id="mask0_123_4541" style="mask-type:luminance" maskUnits="userSpaceOnUse" x="0" y="0" width="180" height="40">
<path d="M179.65 0.199951H0.349976V39.8H179.65V0.199951Z" fill="white"/>
</mask>
<g mask="url(#mask0_123_4541)">
<path d="M46.9022 7.58551C46.0067 7.58551 45.279 7.64202 44.7753 7.75502V26.5698C44.7753 30.2424 45.6149 31.2029 49.253 31.2029C54.1785 31.2029 57.5928 27.6998 57.5928 19.7333C57.6486 11.7666 53.6748 7.58551 46.9022 7.58551ZM48.7493 32.1634C45.1672 32.1634 44.3835 32.0504 42.7044 32.0504C41.361 32.0504 37.7789 32.1069 37.0512 32.1069V31.5419L38.3387 31.3159C40.1297 31.0334 40.4655 30.0729 40.4655 25.7223V13.0096C40.4655 8.60253 40.1297 7.69851 38.3387 7.41601L36.9954 7.19001V6.625C37.7229 6.625 40.5215 6.6815 41.9208 6.6815C43.376 6.6815 45.5589 6.625 47.238 6.625C56.1934 6.625 62.5181 11.1451 62.5181 19.3943C62.5741 27.8129 56.5293 32.1634 48.7493 32.1634Z" fill="white"/>
<path d="M68.7869 11.0886C67.3316 11.0886 66.2123 10.0715 66.2123 8.65902C66.2123 7.30301 67.3316 6.22949 68.7869 6.22949C70.2981 6.22949 71.4176 7.30301 71.4176 8.65902C71.4176 10.0151 70.2981 11.0886 68.7869 11.0886ZM73.7124 32.107C72.8168 32.107 70.8018 32.0504 69.2346 32.0504C67.6115 32.0504 65.4286 32.107 64.589 32.107V31.5419L65.2607 31.4289C66.7719 31.2029 67.0518 30.6379 67.0518 27.0783V19.3942C67.0518 17.4732 66.7719 16.9081 65.4286 16.2866L64.5331 15.8912V15.4392L70.6899 14.0831L71.1936 14.3656V27.0783C71.1936 30.6379 71.4734 31.1464 73.0407 31.4289L73.7124 31.5419V32.107Z" fill="white"/>
<path d="M85.0746 23.0101C84.0671 23.2926 82.7238 23.6882 81.6043 24.1402C79.9252 24.9312 78.9737 25.9481 78.9737 27.3607C78.9737 29.1687 80.1491 30.1858 81.8842 30.1858C82.9477 30.1858 84.0111 29.6772 85.0746 28.8297V23.0101ZM91.5673 31.6547C90.6716 32.0503 89.7201 32.2763 88.2649 32.2763C86.5298 32.2763 85.3545 31.3722 85.0746 29.6207C83.3955 31.2593 81.6603 32.3893 79.3095 32.3893C77.1267 32.3893 75.1117 31.0332 75.1117 28.4342C75.1117 26.0047 76.567 24.8182 80.7088 23.4056C82.0521 22.9536 83.6193 22.5016 85.0186 22.1626V19.7895C85.0186 16.456 83.8992 15.2695 81.9402 15.2695C81.2685 15.2695 80.8208 15.439 80.373 15.665C79.9252 19.0551 79.3095 20.2415 77.9662 20.2415C76.9587 20.2415 76.0632 19.6766 76.0632 18.377C76.0632 16.8515 79.5335 13.97 83.7313 13.97C87.7611 13.97 89.2164 15.7215 89.2164 19.5071V29.0557C89.2164 30.5812 89.6083 31.0898 90.5598 31.0898C90.8396 31.0898 91.0635 31.0898 91.4553 31.0332L91.5673 31.6547Z" fill="white"/>
<path d="M101.474 32.1069C100.634 32.1069 98.6196 32.0504 96.9964 32.0504C95.3733 32.0504 93.1903 32.1069 92.3508 32.1069V31.5419L93.0784 31.4853C94.5336 31.2594 94.8695 30.6943 94.8695 27.1348V10.241C94.8695 8.31999 94.5336 7.75497 93.3023 7.13347L92.4068 6.68146V6.28595L98.5636 4.92993L99.0673 5.26893V27.1348C99.0673 30.6943 99.3471 31.2594 100.858 31.4853L101.586 31.5984V32.1069H101.474Z" fill="white"/>
<path d="M111.549 14.874C109.03 14.874 107.631 16.795 107.631 22.0496C107.631 27.8127 109.478 31.5417 112.501 31.5417C115.02 31.5417 116.419 29.6207 116.419 24.3661C116.475 18.6595 114.628 14.874 111.549 14.874ZM112.053 32.5023C106.959 32.5023 103.153 29.2252 103.153 23.1231C103.153 17.9816 106.847 13.97 112.109 13.97C117.202 13.97 121.008 17.247 121.008 23.3491C120.952 28.5472 117.258 32.5023 112.053 32.5023Z" fill="white"/>
<path d="M130.411 14.7611C128.004 14.7611 127.109 16.7951 127.109 19.5637C127.109 23.0102 128.06 24.9312 130.523 24.9312C132.93 24.9312 133.825 22.8972 133.825 20.1286C133.769 16.6256 132.818 14.7611 130.411 14.7611ZM132.594 31.8808C131.362 31.7679 129.124 31.5984 126.941 31.4853C125.99 32.3894 125.709 33.2368 125.709 34.2539C125.709 36.9659 128.172 38.8304 131.587 38.8304C134.945 38.8304 137.631 36.7964 137.631 34.3669C137.631 32.8979 136.567 32.1633 132.594 31.8808ZM140.71 16.7951H136.904C137.408 17.5861 137.687 18.4901 137.687 19.5637C137.687 23.4622 133.937 25.6092 130.244 25.6092C129.348 25.6092 128.62 25.4962 127.893 25.3267C126.773 26.0613 126.549 26.5697 126.549 27.0782C126.549 27.6433 126.941 27.8692 128.732 27.9823L134.497 28.3778C137.968 28.6603 139.702 29.9033 139.702 32.2199C139.702 36.853 135.113 39.9605 129.459 39.9605C125.486 39.9605 122.519 38.4914 122.519 35.6664C122.519 34.1409 123.639 32.6719 125.878 31.0898C124.478 30.7508 123.583 29.9033 123.583 28.7733C123.583 27.5302 124.87 26.2308 127.052 24.9312C124.702 24.1402 123.19 22.3322 123.19 19.9591C123.19 16.117 126.829 13.8005 130.747 13.8005C133.042 13.8005 135.001 14.4786 136.176 15.7216L140.766 14.0266L140.71 16.7951Z" fill="white"/>
<path d="M161.922 32.1068C160.412 32.1068 157.221 32.1068 155.71 32.1633L155.374 29.5643C153.415 31.2593 151.624 32.3328 149.33 32.3328C146.027 32.3328 144.292 30.5247 144.292 26.7957V19.3942C144.292 17.4731 144.012 16.8516 142.725 16.2865L141.83 15.8911V15.4391L147.987 14.083L148.49 14.3655V26.0613C148.49 28.7733 149.665 30.1293 151.736 30.1293C153.192 30.1293 154.367 29.5643 155.43 28.7733V19.5637C155.43 17.5861 155.039 16.908 153.639 16.2865L152.744 15.8911V15.4391L159.068 14.083L159.572 14.3655V27.0782C159.572 30.6943 159.852 31.1464 161.364 31.4288L161.979 31.5418V32.1068H161.922Z" fill="white"/>
<path d="M174.908 20.5806C174.797 16.8516 173.453 14.9306 171.326 14.9306C168.92 14.9306 167.408 17.0211 167.184 20.5806H174.908ZM167.184 21.5977V21.8802C167.296 26.9653 170.038 30.0728 173.677 30.0728C175.692 30.0728 177.091 29.3383 178.603 27.8128L179.106 28.2083C177.203 30.8638 174.741 32.5589 171.55 32.5589C166.904 32.5589 163.378 29.3383 163.378 23.8012C163.378 17.8122 167.856 14.0266 172.11 14.0266C176.867 14.0266 179.162 16.6821 179.274 21.6541L167.184 21.5977Z" fill="white"/>
<path d="M20.8756 6.625C19.4203 6.625 17.9652 7.02051 16.7338 7.69851C17.1815 8.15053 17.6293 8.71553 17.9652 9.28054C18.8607 8.82854 19.8682 8.60253 20.8756 8.60253C24.3458 8.60253 27.0884 11.2015 27.0884 14.5351C27.0884 18.5467 24.3458 21.0892 17.0137 27.9259L16.5658 28.3779C16.23 28.7169 15.8382 28.9994 15.3905 29.2818C14.8307 29.6209 14.159 29.7338 13.4874 29.5079C12.368 29.1689 11.5284 28.8864 11.3046 28.8299C10.7449 27.8129 10.5769 23.9708 10.521 22.4452C14.439 21.7673 17.2935 18.4902 17.2935 14.6482C17.2935 13.4616 17.0137 12.2751 16.4539 11.2015L16.398 11.1451V11.0886C16.342 10.9191 16.23 10.8061 16.174 10.6931L16.118 10.5801C15.7263 9.95856 14.9427 8.99804 13.6554 8.09402C12.312 7.077 10.6889 6.625 9.00974 6.625H8.95378C4.30817 6.625 0.726013 10.0716 0.726013 14.4787C0.726013 18.9987 4.02832 22.4452 11.1366 28.9428C11.8642 29.6209 12.5919 30.2989 13.4315 31.0334L14.0472 31.5985C14.271 31.8244 14.6069 31.9375 14.8867 31.9375C15.2225 31.9375 15.5024 31.8244 15.7263 31.5985L16.342 31.0334C25.0735 23.1233 29.0474 19.5072 29.0474 14.4787C29.1034 10.0716 25.4653 6.625 20.8756 6.625ZM9.17766 20.6373C8.84183 20.8632 8.61795 21.2022 8.56198 21.5978V21.8803C8.56198 21.9932 8.56198 22.2193 8.56198 22.8973L8.67391 23.8577C4.81191 20.1853 2.74097 17.5296 2.74097 14.4787V14.3092C2.90889 11.0886 5.59551 8.54603 8.95378 8.54603C10.8568 8.54603 12.6479 9.39354 13.9912 10.9191C14.8307 11.9926 15.2785 13.2356 15.2785 14.5351C15.2785 17.5862 12.8717 20.1287 9.73737 20.4677C9.51348 20.5243 9.34557 20.5807 9.17766 20.6373Z" fill="white"/>
</g>
</g>
<defs>
<clipPath id="clip0_123_4541">
<rect width="179.3" height="39.6001" fill="white" transform="translate(0.349976 0.199951)"/>
</clipPath>
</defs>
</svg>
