<svg width="150" height="32" viewBox="0 0 150 32" fill="none" xmlns="http://www.w3.org/2000/svg">
<g opacity="0.4" clip-path="url(#clip0_123_4569)">
<g filter="url(#filter0_d_123_4569)">
<mask id="mask0_123_4569" style="mask-type:luminance" maskUnits="userSpaceOnUse" x="1" y="0" width="148" height="32">
<path d="M148.92 0.600098H1.08V31.4H148.92V0.600098Z" fill="white"/>
</mask>
<g mask="url(#mask0_123_4569)">
<path fill-rule="evenodd" clip-rule="evenodd" d="M1.08 24.4603V15.6407H10.0477V24.4603H1.08ZM10.0477 15.6407V6.8209H19.0154V15.6407H10.0477ZM148.527 6.40619C148.582 6.40619 148.723 6.40619 148.92 6.43383V11.1616C148.64 11.134 148.358 11.1064 148.132 11.1064C147.909 11.1064 147.711 11.0787 147.571 11.0787C145.687 11.0787 144.422 11.687 143.775 12.9035C143.41 13.5947 143.242 14.6453 143.242 16.0554V24.4881H138.659H138.547V6.8209H138.659H143.016V9.88983C143.747 8.70097 144.365 7.89918 144.9 7.48446C145.771 6.76561 146.925 6.40619 148.33 6.40619C148.385 6.40619 148.47 6.40619 148.527 6.40619ZM125.194 13.8711H132.474C132.39 12.6546 132.024 11.7146 131.351 11.1064C130.675 10.4704 129.833 10.1663 128.848 10.1663C127.752 10.1663 126.908 10.4981 126.318 11.1616C125.728 11.8252 125.335 12.71 125.194 13.8711ZM137.197 13.4287C137.197 13.5117 137.226 13.5947 137.226 13.7052C137.31 14.5071 137.367 15.5576 137.338 16.9401H137.226H125.081C125.166 18.7096 125.699 19.9538 126.767 20.6725C127.414 21.1149 128.202 21.336 129.101 21.336C130.085 21.336 130.844 21.0596 131.463 20.5342C131.801 20.2302 132.081 19.8431 132.333 19.3179H137.113C137 20.3685 136.438 21.4191 135.454 22.4974C133.908 24.2115 131.772 25.0686 129.017 25.0686C126.741 25.0686 124.717 24.3498 122.973 22.8845C121.624 21.7508 120.78 20.0367 120.471 17.7971C120.387 17.1889 120.359 16.5254 120.359 15.8341C120.359 15.1429 120.387 14.5071 120.471 13.8711C120.752 11.7423 121.483 10.0557 122.72 8.81156C124.293 7.18032 126.346 6.35088 128.848 6.35088C130.338 6.35088 131.689 6.62736 132.869 7.18032C134.077 7.73329 135.033 8.59039 135.82 9.77925C136.522 10.8299 137 12.0187 137.197 13.4287ZM114.511 24.4603V0.600098H119.178V5.07909V24.4603H119.065H114.511ZM107.652 5.07909V0.600098H112.346V24.4603H107.792H107.68V5.07909H107.652ZM94.3269 13.8711H101.608C101.524 12.6546 101.158 11.7146 100.483 11.1064C99.8088 10.4704 98.9654 10.1663 97.9814 10.1663C96.8851 10.1663 96.0699 10.4981 95.4514 11.1616C94.8611 11.8252 94.4675 12.71 94.3269 13.8711ZM106.331 13.4287C106.331 13.5117 106.359 13.6223 106.359 13.7052C106.443 14.5071 106.499 15.5576 106.471 16.9401H106.359H94.2145C94.2708 18.7096 94.8329 19.9538 95.9012 20.6725C96.5478 21.1149 97.3349 21.336 98.2344 21.336C99.1902 21.336 99.9774 21.0596 100.596 20.5342C100.905 20.2302 101.214 19.8431 101.467 19.3179H106.246C106.134 20.3685 105.572 21.4191 104.588 22.4974C103.07 24.2115 100.905 25.0686 98.1501 25.0686C95.8731 25.0686 93.8771 24.3498 92.1343 22.8845C91.0379 21.972 90.2788 20.7002 89.8852 19.0689C89.6604 18.1014 89.5478 17.0229 89.5478 15.8341C89.5478 14.6453 89.6604 13.5947 89.8852 12.627C90.2507 11.0787 90.9254 9.80689 91.8812 8.81156C93.4555 7.18032 95.5075 6.35088 98.0095 6.35088C99.4995 6.35088 100.849 6.62736 102.03 7.18032C103.238 7.73329 104.222 8.59039 104.981 9.77925C105.656 10.8299 106.106 12.0187 106.331 13.4287ZM82.6886 19.5943C83.3915 18.5989 83.7287 17.2996 83.7287 15.6407C83.7287 14.2858 83.4195 13.0693 82.7729 12.0463C82.1545 10.9958 81.1143 10.4704 79.7088 10.4704C78.022 10.4704 76.8414 11.2723 76.223 12.8481C75.8856 13.6776 75.717 14.7558 75.717 16.0554C75.717 18.1014 76.2791 19.539 77.3755 20.3685C78.0501 20.8661 78.8092 21.0873 79.7088 21.0873C81.0018 21.0873 82.0139 20.5896 82.6886 19.5943ZM86.3713 8.70097C87.2427 9.61336 87.833 10.7746 88.1986 12.1846C88.4516 13.1523 88.564 14.203 88.564 15.3919C88.564 16.6636 88.4516 17.7971 88.1986 18.8201C87.8611 20.3131 87.271 21.5296 86.4275 22.4974C84.9938 24.1285 83.1665 24.958 80.9457 24.958C79.512 24.958 78.3312 24.5986 77.4036 23.9074C76.8976 23.5203 76.3916 22.9397 75.8856 22.2209V31.4H71.2471V26.3405V6.8209H71.6406H75.717V9.41983C76.223 8.64567 76.757 8.03742 77.3192 7.6227C78.3595 6.8209 79.5962 6.43383 81.0301 6.43383C83.1384 6.43383 84.9094 7.18032 86.3713 8.70097ZM64.3316 19.7603C65.0625 18.7925 65.428 17.4377 65.428 15.6683C65.428 13.8987 65.0625 12.5164 64.3316 11.5764C63.6007 10.6363 62.5325 10.1663 61.183 10.1663C59.8337 10.1663 58.7655 10.6363 58.0346 11.5764C57.3037 12.5441 56.91 13.8987 56.91 15.6683C56.91 17.4377 57.2755 18.7925 58.0346 19.7603C58.7655 20.7278 59.8337 21.1979 61.183 21.1979C62.5605 21.1979 63.6007 20.7278 64.3316 19.7603ZM68.0705 9.03274C68.97 10.111 69.5885 11.3275 69.9258 12.6546C70.207 13.5947 70.3194 14.5901 70.3194 15.6683C70.3194 16.7465 70.1789 17.7696 69.9258 18.7096C69.5604 20.0367 68.942 21.2532 68.0705 22.3038C66.5524 24.1562 64.2473 25.0686 61.183 25.0686C58.1189 25.0686 55.8138 24.1562 54.2957 22.3038C53.9865 21.9444 53.7053 21.5573 53.4805 21.1425C52.4966 19.539 52.0187 17.7143 52.0187 15.6683C52.0187 13.6223 52.4966 11.7975 53.4805 10.194C53.7053 9.77925 53.9865 9.41983 54.2957 9.03274C55.8138 7.18032 58.1189 6.2403 61.183 6.2403C64.2473 6.2403 66.5806 7.18032 68.0705 9.03274ZM52.2155 6.43383V11.1616C51.9343 11.134 51.6531 11.1064 51.4283 11.1064C51.2034 11.1064 51.0066 11.0787 50.866 11.0787C50.8379 11.0787 50.7817 11.0787 50.7537 11.0787C48.9263 11.1064 47.7176 11.687 47.071 12.8758C46.7056 13.567 46.5368 14.5901 46.5368 16.0277V24.4603H42.0951H41.814V6.8209H42.0951H46.2838V9.88983C47.0148 8.70097 47.6331 7.89918 48.1674 7.48446C48.87 6.90385 49.7135 6.57208 50.7537 6.46148C51.0347 6.43383 51.2877 6.40619 51.5969 6.40619C51.6812 6.40619 51.7657 6.40619 51.8218 6.40619C51.85 6.40619 51.9905 6.40619 52.2155 6.43383ZM38.6093 8.70097C39.5371 9.66865 40.1835 10.9405 40.4929 12.4888C40.6895 13.3735 40.7739 14.3411 40.7739 15.3919C40.7739 16.5254 40.6895 17.576 40.4929 18.5161C40.1555 20.1471 39.5651 21.4743 38.6655 22.4974C37.2318 24.1285 35.4045 24.958 33.1837 24.958C31.7501 24.958 30.5693 24.5986 29.6416 23.9074C29.1356 23.5203 28.6297 22.9397 28.1236 22.2209V31.4H23.4852V6.8209H27.983V9.41983C28.4891 8.64567 29.0232 8.03742 29.5854 7.6227C30.6255 6.8209 31.8624 6.43383 33.2962 6.43383C35.4045 6.43383 37.1474 7.18032 38.6093 8.70097ZM34.9266 19.5943C35.6295 18.5989 35.9668 17.2996 35.9668 15.6407C35.9668 14.2858 35.6576 13.0693 35.011 12.0463C34.3926 10.9958 33.3524 10.4704 31.9468 10.4704C30.2601 10.4704 29.0795 11.2723 28.4609 12.8481C28.1236 13.6776 27.9548 14.7558 27.9548 16.0554C27.9548 18.1014 28.5172 19.539 29.6135 20.3685C30.2882 20.8661 31.0472 21.0873 31.9468 21.0873C33.2679 21.0873 34.252 20.5896 34.9266 19.5943Z" fill="white"/>
</g>
</g>
</g>
<defs>
<filter id="filter0_d_123_4569" x="-3.80005" y="0.0500488" width="157.6" height="39.8999" filterUnits="userSpaceOnUse" color-interpolation-filters="sRGB">
<feFlood flood-opacity="0" result="BackgroundImageFix"/>
<feColorMatrix in="SourceAlpha" type="matrix" values="0 0 0 0 0 0 0 0 0 0 0 0 0 0 0 0 0 0 127 0" result="hardAlpha"/>
<feOffset dy="4"/>
<feGaussianBlur stdDeviation="2"/>
<feComposite in2="hardAlpha" operator="out"/>
<feColorMatrix type="matrix" values="0 0 0 0 0 0 0 0 0 0 0 0 0 0 0 0 0 0 0.25 0"/>
<feBlend mode="normal" in2="BackgroundImageFix" result="effect1_dropShadow_123_4569"/>
<feBlend mode="normal" in="SourceGraphic" in2="effect1_dropShadow_123_4569" result="shape"/>
</filter>
<clipPath id="clip0_123_4569">
<rect width="149.6" height="31.8999" fill="white" transform="translate(0.199951 0.0500488)"/>
</clipPath>
</defs>
</svg>
