<svg width="160" height="32" viewBox="0 0 160 32" fill="none" xmlns="http://www.w3.org/2000/svg">
<g opacity="0.4" clip-path="url(#clip0_123_4556)">
<mask id="mask0_123_4556" style="mask-type:luminance" maskUnits="userSpaceOnUse" x="0" y="0" width="160" height="32">
<path d="M1.0759 30.9001V1.1001H158.639V30.9001H1.0759Z" fill="white" stroke="white"/>
</mask>
<g mask="url(#mask0_123_4556)">
<path d="M43.6359 7.58552H47.9988L48.4077 9.85513C49.2614 8.0591 51.0991 7.17896 53.0402 7.17896C53.9928 7.17896 54.9499 7.41574 55.5969 7.68828L54.5724 12.9379C53.8895 12.5314 53.0402 12.2588 52.0158 12.2588C50.2453 12.2588 48.812 13.4472 48.812 16.0876V24.5227H43.6359V7.58552Z" fill="white"/>
<path d="M57.3932 18.2157V7.47803H62.6461V17.2329C62.6461 19.1983 63.785 20.2479 65.4434 20.2479C67.1382 20.2479 68.587 18.9616 68.587 16.1164V7.47803H73.8398V24.4153H69.4526L68.8648 22.182C68.0356 23.5354 65.9628 24.8217 63.407 24.8217C59.9809 24.8217 57.3932 22.6509 57.3932 18.2157Z" fill="white"/>
<path d="M76.5328 7.58542H80.8667L81.4473 9.81871C82.2663 8.46533 84.278 7.17896 86.8072 7.17896C90.1511 7.17896 92.6758 9.31398 92.6758 13.7493V24.5227H87.4869V14.8348C87.4869 12.838 86.4608 11.7528 84.7551 11.7528C83.1845 11.7528 81.7173 13.0391 81.7173 15.9513V24.5227H76.5283V7.58542H76.5328Z" fill="white"/>
<path d="M93.8742 7.47803H99.0642L102.13 19.0344L104.859 11.4335L103.512 7.47803H108.667L112.003 19.0344L114.967 7.47803H120.189L114.661 24.5227H109.338L107.049 17.7399L104.69 24.5227H99.3975L93.8742 7.47803Z" fill="white"/>
<path d="M120.487 16.0003C120.487 10.1757 124.689 7.17896 128.557 7.17896C130.932 7.17896 132.627 8.12014 133.473 9.09684L133.946 7.58295H138.727V24.4178H134.184L133.473 22.7706C132.762 23.6097 131.237 24.8217 128.316 24.8217C124.149 24.8217 120.487 21.3855 120.487 16.0003ZM133.678 16.0003C133.678 13.2744 131.916 11.5919 129.675 11.5919C127.404 11.5919 125.673 13.3101 125.673 16.0003C125.673 18.6906 127.404 20.4133 129.675 20.4133C131.916 20.4088 133.678 18.7262 133.678 16.0003Z" fill="white"/>
<path d="M144.159 31.4004L147.033 23.6441L140.223 7.47803H145.801L149.601 18.0376L153.022 7.47803H158.464L149.465 31.4004H144.159Z" fill="white"/>
<path d="M24.1875 31.3813C20.456 31.7226 17.336 27.3497 14.9442 25.1319C13.7348 33.846 0.566666 33.02 0.575658 24.1802C0.580153 20.4673 0.575658 11.3941 0.575658 7.79804C0.575658 6.50506 0.930825 5.20312 1.5962 4.0987C2.85952 1.95721 5.30073 0.574457 7.7869 0.601394C11.5318 0.605883 20.5505 0.596904 24.1875 0.601394C33.0353 0.601394 33.8759 13.7646 25.1317 14.9497L29.2812 19.0935C33.84 23.381 30.4186 31.5699 24.1875 31.3813ZM22.178 26.1959C24.7496 28.8447 28.8542 24.7413 26.2062 22.1733L19.0128 14.9902H14.9892C14.9892 15.3808 14.9892 18.7299 14.9892 19.0127L21.2069 25.2218L22.178 26.1959ZM4.93207 24.1846C4.87364 27.8661 10.6867 27.8795 10.6282 24.1846V7.79804C10.6777 5.96184 8.73552 4.50275 6.98215 5.06844C6.90572 5.09088 6.83381 5.11332 6.76636 5.14027C5.6649 5.5488 4.90061 6.67566 4.93207 7.85191V24.1846ZM24.1875 10.6399C27.883 10.6982 27.8786 4.89334 24.1875 4.9517H14.4183C15.16 6.51404 14.9712 8.94734 14.9846 10.6399C15.5152 10.6399 23.9269 10.6399 24.1875 10.6399Z" fill="white"/>
</g>
</g>
<defs>
<clipPath id="clip0_123_4556">
<rect width="159.5" height="30.8" fill="white" transform="translate(0.25 0.600098)"/>
</clipPath>
</defs>
</svg>
