<svg width="33" height="32" viewBox="0 0 33 32" fill="none" xmlns="http://www.w3.org/2000/svg">
<path fill-rule="evenodd" clip-rule="evenodd" d="M16.6375 2C16.5015 2 16.3655 2.042 16.2495 2.12533C16.2495 2.12467 14.9635 3.044 13.9368 4.45933C13.2188 5.45067 12.6375 6.67867 12.6375 8C12.6375 9.32133 13.2188 10.5493 13.9368 11.5407C14.6748 12.558 15.5388 13.3127 15.9708 13.66V14.556C15.1468 13.966 13.9588 13.3333 12.6375 13.3333C10.1615 13.3333 8.14151 15.5547 8.14151 15.5547C7.91485 15.8073 7.91485 16.1927 8.14151 16.4453C8.14151 16.4453 10.1615 18.6667 12.6375 18.6667C13.9588 18.6667 15.1468 18.034 15.9708 17.444V20.6667H3.30418C2.93618 20.6667 2.63751 20.9653 2.63751 21.3333C2.63751 21.7013 2.93618 22 3.30418 22H29.9708C30.3388 22 30.6375 21.7013 30.6375 21.3333C30.6375 20.9653 30.3388 20.6667 29.9708 20.6667H17.3042V17.444C18.1282 18.034 19.3162 18.6667 20.6375 18.6667C23.1135 18.6667 25.1335 16.4453 25.1335 16.4453C25.3602 16.1927 25.3602 15.8073 25.1335 15.5547C25.1335 15.5547 23.1135 13.3333 20.6375 13.3333C19.3162 13.3333 18.1282 13.966 17.3042 14.556V13.66C17.7362 13.3127 18.6002 12.558 19.3382 11.5407C20.0562 10.5493 20.6375 9.32133 20.6375 8C20.6375 6.67867 20.0562 5.45067 19.3382 4.45933C18.3115 3.044 17.0255 2.12467 17.0255 2.12467C16.9095 2.042 16.7735 2 16.6375 2ZM16.6375 3.51667C17.0422 3.85867 17.6942 4.46467 18.2575 5.242C18.8195 6.01733 19.3042 6.96667 19.3042 8C19.3042 9.03333 18.8195 9.98267 18.2575 10.758C17.6942 11.5353 17.0422 12.1413 16.6375 12.4833C16.2328 12.1413 15.5808 11.5353 15.0175 10.758C14.4555 9.98267 13.9708 9.03333 13.9708 8C13.9708 6.96667 14.4555 6.01733 15.0175 5.242C15.5808 4.46467 16.2328 3.85867 16.6375 3.51667ZM3.30418 23.3333C2.93618 23.3333 2.63751 23.632 2.63751 24C2.63751 24.368 2.93618 24.6667 3.30418 24.6667H29.9708C30.3388 24.6667 30.6375 24.368 30.6375 24C30.6375 23.632 30.3388 23.3333 29.9708 23.3333H3.30418ZM5.97085 26C5.60285 26 5.30418 26.2987 5.30418 26.6667C5.30418 27.0347 5.60285 27.3333 5.97085 27.3333H27.3042C27.6722 27.3333 27.9708 27.0347 27.9708 26.6667C27.9708 26.2987 27.6722 26 27.3042 26H5.97085ZM8.10351 28.6667C7.73551 28.6667 7.43685 28.9653 7.43685 29.3333C7.43685 29.7013 7.73551 30 8.10351 30H25.1715C25.5395 30 25.8382 29.7013 25.8382 29.3333C25.8382 28.9653 25.5395 28.6667 25.1715 28.6667H8.10351Z" fill="#6CEFCE"/>
</svg>
