<svg width="33" height="32" viewBox="0 0 33 32" fill="none" xmlns="http://www.w3.org/2000/svg">
<path d="M8.67002 25.3333C10.1428 25.3333 11.3367 24.1394 11.3367 22.6667C11.3367 21.1939 10.1428 20 8.67002 20C7.19726 20 6.00336 21.1939 6.00336 22.6667C6.00336 24.1394 7.19726 25.3333 8.67002 25.3333Z" fill="#8F6CEF"/>
<path d="M6.67002 19.3333H10.67C10.8468 19.3333 11.0164 19.2631 11.1414 19.1381C11.2665 19.013 11.3367 18.8435 11.3367 18.6667C11.3367 18.4899 11.2665 18.3203 11.1414 18.1953C11.0164 18.0702 10.8468 18 10.67 18H6.67002C6.49321 18 6.32364 18.0702 6.19862 18.1953C6.07359 18.3203 6.00336 18.4899 6.00336 18.6667C6.00336 18.8435 6.07359 19.013 6.19862 19.1381C6.32364 19.2631 6.49321 19.3333 6.67002 19.3333ZM6.67002 17.3333H10.67C10.8468 17.3333 11.0164 17.2631 11.1414 17.1381C11.2665 17.013 11.3367 16.8435 11.3367 16.6667C11.3367 16.4899 11.2665 16.3203 11.1414 16.1953C11.0164 16.0702 10.8468 16 10.67 16H6.67002C6.49321 16 6.32364 16.0702 6.19862 16.1953C6.07359 16.3203 6.00336 16.4899 6.00336 16.6667C6.00336 16.8435 6.07359 17.013 6.19862 17.1381C6.32364 17.2631 6.49321 17.3333 6.67002 17.3333Z" fill="#8F6CEF"/>
<path d="M10.67 6H6.67002C6.30183 6 6.00336 6.29848 6.00336 6.66667V14.6667C6.00336 15.0349 6.30183 15.3333 6.67002 15.3333H10.67C11.0382 15.3333 11.3367 15.0349 11.3367 14.6667V6.66667C11.3367 6.29848 11.0382 6 10.67 6Z" fill="#8F6CEF"/>
<path d="M16.67 25.3333C18.1428 25.3333 19.3367 24.1394 19.3367 22.6667C19.3367 21.1939 18.1428 20 16.67 20C15.1973 20 14.0034 21.1939 14.0034 22.6667C14.0034 24.1394 15.1973 25.3333 16.67 25.3333Z" fill="#8F6CEF"/>
<path d="M14.67 19.3333H18.67C18.8468 19.3333 19.0164 19.2631 19.1414 19.1381C19.2665 19.013 19.3367 18.8435 19.3367 18.6667C19.3367 18.4899 19.2665 18.3203 19.1414 18.1953C19.0164 18.0702 18.8468 18 18.67 18H14.67C14.4932 18 14.3236 18.0702 14.1986 18.1953C14.0736 18.3203 14.0034 18.4899 14.0034 18.6667C14.0034 18.8435 14.0736 19.013 14.1986 19.1381C14.3236 19.2631 14.4932 19.3333 14.67 19.3333ZM14.67 17.3333H18.67C18.8468 17.3333 19.0164 17.2631 19.1414 17.1381C19.2665 17.013 19.3367 16.8435 19.3367 16.6667C19.3367 16.4899 19.2665 16.3203 19.1414 16.1953C19.0164 16.0702 18.8468 16 18.67 16H14.67C14.4932 16 14.3236 16.0702 14.1986 16.1953C14.0736 16.3203 14.0034 16.4899 14.0034 16.6667C14.0034 16.8435 14.0736 17.013 14.1986 17.1381C14.3236 17.2631 14.4932 17.3333 14.67 17.3333Z" fill="#8F6CEF"/>
<path d="M18.67 6H14.67C14.3018 6 14.0034 6.29848 14.0034 6.66667V14.6667C14.0034 15.0349 14.3018 15.3333 14.67 15.3333H18.67C19.0382 15.3333 19.3367 15.0349 19.3367 14.6667V6.66667C19.3367 6.29848 19.0382 6 18.67 6Z" fill="#8F6CEF"/>
<path d="M28.67 3.33301H4.67002C4.49321 3.33301 4.32364 3.40325 4.19862 3.52827C4.07359 3.65329 4.00336 3.82286 4.00336 3.99967V27.333C4.00336 27.5098 4.07359 27.6794 4.19862 27.8044C4.32364 27.9294 4.49321 27.9997 4.67002 27.9997H28.67C28.8468 27.9997 29.0164 27.9294 29.1414 27.8044C29.2665 27.6794 29.3367 27.5098 29.3367 27.333V3.99967C29.3367 3.82286 29.2665 3.65329 29.1414 3.52827C29.0164 3.40325 28.8468 3.33301 28.67 3.33301ZM12.0034 26.6663H5.33669V4.66634H12.0034V26.6663ZM20.0034 26.6663H13.3367V4.66634H20.0034V26.6663ZM28.0034 26.6663H21.3367V4.66634H28.0034V26.6663Z" fill="#8F6CEF"/>
<path d="M24.67 25.3333C26.1428 25.3333 27.3367 24.1394 27.3367 22.6667C27.3367 21.1939 26.1428 20 24.67 20C23.1973 20 22.0034 21.1939 22.0034 22.6667C22.0034 24.1394 23.1973 25.3333 24.67 25.3333Z" fill="#8F6CEF"/>
<path d="M22.67 19.3333H26.67C26.8468 19.3333 27.0164 19.2631 27.1414 19.1381C27.2665 19.013 27.3367 18.8435 27.3367 18.6667C27.3367 18.4899 27.2665 18.3203 27.1414 18.1953C27.0164 18.0702 26.8468 18 26.67 18H22.67C22.4932 18 22.3236 18.0702 22.1986 18.1953C22.0736 18.3203 22.0034 18.4899 22.0034 18.6667C22.0034 18.8435 22.0736 19.013 22.1986 19.1381C22.3236 19.2631 22.4932 19.3333 22.67 19.3333ZM22.67 17.3333H26.67C26.8468 17.3333 27.0164 17.2631 27.1414 17.1381C27.2665 17.013 27.3367 16.8435 27.3367 16.6667C27.3367 16.4899 27.2665 16.3203 27.1414 16.1953C27.0164 16.0702 26.8468 16 26.67 16H22.67C22.4932 16 22.3236 16.0702 22.1986 16.1953C22.0736 16.3203 22.0034 16.4899 22.0034 16.6667C22.0034 16.8435 22.0736 17.013 22.1986 17.1381C22.3236 17.2631 22.4932 17.3333 22.67 17.3333Z" fill="#8F6CEF"/>
<path d="M26.67 6H22.67C22.3018 6 22.0034 6.29848 22.0034 6.66667V14.6667C22.0034 15.0349 22.3018 15.3333 22.67 15.3333H26.67C27.0382 15.3333 27.3367 15.0349 27.3367 14.6667V6.66667C27.3367 6.29848 27.0382 6 26.67 6Z" fill="#8F6CEF"/>
</svg>
