<svg width="33" height="32" viewBox="0 0 33 32" fill="none" xmlns="http://www.w3.org/2000/svg">
<path d="M26.67 15.333H28.0033V28.6663C28.0033 29.1968 27.7926 29.7055 27.4175 30.0806C27.0425 30.4556 26.5338 30.6663 26.0033 30.6663H7.33667C6.80624 30.6663 6.29753 30.4556 5.92246 30.0806C5.54738 29.7055 5.33667 29.1968 5.33667 28.6663V27.333H3.33667V25.9997H5.33667V21.9997H3.33667V20.6663H5.33667V16.6663H3.33667V15.333H5.33667V11.333H3.33667V9.99967H5.33667V5.99967H3.33667V4.66634H5.33667V3.33301C5.33667 2.80257 5.54738 2.29387 5.92246 1.91879C6.29753 1.54372 6.80624 1.33301 7.33667 1.33301H26.0033C26.5338 1.33301 27.0425 1.54372 27.4175 1.91879C27.7926 2.29387 28.0033 2.80257 28.0033 3.33301V6.66634H26.67V3.33301C26.67 3.1562 26.5998 2.98663 26.4747 2.8616C26.3497 2.73658 26.1801 2.66634 26.0033 2.66634H7.33667C7.15986 2.66634 6.99029 2.73658 6.86527 2.8616C6.74024 2.98663 6.67 3.1562 6.67 3.33301V4.66634H8.12334C8.2806 4.22153 8.59005 3.84664 8.99699 3.60792C9.40393 3.3692 9.88216 3.28203 10.3472 3.36181C10.8122 3.44159 11.234 3.68319 11.5381 4.0439C11.8422 4.40461 12.009 4.86122 12.009 5.33301C12.009 5.8048 11.8422 6.2614 11.5381 6.62211C11.234 6.98283 10.8122 7.22442 10.3472 7.3042C9.88216 7.38399 9.40393 7.29681 8.99699 7.0581C8.59005 6.81938 8.2806 6.44448 8.12334 5.99967H6.67V9.99967H8.12334C8.2806 9.55487 8.59005 9.17997 8.99699 8.94125C9.40393 8.70254 9.88216 8.61536 10.3472 8.69514C10.8122 8.77493 11.234 9.01652 11.5381 9.37724C11.8422 9.73795 12.009 10.1945 12.009 10.6663C12.009 11.1381 11.8422 11.5947 11.5381 11.9554C11.234 12.3162 10.8122 12.5578 10.3472 12.6375C9.88216 12.7173 9.40393 12.6301 8.99699 12.3914C8.59005 12.1527 8.2806 11.7778 8.12334 11.333H6.67V15.333H8.12334C8.2806 14.8882 8.59005 14.5133 8.99699 14.2746C9.40393 14.0359 9.88216 13.9487 10.3472 14.0285C10.8122 14.1083 11.234 14.3499 11.5381 14.7106C11.8422 15.0713 12.009 15.5279 12.009 15.9997C12.009 16.4715 11.8422 16.9281 11.5381 17.2888C11.234 17.6495 10.8122 17.8911 10.3472 17.9709C9.88216 18.0507 9.40393 17.9635 8.99699 17.7248C8.59005 17.486 8.2806 17.1112 8.12334 16.6663H6.67V20.6663H8.12334C8.2806 20.2215 8.59005 19.8466 8.99699 19.6079C9.40393 19.3692 9.88216 19.282 10.3472 19.3618C10.8122 19.4416 11.234 19.6832 11.5381 20.0439C11.8422 20.4046 12.009 20.8612 12.009 21.333C12.009 21.8048 11.8422 22.2614 11.5381 22.6221C11.234 22.9828 10.8122 23.2244 10.3472 23.3042C9.88216 23.384 9.40393 23.2968 8.99699 23.0581C8.59005 22.8194 8.2806 22.4445 8.12334 21.9997H6.67V25.9997H8.12334C8.2806 25.5549 8.59005 25.18 8.99699 24.9413C9.40393 24.7025 9.88216 24.6154 10.3472 24.6951C10.8122 24.7749 11.234 25.0165 11.5381 25.3772C11.8422 25.7379 12.009 26.1945 12.009 26.6663C12.009 27.1381 11.8422 27.5947 11.5381 27.9554C11.234 28.3162 10.8122 28.5578 10.3472 28.6375C9.88216 28.7173 9.40393 28.6301 8.99699 28.3914C8.59005 28.1527 8.2806 27.7778 8.12334 27.333H6.67V28.6663C6.67 28.8432 6.74024 29.0127 6.86527 29.1377C6.99029 29.2628 7.15986 29.333 7.33667 29.333H26.0033C26.1801 29.333 26.3497 29.2628 26.4747 29.1377C26.5998 29.0127 26.67 28.8432 26.67 28.6663V15.333ZM15.3367 7.99967C15.1599 7.99967 14.9903 8.06991 14.8653 8.19494C14.7402 8.31996 14.67 8.48953 14.67 8.66634V11.9997H18.67V8.66634C18.67 8.48953 18.5998 8.31996 18.4747 8.19494C18.3497 8.06991 18.1801 7.99967 18.0033 7.99967H15.3367ZM20.67 4.66634C20.4932 4.66634 20.3236 4.73658 20.1986 4.8616C20.0736 4.98663 20.0033 5.1562 20.0033 5.33301V11.9997H24.0033V5.33301C24.0033 5.1562 23.9331 4.98663 23.8081 4.8616C23.6831 4.73658 23.5135 4.66634 23.3367 4.66634H20.67ZM25.3367 8.66634V11.9997H29.3367V8.66634C29.3367 8.48953 29.2664 8.31996 29.1414 8.19494C29.0164 8.06991 28.8468 7.99967 28.67 7.99967H26.0033C25.8265 7.99967 25.657 8.06991 25.5319 8.19494C25.4069 8.31996 25.3367 8.48953 25.3367 8.66634ZM14.0033 12.6663V13.9997H30.0033V12.6663H14.0033ZM25.3367 15.333H14.0033V16.6663H25.3367V15.333ZM25.3367 17.9997H14.0033V19.333H25.3367V17.9997ZM25.3367 20.6663H14.0033V21.9997H25.3367V20.6663ZM14.67 23.333C14.4932 23.333 14.3236 23.4032 14.1986 23.5283C14.0736 23.6533 14.0033 23.8229 14.0033 23.9997V26.6663C14.0033 26.8432 14.0736 27.0127 14.1986 27.1377C14.3236 27.2628 14.4932 27.333 14.67 27.333H24.67C24.8468 27.333 25.0164 27.2628 25.1414 27.1377C25.2664 27.0127 25.3367 26.8432 25.3367 26.6663V23.9997C25.3367 23.8229 25.2664 23.6533 25.1414 23.5283C25.0164 23.4032 24.8468 23.333 24.67 23.333H14.67Z" fill="#EFD26C"/>
</svg>
