<svg width="33" height="32" viewBox="0 0 33 32" fill="none" xmlns="http://www.w3.org/2000/svg">
<g clip-path="url(#clip0_2489_528)">
<path d="M24.34 3H8.34003C7.8096 3 7.30089 3.21071 6.92582 3.58579C6.55074 3.96086 6.34003 4.46957 6.34003 5V27C6.34003 27.5304 6.55074 28.0391 6.92582 28.4142C7.30089 28.7893 7.8096 29 8.34003 29H24.34C24.8704 29 25.3791 28.7893 25.7542 28.4142C26.1293 28.0391 26.34 27.5304 26.34 27V5C26.34 4.46957 26.1293 3.96086 25.7542 3.58579C25.3791 3.21071 24.8704 3 24.34 3ZM24.34 5V11H8.34003V5H24.34ZM8.34003 19V13H24.34V19H8.34003ZM8.34003 27V21H24.34V27H8.34003Z" fill="#8F6CEF"/>
<path d="M11.34 9C11.8923 9 12.34 8.55228 12.34 8C12.34 7.44772 11.8923 7 11.34 7C10.7877 7 10.34 7.44772 10.34 8C10.34 8.55228 10.7877 9 11.34 9Z" fill="#8F6CEF"/>
<path d="M11.34 17C11.8923 17 12.34 16.5523 12.34 16C12.34 15.4477 11.8923 15 11.34 15C10.7877 15 10.34 15.4477 10.34 16C10.34 16.5523 10.7877 17 11.34 17Z" fill="#8F6CEF"/>
<path d="M11.34 25C11.8923 25 12.34 24.5523 12.34 24C12.34 23.4477 11.8923 23 11.34 23C10.7877 23 10.34 23.4477 10.34 24C10.34 24.5523 10.7877 25 11.34 25Z" fill="#8F6CEF"/>
</g>
<defs>
<clipPath id="clip0_2489_528">
<rect width="32" height="32" fill="white" transform="translate(0.340027)"/>
</clipPath>
</defs>
</svg>
