<svg width="32" height="32" viewBox="0 0 32 32" fill="none" xmlns="http://www.w3.org/2000/svg">
<path d="M6.00199 1.49805C6.00199 1.49805 4.89467 1.49213 3.77541 2.05176C2.65614 2.6114 1.49805 3.83531 1.49805 6.00199V8.50005H30.4983V6.00199C30.4983 3.83531 29.3441 2.6114 28.2248 2.05176C27.1055 1.49213 25.9992 1.49805 25.9992 1.49805H6.00199ZM7.00199 4.001C7.8245 4.001 8.50005 4.67654 8.50005 5.49905C8.50005 6.32156 7.8245 7.002 7.00199 7.002C6.17948 7.002 5.49905 6.32157 5.49905 5.49905C5.49905 4.67654 6.17948 4.001 7.00199 4.001ZM10.9991 4.001C11.8216 4.001 12.5011 4.67654 12.5011 5.49905C12.5011 6.32156 11.8216 7.002 10.9991 7.002C10.1766 7.002 9.50103 6.32157 9.50103 5.49905C9.50103 4.67654 10.1766 4.001 10.9991 4.001ZM15.0001 4.001C15.8226 4.001 16.4982 4.67654 16.4982 5.49905C16.4982 6.32156 15.8226 7.002 15.0001 7.002C14.1776 7.002 13.502 6.32157 13.502 5.49905C13.502 4.67654 14.1776 4.001 15.0001 4.001ZM1.49805 9.50104V25.9992C1.49805 28.1659 2.65614 29.3888 3.77541 29.9484C4.89467 30.5081 6.00199 30.4983 6.00199 30.4983H25.9992C25.9992 30.4983 27.1055 30.508 28.2248 29.9484C29.3441 29.3888 30.4983 28.1659 30.4983 25.9992V9.50104H1.49805ZM17.4991 12.9991H21.5001C21.7782 12.9981 22.0037 13.224 22.0021 13.502V17.4991H25.5011C25.7774 17.5001 26.0002 17.7249 25.9992 18.0011V24.9992H27.5012C28.1827 24.9841 28.1827 26.0143 27.5012 25.9992H4.49904C3.81747 26.0143 3.81747 24.9841 4.49904 24.9992H5.001V19.0011C4.99994 18.7249 5.22282 18.5001 5.49905 18.4991L8.9981 18.4982V18.0011C8.99705 17.7234 9.22336 17.4981 9.50103 17.4991L12.9991 17.4982V16.0001C12.9981 15.7224 13.2244 15.4971 13.502 15.4981C13.5001 15.5001 17.0011 15.4991 17.0011 15.4991V13.502C16.9995 13.2255 17.2226 13.0002 17.4991 12.9991Z" fill="#EFD26C"/>
<path d="M7.00202 5.00098C7.28409 5.00098 7.50007 5.21696 7.50007 5.49903C7.50007 5.78109 7.28409 6.00196 7.00202 6.00196C6.71995 6.00196 6.50006 5.78109 6.50006 5.49903C6.50006 5.21696 6.71995 5.00098 7.00202 5.00098ZM10.9991 5.00098C11.2812 5.00098 11.5011 5.21696 11.5011 5.49903C11.5011 5.78109 11.2812 6.00196 10.9991 6.00196C10.7171 6.00196 10.5011 5.78109 10.5011 5.49903C10.5011 5.21696 10.7171 5.00098 10.9991 5.00098ZM15.0001 5.00098C15.2822 5.00098 15.4982 5.21696 15.4982 5.49903C15.4982 5.78109 15.2822 6.00196 15.0001 6.00196C14.7181 6.00196 14.5021 5.78109 14.5021 5.49903C14.5021 5.21696 14.7181 5.00098 15.0001 5.00098ZM18.0011 14.0001H21.0021V24.9992H18.0011V14.0001ZM14.0001 16.4981H17.0011V24.9992H14.0001V16.4981ZM9.99911 18.4991H12.9991V24.9992H9.99911V18.4991ZM22.0021 18.4991H24.9992V24.9992H22.0021V18.4991ZM6.00201 19.4991H8.99813V24.9992H6.00201V19.4991Z" fill="#EFD26C"/>
</svg>
