<svg width="33" height="32" viewBox="0 0 33 32" fill="none" xmlns="http://www.w3.org/2000/svg">
<path d="M25.0067 20.833H7.67336C7.03013 20.833 6.50669 21.3564 6.50669 21.9997V23.333C6.50669 24.7113 7.62844 25.833 9.00669 25.833H23.6734C25.0516 25.833 26.1734 24.7113 26.1734 23.333V21.9997C26.1734 21.3564 25.6499 20.833 25.0067 20.833ZM19.0067 23.833H13.6734C13.3973 23.833 13.1734 23.609 13.1734 23.333C13.1734 23.057 13.3973 22.833 13.6734 22.833H19.0067C19.2827 22.833 19.5067 23.057 19.5067 23.333C19.5067 23.609 19.2827 23.833 19.0067 23.833Z" fill="url(#paint0_linear_2489_562)"/>
<path d="M23.6734 10.167H22.5C22.4867 10.3403 22.4533 10.507 22.4 10.667C22.4534 10.827 22.4867 10.9937 22.5 11.167H23.6734C23.7667 11.167 23.84 11.2403 23.84 11.3337V19.8337H24.84V11.3337C24.84 10.6936 24.3134 10.167 23.6734 10.167ZM9.00669 10.167C8.36668 10.167 7.84003 10.6936 7.84003 11.3337V19.8337H8.84003V11.3337C8.84003 11.2403 8.91335 11.167 9.00669 11.167H10.18C10.1934 10.9937 10.2267 10.827 10.28 10.667C10.2267 10.507 10.1934 10.3403 10.18 10.167H9.00669Z" fill="url(#paint1_linear_2489_562)"/>
<path d="M21.5067 7.33366C21.5067 6.69043 20.9833 6.16699 20.34 6.16699H12.34C11.6968 6.16699 11.1734 6.69043 11.1734 7.33366V10.0003C11.1734 10.2485 11.2525 10.4777 11.3852 10.667C11.2525 10.8563 11.1734 11.0855 11.1734 11.3337V14.0003C11.1734 14.6436 11.6968 15.167 12.34 15.167H20.34C20.9833 15.167 21.5067 14.6436 21.5067 14.0003V11.3337C21.5067 11.0855 21.4275 10.8563 21.2949 10.667C21.4275 10.4777 21.5067 10.2485 21.5067 10.0003V7.33366ZM16.34 13.167H13.6734C13.3973 13.167 13.1734 12.943 13.1734 12.667C13.1734 12.391 13.3973 12.167 13.6734 12.167H16.34C16.6161 12.167 16.84 12.391 16.84 12.667C16.84 12.943 16.6161 13.167 16.34 13.167ZM16.34 9.16699H13.6734C13.3973 9.16699 13.1734 8.94303 13.1734 8.66699C13.1734 8.39095 13.3973 8.16699 13.6734 8.16699H16.34C16.6161 8.16699 16.84 8.39095 16.84 8.66699C16.84 8.94303 16.6161 9.16699 16.34 9.16699ZM18.34 13.167C18.0639 13.167 17.84 12.9431 17.84 12.667C17.84 12.3908 18.0639 12.167 18.34 12.167C18.6161 12.167 18.84 12.3908 18.84 12.667C18.84 12.9431 18.6161 13.167 18.34 13.167ZM18.34 9.16699C18.0639 9.16699 17.84 8.94311 17.84 8.66699C17.84 8.39083 18.0639 8.16699 18.34 8.16699C18.6161 8.16699 18.84 8.39083 18.84 8.66699C18.84 8.94311 18.6161 9.16699 18.34 9.16699Z" fill="url(#paint2_linear_2489_562)"/>
<defs>
<linearGradient id="paint0_linear_2489_562" x1="16.34" y1="5.99967" x2="16.34" y2="25.8277" gradientUnits="userSpaceOnUse">
<stop stop-color="#EFD26C"/>
<stop offset="1" stop-color="#FFC634"/>
</linearGradient>
<linearGradient id="paint1_linear_2489_562" x1="16.34" y1="6.00033" x2="16.34" y2="25.8283" gradientUnits="userSpaceOnUse">
<stop stop-color="#EFD26C"/>
<stop offset="1" stop-color="#FFC634"/>
</linearGradient>
<linearGradient id="paint2_linear_2489_562" x1="16.34" y1="6.00033" x2="16.34" y2="25.8283" gradientUnits="userSpaceOnUse">
<stop stop-color="#EFD26C"/>
<stop offset="1" stop-color="#FFC634"/>
</linearGradient>
</defs>
</svg>
