<svg width="33" height="32" viewBox="0 0 33 32" fill="none" xmlns="http://www.w3.org/2000/svg">
<g clip-path="url(#clip0_203_15386)">
<path d="M31.8875 13.4748H31.8375C31.0375 13.4748 30.2125 13.4498 29.4125 13.4748C29.3125 13.4748 29.2375 13.4748 29.1625 13.4498C28.8375 11.7998 28.1875 10.2748 27.2875 8.8998C27.3375 8.8248 27.4375 8.7248 27.5625 8.5998C28.1125 8.0498 28.6625 7.4998 29.2125 6.9498C28.2125 5.5748 27.0125 4.3748 25.6375 3.3998C25.0625 3.9748 24.4625 4.5498 23.8875 5.1498C23.8125 5.2248 23.7375 5.2748 23.6625 5.3248C22.3125 4.4248 20.7625 3.7748 19.1125 3.4498C19.1125 3.3998 19.0875 3.3498 19.0875 3.2748C19.1125 2.8498 19.0875 2.3998 19.0875 1.9748C19.0875 1.5498 19.0875 1.1498 19.0875 0.749805C18.2875 0.624805 17.4625 0.549805 16.6125 0.549805C15.7625 0.549805 14.9375 0.624805 14.1375 0.749805C14.1625 1.1498 14.1375 1.5748 14.1375 1.9748C14.1375 2.3998 14.1375 2.8498 14.1375 3.2748C14.1375 3.3498 14.1375 3.3998 14.1125 3.4498C12.4625 3.7748 10.9125 4.4248 9.56252 5.3248C9.48752 5.2998 9.41251 5.2248 9.33751 5.1498C8.76252 4.5498 8.18751 3.9748 7.61251 3.3998C6.23751 4.3748 5.03752 5.5748 4.03752 6.9498C4.58752 7.4998 5.13752 8.0498 5.68752 8.5998C5.81252 8.7248 5.91251 8.8248 5.96251 8.8998C5.06251 10.2498 4.41252 11.7748 4.08752 13.4498C4.01252 13.4748 3.93752 13.4748 3.83752 13.4748C3.03752 13.4498 2.21252 13.4748 1.41252 13.4748H1.38752C1.26252 14.2998 1.18752 15.1498 1.18752 15.9998C1.18752 16.8498 1.26252 17.6998 1.38752 18.4998C1.41252 18.4998 1.46252 18.4998 1.48752 18.4998C2.33752 18.4998 3.18752 18.4998 4.03752 18.4998C4.06252 18.4998 4.08752 18.4998 4.11252 18.4998C4.43752 20.1748 5.11252 21.7498 6.03752 23.0998C6.01252 23.1498 5.96252 23.1748 5.91252 23.2248C5.36251 23.7498 4.81252 24.2998 4.26252 24.8498C4.18752 24.9248 4.13752 24.9748 4.08752 25.0248C5.06252 26.3748 6.26252 27.5748 7.63752 28.5498C7.66252 28.5248 7.66252 28.5248 7.68752 28.4998C8.26252 27.8998 8.86252 27.3248 9.43752 26.7248C9.48752 26.6748 9.51252 26.6498 9.56252 26.6248C10.9375 27.5248 12.4875 28.1748 14.1375 28.4998C14.1625 28.5498 14.1625 28.6248 14.1625 28.7248C14.1375 29.5498 14.1625 30.3748 14.1625 31.1998V31.2498C14.9625 31.3748 15.7875 31.4498 16.6125 31.4498C17.4625 31.4498 18.2625 31.3748 19.0625 31.2498V31.1998C19.0625 30.3748 19.0625 29.5498 19.0375 28.7248C19.0375 28.6498 19.0375 28.5748 19.0625 28.4998C20.7375 28.1748 22.2875 27.5248 23.6375 26.6248C23.6875 26.6498 23.7125 26.6998 23.7625 26.7248C24.3375 27.3248 24.9375 27.8998 25.5125 28.4998C25.5375 28.5248 25.5375 28.5248 25.5625 28.5498C26.9375 27.5748 28.1125 26.3748 29.1125 25.0248C29.0625 24.9748 29.0125 24.9248 28.9375 24.8498C28.3875 24.2998 27.8625 23.7498 27.2875 23.2248C27.2375 23.1748 27.2125 23.1248 27.1625 23.0998C28.0875 21.7248 28.7375 20.1748 29.0875 18.4998C29.1125 18.4998 29.1375 18.4998 29.1625 18.4998C30.0125 18.4998 30.8625 18.4998 31.7125 18.4998C31.7375 18.4998 31.7875 18.4998 31.8125 18.4998C31.9375 17.6748 32.0125 16.8498 32.0125 15.9998C32.0875 15.1498 32.0125 14.2998 31.8875 13.4748ZM20.5375 16.3748C20.4375 16.5498 20.2875 16.6748 20.1125 16.7248C19.9875 16.7498 18.0875 17.2498 16.8625 17.5498L16.5375 17.6248L18.1375 21.9498L18.1625 21.9998C18.3875 22.3748 18.2875 22.8498 17.9125 23.0748C17.5375 23.2998 17.0625 23.1998 16.8375 22.8248L12.7625 16.4248C12.6125 16.1748 12.6125 15.8748 12.7375 15.6248C12.8375 15.4248 13.0125 15.2998 13.2375 15.2498C13.3125 15.2248 15.2125 14.8248 16.4375 14.5498L16.7875 14.4748L15.1375 10.0498L15.1125 9.9998C14.8875 9.6248 14.9875 9.14981 15.3625 8.9248C15.4875 8.8498 15.6375 8.7998 15.7875 8.7998C16.0375 8.7998 16.3125 8.9248 16.4375 9.1498L20.5125 15.5748C20.5875 15.6998 20.6375 15.8498 20.6375 15.9998C20.6375 16.1248 20.5875 16.2498 20.5375 16.3748Z" fill="#6CEFCE"/>
</g>
<defs>
<clipPath id="clip0_203_15386">
<rect width="32" height="32" fill="white" transform="translate(0.637512)"/>
</clipPath>
</defs>
</svg>
