<svg width="33" height="32" viewBox="0 0 33 32" fill="none" xmlns="http://www.w3.org/2000/svg">
<path d="M16.6381 31.9993C25.4748 31.9993 32.6383 24.8358 32.6383 15.9992C32.6383 7.16254 25.4748 -0.000976562 16.6381 -0.000976562C7.80148 -0.000976562 0.637962 7.16254 0.637962 15.9992C0.637962 24.8358 7.80148 31.9993 16.6381 31.9993Z" fill="#8F6CEF"/>
<path d="M10.0682 6.18848C9.2949 6.18936 8.55355 6.49693 8.00676 7.04372C7.45997 7.59051 7.1524 8.33187 7.15151 9.10514C7.15151 10.7051 8.45018 12.0131 10.0528 12.0218H10.0682C11.5615 12.0218 11.9882 12.0838 12.9848 13.0818V9.07314C12.9754 8.30548 12.664 7.57241 12.1182 7.03256C11.5724 6.4927 10.8359 6.18947 10.0682 6.18848ZM21.7308 7.24714C21.6062 7.24714 21.4828 7.26381 21.3595 7.28114C21.0235 7.93048 20.9455 7.89714 20.2775 7.75248C20.1968 7.81448 20.1148 7.87248 20.0408 7.94648C19.9475 8.03981 19.8715 8.14181 19.7968 8.24448C20.0102 8.90581 19.9162 8.93114 19.3728 9.28448C19.3379 9.51874 19.3379 9.75688 19.3728 9.99114C19.9888 10.3091 19.9342 10.3998 19.7968 11.0325C19.8715 11.1351 19.9482 11.2365 20.0408 11.3291C20.1142 11.4031 20.1955 11.4611 20.2762 11.5231C20.9662 11.2965 20.9895 11.4271 21.3582 11.9945C21.5695 12.0278 21.7828 12.0278 21.9948 12.0065C22.3475 11.3198 22.4582 11.3931 23.1628 11.5418C23.2515 11.4751 23.3415 11.4111 23.4222 11.3305C23.4842 11.2685 23.5308 11.1985 23.5848 11.1311C23.3455 10.2911 23.3955 10.3745 24.0955 9.92314C24.1062 9.82848 24.1222 9.73448 24.1222 9.63914C24.1222 9.54514 24.1062 9.45114 24.0955 9.35648C23.3482 8.94314 23.4142 8.93248 23.5848 8.14714C23.5315 8.08048 23.4842 8.00981 23.4222 7.94781C23.3415 7.86648 23.2515 7.80381 23.1628 7.73714C22.4215 7.96914 22.3875 7.88248 21.9935 7.27181C21.9062 7.25981 21.8188 7.24714 21.7308 7.24714ZM9.80418 7.24848H10.3342V7.81248C10.4735 7.84448 10.6042 7.89914 10.7155 7.99448L10.9148 8.15981L10.5662 8.55848L10.3682 8.39314C10.2969 8.33839 10.2094 8.30906 10.1195 8.30981C9.92418 8.30981 9.80418 8.42114 9.80418 8.55848C9.80418 8.72314 9.89885 8.83981 10.0855 8.83981C10.3102 8.83981 10.5088 8.92314 10.6495 9.07181C10.7895 9.22048 10.8642 9.42848 10.8642 9.63514C10.8642 9.97581 10.6348 10.2471 10.3342 10.3645V10.9611H9.80418V10.3985C9.6638 10.3704 9.53268 10.3076 9.42285 10.2158L9.22285 10.0338L9.57218 9.63514L9.77018 9.81781C9.82951 9.86981 9.92351 9.90114 10.0188 9.90114C10.2148 9.90114 10.3342 9.77314 10.3342 9.63514C10.3379 9.56267 10.3141 9.49148 10.2675 9.43581C10.2288 9.39581 10.1828 9.36914 10.0855 9.36914C9.87104 9.36723 9.66589 9.28123 9.51416 9.12963C9.36244 8.97803 9.27627 8.77295 9.27418 8.55848C9.27418 8.21781 9.50351 7.94181 9.80418 7.82914V7.24848ZM21.7342 8.83848C21.9454 8.83865 22.1479 8.92264 22.2973 9.07201C22.4467 9.22138 22.5307 9.42391 22.5308 9.63514C22.5308 9.84649 22.4469 10.0492 22.2975 10.1987C22.1482 10.3482 21.9455 10.4323 21.7342 10.4325C21.6295 10.4325 21.5258 10.4119 21.4291 10.3718C21.3323 10.3317 21.2444 10.273 21.1704 10.1989C21.0963 10.1249 21.0376 10.037 20.9975 9.94027C20.9575 9.84353 20.9368 9.73985 20.9368 9.63514C20.937 9.42379 21.0211 9.22116 21.1706 9.07177C21.3201 8.92239 21.5228 8.83848 21.7342 8.83848ZM13.6708 10.9438V10.9451C13.6095 10.9627 13.5553 10.9995 13.5164 11.0502C13.4775 11.1008 13.456 11.1626 13.4548 11.2265V13.2485C13.4548 13.6478 13.6655 14.0018 13.9855 14.2098V15.7511C14.0502 16.6698 14.4042 17.3111 14.8975 17.7058C14.8395 18.1611 14.6428 18.4258 14.3168 18.6678C13.9302 18.9545 13.3688 19.1765 12.7762 19.4298C12.1828 19.6831 11.5535 19.9871 11.0695 20.5231C10.5848 21.0598 10.2735 21.8098 10.2735 22.8931V23.0925L10.4388 23.1591C11.9568 23.8178 12.7235 24.1538 13.1068 24.3178C13.2982 24.3991 13.3848 24.4458 13.4388 24.4671C13.4655 24.4778 13.4762 24.4758 13.5055 24.4845C13.5122 24.4845 13.5235 24.4985 13.5382 24.5011H13.5548C13.5982 24.5185 13.6915 24.5565 13.8702 24.6325C14.2435 24.7925 14.9835 25.1085 16.4868 25.7605L16.6042 25.8098L16.7202 25.7605C18.2502 25.1105 19.0148 24.7938 19.4048 24.6325C19.5922 24.5558 19.6868 24.5025 19.7355 24.4845H19.7528C19.7815 24.4778 19.8075 24.4711 19.8195 24.4671C19.8422 24.4605 19.8422 24.4605 19.8688 24.4505C19.9215 24.4285 20.0288 24.3838 20.2162 24.3018C20.5915 24.1391 21.3402 23.8098 22.8348 23.1585L23.0002 23.0918V22.8931C23.0002 21.8358 22.6855 21.0911 22.2048 20.5731C21.7235 20.0545 21.1002 19.7758 20.5142 19.5285C19.9288 19.2811 19.3702 19.0611 18.9895 18.7671C18.6162 18.4778 18.4008 18.1458 18.3935 17.5071C18.9082 17.0818 19.2655 16.4831 19.2882 15.7511V13.1651C19.2882 12.2398 18.5882 11.4751 17.6982 11.4751H14.5155C14.3335 11.4751 14.1835 11.4451 14.1175 11.4085C14.0508 11.3718 14.0355 11.3658 14.0355 11.2265C14.0368 11.0485 13.8422 10.8978 13.6708 10.9438ZM8.48418 12.5571C8.45434 12.5498 8.42313 12.5503 8.39351 12.5585C8.34992 12.571 8.3115 12.5972 8.2839 12.6332C8.2563 12.6692 8.24098 12.7131 8.24018 12.7585V14.2005C8.24018 14.4851 8.38885 14.7385 8.61751 14.8871V15.9851C8.66351 16.6405 8.91551 17.0985 9.26685 17.3798C9.22551 17.7045 9.08618 17.8918 8.85351 18.0645C8.57751 18.2685 8.17685 18.4265 7.75351 18.6071C7.33151 18.7878 6.88351 19.0065 6.53818 19.3885C6.19351 19.7718 5.97085 20.3058 5.97085 21.0778V21.2198L6.08951 21.2685C7.17151 21.7378 7.71818 21.9785 7.99151 22.0951C8.12818 22.1531 8.18885 22.1865 8.22751 22.2018C8.24685 22.2085 8.25485 22.2085 8.27551 22.2131C8.28085 22.2131 8.28885 22.2231 8.29885 22.2251H8.31085C8.34151 22.2385 8.40751 22.2651 8.53485 22.3205L9.61151 22.7838C9.62218 22.2265 9.71018 21.7258 9.86485 21.2865L10.2235 19.3218C10.2828 19.1385 10.1515 19.0445 10.1428 19.0338C10.0841 18.9836 10.0369 18.9212 10.0046 18.851C9.97222 18.7808 9.95549 18.7044 9.95551 18.6271C9.95551 18.5545 9.96983 18.4825 9.99763 18.4154C10.0254 18.3483 10.0662 18.2873 10.1176 18.2359C10.169 18.1845 10.23 18.1437 10.2971 18.1159C10.3642 18.0881 10.4362 18.0738 10.5088 18.0738C10.5815 18.0738 10.6535 18.0881 10.7206 18.1159C10.7877 18.1437 10.8487 18.1845 10.9001 18.2359C10.9515 18.2873 10.9923 18.3483 11.0201 18.4154C11.0479 18.4825 11.0622 18.5545 11.0622 18.6271C11.0625 18.7794 11.0026 18.9256 10.8955 19.0338C10.8955 19.0338 10.7582 19.1005 10.8175 19.3218L10.8975 19.7751C11.4222 19.3151 12.0075 19.0331 12.5148 18.8165C12.7102 18.7331 12.8755 18.6585 13.0488 18.5818C12.7188 18.4418 12.4075 18.3058 12.1868 18.1351C11.9202 17.9291 11.7668 17.6931 11.7615 17.2385C12.1282 16.9345 12.3835 16.5071 12.3995 15.9851V14.1425C12.3995 13.4825 11.8995 12.9365 11.2648 12.9365H8.99551C8.86618 12.9365 8.76018 12.9165 8.71285 12.8898C8.66618 12.8638 8.65285 12.8598 8.65285 12.7598C8.65418 12.6645 8.57551 12.5798 8.48485 12.5578L8.48418 12.5571ZM24.7895 12.5571C24.6988 12.5791 24.6202 12.6638 24.6215 12.7591C24.6215 12.8591 24.6082 12.8631 24.5615 12.8891C24.5148 12.9158 24.4082 12.9358 24.2788 12.9358H22.0095C21.3748 12.9358 20.8748 13.4818 20.8748 14.1418V15.9858C20.8908 16.5071 21.1462 16.9345 21.5128 17.2385C21.5075 17.6931 21.3542 17.9291 21.0875 18.1351C20.8442 18.3231 20.4955 18.4698 20.1262 18.6251C20.3282 18.7165 20.5368 18.8085 20.7735 18.9085C21.2648 19.1165 21.8448 19.3771 22.3688 19.8205L22.4568 19.3218C22.5168 19.1005 22.3788 19.0338 22.3788 19.0338C22.2718 18.9256 22.2119 18.7794 22.2122 18.6271C22.2122 18.4804 22.2705 18.3396 22.3742 18.2359C22.478 18.1321 22.6188 18.0738 22.7655 18.0738C22.9123 18.0738 23.053 18.1321 23.1568 18.2359C23.2605 18.3396 23.3188 18.4804 23.3188 18.6271C23.319 18.7044 23.3023 18.7807 23.2701 18.8509C23.2379 18.9211 23.1908 18.9835 23.1322 19.0338C23.1228 19.0445 22.9922 19.1385 23.0508 19.3218L23.4195 21.3485C23.5668 21.7725 23.6528 22.2531 23.6628 22.7838L24.7395 22.3205L24.9635 22.2251H24.9755C24.9855 22.2231 24.9935 22.2131 24.9988 22.2131C25.0188 22.2078 25.0275 22.2091 25.0468 22.2018C25.0855 22.1865 25.1462 22.1531 25.2828 22.0951C25.5562 21.9785 26.1028 21.7378 27.1848 21.2685L27.3035 21.2198V21.0778C27.3035 20.3058 27.0808 19.7711 26.7355 19.3891C26.3902 19.0071 25.9422 18.7891 25.5195 18.6078C25.0968 18.4278 24.6962 18.2691 24.4208 18.0651C24.1875 17.8918 24.0475 17.7051 24.0068 17.3798C24.3582 17.0985 24.6102 16.6411 24.6562 15.9858V14.8865C24.8848 14.7385 25.0342 14.4851 25.0342 14.1998V12.7591C25.0335 12.7137 25.0183 12.6696 24.9907 12.6335C24.963 12.5974 24.9245 12.5711 24.8808 12.5585C24.851 12.5502 24.8196 12.5498 24.7895 12.5571ZM16.6375 18.6798C17.0668 18.6798 17.4148 19.0265 17.4148 19.4558C17.4148 19.6678 17.3275 19.8805 17.1788 20.0245C17.1788 20.0245 16.9868 20.1185 17.0695 20.4285L17.6988 23.9451L16.6375 24.4751L15.5975 23.9385L16.2375 20.4285C16.3208 20.1718 16.1375 20.0391 16.1242 20.0245C16.0418 19.9543 15.9755 19.8672 15.9299 19.7691C15.8843 19.6709 15.8606 19.564 15.8602 19.4558C15.8602 19.0265 16.2082 18.6798 16.6375 18.6798Z" fill="white"/>
</svg>
