<svg width="33" height="32" viewBox="0 0 33 32" fill="none" xmlns="http://www.w3.org/2000/svg">
<path d="M26.9991 14.8767H30.0708C30.1997 14.8767 30.2887 15.0111 30.234 15.1282C29.8211 16.0102 29.2569 16.8132 28.5671 17.5007L17.0343 29.0143C16.8167 29.2319 16.4583 29.2319 16.2407 29.0143L4.70791 17.5007C4.47796 17.2708 4.26149 17.0278 4.05959 16.773C4.03845 16.7469 4.02513 16.7154 4.02116 16.682C4.01719 16.6487 4.02274 16.6149 4.03717 16.5846C4.05159 16.5542 4.0743 16.5286 4.10268 16.5106C4.13105 16.4927 4.16393 16.4831 4.19751 16.4831H9.59111C9.87646 16.4848 10.1565 16.4062 10.3993 16.2563C10.6421 16.1063 10.8378 15.891 10.9639 15.6351L11.6522 14.2581C11.6751 14.2123 11.71 14.1735 11.753 14.1457C11.7961 14.118 11.8458 14.1023 11.897 14.1004C11.9482 14.0984 11.999 14.1103 12.044 14.1347C12.0891 14.1592 12.1267 14.1953 12.153 14.2392L16.0039 20.6815C16.1351 20.8959 16.3687 21.0303 16.6183 21.0303C16.6279 21.0303 16.6375 21.0271 16.6471 21.0271C16.9063 21.0175 17.1431 20.8671 17.2583 20.6335L18.3783 18.3967C18.4743 18.2015 18.6727 18.0799 18.8935 18.0799H20.7239C21.3543 18.0799 21.9143 17.7023 22.1479 17.1167L24.3063 11.7138C24.4052 11.4667 24.7585 11.477 24.8426 11.7295L25.5399 13.8239C25.6413 14.1306 25.837 14.3976 26.099 14.5866C26.361 14.7756 26.676 14.8772 26.9991 14.8767Z" fill="#8F6CEF"/>
<path d="M30.7326 13.7857C30.7218 13.8236 30.699 13.8569 30.6676 13.8807C30.6362 13.9044 30.5979 13.9172 30.5585 13.9172H26.9991C26.8781 13.9174 26.7602 13.8795 26.6619 13.8088C26.5637 13.7382 26.4902 13.6384 26.4519 13.5236L25.2967 10.0548C25.2007 9.76681 24.9415 9.57161 24.6375 9.56521C24.4909 9.55922 24.3461 9.59917 24.2233 9.6795C24.1006 9.75982 24.0059 9.87649 23.9527 10.0132L21.2583 16.7588C21.2159 16.8658 21.1422 16.9575 21.0469 17.022C20.9516 17.0865 20.839 17.1208 20.7239 17.1204H18.8935C18.3079 17.1204 17.7799 17.4468 17.5175 17.9684L16.5991 19.8052L12.4839 12.9188C12.4182 12.808 12.3237 12.7171 12.2104 12.6557C12.0972 12.5943 11.9694 12.5647 11.8407 12.57C11.5783 12.5796 11.3447 12.73 11.2263 12.9636L10.1063 15.2068C10.0071 15.402 9.81192 15.5236 9.59112 15.5236H3.34856C3.3155 15.5236 3.28308 15.5145 3.25478 15.4974C3.22649 15.4803 3.20337 15.4559 3.18792 15.4267C1.53416 12.2513 2.04072 8.24169 4.70792 5.57161C7.94312 2.33961 13.1495 2.27881 16.4551 5.39241C16.5575 5.48841 16.7175 5.48841 16.8199 5.39241C20.1255 2.27881 25.3319 2.33961 28.5671 5.57161C30.7918 7.79625 31.5114 10.955 30.7326 13.7857Z" fill="#8F6CEF"/>
</svg>
