<svg width="33" height="32" viewBox="0 0 33 32" fill="none" xmlns="http://www.w3.org/2000/svg">
<g clip-path="url(#clip0_203_15377)">
<path d="M17.7675 17.05H17.8175C18.1025 17.05 18.3325 16.82 18.3325 16.535V12.205C19.1175 11.88 19.6775 10.985 19.6775 9.92004C19.6775 8.85504 19.1175 7.96004 18.3325 7.63504V3.30504C18.3325 3.02004 18.1025 2.79004 17.8175 2.79004H17.7675C17.4825 2.79004 17.2525 3.02004 17.2525 3.30504V16.535C17.2525 16.82 17.4825 17.05 17.7675 17.05ZM4.61751 18.775H6.88751C7.06751 18.775 7.20751 18.63 7.20751 18.45C7.20751 18.33 7.13751 18.22 7.02751 18.16L6.64251 17.955C6.45251 17.86 6.30751 17.685 6.24251 17.48L5.20751 12.95H6.06751V6.88504L1.98751 6.89004C1.24251 6.89004 0.632507 7.49504 0.632507 8.24004V11.605C0.632507 12.35 1.24251 12.955 1.98751 12.955H2.64251L3.91251 18.28C4.01251 18.565 4.29251 18.775 4.61751 18.775Z" fill="#8F6CEF"/>
<path d="M16.7975 3.49512C14.4725 4.55512 11.0575 6.06512 6.5675 6.84512V13.0001C11.0725 13.7851 14.4775 15.2851 16.7975 16.3501V3.49512ZM20.4825 9.92012C20.4825 10.0551 20.5925 10.1701 20.7325 10.1701H23.8725C24.0075 10.1701 24.1225 10.0601 24.1225 9.92012C24.1225 9.78512 24.0125 9.67012 23.8725 9.67012H20.7325C20.5925 9.67512 20.4825 9.78512 20.4825 9.92012ZM20.5625 8.17512C20.6025 8.17512 20.6425 8.16512 20.6775 8.14512L23.5475 6.63512C23.6675 6.57012 23.7175 6.42012 23.6525 6.30012C23.5875 6.18012 23.4375 6.13512 23.3175 6.19512L20.4475 7.70512C20.3275 7.77012 20.2775 7.92012 20.3425 8.04012C20.3875 8.12512 20.4725 8.17512 20.5625 8.17512ZM20.4475 12.1351L23.3175 13.6451C23.3525 13.6651 23.3925 13.6751 23.4325 13.6751C23.5225 13.6751 23.6075 13.6251 23.6525 13.5451C23.7175 13.4251 23.6675 13.2751 23.5475 13.2101L20.6775 11.7001C20.5575 11.6351 20.4075 11.6801 20.3425 11.8051C20.2775 11.9251 20.3275 12.0751 20.4475 12.1351Z" fill="#8F6CEF"/>
<path d="M32.1425 28.215H31.0025V8.75C31.0025 8.615 30.8925 8.5 30.7525 8.5H28.6125C28.4775 8.5 28.3625 8.61 28.3625 8.75V28.215H26.2775V16.77C26.2775 16.635 26.1675 16.52 26.0275 16.52H23.8875C23.7525 16.52 23.6375 16.63 23.6375 16.77V28.215H21.5525V23.99C21.5525 23.855 21.4425 23.74 21.3025 23.74H19.1625C19.0275 23.74 18.9125 23.85 18.9125 23.99V28.215H16.8275V20.98C16.8275 20.845 16.7175 20.73 16.5775 20.73H14.4375C14.3025 20.73 14.1875 20.84 14.1875 20.98V28.215H12.1025V19.02C12.1025 18.885 11.9925 18.77 11.8525 18.77H9.71251C9.57751 18.77 9.46251 18.88 9.46251 19.02V28.215H7.37751V23C7.37751 22.865 7.26751 22.75 7.12751 22.75H5.02751C4.89251 22.75 4.77751 22.86 4.77751 23V28.215H3.64251C3.36751 28.215 3.14751 28.44 3.14751 28.71C3.14751 28.985 3.37251 29.205 3.64251 29.205H32.1425C32.4175 29.205 32.6375 28.98 32.6375 28.71C32.6375 28.44 32.4125 28.215 32.1425 28.215Z" fill="#8F6CEF"/>
</g>
<defs>
<clipPath id="clip0_203_15377">
<rect width="32" height="32" fill="white" transform="translate(0.637512)"/>
</clipPath>
</defs>
</svg>
