<svg width="32" height="32" viewBox="0 0 32 32" fill="none" xmlns="http://www.w3.org/2000/svg">
<path d="M19.6364 26.5693H12.3637C11.5394 26.5693 10.9091 27.2481 10.9091 28.0238C10.9091 28.7511 11.4425 29.3814 12.1212 29.4784C12.0728 29.6238 12.0243 29.8178 12.0243 30.0117C12.0243 30.8359 12.7031 31.4662 13.4788 31.4662H18.5212C19.3455 31.4662 19.9758 30.7875 19.9758 30.0117C19.9758 29.8178 19.9273 29.6238 19.8788 29.4784C20.5576 29.3814 21.1394 28.7511 21.1394 28.0238C21.1394 27.2481 20.4606 26.5693 19.6364 26.5693ZM6.20609 14.2541C6.10912 14.2541 5.96366 14.2541 5.86669 14.2056C6.25457 16.6784 7.51518 18.9087 9.45457 20.5087C11.0061 21.8178 11.8788 23.4178 12.1212 25.5996C12.2182 25.5996 12.2667 25.5996 12.3637 25.5996H15.5152V16.8238L14.6909 17.5996C14.497 17.7935 14.2061 17.7935 14.0121 17.5996L12.4606 15.9996C12.2667 15.8056 12.2667 15.5147 12.4606 15.3208C12.6546 15.1269 12.9455 15.1269 13.1394 15.3208L14.4 16.5814L15.6606 15.3208C15.8546 15.1269 16.1455 15.1269 16.3394 15.3208L17.6 16.5814L18.8606 15.3208C19.0546 15.1269 19.3455 15.1269 19.5394 15.3208C19.7334 15.5147 19.7334 15.8056 19.5394 15.9996L17.9394 17.5996C17.7455 17.7935 17.4546 17.7935 17.2606 17.5996L16.4849 16.8238V25.6481H19.6849C19.7818 25.6481 19.8303 25.6481 19.9273 25.6481C20.2182 23.4662 21.0425 21.8178 22.6425 20.5087C24.5334 18.9087 25.794 16.6784 26.1818 14.2541C26.0849 14.3026 25.9394 14.3026 25.8425 14.3026H6.20609V14.2541ZM27.6849 9.26018C27.2485 8.29049 26.3758 7.6117 25.3091 7.36928C25.6 5.57534 24.194 3.82988 22.1576 3.7814C22.1576 0.242003 17.697 -0.630725 16 1.98746C14.1576 -0.873149 9.60003 0.629881 9.84245 3.7814C7.85457 3.82988 6.40003 5.52685 6.69093 7.36928C5.62427 7.56321 4.75154 8.29049 4.31518 9.26018C3.63639 10.8117 4.36366 12.5572 5.96366 13.2844C6.01215 13.2844 6.10912 13.3329 6.1576 13.3329H25.794C25.8425 13.3329 25.9394 13.3329 25.9879 13.2844C27.5879 12.6056 28.3152 10.8117 27.6849 9.26018ZM8.87275 9.55109C8.3879 9.55109 8.00003 9.89049 7.95154 10.3753C7.95154 10.6178 7.70912 10.8117 7.46669 10.8117C7.22427 10.8117 7.03033 10.5693 7.03033 10.3268C7.07881 9.35715 7.90306 8.5814 8.92124 8.62988C9.16366 8.62988 9.40609 8.8723 9.3576 9.11473C9.3576 9.35715 9.11518 9.55109 8.87275 9.55109ZM12.0728 8.29049C11.5879 8.29049 11.2 8.62988 11.1515 9.11473C11.1515 9.35715 10.9091 9.55109 10.6667 9.55109C10.4243 9.55109 10.2303 9.30867 10.2303 9.06625C10.2788 8.09655 11.1031 7.32079 12.1212 7.36928C12.3637 7.36928 12.6061 7.6117 12.5576 7.85412C12.5576 8.09655 12.3152 8.29049 12.0728 8.29049ZM13.4788 5.042C12.994 5.042 12.6061 5.3814 12.5576 5.86624C12.5576 6.10867 12.3152 6.30261 12.0728 6.30261C11.8303 6.30261 11.6364 6.06018 11.6364 5.81776C11.6849 4.84806 12.5091 4.07231 13.5273 4.12079C13.7697 4.12079 14.0121 4.36321 13.9637 4.60564C13.9152 4.84806 13.7212 5.042 13.4788 5.042ZM17.5515 8.43594L15.5637 10.6178C15.3697 10.8117 15.0788 10.8117 14.8849 10.6662C14.6909 10.4723 14.6909 10.1814 14.8364 9.98746L16.097 8.62988H15.0303C14.8364 8.62988 14.6909 8.53291 14.594 8.38746C14.497 8.242 14.5455 8.04806 14.6425 7.90261L16.3394 5.62382C16.4849 5.42988 16.7758 5.3814 17.0182 5.52685C17.2121 5.67231 17.2606 5.96321 17.1152 6.20564L16 7.66018H17.2121C17.4061 7.66018 17.5515 7.75715 17.6485 7.95109C17.697 8.09655 17.6485 8.29049 17.5515 8.43594ZM19.4909 5.42988C19.2 5.42988 19.0061 5.23594 19.0061 4.99352C19.0061 4.50867 18.5697 4.16928 18.0849 4.16928C17.8425 4.16928 17.6 3.97534 17.6 3.73291C17.6 3.49049 17.794 3.24806 18.0364 3.24806C19.0061 3.19958 19.8788 3.97534 19.9273 4.94503C19.9758 5.18746 19.7334 5.42988 19.4909 5.42988ZM22.5455 6.83594C22.1091 7.70867 21.0909 8.09655 20.1697 7.70867C19.9273 7.6117 19.8303 7.32079 19.9273 7.07837C20.0243 6.83594 20.3152 6.73897 20.5576 6.83594C20.994 7.02988 21.4788 6.83594 21.6728 6.44806C21.7697 6.20564 22.0606 6.10867 22.3031 6.20564C22.5455 6.30261 22.6425 6.59352 22.5455 6.83594ZM24.7758 9.98746C24.5334 9.98746 24.3394 10.0359 24.1455 10.1814C23.9515 10.3269 23.8546 10.5208 23.8546 10.7632C23.8546 11.0056 23.6121 11.1996 23.3697 11.1996H23.3212C23.0788 11.1996 22.8849 10.9572 22.8849 10.6662C22.9818 9.69655 23.8546 8.96928 24.8243 9.06625C25.0667 9.06625 25.2606 9.30867 25.2606 9.59958C25.2606 9.79352 25.0182 9.98746 24.7758 9.98746Z" fill="#8F6CEF"/>
</svg>
