<svg width="33" height="32" viewBox="0 0 33 32" fill="none" xmlns="http://www.w3.org/2000/svg">
<g clip-path="url(#clip0_203_15381)">
<path fill-rule="evenodd" clip-rule="evenodd" d="M7.04512 19.9786C8.26524 19.9786 9.25565 20.9693 9.25565 22.1894C9.25565 23.4095 8.26524 24.4 7.04512 24.4C5.825 24.4 4.83427 23.4095 4.83427 22.1894C4.83427 20.9693 5.825 19.9786 7.04512 19.9786ZM25.6549 19.9786C26.8747 19.9786 27.8654 20.9693 27.8654 22.1894C27.8654 23.4095 26.8747 24.4 25.6549 24.4C24.4347 24.4 23.444 23.4095 23.444 22.1894C23.444 20.9693 24.4347 19.9786 25.6549 19.9786ZM14.5252 19.9786C15.7453 19.9786 16.736 20.9693 16.736 22.1894C16.736 23.4095 15.7453 24.4 14.5252 24.4C13.3051 24.4 12.3147 23.4095 12.3147 22.1894C12.3147 20.9693 13.3051 19.9786 14.5252 19.9786ZM19.9826 22.1596H17.845C17.8288 20.341 16.3473 18.8697 14.5252 18.8697C12.7031 18.8697 11.2219 20.341 11.2058 22.1596H10.3646C10.3484 20.341 8.86722 18.8697 7.04512 18.8697C5.22302 18.8697 3.74151 20.341 3.72536 22.1596H3.29256C2.08892 22.16 1.11276 21.1841 1.11276 19.9798V9.78039C1.11276 8.57643 2.08892 7.60059 3.29256 7.60059H18.4279C19.2865 7.60027 19.9826 8.29667 19.9826 9.15528C19.9826 12.9088 19.9826 22.1596 19.9826 22.1596ZM21.0915 9.32669H25.7705C29.3006 9.32669 32.1623 12.1883 32.1623 15.7184V19.9735C32.1623 20.5533 31.9319 21.1093 31.5219 21.5196C31.112 21.9293 30.5559 22.1596 29.9761 22.1596H28.9743C28.9581 20.341 27.4766 18.8697 25.6549 18.8697C23.8328 18.8697 22.3513 20.341 22.3351 22.1596H21.0915V9.32669ZM29.5421 15.3215C29.5421 14.3558 29.1584 13.4297 28.4756 12.7466C27.7928 12.0638 26.8664 11.6801 25.901 11.6801H23.8825C23.1988 11.6801 22.6446 12.2346 22.6446 12.9183V15.3215C22.6446 16.0052 23.1988 16.5596 23.8825 16.5596H28.3039C28.9876 16.5596 29.5421 16.0052 29.5421 15.3215ZM5.85035 10.658V15.7432C5.85035 16.0847 6.12757 16.3619 6.46944 16.3619C6.81098 16.3619 7.08852 16.0847 7.08852 15.7432V10.658C7.08852 10.3165 6.81098 10.0392 6.46944 10.0392C6.12757 10.0392 5.85035 10.3165 5.85035 10.658ZM10.4929 10.658V15.7432C10.4929 16.0847 10.7704 16.3619 11.112 16.3619C11.4538 16.3619 11.7311 16.0847 11.7311 15.7432V10.658C11.7311 10.3165 11.4538 10.0392 11.112 10.0392C10.7704 10.0392 10.4929 10.3165 10.4929 10.658ZM15.1357 10.658V15.7432C15.1357 16.0847 15.413 16.3619 15.7548 16.3619C16.0964 16.3619 16.3739 16.0847 16.3739 15.7432V10.658C16.3739 10.3165 16.0964 10.0392 15.7548 10.0392C15.413 10.0392 15.1357 10.3165 15.1357 10.658ZM28.3039 15.3215C28.3039 14.684 28.0507 14.0728 27.6002 13.622C27.1494 13.1714 26.5382 12.9183 25.901 12.9183H23.8825V15.3215H28.3039Z" fill="#8F6CEF"/>
</g>
<defs>
<clipPath id="clip0_203_15381">
<rect width="32" height="32" fill="white" transform="translate(0.637512)"/>
</clipPath>
</defs>
</svg>
