<svg width="512" height="232" viewBox="0 0 512 232" fill="none" xmlns="http://www.w3.org/2000/svg">
<g filter="url(#filter0_d_1243_1516)">
<rect x="6" y="4" width="500" height="220" rx="20" fill="#33303F"/>
</g>
<path d="M72.9245 208.385H73.629V212.544C73.629 212.915 73.5608 213.231 73.4245 213.49C73.2881 213.75 73.0959 213.946 72.8478 214.081C72.5997 214.215 72.3071 214.283 71.9699 214.283C71.6517 214.283 71.3686 214.225 71.1205 214.109C70.8724 213.992 70.6773 213.825 70.5353 213.609C70.3932 213.393 70.3222 213.137 70.3222 212.839H71.0154C71.0154 213.004 71.0561 213.148 71.1375 213.271C71.2209 213.393 71.3345 213.487 71.4785 213.555C71.6224 213.624 71.7862 213.658 71.9699 213.658C72.1726 213.658 72.3449 213.615 72.487 213.53C72.629 213.445 72.737 213.32 72.8108 213.155C72.8866 212.988 72.9245 212.785 72.9245 212.544V208.385ZM75.7596 214.203H75.021L77.1573 208.385H77.8846L80.021 214.203H79.2823L77.5437 209.305H77.4982L75.7596 214.203ZM76.0323 211.93H79.0096V212.555H76.0323V211.93ZM86.0208 208.385V214.203H85.339L82.1686 209.635H82.1117V214.203H81.4072V208.385H82.089L85.2708 212.964H85.3277V208.385H86.0208Z" fill="white"/>
<path d="M141.544 214.203V208.385H145.033V209.01H142.249V210.976H144.771V211.601H142.249V214.203H141.544ZM146.719 214.203V208.385H150.231V209.01H147.424V210.976H150.049V211.601H147.424V213.578H150.276V214.203H146.719ZM151.981 214.203V208.385H154.015C154.42 208.385 154.754 208.455 155.018 208.595C155.281 208.733 155.477 208.92 155.606 209.155C155.734 209.388 155.799 209.646 155.799 209.93C155.799 210.18 155.754 210.387 155.665 210.55C155.578 210.713 155.463 210.841 155.319 210.936C155.177 211.031 155.022 211.101 154.856 211.146V211.203C155.034 211.214 155.213 211.277 155.393 211.391C155.572 211.504 155.723 211.667 155.844 211.879C155.965 212.091 156.026 212.351 156.026 212.658C156.026 212.949 155.96 213.212 155.827 213.445C155.695 213.678 155.485 213.862 155.199 213.999C154.913 214.135 154.541 214.203 154.083 214.203H151.981ZM152.685 213.578H154.083C154.543 213.578 154.87 213.489 155.063 213.311C155.258 213.131 155.356 212.913 155.356 212.658C155.356 212.461 155.305 212.279 155.205 212.112C155.105 211.944 154.962 211.809 154.776 211.709C154.59 211.607 154.371 211.555 154.117 211.555H152.685V213.578ZM152.685 210.942H153.992C154.204 210.942 154.395 210.9 154.566 210.817C154.738 210.733 154.875 210.616 154.975 210.464C155.077 210.313 155.128 210.135 155.128 209.93C155.128 209.675 155.039 209.458 154.861 209.28C154.683 209.1 154.401 209.01 154.015 209.01H152.685V210.942Z" fill="white"/>
<path d="M211.864 208.385H212.704L214.682 213.214H214.75L216.727 208.385H217.568V214.203H216.909V209.783H216.852L215.034 214.203H214.398L212.579 209.783H212.523V214.203H211.864V208.385ZM219.699 214.203H218.961L221.097 208.385H221.824L223.961 214.203H223.222L221.483 209.305H221.438L219.699 214.203ZM219.972 211.93H222.949V212.555H219.972V211.93ZM225.347 214.203V208.385H227.313C227.767 208.385 228.141 208.463 228.432 208.618C228.724 208.771 228.94 208.982 229.08 209.251C229.22 209.52 229.29 209.826 229.29 210.169C229.29 210.512 229.22 210.816 229.08 211.081C228.94 211.346 228.725 211.554 228.435 211.706C228.145 211.856 227.775 211.93 227.324 211.93H225.733V211.294H227.302C227.612 211.294 227.862 211.249 228.052 211.158C228.243 211.067 228.381 210.938 228.466 210.771C228.553 210.603 228.597 210.402 228.597 210.169C228.597 209.936 228.553 209.732 228.466 209.558C228.379 209.384 228.24 209.25 228.049 209.155C227.857 209.058 227.605 209.01 227.29 209.01H226.052V214.203H225.347ZM228.086 211.589L229.517 214.203H228.699L227.29 211.589H228.086Z" fill="white"/>
<path d="M286.422 214.203H285.683L287.82 208.385H288.547L290.683 214.203H289.945L288.206 209.305H288.16L286.422 214.203ZM286.695 211.93H289.672V212.555H286.695V211.93ZM292.069 214.203V208.385H294.035C294.492 208.385 294.865 208.467 295.155 208.632C295.446 208.795 295.662 209.016 295.802 209.294C295.943 209.572 296.013 209.883 296.013 210.226C296.013 210.569 295.943 210.88 295.802 211.161C295.664 211.441 295.45 211.664 295.16 211.831C294.871 211.996 294.499 212.078 294.047 212.078H292.638V211.453H294.024C294.336 211.453 294.587 211.399 294.777 211.291C294.966 211.183 295.104 211.037 295.189 210.854C295.276 210.668 295.319 210.459 295.319 210.226C295.319 209.993 295.276 209.785 295.189 209.601C295.104 209.417 294.965 209.273 294.774 209.169C294.583 209.063 294.329 209.01 294.013 209.01H292.774V214.203H292.069ZM297.628 214.203V208.385H299.593C300.048 208.385 300.421 208.463 300.713 208.618C301.004 208.771 301.22 208.982 301.36 209.251C301.501 209.52 301.571 209.826 301.571 210.169C301.571 210.512 301.501 210.816 301.36 211.081C301.22 211.346 301.005 211.554 300.716 211.706C300.426 211.856 300.056 211.93 299.605 211.93H298.014V211.294H299.582C299.893 211.294 300.143 211.249 300.332 211.158C300.523 211.067 300.662 210.938 300.747 210.771C300.834 210.603 300.878 210.402 300.878 210.169C300.878 209.936 300.834 209.732 300.747 209.558C300.66 209.384 300.521 209.25 300.329 209.155C300.138 209.058 299.885 209.01 299.571 209.01H298.332V214.203H297.628ZM300.366 211.589L301.798 214.203H300.98L299.571 211.589H300.366Z" fill="white"/>
<path d="M358.659 208.385H359.5L361.477 213.214H361.545L363.523 208.385H364.363V214.203H363.704V209.783H363.648L361.829 214.203H361.193L359.375 209.783H359.318V214.203H358.659V208.385ZM366.495 214.203H365.756L367.892 208.385H368.62L370.756 214.203H370.017L368.279 209.305H368.233L366.495 214.203ZM366.767 211.93H369.745V212.555H366.767V211.93ZM371.049 208.385H371.855L373.469 211.101H373.537L375.151 208.385H375.958L373.855 211.805V214.203H373.151V211.805L371.049 208.385Z" fill="white"/>
<path d="M435.163 208.385H435.867V212.544C435.867 212.915 435.799 213.231 435.663 213.49C435.526 213.75 435.334 213.946 435.086 214.081C434.838 214.215 434.545 214.283 434.208 214.283C433.89 214.283 433.607 214.225 433.359 214.109C433.111 213.992 432.916 213.825 432.774 213.609C432.632 213.393 432.56 213.137 432.56 212.839H433.254C433.254 213.004 433.294 213.148 433.376 213.271C433.459 213.393 433.573 213.487 433.717 213.555C433.861 213.624 434.024 213.658 434.208 213.658C434.411 213.658 434.583 213.615 434.725 213.53C434.867 213.445 434.975 213.32 435.049 213.155C435.125 212.988 435.163 212.785 435.163 212.544V208.385ZM441.577 208.385H442.282V212.237C442.282 212.635 442.188 212.99 442.001 213.303C441.815 213.613 441.553 213.858 441.214 214.038C440.875 214.216 440.477 214.305 440.021 214.305C439.564 214.305 439.166 214.216 438.827 214.038C438.488 213.858 438.225 213.613 438.038 213.303C437.852 212.99 437.759 212.635 437.759 212.237V208.385H438.464V212.18C438.464 212.464 438.526 212.717 438.651 212.939C438.776 213.159 438.954 213.332 439.185 213.459C439.418 213.584 439.697 213.646 440.021 213.646C440.344 213.646 440.623 213.584 440.856 213.459C441.089 213.332 441.267 213.159 441.39 212.939C441.515 212.717 441.577 212.464 441.577 212.18V208.385ZM448.783 208.385V214.203H448.101L444.93 209.635H444.873V214.203H444.169V208.385H444.851L448.033 212.964H448.089V208.385H448.783Z" fill="white"/>
<path d="M43.5 187.068C43.072 187.068 42.7074 186.951 42.4062 186.718C42.1051 186.484 41.875 186.144 41.7159 185.699C41.5568 185.252 41.4773 184.712 41.4773 184.079C41.4773 183.45 41.5568 182.913 41.7159 182.468C41.8769 182.021 42.108 181.681 42.4091 181.446C42.7121 181.209 43.0758 181.091 43.5 181.091C43.9242 181.091 44.2869 181.209 44.5881 181.446C44.8911 181.681 45.1222 182.021 45.2812 182.468C45.4422 182.913 45.5227 183.45 45.5227 184.079C45.5227 184.712 45.4432 185.252 45.2841 185.699C45.125 186.144 44.8949 186.484 44.5938 186.718C44.2926 186.951 43.928 187.068 43.5 187.068ZM43.5 186.443C43.9242 186.443 44.2538 186.238 44.4886 185.829C44.7235 185.42 44.8409 184.837 44.8409 184.079C44.8409 183.575 44.7869 183.146 44.679 182.792C44.5729 182.438 44.4195 182.168 44.2188 181.983C44.0199 181.797 43.7803 181.704 43.5 181.704C43.0795 181.704 42.7509 181.912 42.5142 182.326C42.2775 182.739 42.1591 183.324 42.1591 184.079C42.1591 184.583 42.2121 185.011 42.3182 185.363C42.4242 185.716 42.5767 185.984 42.7756 186.167C42.9763 186.351 43.2178 186.443 43.5 186.443Z" fill="white"/>
<path d="M34.2017 160.236C33.8684 160.236 33.5682 160.17 33.3011 160.037C33.0341 159.904 32.8201 159.723 32.6591 159.491C32.4981 159.26 32.41 158.997 32.3949 158.702H33.0767C33.1032 158.965 33.2225 159.183 33.4347 159.355C33.6487 159.526 33.9044 159.611 34.2017 159.611C34.4403 159.611 34.6525 159.555 34.8381 159.443C35.0256 159.331 35.1723 159.178 35.2784 158.983C35.3864 158.786 35.4403 158.563 35.4403 158.315C35.4403 158.062 35.3845 157.835 35.2727 157.636C35.1629 157.436 35.0114 157.277 34.8182 157.162C34.625 157.046 34.4044 156.988 34.1562 156.986C33.9782 156.984 33.7955 157.011 33.608 157.068C33.4205 157.123 33.2661 157.194 33.1449 157.281L32.4858 157.202L32.8381 154.338H35.8608V154.963H33.429L33.2244 156.679H33.2585C33.3778 156.584 33.5275 156.506 33.7074 156.443C33.8873 156.381 34.0748 156.349 34.2699 156.349C34.6259 156.349 34.9432 156.435 35.2216 156.605C35.5019 156.774 35.7216 157.005 35.8807 157.298C36.0417 157.592 36.1222 157.927 36.1222 158.304C36.1222 158.675 36.0388 159.007 35.8722 159.298C35.7074 159.588 35.4801 159.817 35.1903 159.986C34.9006 160.152 34.571 160.236 34.2017 160.236ZM39.1484 160.236C38.7204 160.236 38.3558 160.119 38.0547 159.886C37.7536 159.652 37.5234 159.312 37.3643 158.866C37.2053 158.42 37.1257 157.88 37.1257 157.247C37.1257 156.618 37.2053 156.081 37.3643 155.636C37.5253 155.189 37.7564 154.848 38.0575 154.614C38.3606 154.377 38.7242 154.259 39.1484 154.259C39.5727 154.259 39.9354 154.377 40.2365 154.614C40.5395 154.848 40.7706 155.189 40.9297 155.636C41.0907 156.081 41.1712 156.618 41.1712 157.247C41.1712 157.88 41.0916 158.42 40.9325 158.866C40.7734 159.312 40.5433 159.652 40.2422 159.886C39.9411 160.119 39.5765 160.236 39.1484 160.236ZM39.1484 159.611C39.5727 159.611 39.9022 159.406 40.1371 158.997C40.3719 158.588 40.4893 158.005 40.4893 157.247C40.4893 156.743 40.4354 156.314 40.3274 155.96C40.2214 155.606 40.0679 155.336 39.8672 155.151C39.6683 154.965 39.4287 154.872 39.1484 154.872C38.728 154.872 38.3994 155.08 38.1626 155.494C37.9259 155.907 37.8075 156.491 37.8075 157.247C37.8075 157.751 37.8606 158.179 37.9666 158.531C38.0727 158.884 38.2251 159.152 38.424 159.335C38.6248 159.519 38.8662 159.611 39.1484 159.611ZM42.8871 158.565L42.8757 157.736H43.0121L44.9212 155.793H45.7507L43.7166 157.849H43.6598L42.8871 158.565ZM42.2621 160.156V154.338H42.9325V160.156H42.2621ZM45.0348 160.156L43.3303 157.997L43.8075 157.531L45.8871 160.156H45.0348Z" fill="white"/>
<path d="M30.5774 122.6V128.418H29.8729V123.338H29.8388L28.4183 124.282V123.566L29.8729 122.6H30.5774ZM34.1484 128.498C33.7204 128.498 33.3558 128.381 33.0547 128.148C32.7536 127.913 32.5234 127.573 32.3643 127.128C32.2053 126.681 32.1257 126.141 32.1257 125.509C32.1257 124.88 32.2053 124.343 32.3643 123.898C32.5253 123.451 32.7564 123.11 33.0575 122.875C33.3606 122.639 33.7242 122.52 34.1484 122.52C34.5727 122.52 34.9354 122.639 35.2365 122.875C35.5395 123.11 35.7706 123.451 35.9297 123.898C36.0907 124.343 36.1712 124.88 36.1712 125.509C36.1712 126.141 36.0916 126.681 35.9325 127.128C35.7734 127.573 35.5433 127.913 35.2422 128.148C34.9411 128.381 34.5765 128.498 34.1484 128.498ZM34.1484 127.873C34.5727 127.873 34.9022 127.668 35.1371 127.259C35.3719 126.85 35.4893 126.266 35.4893 125.509C35.4893 125.005 35.4354 124.576 35.3274 124.222C35.2214 123.868 35.0679 123.598 34.8672 123.412C34.6683 123.227 34.4287 123.134 34.1484 123.134C33.728 123.134 33.3994 123.341 33.1626 123.756C32.9259 124.169 32.8075 124.753 32.8075 125.509C32.8075 126.013 32.8606 126.441 32.9666 126.793C33.0727 127.145 33.2251 127.413 33.424 127.597C33.6248 127.781 33.8662 127.873 34.1484 127.873ZM39.1484 128.498C38.7204 128.498 38.3558 128.381 38.0547 128.148C37.7536 127.913 37.5234 127.573 37.3643 127.128C37.2053 126.681 37.1257 126.141 37.1257 125.509C37.1257 124.88 37.2053 124.343 37.3643 123.898C37.5253 123.451 37.7564 123.11 38.0575 122.875C38.3606 122.639 38.7242 122.52 39.1484 122.52C39.5727 122.52 39.9354 122.639 40.2365 122.875C40.5395 123.11 40.7706 123.451 40.9297 123.898C41.0907 124.343 41.1712 124.88 41.1712 125.509C41.1712 126.141 41.0916 126.681 40.9325 127.128C40.7734 127.573 40.5433 127.913 40.2422 128.148C39.9411 128.381 39.5765 128.498 39.1484 128.498ZM39.1484 127.873C39.5727 127.873 39.9022 127.668 40.1371 127.259C40.3719 126.85 40.4893 126.266 40.4893 125.509C40.4893 125.005 40.4354 124.576 40.3274 124.222C40.2214 123.868 40.0679 123.598 39.8672 123.412C39.6683 123.227 39.4287 123.134 39.1484 123.134C38.728 123.134 38.3994 123.341 38.1626 123.756C37.9259 124.169 37.8075 124.753 37.8075 125.509C37.8075 126.013 37.8606 126.441 37.9666 126.793C38.0727 127.145 38.2251 127.413 38.424 127.597C38.6248 127.781 38.8662 127.873 39.1484 127.873ZM42.8871 126.827L42.8757 125.998H43.0121L44.9212 124.054H45.7507L43.7166 126.111H43.6598L42.8871 126.827ZM42.2621 128.418V122.6H42.9325V128.418H42.2621ZM45.0348 128.418L43.3303 126.259L43.8075 125.793L45.8871 128.418H45.0348Z" fill="white"/>
<path d="M27.407 97.6797V97.1683L29.3274 95.0661C29.5528 94.8198 29.7384 94.6058 29.8842 94.424C30.0301 94.2403 30.138 94.0679 30.2081 93.907C30.2801 93.7441 30.3161 93.5736 30.3161 93.3956C30.3161 93.1911 30.2668 93.014 30.1683 92.8643C30.0717 92.7147 29.9392 92.5992 29.7706 92.5178C29.602 92.4363 29.4126 92.3956 29.2024 92.3956C28.9789 92.3956 28.7839 92.442 28.6172 92.5348C28.4524 92.6257 28.3246 92.7536 28.2337 92.9183C28.1446 93.0831 28.1001 93.2763 28.1001 93.4979H27.4297C27.4297 93.157 27.5083 92.8577 27.6655 92.6001C27.8227 92.3426 28.0367 92.1418 28.3075 91.9979C28.5803 91.8539 28.8861 91.782 29.2251 91.782C29.5661 91.782 29.8681 91.8539 30.1314 91.9979C30.3946 92.1418 30.6011 92.3359 30.7507 92.5803C30.9003 92.8246 30.9751 93.0964 30.9751 93.3956C30.9751 93.6096 30.9363 93.8189 30.8587 94.0234C30.7829 94.2261 30.6503 94.4524 30.4609 94.7024C30.2734 94.9505 30.013 95.2536 29.6797 95.6115L28.3729 97.0092V97.0547H31.0774V97.6797H27.407ZM34.1484 97.7592C33.7204 97.7592 33.3558 97.6428 33.0547 97.4098C32.7536 97.175 32.5234 96.835 32.3643 96.3899C32.2053 95.9429 32.1257 95.4032 32.1257 94.7706C32.1257 94.1418 32.2053 93.6049 32.3643 93.1598C32.5253 92.7128 32.7564 92.3719 33.0575 92.1371C33.3606 91.9003 33.7242 91.782 34.1484 91.782C34.5727 91.782 34.9354 91.9003 35.2365 92.1371C35.5395 92.3719 35.7706 92.7128 35.9297 93.1598C36.0907 93.6049 36.1712 94.1418 36.1712 94.7706C36.1712 95.4032 36.0916 95.9429 35.9325 96.3899C35.7734 96.835 35.5433 97.175 35.2422 97.4098C34.9411 97.6428 34.5765 97.7592 34.1484 97.7592ZM34.1484 97.1342C34.5727 97.1342 34.9022 96.9297 35.1371 96.5206C35.3719 96.1115 35.4893 95.5282 35.4893 94.7706C35.4893 94.2668 35.4354 93.8378 35.3274 93.4837C35.2214 93.1295 35.0679 92.8596 34.8672 92.674C34.6683 92.4884 34.4287 92.3956 34.1484 92.3956C33.728 92.3956 33.3994 92.603 33.1626 93.0178C32.9259 93.4306 32.8075 94.0149 32.8075 94.7706C32.8075 95.2744 32.8606 95.7024 32.9666 96.0547C33.0727 96.407 33.2251 96.675 33.424 96.8587C33.6248 97.0424 33.8662 97.1342 34.1484 97.1342ZM39.1484 97.7592C38.7204 97.7592 38.3558 97.6428 38.0547 97.4098C37.7536 97.175 37.5234 96.835 37.3643 96.3899C37.2053 95.9429 37.1257 95.4032 37.1257 94.7706C37.1257 94.1418 37.2053 93.6049 37.3643 93.1598C37.5253 92.7128 37.7564 92.3719 38.0575 92.1371C38.3606 91.9003 38.7242 91.782 39.1484 91.782C39.5727 91.782 39.9354 91.9003 40.2365 92.1371C40.5395 92.3719 40.7706 92.7128 40.9297 93.1598C41.0907 93.6049 41.1712 94.1418 41.1712 94.7706C41.1712 95.4032 41.0916 95.9429 40.9325 96.3899C40.7734 96.835 40.5433 97.175 40.2422 97.4098C39.9411 97.6428 39.5765 97.7592 39.1484 97.7592ZM39.1484 97.1342C39.5727 97.1342 39.9022 96.9297 40.1371 96.5206C40.3719 96.1115 40.4893 95.5282 40.4893 94.7706C40.4893 94.2668 40.4354 93.8378 40.3274 93.4837C40.2214 93.1295 40.0679 92.8596 39.8672 92.674C39.6683 92.4884 39.4287 92.3956 39.1484 92.3956C38.728 92.3956 38.3994 92.603 38.1626 93.0178C37.9259 93.4306 37.8075 94.0149 37.8075 94.7706C37.8075 95.2744 37.8606 95.7024 37.9666 96.0547C38.0727 96.407 38.2251 96.675 38.424 96.8587C38.6248 97.0424 38.8662 97.1342 39.1484 97.1342ZM42.8871 96.0888L42.8757 95.2592H43.0121L44.9212 93.3161H45.7507L43.7166 95.3729H43.6598L42.8871 96.0888ZM42.2621 97.6797V91.8615H42.9325V97.6797H42.2621ZM45.0348 97.6797L43.3303 95.5206L43.8075 95.0547L45.8871 97.6797H45.0348Z" fill="white"/>
<path d="M29.2017 69.021C28.8684 69.021 28.5682 68.9547 28.3011 68.8221C28.0341 68.6895 27.8201 68.5077 27.6591 68.2766C27.4981 68.0456 27.41 67.7823 27.3949 67.4869H28.0767C28.1032 67.7501 28.2225 67.9679 28.4347 68.1403C28.6487 68.3107 28.9044 68.396 29.2017 68.396C29.4403 68.396 29.6525 68.3401 29.8381 68.2283C30.0256 68.1166 30.1723 67.9632 30.2784 67.7681C30.3864 67.5711 30.4403 67.3486 30.4403 67.1005C30.4403 66.8467 30.3845 66.6204 30.2727 66.4215C30.1629 66.2208 30.0114 66.0626 29.8182 65.9471C29.625 65.8316 29.4044 65.7728 29.1562 65.771C28.9782 65.7691 28.7955 65.7965 28.608 65.8533C28.4205 65.9083 28.2661 65.9793 28.1449 66.0664L27.4858 65.9869L27.8381 63.1232H30.8608V63.7482H28.429L28.2244 65.4641H28.2585C28.3778 65.3694 28.5275 65.2908 28.7074 65.2283C28.8873 65.1658 29.0748 65.1346 29.2699 65.1346C29.6259 65.1346 29.9432 65.2198 30.2216 65.3903C30.5019 65.5588 30.7216 65.7899 30.8807 66.0835C31.0417 66.377 31.1222 66.7122 31.1222 67.0891C31.1222 67.4603 31.0388 67.7918 30.8722 68.0835C30.7074 68.3732 30.4801 68.6024 30.1903 68.771C29.9006 68.9376 29.571 69.021 29.2017 69.021ZM34.1484 69.021C33.7204 69.021 33.3558 68.9045 33.0547 68.6715C32.7536 68.4367 32.5234 68.0967 32.3643 67.6516C32.2053 67.2047 32.1257 66.6649 32.1257 66.0323C32.1257 65.4035 32.2053 64.8666 32.3643 64.4215C32.5253 63.9746 32.7564 63.6336 33.0575 63.3988C33.3606 63.162 33.7242 63.0437 34.1484 63.0437C34.5727 63.0437 34.9354 63.162 35.2365 63.3988C35.5395 63.6336 35.7706 63.9746 35.9297 64.4215C36.0907 64.8666 36.1712 65.4035 36.1712 66.0323C36.1712 66.6649 36.0916 67.2047 35.9325 67.6516C35.7734 68.0967 35.5433 68.4367 35.2422 68.6715C34.9411 68.9045 34.5765 69.021 34.1484 69.021ZM34.1484 68.396C34.5727 68.396 34.9022 68.1914 35.1371 67.7823C35.3719 67.3732 35.4893 66.7899 35.4893 66.0323C35.4893 65.5285 35.4354 65.0996 35.3274 64.7454C35.2214 64.3912 35.0679 64.1213 34.8672 63.9357C34.6683 63.7501 34.4287 63.6573 34.1484 63.6573C33.728 63.6573 33.3994 63.8647 33.1626 64.2795C32.9259 64.6924 32.8075 65.2766 32.8075 66.0323C32.8075 66.5361 32.8606 66.9641 32.9666 67.3164C33.0727 67.6687 33.2251 67.9367 33.424 68.1204C33.6248 68.3041 33.8662 68.396 34.1484 68.396ZM39.1484 69.021C38.7204 69.021 38.3558 68.9045 38.0547 68.6715C37.7536 68.4367 37.5234 68.0967 37.3643 67.6516C37.2053 67.2047 37.1257 66.6649 37.1257 66.0323C37.1257 65.4035 37.2053 64.8666 37.3643 64.4215C37.5253 63.9746 37.7564 63.6336 38.0575 63.3988C38.3606 63.162 38.7242 63.0437 39.1484 63.0437C39.5727 63.0437 39.9354 63.162 40.2365 63.3988C40.5395 63.6336 40.7706 63.9746 40.9297 64.4215C41.0907 64.8666 41.1712 65.4035 41.1712 66.0323C41.1712 66.6649 41.0916 67.2047 40.9325 67.6516C40.7734 68.0967 40.5433 68.4367 40.2422 68.6715C39.9411 68.9045 39.5765 69.021 39.1484 69.021ZM39.1484 68.396C39.5727 68.396 39.9022 68.1914 40.1371 67.7823C40.3719 67.3732 40.4893 66.7899 40.4893 66.0323C40.4893 65.5285 40.4354 65.0996 40.3274 64.7454C40.2214 64.3912 40.0679 64.1213 39.8672 63.9357C39.6683 63.7501 39.4287 63.6573 39.1484 63.6573C38.728 63.6573 38.3994 63.8647 38.1626 64.2795C37.9259 64.6924 37.8075 65.2766 37.8075 66.0323C37.8075 66.5361 37.8606 66.9641 37.9666 67.3164C38.0727 67.6687 38.2251 67.9367 38.424 68.1204C38.6248 68.3041 38.8662 68.396 39.1484 68.396ZM42.8871 67.3505L42.8757 66.521H43.0121L44.9212 64.5778H45.7507L43.7166 66.6346H43.6598L42.8871 67.3505ZM42.2621 68.9414V63.1232H42.9325V68.9414H42.2621ZM45.0348 68.9414L43.3303 66.7823L43.8075 66.3164L45.8871 68.9414H45.0348Z" fill="white"/>
<line x1="56.75" y1="189.453" x2="455.247" y2="189.453" stroke="#E5E5EF" stroke-width="1.5" stroke-linecap="round" stroke-dasharray="4 7"/>
<line x1="56.75" y1="157.953" x2="455.247" y2="157.953" stroke="#E5E5EF" stroke-width="1.5" stroke-linecap="round" stroke-dasharray="4 7"/>
<line x1="56.75" y1="126.453" x2="455.247" y2="126.453" stroke="#E5E5EF" stroke-width="1.5" stroke-linecap="round" stroke-dasharray="4 7"/>
<line x1="56.7539" y1="94.9531" x2="455.251" y2="94.9531" stroke="#E5E5EF" stroke-width="1.5" stroke-linecap="round" stroke-dasharray="4 7"/>
<line x1="456.359" y1="203.488" x2="56.3594" y2="203.488" stroke="#9291A5"/>
<line x1="56.5" y1="64.2031" x2="56.5" y2="202.988" stroke="#9291A5"/>
<line x1="38.3594" y1="53.7031" x2="474.359" y2="53.7031" stroke="#E5E5EF"/>
<path d="M19.9148 16.9304C19.8892 16.7145 19.7855 16.5469 19.6037 16.4276C19.4219 16.3082 19.1989 16.2486 18.9347 16.2486C18.7415 16.2486 18.5724 16.2798 18.4276 16.3423C18.2841 16.4048 18.1719 16.4908 18.0909 16.6001C18.0114 16.7095 17.9716 16.8338 17.9716 16.973C17.9716 17.0895 17.9993 17.1896 18.0547 17.2734C18.1115 17.3558 18.1839 17.4247 18.272 17.4801C18.3601 17.5341 18.4524 17.5788 18.549 17.6143C18.6456 17.6484 18.7344 17.6761 18.8153 17.6974L19.2585 17.8168C19.3722 17.8466 19.4986 17.8878 19.6378 17.9403C19.7784 17.9929 19.9126 18.0646 20.0405 18.1555C20.1697 18.245 20.2763 18.3601 20.3601 18.5007C20.4439 18.6413 20.4858 18.8139 20.4858 19.0185C20.4858 19.2543 20.424 19.4673 20.3004 19.6577C20.1783 19.848 19.9993 19.9993 19.7635 20.1115C19.5291 20.2237 19.2443 20.2798 18.9091 20.2798C18.5966 20.2798 18.326 20.2294 18.0973 20.1286C17.87 20.0277 17.6911 19.8871 17.5604 19.7067C17.4311 19.5263 17.358 19.3168 17.3409 19.0781H17.8864C17.9006 19.2429 17.956 19.3793 18.0526 19.4872C18.1506 19.5937 18.2741 19.6733 18.4233 19.7259C18.5739 19.777 18.7358 19.8026 18.9091 19.8026C19.1108 19.8026 19.2919 19.7699 19.4524 19.7045C19.6129 19.6378 19.7401 19.5455 19.8338 19.4276C19.9276 19.3082 19.9744 19.169 19.9744 19.0099C19.9744 18.8651 19.9339 18.7472 19.853 18.6562C19.772 18.5653 19.6655 18.4915 19.5334 18.4347C19.4013 18.3778 19.2585 18.3281 19.1051 18.2855L18.5682 18.1321C18.2273 18.0341 17.9574 17.8942 17.7585 17.7124C17.5597 17.5305 17.4602 17.2926 17.4602 16.9986C17.4602 16.7543 17.5263 16.5412 17.6584 16.3594C17.7919 16.1761 17.9709 16.0341 18.1953 15.9332C18.4212 15.831 18.6733 15.7798 18.9517 15.7798C19.233 15.7798 19.483 15.8303 19.7017 15.9311C19.9205 16.0305 20.0938 16.1669 20.2216 16.3402C20.3509 16.5135 20.419 16.7102 20.4261 16.9304H19.9148ZM22.7097 16.9304V17.3565H21.0137V16.9304H22.7097ZM21.508 16.1463H22.0108V19.2656C22.0108 19.4077 22.0314 19.5142 22.0726 19.5852C22.1152 19.6548 22.1692 19.7017 22.2346 19.7259C22.3013 19.7486 22.3716 19.7599 22.4455 19.7599C22.5009 19.7599 22.5463 19.7571 22.5819 19.7514C22.6174 19.7443 22.6458 19.7386 22.6671 19.7344L22.7694 20.1861C22.7353 20.1989 22.6877 20.2116 22.6266 20.2244C22.5655 20.2386 22.4881 20.2457 22.3944 20.2457C22.2523 20.2457 22.1131 20.2152 21.9767 20.1541C21.8418 20.093 21.7296 20 21.6401 19.875C21.552 19.75 21.508 19.5923 21.508 19.402V16.1463ZM24.4292 20.2798C24.2218 20.2798 24.0336 20.2408 23.8645 20.1626C23.6955 20.0831 23.5613 19.9688 23.4618 19.8196C23.3624 19.669 23.3127 19.4872 23.3127 19.2741C23.3127 19.0866 23.3496 18.9347 23.4235 18.8182C23.4973 18.7003 23.5961 18.608 23.7196 18.5412C23.8432 18.4744 23.9796 18.4247 24.1287 18.392C24.2793 18.358 24.4306 18.331 24.5826 18.3111C24.7814 18.2855 24.9426 18.2663 25.0662 18.2536C25.1912 18.2393 25.2821 18.2159 25.339 18.1832C25.3972 18.1506 25.4263 18.0937 25.4263 18.0128V17.9957C25.4263 17.7855 25.3688 17.6222 25.2537 17.5057C25.1401 17.3892 24.9675 17.331 24.736 17.331C24.4959 17.331 24.3077 17.3835 24.1713 17.4886C24.035 17.5937 23.9391 17.706 23.8837 17.8253L23.4064 17.6548C23.4917 17.456 23.6053 17.3011 23.7473 17.1903C23.8908 17.0781 24.0471 17 24.2161 16.956C24.3865 16.9105 24.5542 16.8878 24.7189 16.8878C24.824 16.8878 24.9448 16.9006 25.0811 16.9261C25.2189 16.9503 25.3517 17.0007 25.4796 17.0774C25.6088 17.1541 25.7161 17.2699 25.8013 17.4247C25.8865 17.5795 25.9292 17.7869 25.9292 18.0469V20.2031H25.4263V19.7599H25.4007C25.3667 19.831 25.3098 19.907 25.2303 19.9879C25.1507 20.0689 25.0449 20.1378 24.9128 20.1946C24.7807 20.2514 24.6195 20.2798 24.4292 20.2798ZM24.5059 19.8281C24.7047 19.8281 24.8723 19.7891 25.0087 19.7109C25.1465 19.6328 25.2502 19.532 25.3198 19.4084C25.3908 19.2848 25.4263 19.1548 25.4263 19.0185V18.5582C25.405 18.5838 25.3581 18.6072 25.2857 18.6286C25.2147 18.6484 25.1323 18.6662 25.0385 18.6818C24.9462 18.696 24.856 18.7088 24.7679 18.7202C24.6813 18.7301 24.611 18.7386 24.557 18.7457C24.4263 18.7628 24.3042 18.7905 24.1905 18.8288C24.0783 18.8658 23.9874 18.9219 23.9178 18.9972C23.8496 19.071 23.8155 19.1719 23.8155 19.2997C23.8155 19.4744 23.8801 19.6065 24.0094 19.696C24.1401 19.7841 24.3056 19.8281 24.5059 19.8281ZM28.2702 16.9304V17.3565H26.5742V16.9304H28.2702ZM27.0685 16.1463H27.5714V19.2656C27.5714 19.4077 27.592 19.5142 27.6332 19.5852C27.6758 19.6548 27.7298 19.7017 27.7951 19.7259C27.8619 19.7486 27.9322 19.7599 28.006 19.7599C28.0614 19.7599 28.1069 19.7571 28.1424 19.7514C28.1779 19.7443 28.2063 19.7386 28.2276 19.7344L28.3299 20.1861C28.2958 20.1989 28.2482 20.2116 28.1871 20.2244C28.1261 20.2386 28.0487 20.2457 27.9549 20.2457C27.8129 20.2457 27.6737 20.2152 27.5373 20.1541C27.4023 20.093 27.2901 20 27.2006 19.875C27.1126 19.75 27.0685 19.5923 27.0685 19.402V16.1463ZM29.0266 20.2031V16.9304H29.5295V20.2031H29.0266ZM29.2823 16.3849C29.1843 16.3849 29.0998 16.3516 29.0288 16.2848C28.9592 16.218 28.9244 16.1378 28.9244 16.044C28.9244 15.9503 28.9592 15.87 29.0288 15.8033C29.0998 15.7365 29.1843 15.7031 29.2823 15.7031C29.3803 15.7031 29.4641 15.7365 29.5337 15.8033C29.6048 15.87 29.6403 15.9503 29.6403 16.044C29.6403 16.1378 29.6048 16.218 29.5337 16.2848C29.4641 16.3516 29.3803 16.3849 29.2823 16.3849ZM32.7686 17.6634L32.3169 17.7912C32.2885 17.7159 32.2466 17.6428 32.1912 17.5717C32.1373 17.4993 32.0634 17.4396 31.9696 17.3928C31.8759 17.3459 31.7559 17.3224 31.6096 17.3224C31.4093 17.3224 31.2424 17.3686 31.1088 17.4609C30.9767 17.5518 30.9107 17.6676 30.9107 17.8082C30.9107 17.9332 30.9561 18.032 31.0471 18.1044C31.138 18.1768 31.28 18.2372 31.4732 18.2855L31.959 18.4048C32.2516 18.4759 32.4696 18.5845 32.6131 18.7308C32.7566 18.8757 32.8283 19.0625 32.8283 19.2912C32.8283 19.4787 32.7743 19.6463 32.6664 19.794C32.5598 19.9418 32.4107 20.0582 32.2189 20.1435C32.0272 20.2287 31.8042 20.2713 31.5499 20.2713C31.2161 20.2713 30.9398 20.1989 30.7211 20.054C30.5023 19.9091 30.3638 19.6974 30.3056 19.419L30.7828 19.2997C30.8283 19.4759 30.9142 19.608 31.0407 19.696C31.1685 19.7841 31.3354 19.8281 31.5414 19.8281C31.7757 19.8281 31.9618 19.7784 32.0996 19.679C32.2388 19.5781 32.3084 19.4574 32.3084 19.3168C32.3084 19.2031 32.2686 19.108 32.1891 19.0312C32.1096 18.9531 31.9874 18.8949 31.8226 18.8565L31.2772 18.7287C30.9775 18.6577 30.7573 18.5476 30.6167 18.3984C30.4775 18.2479 30.4078 18.0597 30.4078 17.8338C30.4078 17.6491 30.4597 17.4858 30.5634 17.3438C30.6685 17.2017 30.8113 17.0902 30.9917 17.0092C31.1735 16.9283 31.3794 16.8878 31.6096 16.8878C31.9334 16.8878 32.1877 16.9588 32.3723 17.1009C32.5584 17.2429 32.6905 17.4304 32.7686 17.6634ZM35.0085 16.9304V17.3565H33.3125V16.9304H35.0085ZM33.8068 16.1463H34.3097V19.2656C34.3097 19.4077 34.3303 19.5142 34.3714 19.5852C34.4141 19.6548 34.468 19.7017 34.5334 19.7259C34.6001 19.7486 34.6705 19.7599 34.7443 19.7599C34.7997 19.7599 34.8452 19.7571 34.8807 19.7514C34.9162 19.7443 34.9446 19.7386 34.9659 19.7344L35.0682 20.1861C35.0341 20.1989 34.9865 20.2116 34.9254 20.2244C34.8643 20.2386 34.7869 20.2457 34.6932 20.2457C34.5511 20.2457 34.4119 20.2152 34.2756 20.1541C34.1406 20.093 34.0284 20 33.9389 19.875C33.8509 19.75 33.8068 19.5923 33.8068 19.402V16.1463ZM35.7649 20.2031V16.9304H36.2678V20.2031H35.7649ZM36.0206 16.3849C35.9226 16.3849 35.8381 16.3516 35.767 16.2848C35.6974 16.218 35.6626 16.1378 35.6626 16.044C35.6626 15.9503 35.6974 15.87 35.767 15.8033C35.8381 15.7365 35.9226 15.7031 36.0206 15.7031C36.1186 15.7031 36.2024 15.7365 36.272 15.8033C36.343 15.87 36.3786 15.9503 36.3786 16.044C36.3786 16.1378 36.343 16.218 36.272 16.2848C36.2024 16.3516 36.1186 16.3849 36.0206 16.3849ZM38.5183 20.2713C38.2115 20.2713 37.9473 20.1989 37.7257 20.054C37.5041 19.9091 37.3336 19.7095 37.2143 19.4553C37.095 19.201 37.0353 18.9105 37.0353 18.5838C37.0353 18.2514 37.0964 17.9581 37.2186 17.7038C37.3422 17.4482 37.514 17.2486 37.7342 17.1051C37.9558 16.9602 38.2143 16.8878 38.5098 16.8878C38.7399 16.8878 38.9473 16.9304 39.1319 17.0156C39.3166 17.1009 39.4679 17.2202 39.5858 17.3736C39.7037 17.527 39.7768 17.706 39.8052 17.9105H39.3024C39.264 17.7614 39.1788 17.6293 39.0467 17.5142C38.916 17.3977 38.7399 17.3395 38.5183 17.3395C38.3223 17.3395 38.1504 17.3906 38.0027 17.4929C37.8564 17.5937 37.742 17.7365 37.6596 17.9212C37.5787 18.1044 37.5382 18.3196 37.5382 18.5668C37.5382 18.8196 37.5779 19.0398 37.6575 19.2273C37.7385 19.4148 37.8521 19.5604 37.9984 19.6641C38.1461 19.7678 38.3194 19.8196 38.5183 19.8196C38.649 19.8196 38.7676 19.7969 38.8741 19.7514C38.9806 19.706 39.0708 19.6406 39.1447 19.5554C39.2186 19.4702 39.2711 19.3679 39.3024 19.2486H39.8052C39.7768 19.4418 39.7065 19.6158 39.5943 19.7706C39.4835 19.924 39.3365 20.0462 39.1532 20.1371C38.9714 20.2266 38.7598 20.2713 38.5183 20.2713ZM42.8585 17.6634L42.4068 17.7912C42.3784 17.7159 42.3365 17.6428 42.2811 17.5717C42.2271 17.4993 42.1532 17.4396 42.0595 17.3928C41.9657 17.3459 41.8457 17.3224 41.6994 17.3224C41.4991 17.3224 41.3322 17.3686 41.1987 17.4609C41.0666 17.5518 41.0005 17.6676 41.0005 17.8082C41.0005 17.9332 41.046 18.032 41.1369 18.1044C41.2278 18.1768 41.3699 18.2372 41.563 18.2855L42.0488 18.4048C42.3414 18.4759 42.5595 18.5845 42.7029 18.7308C42.8464 18.8757 42.9181 19.0625 42.9181 19.2912C42.9181 19.4787 42.8642 19.6463 42.7562 19.794C42.6497 19.9418 42.5005 20.0582 42.3088 20.1435C42.117 20.2287 41.894 20.2713 41.6397 20.2713C41.3059 20.2713 41.0297 20.1989 40.8109 20.054C40.5922 19.9091 40.4537 19.6974 40.3954 19.419L40.8727 19.2997C40.9181 19.4759 41.0041 19.608 41.1305 19.696C41.2583 19.7841 41.4252 19.8281 41.6312 19.8281C41.8656 19.8281 42.0517 19.7784 42.1895 19.679C42.3287 19.5781 42.3983 19.4574 42.3983 19.3168C42.3983 19.2031 42.3585 19.108 42.2789 19.0312C42.1994 18.9531 42.0772 18.8949 41.9125 18.8565L41.367 18.7287C41.0673 18.6577 40.8471 18.5476 40.7065 18.3984C40.5673 18.2479 40.4977 18.0597 40.4977 17.8338C40.4977 17.6491 40.5495 17.4858 40.6532 17.3438C40.7583 17.2017 40.9011 17.0902 41.0815 17.0092C41.2633 16.9283 41.4693 16.8878 41.6994 16.8878C42.0233 16.8878 42.2775 16.9588 42.4622 17.1009C42.6483 17.2429 42.7804 17.4304 42.8585 17.6634Z" fill="white"/>
<path d="M20.6619 32.0582C20.6392 31.8291 20.5417 31.651 20.3693 31.5241C20.197 31.3973 19.9631 31.3338 19.6676 31.3338C19.4669 31.3338 19.2973 31.3622 19.1591 31.419C19.0208 31.474 18.9148 31.5507 18.8409 31.6491C18.7689 31.7476 18.733 31.8594 18.733 31.9844C18.7292 32.0885 18.7509 32.1795 18.7983 32.2571C18.8475 32.3348 18.9148 32.402 19 32.4588C19.0852 32.5137 19.1837 32.562 19.2955 32.6037C19.4072 32.6435 19.5265 32.6776 19.6534 32.706L20.1761 32.831C20.4299 32.8878 20.6629 32.9635 20.875 33.0582C21.0871 33.1529 21.2708 33.2694 21.4261 33.4077C21.5814 33.5459 21.7017 33.7088 21.7869 33.8963C21.8741 34.0838 21.9186 34.2988 21.9205 34.5412C21.9186 34.8973 21.8277 35.206 21.6477 35.4673C21.4697 35.7268 21.2121 35.9285 20.875 36.0724C20.5398 36.2145 20.1354 36.2855 19.6619 36.2855C19.1922 36.2855 18.7831 36.2135 18.4347 36.0696C18.0881 35.9257 17.8172 35.7126 17.6222 35.4304C17.429 35.1463 17.3277 34.795 17.3182 34.3764H18.5085C18.5218 34.5715 18.5777 34.7344 18.6761 34.8651C18.7765 34.9938 18.91 35.0914 19.0767 35.1577C19.2453 35.2221 19.4356 35.2543 19.6477 35.2543C19.8561 35.2543 20.0369 35.224 20.1903 35.1634C20.3456 35.1027 20.4659 35.0185 20.5511 34.9105C20.6364 34.8026 20.679 34.6785 20.679 34.5384C20.679 34.4077 20.6402 34.2978 20.5625 34.2088C20.4867 34.1198 20.375 34.044 20.2273 33.9815C20.0814 33.919 19.9025 33.8622 19.6903 33.8111L19.0568 33.652C18.5663 33.5327 18.179 33.3461 17.8949 33.0923C17.6108 32.8385 17.4697 32.4967 17.4716 32.0668C17.4697 31.7145 17.5634 31.4067 17.7528 31.1435C17.9441 30.8802 18.2064 30.6747 18.5398 30.527C18.8731 30.3793 19.2519 30.3054 19.6761 30.3054C20.108 30.3054 20.4848 30.3793 20.8068 30.527C21.1307 30.6747 21.3826 30.8802 21.5625 31.1435C21.7424 31.4067 21.8352 31.7116 21.8409 32.0582H20.6619ZM25.5234 34.3452V31.8395H26.7337V36.2031H25.5717V35.4105H25.5263C25.4278 35.6662 25.264 35.8717 25.0348 36.027C24.8075 36.1823 24.5301 36.2599 24.2024 36.2599C23.9107 36.2599 23.6541 36.1937 23.4325 36.0611C23.2109 35.9285 23.0376 35.7401 22.9126 35.4957C22.7895 35.2514 22.727 34.9588 22.7251 34.6179V31.8395H23.9354V34.402C23.9373 34.6596 24.0064 34.8632 24.1428 35.0128C24.2791 35.1624 24.4619 35.2372 24.6911 35.2372C24.8369 35.2372 24.9732 35.2041 25.1001 35.1378C25.227 35.0696 25.3293 34.9692 25.407 34.8366C25.4865 34.7041 25.5253 34.5402 25.5234 34.3452ZM27.7244 36.2031V30.3849H28.9347V32.5724H28.9716C29.0246 32.455 29.1013 32.3357 29.2017 32.2145C29.304 32.0914 29.4366 31.9891 29.5994 31.9077C29.7642 31.8243 29.9688 31.7827 30.2131 31.7827C30.5313 31.7827 30.8248 31.866 31.0938 32.0327C31.3627 32.1974 31.5777 32.4465 31.7386 32.7798C31.8996 33.1113 31.9801 33.527 31.9801 34.027C31.9801 34.5137 31.9015 34.9247 31.7443 35.2599C31.589 35.5933 31.3769 35.8461 31.108 36.0185C30.8409 36.1889 30.5417 36.2741 30.2102 36.2741C29.9754 36.2741 29.7756 36.2353 29.6108 36.1577C29.4479 36.08 29.3144 35.9825 29.2102 35.8651C29.1061 35.7457 29.0265 35.6255 28.9716 35.5043H28.9176V36.2031H27.7244ZM28.9091 34.0213C28.9091 34.2808 28.9451 34.5071 29.017 34.7003C29.089 34.8935 29.1932 35.044 29.3295 35.152C29.4659 35.258 29.6316 35.3111 29.8267 35.3111C30.0237 35.3111 30.1903 35.2571 30.3267 35.1491C30.4631 35.0393 30.5663 34.8878 30.6364 34.6946C30.7083 34.4995 30.7443 34.2751 30.7443 34.0213C30.7443 33.7694 30.7093 33.5478 30.6392 33.3565C30.5691 33.1652 30.4659 33.0156 30.3295 32.9077C30.1932 32.7997 30.0256 32.7457 29.8267 32.7457C29.6297 32.7457 29.4631 32.7978 29.3267 32.902C29.1922 33.0062 29.089 33.1539 29.017 33.3452C28.9451 33.5365 28.9091 33.7618 28.9091 34.0213ZM36.4183 33.0838L35.3104 33.152C35.2914 33.0573 35.2507 32.9721 35.1882 32.8963C35.1257 32.8187 35.0433 32.7571 34.9411 32.7116C34.8407 32.6643 34.7204 32.6406 34.5803 32.6406C34.3928 32.6406 34.2346 32.6804 34.1058 32.7599C33.977 32.8376 33.9126 32.9418 33.9126 33.0724C33.9126 33.1766 33.9543 33.2647 34.0376 33.3366C34.121 33.4086 34.264 33.4664 34.4666 33.5099L35.2564 33.669C35.6806 33.7562 35.9969 33.8963 36.2053 34.0895C36.4136 34.2827 36.5178 34.5365 36.5178 34.8509C36.5178 35.1368 36.4335 35.3878 36.2649 35.6037C36.0982 35.8196 35.8691 35.9882 35.5774 36.1094C35.2876 36.2287 34.9534 36.2884 34.5746 36.2884C33.9969 36.2884 33.5367 36.1681 33.1939 35.9276C32.853 35.6851 32.6532 35.3556 32.5945 34.9389L33.7848 34.8764C33.8208 35.0526 33.9079 35.187 34.0462 35.2798C34.1844 35.3707 34.3615 35.4162 34.5774 35.4162C34.7895 35.4162 34.96 35.3755 35.0888 35.294C35.2195 35.2107 35.2857 35.1037 35.2876 34.973C35.2857 34.8632 35.2393 34.7732 35.1484 34.7031C35.0575 34.6312 34.9174 34.5762 34.728 34.5384L33.9723 34.3878C33.5462 34.3026 33.2289 34.1548 33.0206 33.9446C32.8142 33.7344 32.7109 33.4664 32.7109 33.1406C32.7109 32.8603 32.7867 32.6188 32.9382 32.4162C33.0916 32.2135 33.3066 32.0573 33.5831 31.9474C33.8615 31.8376 34.1873 31.7827 34.5604 31.7827C35.1115 31.7827 35.5452 31.8991 35.8615 32.1321C36.1797 32.3651 36.3653 32.6823 36.4183 33.0838ZM39.2514 36.2884C38.8045 36.2884 38.42 36.1937 38.098 36.0043C37.7779 35.813 37.5317 35.5478 37.3594 35.2088C37.1889 34.8698 37.1037 34.4796 37.1037 34.0384C37.1037 33.5914 37.1899 33.1993 37.3622 32.8622C37.5365 32.5232 37.7836 32.259 38.1037 32.0696C38.4238 31.8783 38.8045 31.7827 39.2457 31.7827C39.6264 31.7827 39.9598 31.8518 40.2457 31.9901C40.5317 32.1283 40.758 32.3224 40.9247 32.5724C41.0914 32.8224 41.1832 33.116 41.2003 33.4531H40.0582C40.026 33.2353 39.9408 33.0601 39.8026 32.9276C39.6662 32.7931 39.4872 32.7259 39.2656 32.7259C39.0781 32.7259 38.9143 32.777 38.7741 32.8793C38.6359 32.9796 38.5279 33.1264 38.4503 33.3196C38.3726 33.5128 38.3338 33.7467 38.3338 34.0213C38.3338 34.2997 38.3717 34.5365 38.4474 34.7315C38.5251 34.9266 38.634 35.0753 38.7741 35.1776C38.9143 35.2798 39.0781 35.331 39.2656 35.331C39.4039 35.331 39.5279 35.3026 39.6378 35.2457C39.7495 35.1889 39.8414 35.1065 39.9134 34.9986C39.9872 34.8887 40.0355 34.7571 40.0582 34.6037H41.2003C41.1813 34.937 41.0904 35.2306 40.9276 35.4844C40.7666 35.7363 40.544 35.9332 40.2599 36.0753C39.9759 36.2173 39.6397 36.2884 39.2514 36.2884ZM41.9751 36.2031V31.8395H43.1484V32.6009H43.1939C43.2734 32.33 43.407 32.1255 43.5945 31.9872C43.782 31.8471 43.9979 31.777 44.2422 31.777C44.3028 31.777 44.3681 31.7808 44.4382 31.7884C44.5083 31.7959 44.5698 31.8063 44.6229 31.8196V32.8935C44.5661 32.8764 44.4875 32.8613 44.3871 32.848C44.2867 32.8348 44.1948 32.8281 44.1115 32.8281C43.9335 32.8281 43.7744 32.867 43.6342 32.9446C43.496 33.0204 43.3861 33.1264 43.3047 33.2628C43.2251 33.3991 43.1854 33.5563 43.1854 33.7344V36.2031H41.9751ZM45.2486 36.2031V31.8395H46.4588V36.2031H45.2486ZM45.8565 31.277C45.6766 31.277 45.5223 31.2173 45.3935 31.098C45.2666 30.9768 45.2031 30.8319 45.2031 30.6634C45.2031 30.4967 45.2666 30.3537 45.3935 30.2344C45.5223 30.1132 45.6766 30.0526 45.8565 30.0526C46.0365 30.0526 46.1899 30.1132 46.3168 30.2344C46.4455 30.3537 46.5099 30.4967 46.5099 30.6634C46.5099 30.8319 46.4455 30.9768 46.3168 31.098C46.1899 31.2173 46.0365 31.277 45.8565 31.277ZM47.4283 37.8395V31.8395H48.6214V32.5724H48.6754C48.7285 32.455 48.8052 32.3357 48.9055 32.2145C49.0078 32.0914 49.1404 31.9891 49.3033 31.9077C49.468 31.8243 49.6726 31.7827 49.9169 31.7827C50.2351 31.7827 50.5286 31.866 50.7976 32.0327C51.0665 32.1974 51.2815 32.4465 51.4425 32.7798C51.6035 33.1113 51.6839 33.527 51.6839 34.027C51.6839 34.5137 51.6054 34.9247 51.4482 35.2599C51.2929 35.5933 51.0807 35.8461 50.8118 36.0185C50.5447 36.1889 50.2455 36.2741 49.9141 36.2741C49.6792 36.2741 49.4794 36.2353 49.3146 36.1577C49.1518 36.08 49.0182 35.9825 48.9141 35.8651C48.8099 35.7457 48.7304 35.6255 48.6754 35.5043H48.6385V37.8395H47.4283ZM48.6129 34.0213C48.6129 34.2808 48.6489 34.5071 48.7209 34.7003C48.7929 34.8935 48.897 35.044 49.0334 35.152C49.1697 35.258 49.3355 35.3111 49.5305 35.3111C49.7275 35.3111 49.8942 35.2571 50.0305 35.1491C50.1669 35.0393 50.2701 34.8878 50.3402 34.6946C50.4122 34.4995 50.4482 34.2751 50.4482 34.0213C50.4482 33.7694 50.4131 33.5478 50.343 33.3565C50.273 33.1652 50.1697 33.0156 50.0334 32.9077C49.897 32.7997 49.7294 32.7457 49.5305 32.7457C49.3336 32.7457 49.1669 32.7978 49.0305 32.902C48.8961 33.0062 48.7929 33.1539 48.7209 33.3452C48.6489 33.5365 48.6129 33.7618 48.6129 34.0213ZM54.8118 31.8395V32.7486H52.1839V31.8395H54.8118ZM52.7805 30.794H53.9908V34.8622C53.9908 34.974 54.0078 35.0611 54.0419 35.1236C54.076 35.1842 54.1233 35.2268 54.1839 35.2514C54.2464 35.276 54.3184 35.2884 54.3999 35.2884C54.4567 35.2884 54.5135 35.2836 54.5703 35.2741C54.6271 35.2628 54.6707 35.2543 54.701 35.2486L54.8913 36.1491C54.8307 36.1681 54.7455 36.1899 54.6357 36.2145C54.5258 36.241 54.3923 36.2571 54.2351 36.2628C53.9434 36.2741 53.6877 36.2353 53.468 36.1463C53.2502 36.0573 53.0807 35.919 52.9595 35.7315C52.8383 35.544 52.7786 35.3073 52.7805 35.0213V30.794ZM55.6001 36.2031V31.8395H56.8104V36.2031H55.6001ZM56.2081 31.277C56.0282 31.277 55.8738 31.2173 55.745 31.098C55.6181 30.9768 55.5547 30.8319 55.5547 30.6634C55.5547 30.4967 55.6181 30.3537 55.745 30.2344C55.8738 30.1132 56.0282 30.0526 56.2081 30.0526C56.388 30.0526 56.5414 30.1132 56.6683 30.2344C56.7971 30.3537 56.8615 30.4967 56.8615 30.6634C56.8615 30.8319 56.7971 30.9768 56.6683 31.098C56.5414 31.2173 56.388 31.277 56.2081 31.277ZM59.7514 36.2884C59.3101 36.2884 58.9285 36.1946 58.6065 36.0071C58.2865 35.8177 58.0393 35.5545 57.8651 35.2173C57.6908 34.8783 57.6037 34.4853 57.6037 34.0384C57.6037 33.5876 57.6908 33.1937 57.8651 32.8565C58.0393 32.5175 58.2865 32.2543 58.6065 32.0668C58.9285 31.8774 59.3101 31.7827 59.7514 31.7827C60.1927 31.7827 60.5734 31.8774 60.8935 32.0668C61.2154 32.2543 61.4635 32.5175 61.6378 32.8565C61.812 33.1937 61.8991 33.5876 61.8991 34.0384C61.8991 34.4853 61.812 34.8783 61.6378 35.2173C61.4635 35.5545 61.2154 35.8177 60.8935 36.0071C60.5734 36.1946 60.1927 36.2884 59.7514 36.2884ZM59.7571 35.3509C59.9579 35.3509 60.1255 35.294 60.2599 35.1804C60.3944 35.0649 60.4957 34.9077 60.5639 34.7088C60.634 34.5099 60.669 34.2836 60.669 34.0298C60.669 33.776 60.634 33.5497 60.5639 33.3509C60.4957 33.152 60.3944 32.9948 60.2599 32.8793C60.1255 32.7637 59.9579 32.706 59.7571 32.706C59.5545 32.706 59.384 32.7637 59.2457 32.8793C59.1094 32.9948 59.0062 33.152 58.9361 33.3509C58.8679 33.5497 58.8338 33.776 58.8338 34.0298C58.8338 34.2836 58.8679 34.5099 58.9361 34.7088C59.0062 34.9077 59.1094 35.0649 59.2457 35.1804C59.384 35.294 59.5545 35.3509 59.7571 35.3509ZM63.8963 33.6804V36.2031H62.6861V31.8395H63.8395V32.6094H63.8906C63.9872 32.3556 64.1491 32.1548 64.3764 32.0071C64.6037 31.8575 64.8793 31.7827 65.2031 31.7827C65.5062 31.7827 65.7704 31.849 65.9957 31.9815C66.2211 32.1141 66.3963 32.3035 66.5213 32.5497C66.6463 32.794 66.7088 33.0857 66.7088 33.4247V36.2031H65.4986V33.6406C65.5005 33.3736 65.4323 33.1652 65.294 33.0156C65.1558 32.8641 64.9654 32.7884 64.723 32.7884C64.5601 32.7884 64.4162 32.8234 64.2912 32.8935C64.1681 32.9635 64.0715 33.0658 64.0014 33.2003C63.9332 33.3329 63.8982 33.4929 63.8963 33.6804ZM71.2933 33.0838L70.1854 33.152C70.1664 33.0573 70.1257 32.9721 70.0632 32.8963C70.0007 32.8187 69.9183 32.7571 69.8161 32.7116C69.7157 32.6643 69.5954 32.6406 69.4553 32.6406C69.2678 32.6406 69.1096 32.6804 68.9808 32.7599C68.852 32.8376 68.7876 32.9418 68.7876 33.0724C68.7876 33.1766 68.8293 33.2647 68.9126 33.3366C68.996 33.4086 69.139 33.4664 69.3416 33.5099L70.1314 33.669C70.5556 33.7562 70.8719 33.8963 71.0803 34.0895C71.2886 34.2827 71.3928 34.5365 71.3928 34.8509C71.3928 35.1368 71.3085 35.3878 71.1399 35.6037C70.9732 35.8196 70.7441 35.9882 70.4524 36.1094C70.1626 36.2287 69.8284 36.2884 69.4496 36.2884C68.8719 36.2884 68.4117 36.1681 68.0689 35.9276C67.728 35.6851 67.5282 35.3556 67.4695 34.9389L68.6598 34.8764C68.6958 35.0526 68.7829 35.187 68.9212 35.2798C69.0594 35.3707 69.2365 35.4162 69.4524 35.4162C69.6645 35.4162 69.835 35.3755 69.9638 35.294C70.0945 35.2107 70.1607 35.1037 70.1626 34.973C70.1607 34.8632 70.1143 34.7732 70.0234 34.7031C69.9325 34.6312 69.7924 34.5762 69.603 34.5384L68.8473 34.3878C68.4212 34.3026 68.1039 34.1548 67.8956 33.9446C67.6892 33.7344 67.5859 33.4664 67.5859 33.1406C67.5859 32.8603 67.6617 32.6188 67.8132 32.4162C67.9666 32.2135 68.1816 32.0573 68.4581 31.9474C68.7365 31.8376 69.0623 31.7827 69.4354 31.7827C69.9865 31.7827 70.4202 31.8991 70.7365 32.1321C71.0547 32.3651 71.2403 32.6823 71.2933 33.0838Z" fill="white"/>
<rect x="423.64" y="14.7031" width="73.36" height="17" rx="8.5" fill="#F8F8FF"/>
<path d="M432.168 25.7031V21.3395H432.697V25.2344H434.725V25.7031H432.168ZM436.438 25.7798C436.231 25.7798 436.043 25.7408 435.874 25.6626C435.705 25.5831 435.57 25.4688 435.471 25.3196C435.371 25.169 435.322 24.9872 435.322 24.7741C435.322 24.5866 435.359 24.4347 435.433 24.3182C435.506 24.2003 435.605 24.108 435.729 24.0412C435.852 23.9744 435.989 23.9247 436.138 23.892C436.288 23.858 436.44 23.831 436.592 23.8111C436.791 23.7855 436.952 23.7663 437.075 23.7536C437.2 23.7393 437.291 23.7159 437.348 23.6832C437.406 23.6506 437.435 23.5937 437.435 23.5128V23.4957C437.435 23.2855 437.378 23.1222 437.263 23.0057C437.149 22.8892 436.977 22.831 436.745 22.831C436.505 22.831 436.317 22.8835 436.18 22.9886C436.044 23.0937 435.948 23.206 435.893 23.3253L435.416 23.1548C435.501 22.956 435.614 22.8011 435.756 22.6903C435.9 22.5781 436.056 22.5 436.225 22.456C436.396 22.4105 436.563 22.3878 436.728 22.3878C436.833 22.3878 436.954 22.4006 437.09 22.4261C437.228 22.4503 437.361 22.5007 437.489 22.5774C437.618 22.6541 437.725 22.7699 437.81 22.9247C437.896 23.0795 437.938 23.2869 437.938 23.5469V25.7031H437.435V25.2599H437.41C437.376 25.331 437.319 25.407 437.239 25.4879C437.16 25.5689 437.054 25.6378 436.922 25.6946C436.79 25.7514 436.629 25.7798 436.438 25.7798ZM436.515 25.3281C436.714 25.3281 436.881 25.2891 437.018 25.2109C437.156 25.1328 437.259 25.032 437.329 24.9084C437.4 24.7848 437.435 24.6548 437.435 24.5185V24.0582C437.414 24.0838 437.367 24.1072 437.295 24.1286C437.224 24.1484 437.141 24.1662 437.048 24.1818C436.955 24.196 436.865 24.2088 436.777 24.2202C436.69 24.2301 436.62 24.2386 436.566 24.2457C436.435 24.2628 436.313 24.2905 436.2 24.3288C436.087 24.3658 435.996 24.4219 435.927 24.4972C435.859 24.571 435.825 24.6719 435.825 24.7997C435.825 24.9744 435.889 25.1065 436.019 25.196C436.149 25.2841 436.315 25.3281 436.515 25.3281ZM441.174 23.1634L440.723 23.2912C440.694 23.2159 440.652 23.1428 440.597 23.0717C440.543 22.9993 440.469 22.9396 440.375 22.8928C440.281 22.8459 440.161 22.8224 440.015 22.8224C439.815 22.8224 439.648 22.8686 439.514 22.9609C439.382 23.0518 439.316 23.1676 439.316 23.3082C439.316 23.4332 439.362 23.532 439.453 23.6044C439.544 23.6768 439.686 23.7372 439.879 23.7855L440.365 23.9048C440.657 23.9759 440.875 24.0845 441.019 24.2308C441.162 24.3757 441.234 24.5625 441.234 24.7912C441.234 24.9787 441.18 25.1463 441.072 25.294C440.965 25.4418 440.816 25.5582 440.625 25.6435C440.433 25.7287 440.21 25.7713 439.955 25.7713C439.622 25.7713 439.345 25.6989 439.127 25.554C438.908 25.4091 438.769 25.1974 438.711 24.919L439.188 24.7997C439.234 24.9759 439.32 25.108 439.446 25.196C439.574 25.2841 439.741 25.3281 439.947 25.3281C440.181 25.3281 440.367 25.2784 440.505 25.179C440.644 25.0781 440.714 24.9574 440.714 24.8168C440.714 24.7031 440.674 24.608 440.595 24.5312C440.515 24.4531 440.393 24.3949 440.228 24.3565L439.683 24.2287C439.383 24.1577 439.163 24.0476 439.022 23.8984C438.883 23.7479 438.813 23.5597 438.813 23.3338C438.813 23.1491 438.865 22.9858 438.969 22.8438C439.074 22.7017 439.217 22.5902 439.397 22.5092C439.579 22.4283 439.785 22.3878 440.015 22.3878C440.339 22.3878 440.593 22.4588 440.778 22.6009C440.964 22.7429 441.096 22.9304 441.174 23.1634ZM443.414 22.4304V22.8565H441.718V22.4304H443.414ZM442.212 21.6463H442.715V24.7656C442.715 24.9077 442.736 25.0142 442.777 25.0852C442.82 25.1548 442.874 25.2017 442.939 25.2259C443.006 25.2486 443.076 25.2599 443.15 25.2599C443.205 25.2599 443.251 25.2571 443.286 25.2514C443.322 25.2443 443.35 25.2386 443.371 25.2344L443.474 25.6861C443.44 25.6989 443.392 25.7116 443.331 25.7244C443.27 25.7386 443.193 25.7457 443.099 25.7457C442.957 25.7457 442.818 25.7152 442.681 25.6541C442.546 25.593 442.434 25.5 442.344 25.375C442.256 25.25 442.212 25.0923 442.212 24.902V21.6463ZM447.298 25.7628C447.119 25.7599 446.94 25.7259 446.761 25.6605C446.582 25.5952 446.419 25.4851 446.271 25.3303C446.124 25.174 446.005 24.9631 445.916 24.6974C445.826 24.4304 445.781 24.0952 445.781 23.6918C445.781 23.3054 445.818 22.9631 445.89 22.6648C445.962 22.3651 446.068 22.1129 446.205 21.9084C446.343 21.7024 446.509 21.5462 446.704 21.4396C446.9 21.3331 447.121 21.2798 447.367 21.2798C447.611 21.2798 447.828 21.3288 448.019 21.4268C448.21 21.5234 448.367 21.6584 448.487 21.8317C448.608 22.005 448.686 22.2045 448.722 22.4304H448.202C448.153 22.2344 448.06 22.0717 447.92 21.9425C447.781 21.8132 447.597 21.7486 447.367 21.7486C447.028 21.7486 446.762 21.8956 446.568 22.1896C446.374 22.4837 446.277 22.8963 446.276 23.4276H446.31C446.389 23.3068 446.484 23.2038 446.593 23.1186C446.704 23.032 446.826 22.9652 446.96 22.9183C447.093 22.8714 447.234 22.848 447.384 22.848C447.634 22.848 447.862 22.9105 448.07 23.0355C448.277 23.1591 448.443 23.3303 448.568 23.549C448.693 23.7663 448.756 24.0156 448.756 24.2969C448.756 24.5668 448.695 24.8139 448.575 25.0384C448.454 25.2614 448.284 25.4389 448.065 25.571C447.848 25.7017 447.592 25.7656 447.298 25.7628ZM447.298 25.294C447.477 25.294 447.638 25.2493 447.78 25.1598C447.923 25.0703 448.036 24.9503 448.119 24.7997C448.202 24.6491 448.244 24.4815 448.244 24.2969C448.244 24.1165 448.204 23.9524 448.123 23.8047C448.043 23.6555 447.933 23.5369 447.793 23.4489C447.653 23.3608 447.494 23.3168 447.315 23.3168C447.18 23.3168 447.055 23.3437 446.938 23.3977C446.822 23.4503 446.719 23.5227 446.631 23.6151C446.545 23.7074 446.477 23.8132 446.427 23.9325C446.377 24.0504 446.352 24.1747 446.352 24.3054C446.352 24.4787 446.393 24.6406 446.474 24.7912C446.556 24.9418 446.668 25.0632 446.81 25.1555C446.954 25.2479 447.117 25.294 447.298 25.294ZM451.29 25.7031V22.4304H451.775V22.9418H451.818C451.886 22.767 451.996 22.6314 452.148 22.5348C452.3 22.4368 452.483 22.3878 452.696 22.3878C452.912 22.3878 453.091 22.4368 453.235 22.5348C453.38 22.6314 453.493 22.767 453.574 22.9418H453.608C453.692 22.7727 453.817 22.6385 453.985 22.5391C454.153 22.4382 454.354 22.3878 454.588 22.3878C454.881 22.3878 455.12 22.4794 455.306 22.6626C455.492 22.8445 455.585 23.1278 455.585 23.5128V25.7031H455.082V23.5128C455.082 23.2713 455.016 23.0987 454.884 22.995C454.752 22.8913 454.596 22.8395 454.417 22.8395C454.187 22.8395 454.009 22.9091 453.883 23.0483C453.756 23.1861 453.693 23.3608 453.693 23.5724V25.7031H453.182V23.4616C453.182 23.2756 453.121 23.1257 453.001 23.0121C452.88 22.897 452.724 22.8395 452.534 22.8395C452.403 22.8395 452.281 22.8743 452.167 22.9439C452.055 23.0135 451.964 23.1101 451.895 23.2337C451.827 23.3558 451.792 23.4972 451.792 23.6577V25.7031H451.29ZM457.834 25.7713C457.539 25.7713 457.279 25.701 457.056 25.5604C456.835 25.4197 456.661 25.223 456.536 24.9702C456.413 24.7173 456.351 24.4219 456.351 24.0838C456.351 23.7429 456.413 23.4453 456.536 23.1911C456.661 22.9368 456.835 22.7393 457.056 22.5987C457.279 22.4581 457.539 22.3878 457.834 22.3878C458.129 22.3878 458.388 22.4581 458.61 22.5987C458.833 22.7393 459.006 22.9368 459.129 23.1911C459.254 23.4453 459.317 23.7429 459.317 24.0838C459.317 24.4219 459.254 24.7173 459.129 24.9702C459.006 25.223 458.833 25.4197 458.61 25.5604C458.388 25.701 458.129 25.7713 457.834 25.7713ZM457.834 25.3196C458.058 25.3196 458.243 25.2621 458.388 25.147C458.533 25.032 458.64 24.8807 458.71 24.6932C458.779 24.5057 458.814 24.3026 458.814 24.0838C458.814 23.8651 458.779 23.6612 458.71 23.4723C458.64 23.2834 458.533 23.1307 458.388 23.0142C458.243 22.8977 458.058 22.8395 457.834 22.8395C457.61 22.8395 457.425 22.8977 457.28 23.0142C457.135 23.1307 457.028 23.2834 456.958 23.4723C456.889 23.6612 456.854 23.8651 456.854 24.0838C456.854 24.3026 456.889 24.5057 456.958 24.6932C457.028 24.8807 457.135 25.032 457.28 25.147C457.425 25.2621 457.61 25.3196 457.834 25.3196ZM460.587 23.7344V25.7031H460.085V22.4304H460.57V22.9418H460.613C460.69 22.7756 460.806 22.642 460.962 22.5412C461.119 22.4389 461.32 22.3878 461.568 22.3878C461.789 22.3878 461.983 22.4332 462.149 22.5241C462.315 22.6136 462.445 22.75 462.537 22.9332C462.629 23.1151 462.675 23.3452 462.675 23.6236V25.7031H462.173V23.6577C462.173 23.4006 462.106 23.2003 461.972 23.0568C461.839 22.9119 461.656 22.8395 461.423 22.8395C461.262 22.8395 461.119 22.8743 460.992 22.9439C460.867 23.0135 460.769 23.1151 460.696 23.2486C460.624 23.3821 460.587 23.544 460.587 23.7344ZM465.018 22.4304V22.8565H463.322V22.4304H465.018ZM463.816 21.6463H464.319V24.7656C464.319 24.9077 464.339 25.0142 464.381 25.0852C464.423 25.1548 464.477 25.2017 464.542 25.2259C464.609 25.2486 464.68 25.2599 464.753 25.2599C464.809 25.2599 464.854 25.2571 464.89 25.2514C464.925 25.2443 464.954 25.2386 464.975 25.2344L465.077 25.6861C465.043 25.6989 464.996 25.7116 464.935 25.7244C464.873 25.7386 464.796 25.7457 464.702 25.7457C464.56 25.7457 464.421 25.7152 464.285 25.6541C464.15 25.593 464.038 25.5 463.948 25.375C463.86 25.25 463.816 25.0923 463.816 24.902V21.6463ZM466.347 23.7344V25.7031H465.844V21.3395H466.347V22.9418H466.39C466.466 22.7727 466.582 22.6385 466.735 22.5391C466.89 22.4382 467.096 22.3878 467.353 22.3878C467.576 22.3878 467.771 22.4325 467.939 22.522C468.106 22.6101 468.236 22.7457 468.329 22.929C468.422 23.1108 468.469 23.3423 468.469 23.6236V25.7031H467.966V23.6577C467.966 23.3977 467.899 23.1967 467.764 23.0547C467.631 22.9112 467.445 22.8395 467.208 22.8395C467.043 22.8395 466.895 22.8743 466.765 22.9439C466.636 23.0135 466.533 23.1151 466.458 23.2486C466.384 23.3821 466.347 23.544 466.347 23.7344ZM471.707 23.1634L471.256 23.2912C471.227 23.2159 471.185 23.1428 471.13 23.0717C471.076 22.9993 471.002 22.9396 470.908 22.8928C470.815 22.8459 470.695 22.8224 470.548 22.8224C470.348 22.8224 470.181 22.8686 470.048 22.9609C469.916 23.0518 469.849 23.1676 469.849 23.3082C469.849 23.4332 469.895 23.532 469.986 23.6044C470.077 23.6768 470.219 23.7372 470.412 23.7855L470.898 23.9048C471.19 23.9759 471.408 24.0845 471.552 24.2308C471.695 24.3757 471.767 24.5625 471.767 24.7912C471.767 24.9787 471.713 25.1463 471.605 25.294C471.499 25.4418 471.349 25.5582 471.158 25.6435C470.966 25.7287 470.743 25.7713 470.489 25.7713C470.155 25.7713 469.879 25.6989 469.66 25.554C469.441 25.4091 469.303 25.1974 469.244 24.919L469.722 24.7997C469.767 24.9759 469.853 25.108 469.979 25.196C470.107 25.2841 470.274 25.3281 470.48 25.3281C470.715 25.3281 470.901 25.2784 471.038 25.179C471.178 25.0781 471.247 24.9574 471.247 24.8168C471.247 24.7031 471.207 24.608 471.128 24.5312C471.048 24.4531 470.926 24.3949 470.761 24.3565L470.216 24.2287C469.916 24.1577 469.696 24.0476 469.555 23.8984C469.416 23.7479 469.347 23.5597 469.347 23.3338C469.347 23.1491 469.398 22.9858 469.502 22.8438C469.607 22.7017 469.75 22.5902 469.93 22.5092C470.112 22.4283 470.318 22.3878 470.548 22.3878C470.872 22.3878 471.126 22.4588 471.311 22.6009C471.497 22.7429 471.629 22.9304 471.707 23.1634Z" fill="#615E83"/>
<path fill-rule="evenodd" clip-rule="evenodd" d="M482.759 21.5294C482.6 21.688 482.6 21.9451 482.759 22.1037L485.532 24.8769C485.612 24.9564 485.716 24.996 485.82 24.9959C485.924 24.996 486.028 24.9564 486.108 24.8769L488.881 22.1037C489.04 21.9451 489.04 21.688 488.881 21.5294C488.722 21.3707 488.465 21.3707 488.307 21.5294L485.82 24.0161L483.333 21.5294C483.175 21.3707 482.918 21.3707 482.759 21.5294Z" fill="#615E83"/>
<defs>
<filter id="filter0_d_1243_1516" x="0" y="0" width="512" height="232" filterUnits="userSpaceOnUse" color-interpolation-filters="sRGB">
<feFlood flood-opacity="0" result="BackgroundImageFix"/>
<feColorMatrix in="SourceAlpha" type="matrix" values="0 0 0 0 0 0 0 0 0 0 0 0 0 0 0 0 0 0 127 0" result="hardAlpha"/>
<feOffset dy="2"/>
<feGaussianBlur stdDeviation="3"/>
<feComposite in2="hardAlpha" operator="out"/>
<feColorMatrix type="matrix" values="0 0 0 0 0.0509804 0 0 0 0 0.0392157 0 0 0 0 0.172549 0 0 0 0.08 0"/>
<feBlend mode="normal" in2="BackgroundImageFix" result="effect1_dropShadow_1243_1516"/>
<feBlend mode="normal" in="SourceGraphic" in2="effect1_dropShadow_1243_1516" result="shape"/>
</filter>
</defs>
</svg>
