<svg width="344" height="240" viewBox="0 0 344 240" fill="none" xmlns="http://www.w3.org/2000/svg">
<g filter="url(#filter0_d_1243_1601)">
<rect x="6" y="4" width="332" height="305" rx="20" fill="white"/>
</g>
<rect x="162.989" y="223" width="12" height="49.5175" rx="4" transform="rotate(90 162.989 223)" fill="#C6D2FD"/>
<rect x="211.784" y="184.968" width="12" height="98.3124" rx="4" transform="rotate(90 211.784 184.968)" fill="#962DFF"/>
<rect x="243.569" y="146.924" width="12" height="130.098" rx="4" transform="rotate(90 243.569 146.924)" fill="#E0C6FD"/>
<rect x="288.623" y="107.879" width="12" height="175.151" rx="4" transform="rotate(90 288.623 107.879)" fill="#4A3AFF"/>
<path d="M41.0109 234H39.7183L43.4569 223.818H44.7297L48.4683 234H47.1757L44.1331 225.429H44.0535L41.0109 234ZM41.4882 230.023H46.6984V231.116H41.4882V230.023ZM54.7077 230.878V226.364H55.8809V234H54.7077V232.707H54.6281C54.4491 233.095 54.1707 233.425 53.7929 233.697C53.415 233.965 52.9378 234.099 52.3611 234.099C51.8838 234.099 51.4595 233.995 51.0883 233.786C50.7171 233.574 50.4255 233.256 50.2133 232.832C50.0012 232.404 49.8952 231.866 49.8952 231.216V226.364H51.0684V231.136C51.0684 231.693 51.2242 232.137 51.5358 232.469C51.8506 232.8 52.2517 232.966 52.7389 232.966C53.0306 232.966 53.3272 232.891 53.6288 232.742C53.9337 232.593 54.189 232.364 54.3944 232.056C54.6032 231.748 54.7077 231.355 54.7077 230.878ZM63.439 228.074L62.385 228.372C62.3187 228.196 62.221 228.026 62.0917 227.86C61.9658 227.691 61.7934 227.552 61.5747 227.442C61.3559 227.333 61.0758 227.278 60.7345 227.278C60.2671 227.278 59.8777 227.386 59.5661 227.602C59.2579 227.814 59.1038 228.084 59.1038 228.412C59.1038 228.704 59.2098 228.934 59.422 229.103C59.6341 229.272 59.9655 229.413 60.4163 229.526L61.5498 229.804C62.2326 229.97 62.7413 230.223 63.0761 230.565C63.4108 230.903 63.5782 231.339 63.5782 231.872C63.5782 232.31 63.4523 232.701 63.2004 233.045C62.9518 233.39 62.6038 233.662 62.1563 233.861C61.7089 234.06 61.1885 234.159 60.5953 234.159C59.8164 234.159 59.1717 233.99 58.6613 233.652C58.1509 233.314 57.8277 232.82 57.6919 232.17L58.8055 231.892C58.9115 232.303 59.1121 232.611 59.407 232.817C59.7053 233.022 60.0948 233.125 60.5754 233.125C61.1222 233.125 61.5564 233.009 61.8779 232.777C62.2027 232.542 62.3651 232.26 62.3651 231.932C62.3651 231.667 62.2723 231.445 62.0867 231.266C61.9011 231.083 61.6161 230.947 61.2316 230.858L59.9589 230.56C59.2596 230.394 58.7458 230.137 58.4177 229.789C58.0929 229.438 57.9305 228.999 57.9305 228.472C57.9305 228.041 58.0515 227.66 58.2934 227.328C58.5387 226.997 58.8718 226.737 59.2927 226.548C59.7169 226.359 60.1975 226.264 60.7345 226.264C61.4901 226.264 62.0834 226.43 62.5143 226.761C62.9485 227.093 63.2567 227.53 63.439 228.074ZM68.6654 226.364V227.358H64.708V226.364H68.6654ZM65.8614 224.534H67.0347V231.812C67.0347 232.144 67.0828 232.393 67.1789 232.558C67.2783 232.721 67.4043 232.83 67.5567 232.886C67.7125 232.939 67.8766 232.966 68.0489 232.966C68.1782 232.966 68.2842 232.959 68.3671 232.946C68.45 232.929 68.5162 232.916 68.566 232.906L68.8046 233.96C68.7251 233.99 68.614 234.02 68.4715 234.05C68.329 234.083 68.1483 234.099 67.9296 234.099C67.5982 234.099 67.2733 234.028 66.9552 233.886C66.6403 233.743 66.3785 233.526 66.1697 233.234C65.9642 232.943 65.8614 232.575 65.8614 232.131V224.534ZM70.4303 234V226.364H71.5638V227.517H71.6434C71.7826 227.139 72.0345 226.833 72.3991 226.597C72.7636 226.362 73.1746 226.244 73.632 226.244C73.7182 226.244 73.8259 226.246 73.9552 226.249C74.0844 226.253 74.1822 226.258 74.2485 226.264V227.457C74.2087 227.447 74.1176 227.433 73.9751 227.413C73.8358 227.389 73.6884 227.378 73.5326 227.378C73.1614 227.378 72.8299 227.456 72.5383 227.612C72.2499 227.764 72.0212 227.976 71.8522 228.248C71.6865 228.516 71.6036 228.823 71.6036 229.168V234H70.4303ZM77.8865 234.179C77.4026 234.179 76.9634 234.088 76.569 233.906C76.1746 233.72 75.8614 233.453 75.6294 233.105C75.3973 232.754 75.2813 232.33 75.2813 231.832C75.2813 231.395 75.3675 231.04 75.5399 230.768C75.7122 230.493 75.9426 230.278 76.2309 230.122C76.5193 229.966 76.8374 229.85 77.1855 229.774C77.5368 229.695 77.8898 229.632 78.2444 229.585C78.7084 229.526 79.0846 229.481 79.373 229.451C79.6646 229.418 79.8767 229.363 80.0093 229.287C80.1452 229.211 80.2132 229.078 80.2132 228.889V228.849C80.2132 228.359 80.0789 227.978 79.8105 227.706C79.5453 227.434 79.1426 227.298 78.6024 227.298C78.0422 227.298 77.6031 227.421 77.2849 227.666C76.9667 227.911 76.743 228.173 76.6137 228.452L75.5001 228.054C75.699 227.59 75.9641 227.229 76.2955 226.97C76.6303 226.708 76.9949 226.526 77.3893 226.423C77.787 226.317 78.1781 226.264 78.5626 226.264C78.8079 226.264 79.0896 226.294 79.4078 226.354C79.7293 226.41 80.0392 226.528 80.3374 226.707C80.6391 226.886 80.8893 227.156 81.0882 227.517C81.287 227.878 81.3865 228.362 81.3865 228.969V234H80.2132V232.966H80.1535C80.074 233.132 79.9414 233.309 79.7558 233.498C79.5702 233.687 79.3232 233.848 79.015 233.98C78.7068 234.113 78.3306 234.179 77.8865 234.179ZM78.0654 233.125C78.5294 233.125 78.9205 233.034 79.2387 232.852C79.5602 232.669 79.8022 232.434 79.9646 232.146C80.1303 231.857 80.2132 231.554 80.2132 231.236V230.162C80.1634 230.222 80.0541 230.276 79.885 230.326C79.7193 230.372 79.5271 230.414 79.3083 230.45C79.0929 230.483 78.8824 230.513 78.6769 230.54C78.4748 230.563 78.3107 230.583 78.1847 230.599C77.8798 230.639 77.5948 230.704 77.3296 230.793C77.0678 230.879 76.8557 231.01 76.6933 231.186C76.5342 231.358 76.4546 231.594 76.4546 231.892C76.4546 232.3 76.6054 232.608 76.907 232.817C77.212 233.022 77.5981 233.125 78.0654 233.125ZM84.7013 223.818V234H83.528V223.818H84.7013ZM86.8502 234V226.364H88.0235V234H86.8502ZM87.4468 225.091C87.2181 225.091 87.0209 225.013 86.8552 224.857C86.6928 224.701 86.6116 224.514 86.6116 224.295C86.6116 224.077 86.6928 223.889 86.8552 223.734C87.0209 223.578 87.2181 223.5 87.4468 223.5C87.6755 223.5 87.8711 223.578 88.0335 223.734C88.1992 223.889 88.282 224.077 88.282 224.295C88.282 224.514 88.1992 224.701 88.0335 224.857C87.8711 225.013 87.6755 225.091 87.4468 225.091ZM92.4197 234.179C91.9358 234.179 91.4966 234.088 91.1022 233.906C90.7078 233.72 90.3946 233.453 90.1626 233.105C89.9305 232.754 89.8145 232.33 89.8145 231.832C89.8145 231.395 89.9007 231.04 90.0731 230.768C90.2454 230.493 90.4758 230.278 90.7641 230.122C91.0525 229.966 91.3706 229.85 91.7187 229.774C92.07 229.695 92.423 229.632 92.7776 229.585C93.2416 229.526 93.6178 229.481 93.9062 229.451C94.1978 229.418 94.4099 229.363 94.5425 229.287C94.6784 229.211 94.7464 229.078 94.7464 228.889V228.849C94.7464 228.359 94.6121 227.978 94.3437 227.706C94.0785 227.434 93.6758 227.298 93.1356 227.298C92.5754 227.298 92.1363 227.421 91.8181 227.666C91.4999 227.911 91.2762 228.173 91.1469 228.452L90.0333 228.054C90.2322 227.59 90.4973 227.229 90.8287 226.97C91.1635 226.708 91.5281 226.526 91.9225 226.423C92.3202 226.317 92.7113 226.264 93.0958 226.264C93.3411 226.264 93.6228 226.294 93.941 226.354C94.2625 226.41 94.5724 226.528 94.8706 226.707C95.1723 226.886 95.4225 227.156 95.6214 227.517C95.8202 227.878 95.9197 228.362 95.9197 228.969V234H94.7464V232.966H94.6867C94.6072 233.132 94.4746 233.309 94.289 233.498C94.1034 233.687 93.8564 233.848 93.5482 233.98C93.24 234.113 92.8638 234.179 92.4197 234.179ZM92.5986 233.125C93.0626 233.125 93.4537 233.034 93.7719 232.852C94.0934 232.669 94.3354 232.434 94.4978 232.146C94.6635 231.857 94.7464 231.554 94.7464 231.236V230.162C94.6966 230.222 94.5873 230.276 94.4182 230.326C94.2525 230.372 94.0603 230.414 93.8415 230.45C93.6261 230.483 93.4156 230.513 93.2101 230.54C93.008 230.563 92.8439 230.583 92.718 230.599C92.413 230.639 92.128 230.704 91.8628 230.793C91.601 230.879 91.3889 231.01 91.2265 231.186C91.0674 231.358 90.9878 231.594 90.9878 231.892C90.9878 232.3 91.1386 232.608 91.4403 232.817C91.7452 233.022 92.1313 233.125 92.5986 233.125Z" fill="#615E83"/>
<path d="M47.2751 185.786H48.5081V192.528C48.5081 193.224 48.344 193.845 48.0159 194.392C47.6911 194.936 47.232 195.365 46.6388 195.68C46.0455 195.991 45.3495 196.147 44.5507 196.147C43.7519 196.147 43.0559 195.991 42.4626 195.68C41.8693 195.365 41.4086 194.936 41.0805 194.392C40.7557 193.845 40.5933 193.224 40.5933 192.528V185.786H41.8263V192.428C41.8263 192.926 41.9356 193.368 42.1544 193.756C42.3731 194.14 42.6847 194.444 43.089 194.666C43.4967 194.884 43.9839 194.994 44.5507 194.994C45.1175 194.994 45.6047 194.884 46.0123 194.666C46.42 194.444 46.7316 194.14 46.947 193.756C47.1657 193.368 47.2751 192.926 47.2751 192.428V185.786ZM50.9703 195.968V185.786H52.2032V190.838H52.3225L56.8964 185.786H58.5072L54.2316 190.38L58.5072 195.968H57.0157L53.4759 191.235L52.2032 192.667V195.968H50.9703Z" fill="#615E83"/>
<path d="M48.7865 150.924H47.5535C47.4806 150.569 47.353 150.258 47.1707 149.989C46.9917 149.721 46.773 149.495 46.5145 149.313C46.2593 149.127 45.9759 148.988 45.6643 148.895C45.3528 148.803 45.028 148.756 44.6899 148.756C44.0734 148.756 43.5149 148.912 43.0145 149.224C42.5173 149.535 42.1212 149.994 41.8263 150.601C41.5346 151.207 41.3888 151.951 41.3888 152.833C41.3888 153.715 41.5346 154.459 41.8263 155.065C42.1212 155.672 42.5173 156.131 43.0145 156.442C43.5149 156.754 44.0734 156.91 44.6899 156.91C45.028 156.91 45.3528 156.863 45.6643 156.77C45.9759 156.678 46.2593 156.54 46.5145 156.358C46.773 156.172 46.9917 155.945 47.1707 155.677C47.353 155.405 47.4806 155.093 47.5535 154.742H48.7865C48.6937 155.262 48.5247 155.728 48.2794 156.139C48.0341 156.55 47.7292 156.9 47.3646 157.188C47 157.473 46.5907 157.69 46.1366 157.839C45.6859 157.988 45.2036 158.063 44.6899 158.063C43.8215 158.063 43.0493 157.851 42.3731 157.427C41.697 157.002 41.165 156.399 40.7773 155.617C40.3895 154.835 40.1956 153.907 40.1956 152.833C40.1956 151.759 40.3895 150.831 40.7773 150.049C41.165 149.267 41.697 148.663 42.3731 148.239C43.0493 147.815 43.8215 147.603 44.6899 147.603C45.2036 147.603 45.6859 147.677 46.1366 147.827C46.5907 147.976 47 148.194 47.3646 148.483C47.7292 148.768 48.0341 149.116 48.2794 149.527C48.5247 149.934 48.6937 150.4 48.7865 150.924ZM52.8669 158.103C52.383 158.103 51.9439 158.012 51.5494 157.829C51.155 157.644 50.8418 157.377 50.6098 157.029C50.3778 156.678 50.2618 156.253 50.2618 155.756C50.2618 155.319 50.348 154.964 50.5203 154.692C50.6927 154.417 50.923 154.202 51.2114 154.046C51.4997 153.89 51.8179 153.774 52.1659 153.698C52.5173 153.618 52.8702 153.555 53.2249 153.509C53.6889 153.449 54.0651 153.405 54.3534 153.375C54.6451 153.342 54.8572 153.287 54.9898 153.211C55.1257 153.135 55.1936 153.002 55.1936 152.813V152.773C55.1936 152.283 55.0594 151.902 54.7909 151.63C54.5258 151.358 54.1231 151.222 53.5828 151.222C53.0227 151.222 52.5835 151.345 52.2654 151.59C51.9472 151.835 51.7235 152.097 51.5942 152.376L50.4806 151.978C50.6794 151.514 50.9446 151.153 51.276 150.894C51.6108 150.632 51.9753 150.45 52.3698 150.347C52.7675 150.241 53.1586 150.188 53.5431 150.188C53.7883 150.188 54.07 150.218 54.3882 150.278C54.7097 150.334 55.0196 150.452 55.3179 150.631C55.6195 150.809 55.8698 151.08 56.0686 151.441C56.2675 151.802 56.3669 152.286 56.3669 152.893V157.924H55.1936V156.89H55.134C55.0544 157.055 54.9218 157.233 54.7362 157.422C54.5506 157.611 54.3037 157.771 53.9955 157.904C53.6872 158.037 53.3111 158.103 52.8669 158.103ZM53.0459 157.049C53.5099 157.049 53.901 156.958 54.2192 156.775C54.5407 156.593 54.7826 156.358 54.945 156.069C55.1108 155.781 55.1936 155.478 55.1936 155.16V154.086C55.1439 154.145 55.0345 154.2 54.8655 154.25C54.6998 154.296 54.5075 154.338 54.2888 154.374C54.0734 154.407 53.8629 154.437 53.6574 154.464C53.4552 154.487 53.2912 154.507 53.1652 154.523C52.8603 154.563 52.5753 154.628 52.3101 154.717C52.0483 154.803 51.8361 154.934 51.6737 155.11C51.5146 155.282 51.4351 155.518 51.4351 155.816C51.4351 156.224 51.5859 156.532 51.8875 156.741C52.1924 156.946 52.5786 157.049 53.0459 157.049ZM59.6817 153.33V157.924H58.5084V150.287H59.642V151.481H59.7414C59.9204 151.093 60.1921 150.781 60.5567 150.546C60.9213 150.307 61.392 150.188 61.9687 150.188C62.4857 150.188 62.9381 150.294 63.3259 150.506C63.7137 150.715 64.0153 151.033 64.2307 151.461C64.4462 151.885 64.5539 152.422 64.5539 153.072V157.924H63.3806V153.151C63.3806 152.551 63.2248 152.084 62.9133 151.749C62.6017 151.411 62.1742 151.242 61.6306 151.242C61.2561 151.242 60.9213 151.323 60.6263 151.486C60.3347 151.648 60.1043 151.885 59.9353 152.197C59.7662 152.508 59.6817 152.886 59.6817 153.33ZM68.945 158.103C68.4611 158.103 68.022 158.012 67.6276 157.829C67.2332 157.644 66.92 157.377 66.6879 157.029C66.4559 156.678 66.3399 156.253 66.3399 155.756C66.3399 155.319 66.4261 154.964 66.5985 154.692C66.7708 154.417 67.0012 154.202 67.2895 154.046C67.5779 153.89 67.896 153.774 68.2441 153.698C68.5954 153.618 68.9484 153.555 69.303 153.509C69.767 153.449 70.1432 153.405 70.4316 153.375C70.7232 153.342 70.9353 153.287 71.0679 153.211C71.2038 153.135 71.2718 153.002 71.2718 152.813V152.773C71.2718 152.283 71.1375 151.902 70.8691 151.63C70.6039 151.358 70.2012 151.222 69.661 151.222C69.1008 151.222 68.6617 151.345 68.3435 151.59C68.0253 151.835 67.8016 152.097 67.6723 152.376L66.5587 151.978C66.7575 151.514 67.0227 151.153 67.3541 150.894C67.6889 150.632 68.0535 150.45 68.4479 150.347C68.8456 150.241 69.2367 150.188 69.6212 150.188C69.8664 150.188 70.1482 150.218 70.4664 150.278C70.7878 150.334 71.0977 150.452 71.396 150.631C71.6977 150.809 71.9479 151.08 72.1468 151.441C72.3456 151.802 72.445 152.286 72.445 152.893V157.924H71.2718V156.89H71.2121C71.1325 157.055 71 157.233 70.8144 157.422C70.6288 157.611 70.3818 157.771 70.0736 157.904C69.7654 158.037 69.3892 158.103 68.945 158.103ZM69.124 157.049C69.588 157.049 69.9791 156.958 70.2973 156.775C70.6188 156.593 70.8608 156.358 71.0232 156.069C71.1889 155.781 71.2718 155.478 71.2718 155.16V154.086C71.222 154.145 71.1127 154.2 70.9436 154.25C70.7779 154.296 70.5857 154.338 70.3669 154.374C70.1515 154.407 69.941 154.437 69.7355 154.464C69.5334 154.487 69.3693 154.507 69.2433 154.523C68.9384 154.563 68.6534 154.628 68.3882 154.717C68.1264 154.803 67.9143 154.934 67.7519 155.11C67.5928 155.282 67.5132 155.518 67.5132 155.816C67.5132 156.224 67.664 156.532 67.9656 156.741C68.2706 156.946 68.6567 157.049 69.124 157.049ZM77.4701 158.083C76.8337 158.083 76.2719 157.922 75.7847 157.601C75.2975 157.276 74.9163 156.818 74.6412 156.229C74.3662 155.635 74.2286 154.934 74.2286 154.126C74.2286 153.323 74.3662 152.627 74.6412 152.037C74.9163 151.448 75.2992 150.992 75.7897 150.67C76.2802 150.349 76.847 150.188 77.49 150.188C77.9871 150.188 78.3799 150.271 78.6682 150.437C78.9599 150.599 79.182 150.785 79.3344 150.993C79.4902 151.199 79.6112 151.368 79.6974 151.501H79.7968V147.742H80.9701V157.924H79.8366V156.751H79.6974C79.6112 156.89 79.4885 157.065 79.3295 157.278C79.1704 157.486 78.9433 157.674 78.6483 157.839C78.3534 158.002 77.9606 158.083 77.4701 158.083ZM77.6292 157.029C78.0998 157.029 78.4975 156.906 78.8224 156.661C79.1472 156.412 79.3941 156.069 79.5631 155.632C79.7322 155.191 79.8167 154.682 79.8167 154.106C79.8167 153.536 79.7338 153.037 79.5681 152.609C79.4024 152.178 79.1571 151.844 78.8323 151.605C78.5075 151.363 78.1064 151.242 77.6292 151.242C77.132 151.242 76.7177 151.37 76.3863 151.625C76.0581 151.877 75.8112 152.22 75.6455 152.654C75.4831 153.085 75.4019 153.569 75.4019 154.106C75.4019 154.649 75.4848 155.143 75.6505 155.587C75.8195 156.028 76.0681 156.379 76.3962 156.641C76.7277 156.9 77.1386 157.029 77.6292 157.029ZM85.529 158.103C85.0451 158.103 84.606 158.012 84.2116 157.829C83.8171 157.644 83.5039 157.377 83.2719 157.029C83.0399 156.678 82.9239 156.253 82.9239 155.756C82.9239 155.319 83.0101 154.964 83.1824 154.692C83.3548 154.417 83.5851 154.202 83.8735 154.046C84.1618 153.89 84.48 153.774 84.828 153.698C85.1794 153.618 85.5323 153.555 85.887 153.509C86.351 153.449 86.7272 153.405 87.0155 153.375C87.3072 153.342 87.5193 153.287 87.6519 153.211C87.7878 153.135 87.8557 153.002 87.8557 152.813V152.773C87.8557 152.283 87.7215 151.902 87.453 151.63C87.1879 151.358 86.7852 151.222 86.2449 151.222C85.6848 151.222 85.2457 151.345 84.9275 151.59C84.6093 151.835 84.3856 152.097 84.2563 152.376L83.1427 151.978C83.3415 151.514 83.6067 151.153 83.9381 150.894C84.2729 150.632 84.6375 150.45 85.0319 150.347C85.4296 150.241 85.8207 150.188 86.2052 150.188C86.4504 150.188 86.7322 150.218 87.0503 150.278C87.3718 150.334 87.6817 150.452 87.98 150.631C88.2816 150.809 88.5319 151.08 88.7307 151.441C88.9296 151.802 89.029 152.286 89.029 152.893V157.924H87.8557V156.89H87.7961C87.7165 157.055 87.584 157.233 87.3983 157.422C87.2127 157.611 86.9658 157.771 86.6576 157.904C86.3493 158.037 85.9732 158.103 85.529 158.103ZM85.708 157.049C86.172 157.049 86.5631 156.958 86.8813 156.775C87.2028 156.593 87.4448 156.358 87.6072 156.069C87.7729 155.781 87.8557 155.478 87.8557 155.16V154.086C87.806 154.145 87.6966 154.2 87.5276 154.25C87.3619 154.296 87.1697 154.338 86.9509 154.374C86.7355 154.407 86.525 154.437 86.3195 154.464C86.1173 154.487 85.9533 154.507 85.8273 154.523C85.5224 154.563 85.2374 154.628 84.9722 154.717C84.7104 154.803 84.4983 154.934 84.3358 155.11C84.1768 155.282 84.0972 155.518 84.0972 155.816C84.0972 156.224 84.248 156.532 84.5496 156.741C84.8546 156.946 85.2407 157.049 85.708 157.049Z" fill="#615E83"/>
<path d="M47.2751 108.697H48.5081V115.439C48.5081 116.135 48.344 116.756 48.0159 117.303C47.6911 117.846 47.232 118.276 46.6388 118.591C46.0455 118.902 45.3495 119.058 44.5507 119.058C43.7519 119.058 43.0559 118.902 42.4626 118.591C41.8693 118.276 41.4086 117.846 41.0805 117.303C40.7557 116.756 40.5933 116.135 40.5933 115.439V108.697H41.8263V115.339C41.8263 115.836 41.9356 116.279 42.1544 116.667C42.3731 117.051 42.6847 117.354 43.089 117.576C43.4967 117.795 43.9839 117.904 44.5507 117.904C45.1175 117.904 45.6047 117.795 46.0123 117.576C46.42 117.354 46.7316 117.051 46.947 116.667C47.1657 116.279 47.2751 115.836 47.2751 115.339V108.697ZM56.5384 111.243C56.4788 110.739 56.2368 110.348 55.8126 110.069C55.3883 109.791 54.868 109.652 54.2515 109.652C53.8008 109.652 53.4063 109.725 53.0683 109.87C52.7335 110.016 52.4717 110.217 52.2828 110.472C52.0972 110.727 52.0044 111.017 52.0044 111.342C52.0044 111.614 52.069 111.847 52.1982 112.043C52.3308 112.235 52.4999 112.396 52.7053 112.525C52.9108 112.651 53.1263 112.756 53.3517 112.838C53.577 112.918 53.7842 112.983 53.9731 113.032L55.0072 113.311C55.2723 113.38 55.5673 113.476 55.8921 113.599C56.2203 113.722 56.5335 113.889 56.8318 114.101C57.1334 114.31 57.382 114.578 57.5775 114.907C57.7731 115.235 57.8708 115.637 57.8708 116.115C57.8708 116.665 57.7267 117.162 57.4383 117.606C57.1533 118.05 56.7356 118.403 56.1855 118.665C55.6386 118.927 54.974 119.058 54.1919 119.058C53.4627 119.058 52.8313 118.94 52.2977 118.705C51.7674 118.47 51.3498 118.141 51.0448 117.721C50.7432 117.3 50.5725 116.811 50.5328 116.254H51.8055C51.8386 116.638 51.9679 116.957 52.1933 117.208C52.422 117.457 52.7103 117.643 53.0583 117.765C53.4097 117.885 53.7875 117.944 54.1919 117.944C54.6625 117.944 55.0851 117.868 55.4596 117.716C55.8341 117.56 56.1308 117.344 56.3495 117.069C56.5683 116.791 56.6776 116.466 56.6776 116.095C56.6776 115.757 56.5832 115.482 56.3943 115.27C56.2053 115.057 55.9568 114.885 55.6485 114.752C55.3403 114.62 55.0072 114.504 54.6492 114.404L53.3964 114.047C52.6009 113.818 51.9712 113.491 51.5072 113.067C51.0432 112.643 50.8112 112.088 50.8112 111.402C50.8112 110.832 50.9653 110.334 51.2735 109.91C51.5851 109.483 52.0027 109.151 52.5264 108.916C53.0534 108.677 53.6417 108.558 54.2913 108.558C54.9475 108.558 55.5309 108.676 56.0413 108.911C56.5517 109.143 56.9561 109.461 57.2544 109.865C57.556 110.27 57.7151 110.729 57.7316 111.243H56.5384ZM60.3156 118.879H59.023L62.7616 108.697H64.0344L67.773 118.879H66.4804L63.4378 110.308H63.3582L60.3156 118.879ZM60.7929 114.902H66.0031V115.995H60.7929V114.902Z" fill="#615E83"/>
<path d="M40.4981 75V61.9091H45.6629C46.6558 61.9091 47.5017 62.0987 48.2006 62.478C48.8994 62.853 49.4321 63.375 49.7986 64.044C50.1693 64.7088 50.3547 65.4759 50.3547 66.3452C50.3547 67.2145 50.1672 67.9815 49.7922 68.6463C49.4172 69.3111 48.8738 69.8288 48.1622 70.1996C47.4548 70.5703 46.5983 70.7557 45.5926 70.7557H42.3007V68.5376H45.1452C45.6778 68.5376 46.1167 68.446 46.4619 68.2628C46.8113 68.0753 47.0713 67.8175 47.2417 67.4893C47.4165 67.157 47.5038 66.7756 47.5038 66.3452C47.5038 65.9105 47.4165 65.5312 47.2417 65.2074C47.0713 64.8793 46.8113 64.6257 46.4619 64.4467C46.1125 64.2635 45.6693 64.1719 45.1324 64.1719H43.2659V75H40.4981ZM56.3792 75.1918C55.3863 75.1918 54.5276 74.9808 53.8032 74.5589C53.083 74.1328 52.5269 73.5405 52.1349 72.782C51.7428 72.0192 51.5468 71.1349 51.5468 70.1293C51.5468 69.1151 51.7428 68.2287 52.1349 67.4702C52.5269 66.7074 53.083 66.1151 53.8032 65.6932C54.5276 65.267 55.3863 65.054 56.3792 65.054C57.3721 65.054 58.2286 65.267 58.9488 65.6932C59.6732 66.1151 60.2314 66.7074 60.6235 67.4702C61.0155 68.2287 61.2116 69.1151 61.2116 70.1293C61.2116 71.1349 61.0155 72.0192 60.6235 72.782C60.2314 73.5405 59.6732 74.1328 58.9488 74.5589C58.2286 74.9808 57.3721 75.1918 56.3792 75.1918ZM56.392 73.0824C56.8437 73.0824 57.2208 72.9545 57.5233 72.6989C57.8259 72.4389 58.0539 72.0852 58.2073 71.6378C58.365 71.1903 58.4438 70.6811 58.4438 70.1101C58.4438 69.5391 58.365 69.0298 58.2073 68.5824C58.0539 68.1349 57.8259 67.7812 57.5233 67.5213C57.2208 67.2614 56.8437 67.1314 56.392 67.1314C55.936 67.1314 55.5525 67.2614 55.2414 67.5213C54.9346 67.7812 54.7023 68.1349 54.5447 68.5824C54.3912 69.0298 54.3145 69.5391 54.3145 70.1101C54.3145 70.6811 54.3912 71.1903 54.5447 71.6378C54.7023 72.0852 54.9346 72.4389 55.2414 72.6989C55.5525 72.9545 55.936 73.0824 56.392 73.0824ZM62.9822 78.6818V65.1818H65.6668V66.831H65.7883C65.9076 66.5668 66.0802 66.2983 66.306 66.0256C66.5361 65.7486 66.8344 65.5185 67.2009 65.3352C67.5716 65.1477 68.0319 65.054 68.5816 65.054C69.2975 65.054 69.958 65.2415 70.5631 65.6165C71.1682 65.9872 71.6519 66.5476 72.0141 67.2976C72.3763 68.0433 72.5574 68.9787 72.5574 70.1037C72.5574 71.1989 72.3806 72.1236 72.0269 72.8778C71.6775 73.6278 71.2002 74.1967 70.5951 74.5845C69.9942 74.968 69.3209 75.1598 68.5752 75.1598C68.0468 75.1598 67.5972 75.0724 67.2265 74.8977C66.86 74.723 66.5596 74.5036 66.3252 74.2393C66.0908 73.9709 65.9118 73.7003 65.7883 73.4276H65.7052V78.6818H62.9822ZM65.6476 70.0909C65.6476 70.6747 65.7286 71.1839 65.8905 71.6186C66.0525 72.0533 66.2868 72.392 66.5937 72.6349C66.9005 72.8736 67.2733 72.9929 67.7123 72.9929C68.1555 72.9929 68.5305 72.8714 68.8373 72.6286C69.1441 72.3814 69.3763 72.0405 69.534 71.6058C69.6959 71.1669 69.7769 70.6619 69.7769 70.0909C69.7769 69.5241 69.6981 69.0256 69.5404 68.5952C69.3827 68.1648 69.1505 67.8281 68.8437 67.5852C68.5368 67.3423 68.1597 67.2209 67.7123 67.2209C67.2691 67.2209 66.8941 67.3381 66.5873 67.5724C66.2847 67.8068 66.0525 68.1392 65.8905 68.5696C65.7286 69 65.6476 69.5071 65.6476 70.0909ZM80.6689 70.8196V65.1818H83.392V75H80.7776V73.2166H80.6753C80.4537 73.7919 80.0851 74.2543 79.5695 74.6037C79.0581 74.9531 78.4339 75.1278 77.6966 75.1278C77.0404 75.1278 76.463 74.9787 75.9644 74.6804C75.4658 74.3821 75.0759 73.9581 74.7947 73.4084C74.5177 72.8587 74.377 72.2003 74.3728 71.4332V65.1818H77.0958V70.9474C77.1001 71.527 77.2556 71.9851 77.5624 72.3217C77.8692 72.6584 78.2805 72.8267 78.7961 72.8267C79.1242 72.8267 79.431 72.7521 79.7165 72.603C80.002 72.4496 80.2322 72.2237 80.4069 71.9254C80.5858 71.6271 80.6732 71.2585 80.6689 70.8196ZM88.2931 61.9091V75H85.57V61.9091H88.2931ZM93.2741 75.1854C92.6476 75.1854 92.0894 75.0767 91.5993 74.8594C91.1093 74.6378 90.7215 74.3118 90.436 73.8814C90.1547 73.4467 90.0141 72.9055 90.0141 72.2578C90.0141 71.7124 90.1143 71.2543 90.3145 70.8835C90.5148 70.5128 90.7876 70.2145 91.1327 69.9886C91.4779 69.7628 91.8699 69.5923 92.3089 69.4773C92.752 69.3622 93.2165 69.2812 93.7023 69.2344C94.2733 69.1747 94.7336 69.1193 95.083 69.0682C95.4324 69.0128 95.686 68.9318 95.8437 68.8253C96.0013 68.7187 96.0802 68.5611 96.0802 68.3523V68.3139C96.0802 67.9091 95.9523 67.5959 95.6966 67.3743C95.4452 67.1527 95.0873 67.0419 94.6228 67.0419C94.1327 67.0419 93.7428 67.1506 93.453 67.3679C93.1633 67.581 92.9715 67.8494 92.8778 68.1733L90.3593 67.9688C90.4871 67.3722 90.7385 66.8565 91.1135 66.4219C91.4885 65.983 91.9722 65.6463 92.5645 65.4119C93.1611 65.1733 93.8515 65.054 94.6356 65.054C95.181 65.054 95.703 65.1179 96.2016 65.2457C96.7045 65.3736 97.1498 65.5717 97.5376 65.8402C97.9296 66.1087 98.2385 66.4538 98.4644 66.8757C98.6903 67.2933 98.8032 67.794 98.8032 68.3778V75H96.2208V73.6385H96.1441C95.9864 73.9453 95.7755 74.2159 95.5113 74.4503C95.2471 74.6804 94.9296 74.8615 94.5589 74.9936C94.1881 75.1214 93.7599 75.1854 93.2741 75.1854ZM94.0539 73.3061C94.4545 73.3061 94.8082 73.2273 95.115 73.0696C95.4218 72.9077 95.6626 72.6903 95.8373 72.4176C96.012 72.1449 96.0993 71.8359 96.0993 71.4908V70.4489C96.0141 70.5043 95.8969 70.5554 95.7478 70.6023C95.6029 70.6449 95.4388 70.6854 95.2556 70.7237C95.0724 70.7578 94.8891 70.7898 94.7059 70.8196C94.5226 70.8452 94.3564 70.8686 94.2073 70.8899C93.8877 70.9368 93.6086 71.0114 93.3699 71.1136C93.1313 71.2159 92.9459 71.3544 92.8138 71.5291C92.6817 71.6996 92.6157 71.9126 92.6157 72.1683C92.6157 72.5391 92.7499 72.8224 93.0184 73.0185C93.2911 73.2102 93.6363 73.3061 94.0539 73.3061ZM100.916 75V65.1818H103.556V66.8949H103.658C103.837 66.2855 104.137 65.8253 104.559 65.5142C104.981 65.1989 105.467 65.0412 106.017 65.0412C106.153 65.0412 106.3 65.0497 106.458 65.0668C106.615 65.0838 106.754 65.1072 106.873 65.1371V67.5533C106.745 67.5149 106.568 67.4808 106.343 67.451C106.117 67.4212 105.91 67.4062 105.723 67.4062C105.322 67.4062 104.964 67.4936 104.649 67.6683C104.338 67.8388 104.09 68.0774 103.907 68.3842C103.728 68.6911 103.639 69.0447 103.639 69.4453V75H100.916ZM116.883 75.1918C115.877 75.1918 115.012 74.9787 114.288 74.5526C113.568 74.1222 113.014 73.5256 112.626 72.7628C112.242 72 112.051 71.1222 112.051 70.1293C112.051 69.1236 112.245 68.2415 112.632 67.483C113.024 66.7202 113.581 66.1257 114.301 65.6996C115.021 65.2692 115.877 65.054 116.87 65.054C117.727 65.054 118.477 65.2095 119.12 65.5206C119.764 65.8317 120.273 66.2685 120.648 66.831C121.023 67.3935 121.23 68.054 121.268 68.8125H118.698C118.626 68.3224 118.434 67.9283 118.123 67.63C117.816 67.3274 117.414 67.1761 116.915 67.1761C116.493 67.1761 116.125 67.2912 115.809 67.5213C115.498 67.7472 115.255 68.0774 115.081 68.5121C114.906 68.9467 114.818 69.473 114.818 70.0909C114.818 70.7173 114.904 71.25 115.074 71.6889C115.249 72.1278 115.494 72.4624 115.809 72.6925C116.125 72.9226 116.493 73.0376 116.915 73.0376C117.226 73.0376 117.505 72.9737 117.752 72.8459C118.004 72.718 118.21 72.5327 118.372 72.2898C118.539 72.0426 118.647 71.7464 118.698 71.4013H121.268C121.225 72.1513 121.021 72.8118 120.654 73.3828C120.292 73.9496 119.791 74.3928 119.152 74.7124C118.513 75.032 117.757 75.1918 116.883 75.1918ZM127.448 75.1918C126.455 75.1918 125.596 74.9808 124.872 74.5589C124.151 74.1328 123.595 73.5405 123.203 72.782C122.811 72.0192 122.615 71.1349 122.615 70.1293C122.615 69.1151 122.811 68.2287 123.203 67.4702C123.595 66.7074 124.151 66.1151 124.872 65.6932C125.596 65.267 126.455 65.054 127.448 65.054C128.44 65.054 129.297 65.267 130.017 65.6932C130.742 66.1151 131.3 66.7074 131.692 67.4702C132.084 68.2287 132.28 69.1151 132.28 70.1293C132.28 71.1349 132.084 72.0192 131.692 72.782C131.3 73.5405 130.742 74.1328 130.017 74.5589C129.297 74.9808 128.44 75.1918 127.448 75.1918ZM127.46 73.0824C127.912 73.0824 128.289 72.9545 128.592 72.6989C128.894 72.4389 129.122 72.0852 129.276 71.6378C129.433 71.1903 129.512 70.6811 129.512 70.1101C129.512 69.5391 129.433 69.0298 129.276 68.5824C129.122 68.1349 128.894 67.7812 128.592 67.5213C128.289 67.2614 127.912 67.1314 127.46 67.1314C127.004 67.1314 126.621 67.2614 126.31 67.5213C126.003 67.7812 125.771 68.1349 125.613 68.5824C125.46 69.0298 125.383 69.5391 125.383 70.1101C125.383 70.6811 125.46 71.1903 125.613 71.6378C125.771 72.0852 126.003 72.4389 126.31 72.6989C126.621 72.9545 127.004 73.0824 127.46 73.0824ZM140.347 70.8196V65.1818H143.07V75H140.455V73.2166H140.353C140.131 73.7919 139.763 74.2543 139.247 74.6037C138.736 74.9531 138.112 75.1278 137.374 75.1278C136.718 75.1278 136.141 74.9787 135.642 74.6804C135.144 74.3821 134.754 73.9581 134.472 73.4084C134.195 72.8587 134.055 72.2003 134.051 71.4332V65.1818H136.774V70.9474C136.778 71.527 136.933 71.9851 137.24 72.3217C137.547 72.6584 137.958 72.8267 138.474 72.8267C138.802 72.8267 139.109 72.7521 139.394 72.603C139.68 72.4496 139.91 72.2237 140.085 71.9254C140.264 71.6271 140.351 71.2585 140.347 70.8196ZM147.971 69.3239V75H145.248V65.1818H147.843V66.9141H147.958C148.175 66.343 148.54 65.8913 149.051 65.5589C149.562 65.2223 150.182 65.054 150.911 65.054C151.593 65.054 152.187 65.2031 152.695 65.5014C153.202 65.7997 153.596 66.2259 153.877 66.7798C154.158 67.3295 154.299 67.9858 154.299 68.7486V75H151.576V69.2344C151.58 68.6335 151.427 68.1648 151.116 67.8281C150.805 67.4872 150.376 67.3168 149.831 67.3168C149.464 67.3168 149.141 67.3956 148.859 67.5533C148.582 67.7109 148.365 67.9411 148.207 68.2436C148.054 68.5419 147.975 68.902 147.971 69.3239ZM161.667 65.1818V67.2273H155.755V65.1818H161.667ZM157.097 62.8295H159.82V71.983C159.82 72.2344 159.858 72.4304 159.935 72.571C160.012 72.7074 160.118 72.8033 160.255 72.8587C160.395 72.9141 160.557 72.9418 160.741 72.9418C160.868 72.9418 160.996 72.9311 161.124 72.9098C161.252 72.8842 161.35 72.8651 161.418 72.8523L161.846 74.8786C161.71 74.9212 161.518 74.9702 161.271 75.0256C161.024 75.0852 160.723 75.1214 160.37 75.1342C159.714 75.1598 159.138 75.0724 158.644 74.8722C158.154 74.6719 157.772 74.3608 157.5 73.9389C157.227 73.517 157.093 72.9844 157.097 72.3409V62.8295ZM163.441 75V65.1818H166.081V66.8949H166.183C166.362 66.2855 166.663 65.8253 167.085 65.5142C167.506 65.1989 167.992 65.0412 168.542 65.0412C168.678 65.0412 168.825 65.0497 168.983 65.0668C169.141 65.0838 169.279 65.1072 169.399 65.1371V67.5533C169.271 67.5149 169.094 67.4808 168.868 67.451C168.642 67.4212 168.435 67.4062 168.248 67.4062C167.847 67.4062 167.489 67.4936 167.174 67.6683C166.863 67.8388 166.616 68.0774 166.433 68.3842C166.254 68.6911 166.164 69.0447 166.164 69.4453V75H163.441ZM170.806 75V65.1818H173.529V75H170.806ZM172.174 63.9162C171.769 63.9162 171.422 63.782 171.132 63.5135C170.847 63.2408 170.704 62.9148 170.704 62.5355C170.704 62.1605 170.847 61.8388 171.132 61.5703C171.422 61.2976 171.769 61.1612 172.174 61.1612C172.579 61.1612 172.924 61.2976 173.21 61.5703C173.5 61.8388 173.644 62.1605 173.644 62.5355C173.644 62.9148 173.5 63.2408 173.21 63.5135C172.924 63.782 172.579 63.9162 172.174 63.9162ZM180.185 75.1918C179.175 75.1918 178.306 74.9872 177.577 74.5781C176.853 74.1648 176.294 73.581 175.902 72.8267C175.51 72.0682 175.314 71.1712 175.314 70.1357C175.314 69.1257 175.51 68.2393 175.902 67.4766C176.294 66.7138 176.846 66.1193 177.558 65.6932C178.274 65.267 179.113 65.054 180.076 65.054C180.724 65.054 181.327 65.1584 181.885 65.3672C182.448 65.5717 182.938 65.8807 183.356 66.294C183.777 66.7074 184.106 67.2273 184.34 67.8537C184.574 68.4759 184.691 69.2045 184.691 70.0398V70.7876H176.401V69.1001H182.128C182.128 68.7081 182.043 68.3608 181.873 68.0582C181.702 67.7557 181.466 67.5192 181.163 67.3487C180.865 67.174 180.517 67.0866 180.121 67.0866C179.708 67.0866 179.341 67.1825 179.022 67.3743C178.706 67.5618 178.459 67.8153 178.28 68.1349C178.101 68.4503 178.01 68.8018 178.005 69.1896V70.794C178.005 71.2798 178.095 71.6996 178.274 72.0533C178.457 72.407 178.715 72.6797 179.047 72.8714C179.38 73.0632 179.774 73.1591 180.23 73.1591C180.532 73.1591 180.809 73.1165 181.061 73.0312C181.312 72.946 181.527 72.8182 181.706 72.6477C181.885 72.4773 182.022 72.2685 182.116 72.0213L184.634 72.1875C184.506 72.7926 184.244 73.321 183.848 73.7727C183.456 74.2202 182.949 74.5696 182.326 74.821C181.709 75.0682 180.995 75.1918 180.185 75.1918ZM194.638 67.9815L192.145 68.1349C192.102 67.9219 192.01 67.7301 191.87 67.5597C191.729 67.3849 191.544 67.2464 191.314 67.1442C191.088 67.0376 190.817 66.9844 190.502 66.9844C190.08 66.9844 189.724 67.0739 189.434 67.2528C189.145 67.4276 189 67.6619 189 67.956C189 68.1903 189.093 68.3885 189.281 68.5504C189.468 68.7124 189.79 68.8423 190.246 68.9403L192.023 69.2983C192.978 69.4943 193.689 69.8097 194.158 70.2443C194.627 70.679 194.861 71.25 194.861 71.9574C194.861 72.6009 194.672 73.1655 194.292 73.6513C193.917 74.1371 193.402 74.5163 192.745 74.7891C192.093 75.0575 191.341 75.1918 190.489 75.1918C189.189 75.1918 188.154 74.9212 187.383 74.38C186.616 73.8345 186.166 73.093 186.034 72.1555L188.712 72.0149C188.793 72.4112 188.989 72.7138 189.3 72.9226C189.611 73.1271 190.01 73.2294 190.495 73.2294C190.973 73.2294 191.356 73.1378 191.646 72.9545C191.94 72.767 192.089 72.5263 192.093 72.2322C192.089 71.9851 191.985 71.7827 191.78 71.625C191.576 71.4631 191.26 71.3395 190.834 71.2543L189.134 70.9155C188.175 70.7237 187.461 70.3913 186.993 69.9183C186.528 69.4453 186.296 68.8423 186.296 68.1094C186.296 67.4787 186.466 66.9354 186.807 66.4794C187.152 66.0234 187.636 65.6719 188.258 65.4247C188.885 65.1776 189.618 65.054 190.457 65.054C191.697 65.054 192.673 65.3161 193.385 65.8402C194.101 66.3643 194.518 67.0781 194.638 67.9815Z" fill="#1E1B39"/>
<path d="M46.1615 41.3636C46.1018 40.8598 45.8599 40.4688 45.4356 40.1903C45.0114 39.9119 44.491 39.7727 43.8746 39.7727C43.4238 39.7727 43.0294 39.8456 42.6913 39.9915C42.3566 40.1373 42.0947 40.3378 41.9058 40.593C41.7202 40.8482 41.6274 41.1383 41.6274 41.4631C41.6274 41.7348 41.692 41.9685 41.8213 42.1641C41.9539 42.3563 42.1229 42.517 42.3284 42.6463C42.5339 42.7723 42.7493 42.8767 42.9747 42.9595C43.2001 43.0391 43.4072 43.1037 43.5961 43.1534L44.6302 43.4318C44.8954 43.5014 45.1904 43.5975 45.5152 43.7202C45.8433 43.8428 46.1565 44.0102 46.4548 44.2223C46.7564 44.4311 47.005 44.6996 47.2006 45.0277C47.3961 45.3558 47.4939 45.7585 47.4939 46.2358C47.4939 46.786 47.3497 47.2831 47.0613 47.7273C46.7763 48.1714 46.3587 48.5244 45.8085 48.7862C45.2616 49.0481 44.5971 49.179 43.8149 49.179C43.0857 49.179 42.4543 49.0613 41.9207 48.826C41.3904 48.5907 40.9728 48.2625 40.6679 47.8416C40.3663 47.4207 40.1956 46.9318 40.1558 46.375H41.4285C41.4617 46.7595 41.5909 47.0777 41.8163 47.3295C42.045 47.5781 42.3334 47.7637 42.6814 47.8864C43.0327 48.0057 43.4105 48.0653 43.8149 48.0653C44.2855 48.0653 44.7081 47.9891 45.0827 47.8366C45.4572 47.6809 45.7538 47.4654 45.9726 47.1903C46.1913 46.9119 46.3007 46.5871 46.3007 46.2159C46.3007 45.8778 46.2062 45.6027 46.0173 45.3906C45.8284 45.1785 45.5798 45.0062 45.2716 44.8736C44.9633 44.741 44.6302 44.625 44.2723 44.5256L43.0194 44.1676C42.224 43.9389 41.5943 43.6125 41.1302 43.1882C40.6662 42.764 40.4342 42.2088 40.4342 41.5227C40.4342 40.9527 40.5883 40.4555 40.8966 40.0312C41.2081 39.6037 41.6257 39.2723 42.1494 39.0369C42.6764 38.7983 43.2647 38.679 43.9143 38.679C44.5706 38.679 45.1539 38.7966 45.6643 39.032C46.1747 39.264 46.5791 39.5821 46.8774 39.9865C47.179 40.3909 47.3381 40.8499 47.3547 41.3636H46.1615ZM52.683 41.3636V42.358H48.7256V41.3636H52.683ZM49.879 39.5341H51.0523V46.8125C51.0523 47.1439 51.1003 47.3925 51.1965 47.5582C51.2959 47.7206 51.4218 47.83 51.5743 47.8864C51.7301 47.9394 51.8941 47.9659 52.0665 47.9659C52.1958 47.9659 52.3018 47.9593 52.3847 47.946C52.4675 47.9295 52.5338 47.9162 52.5835 47.9062L52.8222 48.9602C52.7426 48.9901 52.6316 49.0199 52.4891 49.0497C52.3466 49.0829 52.1659 49.0994 51.9472 49.0994C51.6157 49.0994 51.2909 49.0282 50.9727 48.8857C50.6579 48.7431 50.396 48.526 50.1872 48.2344C49.9817 47.9427 49.879 47.5748 49.879 47.1307V39.5341ZM56.695 49.179C56.2111 49.179 55.772 49.0878 55.3776 48.9055C54.9832 48.7199 54.67 48.4531 54.4379 48.1051C54.2059 47.7538 54.0899 47.3295 54.0899 46.8324C54.0899 46.3949 54.1761 46.0402 54.3485 45.7685C54.5208 45.4934 54.7512 45.2779 55.0395 45.1222C55.3279 44.9664 55.646 44.8504 55.9941 44.7741C56.3454 44.6946 56.6984 44.6316 57.053 44.5852C57.517 44.5256 57.8932 44.4808 58.1816 44.451C58.4732 44.4179 58.6853 44.3632 58.8179 44.2869C58.9538 44.2107 59.0218 44.0781 59.0218 43.8892V43.8494C59.0218 43.3589 58.8875 42.9777 58.6191 42.706C58.3539 42.4342 57.9512 42.2983 57.411 42.2983C56.8508 42.2983 56.4117 42.4209 56.0935 42.6662C55.7753 42.9115 55.5516 43.1733 55.4223 43.4517L54.3087 43.054C54.5075 42.59 54.7727 42.2287 55.1041 41.9702C55.4389 41.7083 55.8035 41.526 56.1979 41.4233C56.5956 41.3172 56.9867 41.2642 57.3712 41.2642C57.6164 41.2642 57.8982 41.294 58.2164 41.3537C58.5378 41.41 58.8477 41.5277 59.146 41.7067C59.4477 41.8857 59.6979 42.1558 59.8968 42.517C60.0956 42.8783 60.195 43.3622 60.195 43.9688V49H59.0218V47.9659H58.9621C58.8825 48.1316 58.75 48.3089 58.5644 48.4979C58.3788 48.6868 58.1318 48.8475 57.8236 48.9801C57.5154 49.1127 57.1392 49.179 56.695 49.179ZM56.874 48.125C57.338 48.125 57.7291 48.0339 58.0473 47.8516C58.3688 47.6693 58.6108 47.4339 58.7732 47.1456C58.9389 46.8572 59.0218 46.554 59.0218 46.2358V45.1619C58.972 45.2216 58.8627 45.2763 58.6936 45.326C58.5279 45.3724 58.3357 45.4138 58.1169 45.4503C57.9015 45.4834 57.691 45.5133 57.4855 45.5398C57.2834 45.563 57.1193 45.5829 56.9933 45.5994C56.6884 45.6392 56.4034 45.7038 56.1382 45.7933C55.8764 45.8795 55.6643 46.0104 55.5019 46.1861C55.3428 46.3584 55.2632 46.5937 55.2632 46.892C55.2632 47.2997 55.414 47.608 55.7156 47.8168C56.0206 48.0223 56.4067 48.125 56.874 48.125ZM65.6576 41.3636V42.358H61.7002V41.3636H65.6576ZM62.8536 39.5341H64.0269V46.8125C64.0269 47.1439 64.075 47.3925 64.1711 47.5582C64.2705 47.7206 64.3965 47.83 64.5489 47.8864C64.7047 47.9394 64.8688 47.9659 65.0411 47.9659C65.1704 47.9659 65.2764 47.9593 65.3593 47.946C65.4421 47.9295 65.5084 47.9162 65.5581 47.9062L65.7968 48.9602C65.7172 48.9901 65.6062 49.0199 65.4637 49.0497C65.3212 49.0829 65.1405 49.0994 64.9218 49.0994C64.5903 49.0994 64.2655 49.0282 63.9474 48.8857C63.6325 48.7431 63.3706 48.526 63.1618 48.2344C62.9564 47.9427 62.8536 47.5748 62.8536 47.1307V39.5341ZM67.4225 49V41.3636H68.5958V49H67.4225ZM68.0191 40.0909C67.7904 40.0909 67.5932 40.013 67.4275 39.8572C67.2651 39.7015 67.1839 39.5142 67.1839 39.2955C67.1839 39.0767 67.2651 38.8894 67.4275 38.7337C67.5932 38.5779 67.7904 38.5 68.0191 38.5C68.2478 38.5 68.4433 38.5779 68.6057 38.7337C68.7715 38.8894 68.8543 39.0767 68.8543 39.2955C68.8543 39.5142 68.7715 39.7015 68.6057 39.8572C68.4433 40.013 68.2478 40.0909 68.0191 40.0909ZM76.1539 43.0739L75.0999 43.3722C75.0336 43.1965 74.9358 43.0258 74.8066 42.8601C74.6806 42.6911 74.5083 42.5518 74.2895 42.4425C74.0708 42.3331 73.7907 42.2784 73.4493 42.2784C72.982 42.2784 72.5925 42.3861 72.281 42.6016C71.9727 42.8137 71.8186 43.0838 71.8186 43.4119C71.8186 43.7036 71.9247 43.9339 72.1368 44.103C72.3489 44.272 72.6804 44.4129 73.1311 44.5256L74.2646 44.804C74.9474 44.9697 75.4562 45.2232 75.7909 45.5646C76.1257 45.9027 76.2931 46.3385 76.2931 46.8722C76.2931 47.3097 76.1671 47.7008 75.9152 48.0455C75.6666 48.3902 75.3186 48.6619 74.8712 48.8608C74.4237 49.0597 73.9034 49.1591 73.3101 49.1591C72.5312 49.1591 71.8866 48.9901 71.3762 48.652C70.8657 48.3139 70.5426 47.8201 70.4067 47.1705L71.5203 46.892C71.6264 47.303 71.8269 47.6113 72.1219 47.8168C72.4202 48.0223 72.8096 48.125 73.2902 48.125C73.8371 48.125 74.2713 48.009 74.5928 47.777C74.9176 47.5417 75.08 47.2599 75.08 46.9318C75.08 46.6667 74.9872 46.4446 74.8016 46.2656C74.616 46.0833 74.3309 45.9474 73.9465 45.858L72.6737 45.5597C71.9744 45.3939 71.4607 45.1371 71.1325 44.7891C70.8077 44.4377 70.6453 43.9986 70.6453 43.4716C70.6453 43.0407 70.7663 42.6596 71.0083 42.3281C71.2535 41.9967 71.5866 41.7365 72.0075 41.5476C72.4318 41.3587 72.9124 41.2642 73.4493 41.2642C74.205 41.2642 74.7983 41.4299 75.2291 41.7614C75.6633 42.0928 75.9716 42.5303 76.1539 43.0739ZM81.3802 41.3636V42.358H77.4229V41.3636H81.3802ZM78.5763 39.5341H79.7496V46.8125C79.7496 47.1439 79.7976 47.3925 79.8937 47.5582C79.9932 47.7206 80.1191 47.83 80.2716 47.8864C80.4273 47.9394 80.5914 47.9659 80.7638 47.9659C80.893 47.9659 80.9991 47.9593 81.0819 47.946C81.1648 47.9295 81.2311 47.9162 81.2808 47.9062L81.5194 48.9602C81.4399 48.9901 81.3289 49.0199 81.1863 49.0497C81.0438 49.0829 80.8632 49.0994 80.6444 49.0994C80.313 49.0994 79.9882 49.0282 79.67 48.8857C79.3551 48.7431 79.0933 48.526 78.8845 48.2344C78.679 47.9427 78.5763 47.5748 78.5763 47.1307V39.5341ZM83.1452 49V41.3636H84.3184V49H83.1452ZM83.7417 40.0909C83.5131 40.0909 83.3158 40.013 83.1501 39.8572C82.9877 39.7015 82.9065 39.5142 82.9065 39.2955C82.9065 39.0767 82.9877 38.8894 83.1501 38.7337C83.3158 38.5779 83.5131 38.5 83.7417 38.5C83.9704 38.5 84.166 38.5779 84.3284 38.7337C84.4941 38.8894 84.577 39.0767 84.577 39.2955C84.577 39.5142 84.4941 39.7015 84.3284 39.8572C84.166 40.013 83.9704 40.0909 83.7417 40.0909ZM89.5697 49.1591C88.8538 49.1591 88.2373 48.9901 87.7203 48.652C87.2032 48.3139 86.8055 47.8482 86.5271 47.255C86.2487 46.6617 86.1095 45.9839 86.1095 45.2216C86.1095 44.446 86.252 43.7616 86.537 43.1683C86.8254 42.5717 87.2264 42.1061 87.7401 41.7713C88.2572 41.4332 88.8604 41.2642 89.5498 41.2642C90.0867 41.2642 90.5706 41.3636 91.0015 41.5625C91.4324 41.7614 91.7854 42.0398 92.0605 42.3977C92.3356 42.7557 92.5062 43.1733 92.5725 43.6506H91.3992C91.3097 43.3026 91.1109 42.9943 90.8026 42.7259C90.4977 42.4541 90.0867 42.3182 89.5697 42.3182C89.1123 42.3182 88.7113 42.4375 88.3666 42.6761C88.0252 42.9115 87.7584 43.2446 87.5661 43.6754C87.3772 44.103 87.2828 44.6051 87.2828 45.1818C87.2828 45.7718 87.3756 46.2855 87.5612 46.723C87.7501 47.1605 88.0152 47.5002 88.3566 47.7422C88.7013 47.9841 89.1057 48.1051 89.5697 48.1051C89.8746 48.1051 90.1514 48.0521 90.3999 47.946C90.6485 47.84 90.859 47.6875 91.0313 47.4886C91.2037 47.2898 91.3263 47.0511 91.3992 46.7727H92.5725C92.5062 47.2235 92.3422 47.6295 92.0803 47.9908C91.8218 48.3487 91.4788 48.6338 91.0512 48.8459C90.627 49.0547 90.1331 49.1591 89.5697 49.1591ZM99.6968 43.0739L98.6428 43.3722C98.5766 43.1965 98.4788 43.0258 98.3495 42.8601C98.2236 42.6911 98.0512 42.5518 97.8325 42.4425C97.6137 42.3331 97.3337 42.2784 96.9923 42.2784C96.5249 42.2784 96.1355 42.3861 95.824 42.6016C95.5157 42.8137 95.3616 43.0838 95.3616 43.4119C95.3616 43.7036 95.4677 43.9339 95.6798 44.103C95.8919 44.272 96.2233 44.4129 96.6741 44.5256L97.8076 44.804C98.4904 44.9697 98.9991 45.2232 99.3339 45.5646C99.6686 45.9027 99.836 46.3385 99.836 46.8722C99.836 47.3097 99.7101 47.7008 99.4582 48.0455C99.2096 48.3902 98.8616 48.6619 98.4142 48.8608C97.9667 49.0597 97.4463 49.1591 96.8531 49.1591C96.0742 49.1591 95.4295 48.9901 94.9191 48.652C94.4087 48.3139 94.0856 47.8201 93.9497 47.1705L95.0633 46.892C95.1694 47.303 95.3699 47.6113 95.6649 47.8168C95.9632 48.0223 96.3526 48.125 96.8332 48.125C97.3801 48.125 97.8142 48.009 98.1357 47.777C98.4606 47.5417 98.623 47.2599 98.623 46.9318C98.623 46.6667 98.5302 46.4446 98.3445 46.2656C98.1589 46.0833 97.8739 45.9474 97.4894 45.858L96.2167 45.5597C95.5174 45.3939 95.0036 45.1371 94.6755 44.7891C94.3507 44.4377 94.1883 43.9986 94.1883 43.4716C94.1883 43.0407 94.3093 42.6596 94.5512 42.3281C94.7965 41.9967 95.1296 41.7365 95.5505 41.5476C95.9748 41.3587 96.4553 41.2642 96.9923 41.2642C97.748 41.2642 98.3412 41.4299 98.7721 41.7614C99.2063 42.0928 99.5145 42.5303 99.6968 43.0739Z" fill="#9291A5"/>
<defs>
<filter id="filter0_d_1243_1601" x="0" y="0" width="344" height="317" filterUnits="userSpaceOnUse" color-interpolation-filters="sRGB">
<feFlood flood-opacity="0" result="BackgroundImageFix"/>
<feColorMatrix in="SourceAlpha" type="matrix" values="0 0 0 0 0 0 0 0 0 0 0 0 0 0 0 0 0 0 127 0" result="hardAlpha"/>
<feOffset dy="2"/>
<feGaussianBlur stdDeviation="3"/>
<feComposite in2="hardAlpha" operator="out"/>
<feColorMatrix type="matrix" values="0 0 0 0 0.0509804 0 0 0 0 0.0392157 0 0 0 0 0.172549 0 0 0 0.08 0"/>
<feBlend mode="normal" in2="BackgroundImageFix" result="effect1_dropShadow_1243_1601"/>
<feBlend mode="normal" in="SourceGraphic" in2="effect1_dropShadow_1243_1601" result="shape"/>
</filter>
</defs>
</svg>
